<svg xmlns="http://www.w3.org/2000/svg" viewBox="0 0 881 43"><defs><style>.cls-1,.cls-4{fill:#fff;}.cls-1{stroke:#a2a1a1;}.cls-1,.cls-2,.cls-3{stroke-miterlimit:10;}.cls-2{fill:#a5ba75;}.cls-2,.cls-3{stroke:#a5ba75;stroke-width:2px;}.cls-3{fill:none;}</style></defs><g id="Lag_1" data-name="Lag 1"><line class="cls-1" x1="776" y1="21.5" x2="842" y2="21.5"/><circle class="cls-2" cx="21" cy="22" r="19"/><circle class="cls-3" cx="126" cy="22" r="19"/><circle class="cls-3" cx="231" cy="22" r="19"/><circle class="cls-3" cx="441" cy="22" r="19"/><circle class="cls-3" cx="546" cy="22" r="19"/><circle class="cls-3" cx="651" cy="22" r="19"/><circle class="cls-3" cx="756" cy="22" r="19"/><circle class="cls-3" cx="861" cy="22" r="19"/><circle class="cls-3" cx="336" cy="22" r="19"/><path id="Check" class="cls-4" d="M34,14.74,30.77,11,18.06,25.75l-6.25-7.49-3,3.42,6.3,7.54,0,0,1.61,1.86,1.45,1.74,0,0,.15.18Z"/><path class="cls-2" d="M145.2,21.65a19,19,0,1,1-19-19,19,19,0,0,1,19,19"/><path id="Check-2" data-name="Check" class="cls-4" d="M139.2,14.4,136,10.65,123.26,25.4,117,17.91l-3,3.42,6.3,7.55,0,0,1.61,1.86,1.45,1.73,0,0,.15.17L139.2,14.4"/><circle class="cls-2" cx="231" cy="22" r="19"/><path id="Check-3" data-name="Check" class="cls-4" d="M244,14.74,240.77,11,228.06,25.75l-6.25-7.49-3,3.42,6.3,7.54,0,0,1.61,1.86,1.45,1.74,0,0,.15.18Z"/><path class="cls-2" d="M355.47,22.23a19,19,0,1,1-19-19,19,19,0,0,1,19,19"/><path id="Check-4" data-name="Check" class="cls-4" d="M349.47,15l-3.23-3.75L333.53,26l-6.25-7.49-3,3.42,6.3,7.55,0,0,1.61,1.86,1.45,1.74,0,0,.15.17Z"/><path class="cls-2" d="M459.61,21.83a19,19,0,1,1-19-19,19,19,0,0,1,19,19"/><path id="Check-5" data-name="Check" class="cls-4" d="M453.61,14.57l-3.23-3.74L437.67,25.58l-6.25-7.49-3,3.41,6.29,7.55,0,0,1.61,1.86,1.45,1.74,0,0,.16.18Z"/><path class="cls-2" d="M564.83,21.6a19,19,0,1,1-19-19,19,19,0,0,1,19,19"/><path id="Check-6" data-name="Check" class="cls-4" d="M558.83,14.34l-3.22-3.74L542.9,25.34l-6.26-7.48-3,3.41,6.3,7.55,0,0,1.6,1.86,1.46,1.74,0,0,.15.18Z"/><path class="cls-2" d="M670.37,22.08a19,19,0,1,1-19-19,19,19,0,0,1,19,19"/><path id="Check-7" data-name="Check" class="cls-4" d="M664.37,14.83l-3.22-3.75L648.43,25.83l-6.25-7.49-3,3.42,6.3,7.55,0,0L647,31.2l1.45,1.73,0,0,.15.17Z"/><path class="cls-2" d="M775.44,22.28a19,19,0,1,1-19-19,19,19,0,0,1,19,19"/><path id="Check-8" data-name="Check" class="cls-4" d="M769.44,15l-3.22-3.74L753.51,26l-6.26-7.49-3,3.42,6.3,7.55,0,0,1.61,1.86,1.45,1.74,0,0,.15.18Z"/><path class="cls-2" d="M880,22A19,19,0,1,1,861,3a19,19,0,0,1,19,19"/><path id="Check-9" data-name="Check" class="cls-4" d="M874,14.74,870.77,11,858.06,25.75l-6.25-7.49-3,3.42,6.3,7.54,0,0,1.61,1.86,1.45,1.74,0,0,.15.18Z"/></g><g id="Lag_4" data-name="Lag 4"><line class="cls-2" x1="40.82" y1="21.5" x2="107" y2="21.5"/><line class="cls-2" x1="145.82" y1="21.5" x2="212" y2="21.5"/><line class="cls-2" x1="250.82" y1="21.5" x2="317" y2="21.5"/><line class="cls-2" x1="355.82" y1="21.5" x2="422" y2="21.5"/><line class="cls-2" x1="460.82" y1="21.5" x2="527" y2="21.5"/><line class="cls-2" x1="565.82" y1="21.5" x2="632" y2="21.5"/><line class="cls-2" x1="670.82" y1="21.5" x2="737" y2="21.5"/><line class="cls-2" x1="775.82" y1="21.5" x2="842" y2="21.5"/></g></svg>