<svg id="Lag_1" data-name="Lag 1" xmlns="http://www.w3.org/2000/svg" viewBox="0 0 881.09 43"><defs><style>.cls-1,.cls-3{fill:none;}.cls-1,.cls-4{stroke:#a2a1a1;}.cls-1,.cls-2,.cls-3,.cls-4{stroke-miterlimit:10;}.cls-2{fill:#a5ba75;}.cls-2,.cls-3{stroke:#a5ba75;stroke-width:2px;}.cls-4,.cls-5{fill:#fff;}</style></defs><g id="Lag_1-2" data-name="Lag 1"><line class="cls-1" x1="251" y1="21.5" x2="861.5" y2="21.5"/><circle class="cls-2" cx="21" cy="22" r="19"/><circle class="cls-3" cx="126" cy="22" r="19"/><circle class="cls-3" cx="231" cy="22" r="19"/><circle class="cls-4" cx="441" cy="22" r="19"/><circle class="cls-4" cx="546" cy="22" r="19"/><circle class="cls-4" cx="651" cy="22" r="19"/><circle class="cls-4" cx="756" cy="22" r="19"/><circle class="cls-4" cx="861" cy="22" r="19"/><circle class="cls-4" cx="336" cy="22" r="19"/><path id="Check" class="cls-5" d="M34,14.74,30.77,11,18.06,25.75l-6.25-7.49-3,3.42,6.3,7.54h0l1.61,1.86,1.45,1.74h0l.15.18Z"/><path class="cls-2" d="M145.2,21.65a19,19,0,1,1-19-19,19,19,0,0,1,19,19"/><path id="Check-2" class="cls-5" d="M139.2,14.4,136,10.65,123.26,25.4,117,17.91l-3,3.42,6.3,7.55h0l1.61,1.86,1.45,1.73h0l.15.17L139.2,14.4"/></g><g id="Lag_4" data-name="Lag 4"><line class="cls-3" x1="40.82" y1="21.5" x2="107" y2="21.5"/><line class="cls-3" x1="145.82" y1="21.5" x2="212" y2="21.5"/></g></svg>