<?xml version="1.0" encoding="utf-8"?>
<!-- Generator: Adobe Illustrator 24.1.1, SVG Export Plug-In . SVG Version: 6.00 Build 0)  -->
<svg version="1.1" id="Lag_1" xmlns="http://www.w3.org/2000/svg" xmlns:xlink="http://www.w3.org/1999/xlink" x="0px" y="0px"
	 viewBox="0 0 429 451" style="enable-background:new 0 0 429 451;" xml:space="preserve">
<style type="text/css">
	.st0{fill:none;}
	.st1{fill:#CC5B64;}
	.st2{fill:#A5BA73;}
	.st3{fill:#BFBCBA;}
	.st4{fill:#404F5F;}
	.st5{fill:#7CA5B8;}
	.st6{fill:#D7A458;}
</style>
<g>
	<g>
		<g>
			<path class="st0" d="M318.4,24.6h-29.9c-1.5,0-2.7,1.1-2.7,2.5c0,0.5,0.2,1,0.4,1.4c0.5,0.7,1.3,1.1,2.3,1.1h29.9
				c1,0,1.8-0.5,2.3-1.1c0.3-0.4,0.4-0.9,0.4-1.4C321.1,25.7,319.9,24.6,318.4,24.6z"/>
			<path class="st0" d="M275.7,24.6c-1.5,0-2.8,1.1-2.8,2.5c0,0.5,0.2,1,0.4,1.4c0.5,0.7,1.4,1.2,2.3,1.2c1,0,1.9-0.5,2.3-1.2
				c0.3-0.4,0.4-0.9,0.4-1.4C278.5,25.7,277.2,24.6,275.7,24.6z"/>
			<polygon class="st0" points="410.9,394.3 410.9,356.4 410.9,348.4 410.9,325.3 410.9,317.3 410.9,309.3 410.9,301.3 410.9,294.9 
				410.9,286.9 410.9,279.4 410.9,271.4 410.9,263.3 410.9,255.3 410.9,248 410.9,240 410.9,232.3 410.9,224.3 410.9,216.8 
				410.9,208.8 410.9,201.3 410.9,193.3 410.9,183.4 410.9,175.4 410.9,167.9 410.9,159.9 410.9,159.5 410.9,137.5 410.9,129.5 
				410.9,121.8 410.9,113.8 410.9,90.6 410.9,82.6 410.9,74.9 410.9,66.9 410.9,59.4 410.9,51.4 410.9,44 410.9,42.6 330.2,42.6 
				317.9,42.6 304.5,42.6 292.9,42.6 251.8,42.6 238.9,42.6 210.6,42.6 210.6,44 210.6,51.4 210.6,59.4 210.6,66.9 210.6,74.9 
				210.6,82.7 210.6,90.7 210.6,98.3 210.6,106.3 210.6,113.9 210.6,121.9 210.6,129.5 210.6,137.5 210.6,144.2 210.6,152.2 
				210.6,160 210.6,168 210.6,176.2 210.6,184.2 210.6,193.3 210.6,201.3 210.6,209.3 210.6,217.3 210.6,224.3 210.6,232.3 
				210.6,240.3 210.6,248.3 210.6,255.3 210.6,263.3 210.6,271.3 210.6,279.3 210.6,286.3 210.6,294.3 210.6,317.3 210.6,325.3 
				210.6,332.3 210.6,340.3 210.6,347.8 210.6,355.8 210.6,364.2 210.6,372.2 210.6,378.8 210.6,386.8 210.6,394.5 210.6,397.9 
				230,397.9 238,397.9 307,397.9 314.1,397.9 386.1,397.9 396.4,397.9 410.9,397.9 			"/>
			<path class="st0" d="M345.8,24.6H332c-1.5,0-2.7,1.1-2.7,2.5c0,0.5,0.2,1,0.4,1.4c0.5,0.7,1.3,1.1,2.3,1.1h13.8
				c1,0,1.8-0.5,2.3-1.1c0.3-0.4,0.4-0.9,0.4-1.4C348.6,25.7,347.3,24.6,345.8,24.6z"/>
			<path class="st0" d="M318.2,425.6c2.8-1.7,4.9-4.4,5.7-7.5c0.2-0.9,0.4-1.9,0.4-2.9c0-1.8-0.4-3.6-1.2-5.1
				c-2.1-4.3-6.9-7.3-12.4-7.3c-5.5,0-10.3,3-12.4,7.3c-0.8,1.6-1.2,3.3-1.2,5.1c0,1,0.1,2,0.4,2.9c0.8,3.1,2.9,5.8,5.7,7.5
				c2.1,1.3,4.7,2.1,7.5,2.1C313.5,427.7,316.1,426.9,318.2,425.6z"/>
			<rect x="202" y="232.3" class="st0" width="8.6" height="8"/>
			<rect x="410.9" y="183.4" class="st0" width="8.6" height="9.9"/>
			<polygon class="st0" points="410.9,159.5 419.4,159.5 419.4,151.8 417.8,151.8 417.8,143.8 419.4,143.8 419.4,137.5 410.9,137.5 
							"/>
			<polygon class="st0" points="410.9,113.8 419.4,113.8 419.4,106.3 418.4,106.3 418.4,98.3 419.4,98.3 419.4,90.6 410.9,90.6 			
				"/>
			<rect x="410.9" y="167.9" class="st0" width="8.6" height="7.5"/>
			<rect x="410.9" y="121.8" class="st0" width="8.6" height="7.7"/>
			<rect x="410.9" y="44" class="st0" width="8.6" height="7.5"/>
			<path class="st0" d="M210.6,44h-1v-8h29.3v6.6h12.9V36h41.1v6.6h11.7V36h13.4v6.6h12.3V36h89.2c-0.1-2.5-0.5-4.9-1.1-7.2h-2.5
				v-5.9c-2-3.6-4.7-6.7-8-9.3H297.5V6.1h-12.1v7.4h-53.2V6.2c-4.3,0.4-8.4,1.6-12.1,3.3v3.9h-6.3c-2.6,2-4.8,4.4-6.6,7h37.2v8h-41
				c-0.8,2.6-1.2,5.4-1.2,8.2v14.7h8.6V44z M257.4,20.5H403v8h-54.9c-0.5,0.7-1.3,1.1-2.3,1.1H332c-1,0-1.8-0.5-2.3-1.1h-9.1
				c-0.5,0.7-1.3,1.1-2.3,1.1h-29.9c-1,0-1.8-0.5-2.3-1.1H278c-0.5,0.7-1.4,1.2-2.3,1.2c-1,0-1.9-0.5-2.3-1.2h-16V20.5z"/>
			<rect x="410.9" y="59.4" class="st0" width="8.6" height="7.5"/>
			<rect x="410.9" y="74.9" class="st0" width="8.6" height="7.7"/>
			<rect x="202" y="59.4" class="st0" width="8.6" height="7.5"/>
			<rect x="410.9" y="294.9" class="st0" width="8.6" height="6.4"/>
			<rect x="410.9" y="309.3" class="st0" width="8.6" height="8"/>
			<rect x="410.9" y="279.4" class="st0" width="8.6" height="7.5"/>
			<polygon class="st0" points="410.9,348.4 419.4,348.4 419.4,340.3 414,340.3 414,332.3 419.4,332.3 419.4,325.3 410.9,325.3 			
				"/>
			<polygon class="st0" points="410.9,255.3 418,255.3 418,263.3 410.9,263.3 410.9,271.4 419.4,271.4 419.4,248 410.9,248 			"/>
			<rect x="410.9" y="216.8" class="st0" width="8.6" height="7.5"/>
			<rect x="410.9" y="232.3" class="st0" width="8.6" height="7.7"/>
			<rect x="410.9" y="201.3" class="st0" width="8.6" height="7.5"/>
			<rect x="202" y="263.3" class="st0" width="8.6" height="8"/>
			<rect x="202" y="279.3" class="st0" width="8.6" height="7"/>
			<rect x="202" y="248.3" class="st0" width="8.6" height="7"/>
			<polygon class="st0" points="410.9,394.3 419.4,394.3 419.4,386.8 419.1,386.8 419.1,378.8 419.4,378.8 419.4,372.2 414.7,372.2 
				414.7,364.2 419.4,364.2 419.4,356.4 410.9,356.4 			"/>
			<rect x="202" y="74.9" class="st0" width="8.6" height="7.7"/>
			<rect x="202" y="294.3" class="st0" width="8.6" height="23"/>
			<rect x="202" y="355.8" class="st0" width="8.6" height="8.4"/>
			<rect x="202" y="386.8" class="st0" width="8.6" height="7.7"/>
			<path class="st0" d="M334.7,418.1v-8h84c0.5-2.1,0.7-4.2,0.7-6.4v-1.5h-23.1v-4.3h-10.2v4.6h-72.1v-4.6h-7v4.6H238v-4.6H230v4.6
				h-28v1.2c0,2.2,0.3,4.3,0.7,6.4h10.1v8h-7c1.6,2.8,3.7,5.3,6.2,7.5h35v8h-18.9c2.4,0.5,4.8,0.8,7.4,0.8H386c2.5,0,5-0.3,7.4-0.8
				H259.8v-8h43.5c-2.8-1.7-4.9-4.4-5.7-7.5h-71.3v-8h72.1c2.1-4.3,6.9-7.3,12.4-7.3c5.5,0,10.3,3,12.4,7.3h1.9v8h-1.1
				c-0.8,3.1-2.9,5.8-5.7,7.5h87.2v3c4.2-2.7,7.7-6.4,10.1-10.5H334.7z"/>
			<rect x="202" y="372.2" class="st0" width="8.6" height="6.6"/>
			<rect x="202" y="340.3" class="st0" width="8.6" height="7.5"/>
			<rect x="202" y="121.9" class="st0" width="8.6" height="7.6"/>
			<rect x="202" y="106.3" class="st0" width="8.6" height="7.6"/>
			<rect x="202" y="90.7" class="st0" width="8.6" height="7.6"/>
			<rect x="202" y="137.5" class="st0" width="8.6" height="6.7"/>
			<polygon class="st0" points="210.6,184.2 204.9,184.2 204.9,176.2 210.6,176.2 210.6,168 202,168 202,193.3 210.6,193.3 			"/>
			<rect x="202" y="152.2" class="st0" width="8.6" height="7.8"/>
			<rect x="202" y="201.3" class="st0" width="8.6" height="8"/>
			<rect x="202" y="217.3" class="st0" width="8.6" height="7"/>
			<rect x="202" y="325.3" class="st0" width="8.6" height="7"/>
			<path class="st1" d="M375.3,13.5c0-6.6,0-1.7,0-7.5h-78.8v7.5H375.3z"/>
			<rect x="202" y="332.3" class="st2" width="12.3" height="8"/>
			<path class="st3" d="M290.7,13.5V5.9h-52.1c-1.2,0-2.1,0-3.3,0v7.5H290.7z"/>
			<path class="st4" d="M244.3,20.5H205c0,3.4-0.1,4.9-0.1,8h39.4V20.5z"/>
			<rect x="406.6" y="51.6" class="st5" width="13" height="8"/>
			<rect x="304.5" y="36" class="st3" width="13.4" height="6.6"/>
			<path class="st2" d="M325.2,42.6h85.2h1.8h7.3v-5.8c0-0.3,0-0.5,0-0.8h-94.2V42.6z"/>
			<rect x="245.1" y="36" class="st5" width="52.5" height="6.6"/>
			<polygon class="st1" points="238.9,42.6 238.9,36 202,36 202,42.6 202.6,42.6 203.2,42.6 			"/>
			<rect x="202" y="51.4" class="st4" width="12.3" height="8"/>
			<rect x="406.6" y="67.1" class="st1" width="13" height="8"/>
			<rect x="202" y="66.9" class="st1" width="12.3" height="8"/>
			<rect x="202" y="82.7" class="st3" width="12.3" height="8"/>
			<rect x="406.6" y="113.9" class="st3" width="13" height="8"/>
			<rect x="406.6" y="193.5" class="st3" width="13" height="8"/>
			<rect x="333.8" y="193.5" class="st3" width="31.7" height="8"/>
			<rect x="318.9" y="175.6" class="st3" width="31.7" height="8"/>
			<rect x="318.9" y="209" class="st3" width="31.7" height="8"/>
			<rect x="264.9" y="130.7" class="st3" width="31.7" height="8"/>
			<rect x="250" y="112.8" class="st3" width="31.7" height="8"/>
			<rect x="250" y="146.2" class="st3" width="31.7" height="8"/>
			<rect x="344.2" y="82.8" class="st3" width="31.7" height="8"/>
			<rect x="329.3" y="64.9" class="st3" width="31.7" height="8"/>
			<rect x="329.3" y="98.3" class="st3" width="31.7" height="8"/>
			<rect x="250.9" y="349" class="st3" width="31.7" height="8"/>
			<rect x="235.9" y="331.1" class="st3" width="31.7" height="8"/>
			<rect x="235.9" y="364.5" class="st3" width="31.7" height="8"/>
			<rect x="202" y="113.9" class="st1" width="12.3" height="8"/>
			<rect x="202" y="98.3" class="st6" width="12.3" height="8"/>
			<rect x="406.6" y="82.7" class="st5" width="13" height="8"/>
			<rect x="202" y="129.5" class="st2" width="12.3" height="8"/>
			<rect x="202" y="144.2" class="st3" width="12.3" height="8"/>
			<rect x="406.6" y="129.6" class="st1" width="13" height="8"/>
			<rect x="406.6" y="98.4" class="st1" width="13" height="8"/>
			<rect x="202" y="160" class="st1" width="12.3" height="8"/>
			<rect x="202" y="176.2" class="st2" width="12.3" height="8"/>
			<rect x="202" y="240.3" class="st1" width="12.3" height="8"/>
			<path class="st5" d="M247.1,425.6h-33.3c0,5.8,0,4.6,0,8h33.3V425.6z"/>
			<rect x="202" y="255.3" class="st6" width="12.3" height="8"/>
			<rect x="202" y="224.3" class="st3" width="12.3" height="8"/>
			<rect x="202" y="271.3" class="st5" width="12.3" height="8"/>
			<rect x="202" y="286.3" class="st4" width="12.3" height="8"/>
			<rect x="202" y="193.3" class="st2" width="12.3" height="8"/>
			<rect x="202" y="209.3" class="st5" width="12.3" height="8"/>
			<rect x="406.6" y="209" class="st5" width="13" height="8"/>
			<rect x="406.6" y="224.4" class="st1" width="13" height="8"/>
			<rect x="406.6" y="240.2" class="st3" width="13" height="8"/>
			<rect x="406.6" y="255.5" class="st5" width="13" height="8"/>
			<rect x="406.6" y="287" class="st6" width="13" height="8"/>
			<rect x="406.6" y="317.5" class="st6" width="13" height="8"/>
			<rect x="406.6" y="332.5" class="st6" width="13" height="8"/>
			<rect x="238" y="394.3" class="st3" width="69.1" height="8.2"/>
			<rect x="406.6" y="348.6" class="st3" width="13" height="8"/>
			<rect x="202" y="317.3" class="st1" width="12.3" height="8"/>
			<rect x="202" y="347.8" class="st5" width="12.3" height="8"/>
			<rect x="202" y="364.2" class="st5" width="12.3" height="8"/>
			<rect x="202" y="378.8" class="st1" width="12.3" height="8"/>
			<path class="st1" d="M298.3,410.1h-72.1v8h72.1c0-1,0-1.9,0-2.9C298.3,413.4,298.3,412.7,298.3,410.1z"/>
			<polygon class="st3" points="230,394.5 214.6,394.5 210.6,394.5 202,394.5 202,402.5 230,402.5 			"/>
			<path class="st5" d="M219.9,410.1h-13.6c0,3.2,0,5.1,0,8h13.6V410.1z"/>
			<rect x="406.6" y="271.5" class="st1" width="13" height="8"/>
			<rect x="406.6" y="175.6" class="st6" width="13" height="8"/>
			<rect x="406.6" y="301.5" class="st5" width="13" height="8"/>
			<rect x="406.6" y="160" class="st5" width="13" height="8"/>
			<rect x="406.6" y="143.9" class="st5" width="13" height="8"/>
			<rect x="406.6" y="378.9" class="st4" width="13" height="8"/>
			<rect x="322.6" y="394.3" class="st1" width="63.6" height="8.2"/>
			<rect x="406.6" y="364.3" class="st1" width="13" height="8"/>
			<polygon class="st1" points="407.4,394.3 396.4,394.3 396.4,402.3 419.4,402.3 419.4,394.3 410.9,394.3 			"/>
			<path class="st2" d="M364,418.1h54.2c0-2.9,0-5,0-8H364V418.1z"/>
		</g>
		<rect x="329.6" y="410.1" class="st1" width="26.1" height="8"/>
		<rect x="290.5" y="410.1" class="st1" width="7.5" height="8"/>
		<rect x="202" y="301.8" class="st1" width="12.3" height="8"/>
		<rect x="216.2" y="6.1" class="st5" width="11.3" height="7.4"/>
		<rect x="380" y="6.1" class="st3" width="23" height="7.4"/>
		<rect x="257.4" y="20.5" class="st2" width="15.5" height="8.2"/>
		<rect x="278.5" y="20.5" class="st1" width="34.2" height="8"/>
		<rect x="320.6" y="20.5" class="st6" width="9.1" height="8"/>
		<rect x="348" y="20.5" class="st5" width="65.6" height="8"/>
	</g>
	<path class="st1" d="M389.3,441H236.2v8h151.4c-0.5-0.9-0.8-1.9-0.8-2.9C386.7,444.3,387.7,442.6,389.3,441z"/>
	<rect x="380.5" y="441" class="st1" width="15.9" height="8"/>
	<rect x="259.8" y="425.6" class="st6" width="48.9" height="8"/>
	<rect x="317.5" y="425.6" class="st4" width="87.9" height="8"/>
</g>
<g>
	<g>
		<g>
			<path class="st0" d="M90.7,132H68.4c-1.1,0-2,0.8-2,1.9c0,0.4,0.1,0.7,0.3,1c0.4,0.5,1,0.8,1.7,0.8h22.4c0.7,0,1.3-0.3,1.7-0.8
				c0.2-0.3,0.3-0.6,0.3-1C92.8,132.8,91.9,132,90.7,132z"/>
			<path class="st0" d="M58.8,131.9c-1.1,0-2.1,0.9-2.1,1.9c0,0.4,0.1,0.7,0.3,1c0.4,0.5,1,0.9,1.8,0.9c0.7,0,1.4-0.4,1.8-0.9
				c0.2-0.3,0.3-0.6,0.3-1C60.9,132.8,60,131.9,58.8,131.9z"/>
			<polygon class="st0" points="159.8,408.1 159.8,379.8 159.8,373.8 159.8,356.6 159.8,350.6 159.8,344.6 159.8,338.7 159.8,333.9 
				159.8,327.9 159.8,322.3 159.8,316.3 159.8,310.3 159.8,304.3 159.8,298.9 159.8,292.9 159.8,287.1 159.8,281.1 159.8,275.5 
				159.8,269.6 159.8,264 159.8,258 159.8,250.6 159.8,244.6 159.8,239 159.8,233 159.8,232.7 159.8,216.3 159.8,210.3 159.8,204.5 
				159.8,198.6 159.8,181.3 159.8,175.3 159.8,169.5 159.8,163.6 159.8,158 159.8,152 159.8,146.4 159.8,145.4 99.6,145.4 
				90.4,145.4 80.4,145.4 71.7,145.4 41,145.4 31.4,145.4 10.2,145.4 10.2,146.4 10.2,152 10.2,158 10.2,163.6 10.2,169.5 
				10.2,175.3 10.2,181.3 10.2,187 10.2,193 10.2,198.6 10.2,204.6 10.2,210.3 10.2,216.3 10.2,221.3 10.2,227.2 10.2,233.1 
				10.2,239.1 10.2,245.2 10.2,251.2 10.2,258 10.2,264 10.2,269.9 10.2,275.9 10.2,281.1 10.2,287.1 10.2,293.1 10.2,299.1 
				10.2,304.3 10.2,310.3 10.2,316.3 10.2,322.2 10.2,327.5 10.2,333.4 10.2,350.6 10.2,356.6 10.2,361.8 10.2,367.8 10.2,373.4 
				10.2,379.4 10.2,385.6 10.2,391.6 10.2,396.5 10.2,402.5 10.2,408.3 10.2,410.9 24.7,410.9 30.7,410.9 82.3,410.9 87.5,410.9 
				141.4,410.9 149,410.9 159.8,410.9 			"/>
			<path class="st0" d="M111.2,132h-10.3c-1.1,0-2,0.8-2,1.9c0,0.4,0.1,0.7,0.3,1c0.4,0.5,1,0.8,1.7,0.8h10.3c0.7,0,1.3-0.3,1.7-0.8
				c0.2-0.3,0.3-0.6,0.3-1C113.3,132.8,112.4,132,111.2,132z"/>
			<path class="st0" d="M90.6,431.5c2.1-1.3,3.7-3.3,4.3-5.6c0.2-0.7,0.3-1.4,0.3-2.2c0-1.4-0.3-2.7-0.9-3.8
				c-1.6-3.2-5.1-5.5-9.3-5.5c-4.1,0-7.7,2.2-9.3,5.5c-0.6,1.2-0.9,2.5-0.9,3.8c0,0.7,0.1,1.5,0.3,2.2c0.6,2.3,2.2,4.3,4.3,5.6
				c1.6,1,3.5,1.5,5.6,1.5C87.1,433.1,89,432.5,90.6,431.5z"/>
			<rect x="3.8" y="287.1" class="st0" width="6.4" height="6"/>
			<rect x="159.8" y="250.6" class="st0" width="6.4" height="7.4"/>
			<polygon class="st0" points="159.8,232.7 166.2,232.7 166.2,227 165,227 165,221 166.2,221 166.2,216.3 159.8,216.3 			"/>
			<polygon class="st0" points="159.8,198.6 166.2,198.6 166.2,193 165.4,193 165.4,187 166.2,187 166.2,181.3 159.8,181.3 			"/>
			<rect x="159.8" y="239" class="st0" width="6.4" height="5.6"/>
			<rect x="159.8" y="204.5" class="st0" width="6.4" height="5.8"/>
			<rect x="159.8" y="146.4" class="st0" width="6.4" height="5.6"/>
			<path class="st0" d="M10.2,146.4H9.5v-6h21.9v4.9H41v-4.9h30.7v4.9h8.7v-4.9h10v4.9h9.2v-4.9h66.7c-0.1-1.9-0.3-3.7-0.9-5.4h-1.9
				v-4.4c-1.5-2.7-3.5-5-6-6.9H75.1v-5.5h-9.1v5.5H26.3v-5.4c-3.2,0.3-6.3,1.2-9.1,2.5v2.9h-4.7c-1.9,1.5-3.6,3.3-4.9,5.2h27.8v6
				H4.7c-0.6,2-0.9,4-0.9,6.2v11h6.4V146.4z M45.2,128.9H154v6h-41c-0.4,0.5-1,0.8-1.7,0.8h-10.3c-0.7,0-1.3-0.3-1.7-0.8h-6.8
				c-0.4,0.5-1,0.8-1.7,0.8H68.4c-0.7,0-1.3-0.3-1.7-0.8h-6.1c-0.4,0.5-1,0.9-1.8,0.9c-0.7,0-1.4-0.4-1.8-0.9H45.2V128.9z"/>
			<rect x="159.8" y="158" class="st0" width="6.4" height="5.6"/>
			<rect x="159.8" y="169.5" class="st0" width="6.4" height="5.7"/>
			<rect x="3.8" y="158" class="st0" width="6.4" height="5.6"/>
			<rect x="159.8" y="333.9" class="st0" width="6.4" height="4.8"/>
			<rect x="159.8" y="344.6" class="st0" width="6.4" height="6"/>
			<rect x="159.8" y="322.3" class="st0" width="6.4" height="5.6"/>
			<polygon class="st0" points="159.8,373.8 166.2,373.8 166.2,367.8 162.2,367.8 162.2,361.8 166.2,361.8 166.2,356.6 159.8,356.6 
							"/>
			<polygon class="st0" points="159.8,304.3 165.1,304.3 165.1,310.3 159.8,310.3 159.8,316.3 166.2,316.3 166.2,298.9 159.8,298.9 
							"/>
			<rect x="159.8" y="275.5" class="st0" width="6.4" height="5.6"/>
			<rect x="159.8" y="287.1" class="st0" width="6.4" height="5.8"/>
			<rect x="159.8" y="264" class="st0" width="6.4" height="5.6"/>
			<rect x="3.8" y="310.3" class="st0" width="6.4" height="6"/>
			<rect x="3.8" y="322.2" class="st0" width="6.4" height="5.2"/>
			<rect x="3.8" y="299.1" class="st0" width="6.4" height="5.2"/>
			<polygon class="st0" points="159.8,408.1 166.2,408.1 166.2,402.5 166,402.5 166,396.5 166.2,396.5 166.2,391.6 162.7,391.6 
				162.7,385.6 166.2,385.6 166.2,379.8 159.8,379.8 			"/>
			<rect x="3.8" y="169.5" class="st0" width="6.4" height="5.8"/>
			<rect x="3.8" y="333.4" class="st0" width="6.4" height="17.2"/>
			<rect x="3.8" y="379.4" class="st0" width="6.4" height="6.2"/>
			<rect x="3.8" y="402.5" class="st0" width="6.4" height="5.8"/>
			<path class="st0" d="M103,425.9v-6h62.7c0.4-1.5,0.5-3.1,0.5-4.8v-1.1H149v-3.2h-7.6v3.4H87.5v-3.4h-5.2v3.4H30.7v-3.4h-5.9v3.4
				H3.8v0.9c0,1.6,0.2,3.2,0.5,4.8h7.6v6H6.7c1.2,2.1,2.8,4,4.6,5.6h26.1v6H23.3c1.8,0.4,3.6,0.6,5.5,0.6h112.4
				c1.9,0,3.7-0.2,5.5-0.6H46.9v-6h32.5c-2.1-1.3-3.7-3.3-4.3-5.6H21.9v-6h53.9c1.6-3.2,5.1-5.5,9.3-5.5c4.1,0,7.7,2.2,9.3,5.5h1.4
				v6h-0.8c-0.6,2.3-2.2,4.3-4.3,5.6h65.1v2.3c3.1-2.1,5.7-4.7,7.6-7.9H103z"/>
			<rect x="3.8" y="391.6" class="st0" width="6.4" height="4.9"/>
			<rect x="3.8" y="367.8" class="st0" width="6.4" height="5.6"/>
			<rect x="3.8" y="204.6" class="st0" width="6.4" height="5.7"/>
			<rect x="3.8" y="193" class="st0" width="6.4" height="5.7"/>
			<rect x="3.8" y="181.3" class="st0" width="6.4" height="5.7"/>
			<rect x="3.8" y="216.3" class="st0" width="6.4" height="5"/>
			<polygon class="st0" points="10.2,251.2 5.9,251.2 5.9,245.2 10.2,245.2 10.2,239.1 3.8,239.1 3.8,258 10.2,258 			"/>
			<rect x="3.8" y="227.2" class="st0" width="6.4" height="5.8"/>
			<rect x="3.8" y="264" class="st0" width="6.4" height="6"/>
			<rect x="3.8" y="275.9" class="st0" width="6.4" height="5.2"/>
			<rect x="3.8" y="356.6" class="st0" width="6.4" height="5.2"/>
			<path class="st1" d="M133.3,123.6c0-4.9,0-1.3,0-5.6H74.4v5.6H133.3z"/>
			<rect x="3.8" y="361.8" class="st2" width="9.2" height="6"/>
			<path class="st3" d="M70.1,123.6V118H31.2c-0.9,0-1.6,0-2.5,0v5.6H70.1z"/>
			<path class="st4" d="M35.4,128.9H6c0,2.5,0,3.7,0,6h29.4V128.9z"/>
			<rect x="156.7" y="152.1" class="st5" width="9.7" height="6"/>
			<rect x="80.4" y="140.4" class="st3" width="10" height="4.9"/>
			<path class="st2" d="M95.8,145.4h63.6h1.3h5.4V141c0-0.2,0-0.4,0-0.6H95.8V145.4z"/>
			<rect x="36" y="140.4" class="st5" width="39.2" height="4.9"/>
			<polygon class="st1" points="31.4,145.4 31.4,140.4 3.8,140.4 3.8,145.4 4.2,145.4 4.7,145.4 			"/>
			<rect x="3.8" y="152" class="st4" width="9.2" height="6"/>
			<rect x="156.7" y="163.7" class="st1" width="9.7" height="6"/>
			<rect x="3.8" y="163.6" class="st1" width="9.2" height="6"/>
			<rect x="3.8" y="175.3" class="st3" width="9.2" height="6"/>
			<rect x="156.7" y="198.7" class="st3" width="9.7" height="6"/>
			<rect x="156.7" y="258.1" class="st3" width="9.7" height="6"/>
			<rect x="102.2" y="258.1" class="st3" width="23.7" height="6"/>
			<rect x="91.1" y="244.7" class="st3" width="23.7" height="6"/>
			<rect x="91.1" y="269.7" class="st3" width="23.7" height="6"/>
			<rect x="50.8" y="211.2" class="st3" width="23.7" height="6"/>
			<rect x="39.7" y="197.8" class="st3" width="23.7" height="6"/>
			<rect x="39.7" y="222.8" class="st3" width="23.7" height="6"/>
			<rect x="110" y="175.4" class="st3" width="23.7" height="6"/>
			<rect x="98.9" y="162" class="st3" width="23.7" height="6"/>
			<rect x="98.9" y="187" class="st3" width="23.7" height="6"/>
			<rect x="40.3" y="374.3" class="st3" width="23.7" height="6"/>
			<rect x="29.1" y="360.9" class="st3" width="23.7" height="6"/>
			<rect x="29.1" y="385.9" class="st3" width="23.7" height="6"/>
			<rect x="3.8" y="198.6" class="st1" width="9.2" height="6"/>
			<rect x="3.8" y="187" class="st6" width="9.2" height="6"/>
			<rect x="156.7" y="175.4" class="st5" width="9.7" height="6"/>
			<rect x="3.8" y="210.3" class="st2" width="9.2" height="6"/>
			<rect x="3.8" y="221.3" class="st3" width="9.2" height="6"/>
			<rect x="156.7" y="210.4" class="st1" width="9.7" height="6"/>
			<rect x="156.7" y="187.1" class="st1" width="9.7" height="6"/>
			<rect x="3.8" y="233.1" class="st1" width="9.2" height="6"/>
			<rect x="3.8" y="245.2" class="st2" width="9.2" height="6"/>
			<rect x="3.8" y="293.1" class="st1" width="9.2" height="6"/>
			<path class="st5" d="M37.5,431.5H12.6c0,4.4,0,3.4,0,6h24.9V431.5z"/>
			<rect x="3.8" y="304.3" class="st6" width="9.2" height="6"/>
			<rect x="3.8" y="281.1" class="st3" width="9.2" height="6"/>
			<rect x="3.8" y="316.3" class="st5" width="9.2" height="6"/>
			<rect x="3.8" y="327.5" class="st4" width="9.2" height="6"/>
			<rect x="3.8" y="258" class="st2" width="9.2" height="6"/>
			<rect x="3.8" y="269.9" class="st5" width="9.2" height="6"/>
			<rect x="156.7" y="269.7" class="st5" width="9.7" height="6"/>
			<rect x="156.7" y="281.2" class="st1" width="9.7" height="6"/>
			<rect x="156.7" y="293" class="st3" width="9.7" height="6"/>
			<rect x="156.7" y="304.4" class="st5" width="9.7" height="6"/>
			<rect x="156.7" y="328" class="st6" width="9.7" height="6"/>
			<rect x="156.7" y="350.8" class="st6" width="9.7" height="6"/>
			<rect x="156.7" y="361.9" class="st6" width="9.7" height="6"/>
			<rect x="30.7" y="408.1" class="st3" width="51.6" height="6.2"/>
			<rect x="156.7" y="374" class="st3" width="9.7" height="6"/>
			<rect x="3.8" y="350.6" class="st1" width="9.2" height="6"/>
			<rect x="3.8" y="373.4" class="st5" width="9.2" height="6"/>
			<rect x="3.8" y="385.6" class="st5" width="9.2" height="6"/>
			<rect x="3.8" y="396.5" class="st1" width="9.2" height="6"/>
			<path class="st1" d="M75.8,419.9H21.9v6h53.9c0-0.8,0-1.4,0-2.2C75.8,422.4,75.8,421.9,75.8,419.9z"/>
			<polygon class="st3" points="24.7,408.3 13.2,408.3 10.2,408.3 3.8,408.3 3.8,414.3 24.7,414.3 			"/>
			<path class="st5" d="M17.2,419.9H7c0,2.4,0,3.8,0,6h10.2V419.9z"/>
			<rect x="156.7" y="316.4" class="st1" width="9.7" height="6"/>
			<rect x="156.7" y="244.7" class="st6" width="9.7" height="6"/>
			<rect x="156.7" y="338.8" class="st5" width="9.7" height="6"/>
			<rect x="156.7" y="233.1" class="st5" width="9.7" height="6"/>
			<rect x="156.7" y="221.1" class="st5" width="9.7" height="6"/>
			<rect x="156.7" y="396.6" class="st4" width="9.7" height="6"/>
			<rect x="93.9" y="408.1" class="st1" width="47.5" height="6.2"/>
			<rect x="156.7" y="385.7" class="st1" width="9.7" height="6"/>
			<polygon class="st1" points="157.2,408.1 149,408.1 149,414.1 166.2,414.1 166.2,408.1 159.8,408.1 			"/>
			<path class="st2" d="M124.8,425.9h40.5c0-2.2,0-3.7,0-6h-40.4V425.9z"/>
		</g>
		<rect x="99.1" y="419.9" class="st1" width="19.5" height="6"/>
		<rect x="69.9" y="419.9" class="st1" width="5.6" height="6"/>
		<rect x="3.8" y="339" class="st1" width="9.2" height="6"/>
		<rect x="14.4" y="118.1" class="st5" width="8.4" height="5.5"/>
		<rect x="136.8" y="118.1" class="st3" width="17.2" height="5.5"/>
		<rect x="45.2" y="128.9" class="st2" width="11.6" height="6.2"/>
		<rect x="60.9" y="128.9" class="st1" width="25.5" height="6"/>
		<rect x="92.4" y="128.9" class="st6" width="6.8" height="6"/>
		<rect x="112.9" y="128.9" class="st5" width="49" height="6"/>
	</g>
	<path class="st1" d="M143.7,443H29.3v6h113.1c-0.4-0.7-0.6-1.4-0.6-2.2C141.8,445.5,142.5,444.2,143.7,443z"/>
	<rect x="137.2" y="443" class="st1" width="11.8" height="6"/>
	<rect x="46.9" y="431.5" class="st6" width="36.6" height="6"/>
	<rect x="90.1" y="431.5" class="st4" width="65.7" height="6"/>
</g>
</svg>
