<?xml version="1.0" encoding="utf-8"?>
<!-- Generator: Adobe Illustrator 24.1.1, SVG Export Plug-In . SVG Version: 6.00 Build 0)  -->
<svg version="1.1" id="Lag_1" xmlns="http://www.w3.org/2000/svg" xmlns:xlink="http://www.w3.org/1999/xlink" x="0px" y="0px"
	 viewBox="0 0 800 800" style="enable-background:new 0 0 800 800;" xml:space="preserve">
<style type="text/css">
	.st0{fill:#A5BA73;}
</style>
<g>
	<rect x="315.61" y="469" class="st0" width="64.87" height="8"/>
	<rect x="428.92" y="469" class="st0" width="64.87" height="8"/>
	<rect x="448.97" y="453" class="st0" width="44.82" height="8"/>
	<rect x="423.06" y="485" class="st0" width="44.82" height="8"/>
	<rect x="343.38" y="453" class="st0" width="99.77" height="8"/>
	<rect x="315.61" y="453" class="st0" width="21.25" height="8"/>
	<rect x="371.02" y="437" class="st0" width="29.81" height="8"/>
	<rect x="472.55" y="485" class="st0" width="21.25" height="8"/>
	<rect x="385.08" y="469" class="st0" width="39.72" height="8"/>
	<rect x="315.61" y="485" class="st0" width="37.2" height="8"/>
	<rect x="355.95" y="485" class="st0" width="63.79" height="8"/>
	<rect x="315.61" y="437" class="st0" width="50.01" height="8"/>
	<rect x="404.94" y="437" class="st0" width="88.85" height="8"/>
	<rect x="315.61" y="421" class="st0" width="27.78" height="8"/>
	<rect x="348.04" y="421" class="st0" width="82.8" height="8"/>
	<rect x="411" y="421" class="st0" width="82.8" height="8"/>
	<rect x="315.61" y="405" class="st0" width="64.87" height="8"/>
	<rect x="385.08" y="405" class="st0" width="108.71" height="8"/>
	<rect x="342.52" y="389" class="st0" width="71.27" height="8"/>
	<rect x="419.06" y="389" class="st0" width="74.73" height="8"/>
	<rect x="315.61" y="389" class="st0" width="21.25" height="8"/>
	<rect x="315.61" y="373" class="st0" width="178.19" height="8"/>
	<rect x="451.8" y="357" class="st0" width="41.99" height="8"/>
	<rect x="404.7" y="341" class="st0" width="89.09" height="8"/>
	<rect x="315.52" y="357" class="st0" width="86.31" height="8"/>
	<rect x="315.52" y="341" class="st0" width="23.29" height="8"/>
	<rect x="344.55" y="341" class="st0" width="54.75" height="8"/>
	<rect x="461.5" y="325" class="st0" width="32.29" height="8"/>
	<rect x="425.36" y="325" class="st0" width="32.29" height="8"/>
	<rect x="407.62" y="357" class="st0" width="38.82" height="8"/>
	<rect x="362.4" y="325" class="st0" width="58.45" height="8"/>
	<rect x="315.52" y="325" class="st0" width="40.68" height="8"/>
	<rect x="438.36" y="293" class="st0" width="55.44" height="8"/>
	<rect x="315.52" y="293" class="st0" width="119.79" height="8"/>
	<rect x="398.66" y="277" class="st0" width="88.72" height="8"/>
	<rect x="320.49" y="277" class="st0" width="75.12" height="8"/>
	<rect x="328.3" y="261" class="st0" width="27.89" height="8"/>
	<rect x="452.97" y="261" class="st0" width="27.89" height="8"/>
	<rect x="445.39" y="245" class="st0" width="20.41" height="8"/>
	<rect x="448.39" y="213" class="st0" width="8" height="8"/>
	<rect x="456.39" y="197" class="st0" width="8" height="8"/>
	<rect x="352.19" y="213" class="st0" width="8" height="8"/>
	<rect x="346.66" y="197" class="st0" width="8" height="8"/>
	<rect x="344.15" y="245" class="st0" width="20.41" height="8"/>
	<rect x="375.4" y="261" class="st0" width="58.43" height="8"/>
	<rect x="371.49" y="245" class="st0" width="66.41" height="8"/>
	<rect x="361.29" y="229" class="st0" width="84.09" height="8"/>
	<rect x="363.36" y="501" class="st0" width="24.35" height="8"/>
	<rect x="347.9" y="501" class="st0" width="11.23" height="8"/>
	<rect x="347.9" y="517" class="st0" width="39.81" height="8"/>
	<rect x="347.9" y="533" class="st0" width="39.81" height="8"/>
	<rect x="437.69" y="501" class="st0" width="22.86" height="8"/>
	<rect x="420.74" y="501" class="st0" width="13.82" height="8"/>
	<rect x="420.74" y="517" class="st0" width="39.81" height="8"/>
	<rect x="420.74" y="533" class="st0" width="39.81" height="8"/>
	<rect x="420.74" y="549" class="st0" width="39.36" height="8"/>
	<rect x="262.05" y="389" class="st0" width="39.81" height="8"/>
	<rect x="262.05" y="421" class="st0" width="39.81" height="8"/>
	<rect x="262.05" y="405" class="st0" width="39.81" height="8"/>
	<rect x="266.68" y="437" class="st0" width="31.81" height="8"/>
	<rect x="506.52" y="389" class="st0" width="39.81" height="8"/>
	<rect x="506.52" y="405" class="st0" width="39.81" height="8"/>
	<rect x="506.52" y="421" class="st0" width="39.81" height="8"/>
	<rect x="511.14" y="437" class="st0" width="31.81" height="8"/>
	<rect x="506.52" y="373" class="st0" width="39.81" height="8"/>
	<rect x="506.52" y="357" class="st0" width="39.81" height="8"/>
	<rect x="506.52" y="341" class="st0" width="39.81" height="8"/>
	<rect x="511.14" y="325" class="st0" width="31.81" height="8"/>
	<rect x="262.05" y="373" class="st0" width="39.81" height="8"/>
	<rect x="278.77" y="357" class="st0" width="23.09" height="8"/>
	<rect x="262.05" y="341" class="st0" width="39.81" height="8"/>
	<rect x="261.68" y="357" class="st0" width="14.62" height="8"/>
	<rect x="266.68" y="325" class="st0" width="31.81" height="8"/>
	<rect x="348.62" y="549" class="st0" width="39.08" height="8"/>
	<rect x="359.12" y="565" class="st0" width="17.45" height="8"/>
	<rect x="433.2" y="565" class="st0" width="17.45" height="8"/>
</g>
</svg>
