<svg id="Lag_1" data-name="Lag 1" xmlns="http://www.w3.org/2000/svg" viewBox="0 0 284.65 376"><defs><style>.cls-1{fill:#a5ba73;}</style></defs><rect class="cls-1" x="53.93" y="272" width="64.87" height="8"/><rect class="cls-1" x="167.24" y="272" width="64.87" height="8"/><rect class="cls-1" x="187.29" y="256" width="44.82" height="8"/><rect class="cls-1" x="161.38" y="288" width="44.82" height="8"/><rect class="cls-1" x="81.7" y="256" width="99.77" height="8"/><rect class="cls-1" x="53.93" y="256" width="21.25" height="8"/><rect class="cls-1" x="109.34" y="240" width="29.81" height="8"/><rect class="cls-1" x="210.87" y="288" width="21.25" height="8"/><rect class="cls-1" x="123.4" y="272" width="39.72" height="8"/><rect class="cls-1" x="53.93" y="288" width="37.2" height="8"/><rect class="cls-1" x="94.27" y="288" width="63.79" height="8"/><rect class="cls-1" x="53.93" y="240" width="50.01" height="8"/><rect class="cls-1" x="143.26" y="240" width="88.85" height="8"/><rect class="cls-1" x="53.93" y="224" width="27.78" height="8"/><rect class="cls-1" x="86.36" y="224" width="82.8" height="8"/><rect class="cls-1" x="149.32" y="224" width="82.8" height="8"/><rect class="cls-1" x="53.93" y="208" width="64.87" height="8"/><rect class="cls-1" x="123.4" y="208" width="108.71" height="8"/><rect class="cls-1" x="80.84" y="192" width="71.27" height="8"/><rect class="cls-1" x="157.38" y="192" width="74.73" height="8"/><rect class="cls-1" x="53.93" y="192" width="21.25" height="8"/><rect class="cls-1" x="53.93" y="176" width="178.19" height="8"/><rect class="cls-1" x="190.12" y="160" width="41.99" height="8"/><rect class="cls-1" x="143.02" y="144" width="89.09" height="8"/><rect class="cls-1" x="53.84" y="160" width="86.31" height="8"/><rect class="cls-1" x="53.84" y="144" width="23.29" height="8"/><rect class="cls-1" x="82.87" y="144" width="54.75" height="8"/><rect class="cls-1" x="199.82" y="128" width="32.29" height="8"/><rect class="cls-1" x="163.68" y="128" width="32.29" height="8"/><rect class="cls-1" x="145.94" y="160" width="38.82" height="8"/><rect class="cls-1" x="100.72" y="128" width="58.45" height="8"/><rect class="cls-1" x="53.84" y="128" width="40.68" height="8"/><rect class="cls-1" x="176.68" y="96" width="55.44" height="8"/><rect class="cls-1" x="53.84" y="96" width="119.79" height="8"/><rect class="cls-1" x="136.98" y="80" width="88.72" height="8"/><rect class="cls-1" x="58.81" y="80" width="75.12" height="8"/><rect class="cls-1" x="66.62" y="64" width="27.89" height="8"/><rect class="cls-1" x="191.29" y="64" width="27.89" height="8"/><rect class="cls-1" x="183.71" y="48" width="20.41" height="8"/><rect class="cls-1" x="186.71" y="16" width="8" height="8"/><rect class="cls-1" x="194.71" width="8" height="8"/><rect class="cls-1" x="90.51" y="16" width="8" height="8"/><rect class="cls-1" x="84.98" width="8" height="8"/><rect class="cls-1" x="82.47" y="48" width="20.41" height="8"/><rect class="cls-1" x="113.72" y="64" width="58.43" height="8"/><rect class="cls-1" x="109.81" y="48" width="66.41" height="8"/><rect class="cls-1" x="99.61" y="32" width="84.09" height="8"/><rect class="cls-1" x="101.68" y="304" width="24.35" height="8"/><rect class="cls-1" x="86.22" y="304" width="11.23" height="8"/><rect class="cls-1" x="86.22" y="320" width="39.81" height="8"/><rect class="cls-1" x="86.22" y="336" width="39.81" height="8"/><rect class="cls-1" x="176.01" y="304" width="22.86" height="8"/><rect class="cls-1" x="159.06" y="304" width="13.82" height="8"/><rect class="cls-1" x="159.06" y="320" width="39.81" height="8"/><rect class="cls-1" x="159.06" y="336" width="39.81" height="8"/><rect class="cls-1" x="159.06" y="352" width="39.36" height="8"/><rect class="cls-1" x="0.37" y="192" width="39.81" height="8"/><rect class="cls-1" x="0.37" y="224" width="39.81" height="8"/><rect class="cls-1" x="0.37" y="208" width="39.81" height="8"/><rect class="cls-1" x="5" y="240" width="31.81" height="8"/><rect class="cls-1" x="244.84" y="192" width="39.81" height="8"/><rect class="cls-1" x="244.84" y="208" width="39.81" height="8"/><rect class="cls-1" x="244.84" y="224" width="39.81" height="8"/><rect class="cls-1" x="249.46" y="240" width="31.81" height="8"/><rect class="cls-1" x="244.84" y="176" width="39.81" height="8"/><rect class="cls-1" x="244.84" y="160" width="39.81" height="8"/><rect class="cls-1" x="244.84" y="144" width="39.81" height="8"/><rect class="cls-1" x="249.46" y="128" width="31.81" height="8"/><rect class="cls-1" x="0.37" y="176" width="39.81" height="8"/><rect class="cls-1" x="17.09" y="160" width="23.09" height="8"/><rect class="cls-1" x="0.37" y="144" width="39.81" height="8"/><rect class="cls-1" y="160" width="14.62" height="8"/><rect class="cls-1" x="5" y="128" width="31.81" height="8"/><rect class="cls-1" x="86.94" y="352" width="39.08" height="8"/><rect class="cls-1" x="97.44" y="368" width="17.45" height="8"/><rect class="cls-1" x="171.52" y="368" width="17.45" height="8"/></svg>