<?xml version="1.0" encoding="utf-8"?>
<!-- Generator: Adobe Illustrator 24.1.1, SVG Export Plug-In . SVG Version: 6.00 Build 0)  -->
<svg version="1.1" id="Lag_1" xmlns="http://www.w3.org/2000/svg" xmlns:xlink="http://www.w3.org/1999/xlink" x="0px" y="0px"
	 viewBox="0 0 800 800" style="enable-background:new 0 0 800 800;" xml:space="preserve">
<style type="text/css">
	.st0{fill:#404F5F;}
</style>
<g>
	<rect x="253.41" y="529" class="st0" width="29.64" height="8"/>
	<rect x="358.87" y="529" class="st0" width="29.64" height="8"/>
	<rect x="310.62" y="514" class="st0" width="25.44" height="8"/>
	<rect x="238.59" y="514" class="st0" width="65.2" height="8"/>
	<rect x="332.63" y="499" class="st0" width="86.4" height="8"/>
	<rect x="223.52" y="499" class="st0" width="106.21" height="8"/>
	<rect x="215.32" y="484" class="st0" width="84.64" height="8"/>
	<rect x="303.79" y="484" class="st0" width="125.43" height="8"/>
	<rect x="333.55" y="469" class="st0" width="104.31" height="8"/>
	<rect x="205.99" y="469" class="st0" width="124.27" height="8"/>
	<rect x="380.45" y="454" class="st0" width="64.5" height="8"/>
	<rect x="285.6" y="454" class="st0" width="91.3" height="8"/>
	<rect x="198.9" y="454" class="st0" width="83.28" height="8"/>
	<rect x="257.06" y="439" class="st0" width="140.39" height="8"/>
	<rect x="401.53" y="439" class="st0" width="31.67" height="8"/>
	<rect x="194.02" y="439" class="st0" width="59.83" height="8"/>
	<rect x="188.92" y="424" class="st0" width="40.81" height="8"/>
	<rect x="234.11" y="424" class="st0" width="142.78" height="8"/>
	<rect x="382.43" y="424" class="st0" width="35.49" height="8"/>
	<rect x="278.33" y="409" class="st0" width="132.5" height="8"/>
	<rect x="185.82" y="409" class="st0" width="89.88" height="8"/>
	<rect x="250.67" y="394" class="st0" width="99.95" height="8"/>
	<rect x="183.05" y="394" class="st0" width="64.12" height="8"/>
	<rect x="355.52" y="394" class="st0" width="48.99" height="8"/>
	<rect x="217.41" y="379" class="st0" width="79.3" height="8"/>
	<rect x="183.05" y="379" class="st0" width="30.51" height="8"/>
	<rect x="301.08" y="379" class="st0" width="103.43" height="8"/>
	<rect x="262.26" y="364" class="st0" width="79.26" height="8"/>
	<rect x="345.35" y="364" class="st0" width="59.16" height="8"/>
	<rect x="183.05" y="364" class="st0" width="74.29" height="8"/>
	<rect x="222.96" y="349" class="st0" width="80.82" height="8"/>
	<rect x="306.73" y="349.13" class="st0" width="99.99" height="8"/>
	<rect x="185.27" y="348.94" class="st0" width="34.21" height="8"/>
	<rect x="284.21" y="334" class="st0" width="128.72" height="8"/>
	<rect x="191.47" y="334" class="st0" width="87.62" height="8"/>
	<rect x="304.96" y="319" class="st0" width="80.77" height="8"/>
	<rect x="393.09" y="319" class="st0" width="32.59" height="8"/>
	<rect x="198.56" y="319" class="st0" width="100.76" height="8"/>
	<rect x="268.6" y="304" class="st0" width="95.47" height="8"/>
	<rect x="367.97" y="304" class="st0" width="63.69" height="8"/>
	<rect x="210.75" y="304" class="st0" width="51.52" height="8"/>
	<rect x="230.69" y="289" class="st0" width="61.83" height="8"/>
	<rect x="252.84" y="274" class="st0" width="18.84" height="8"/>
	<rect x="313.77" y="274" class="st0" width="11.31" height="8"/>
	<rect x="315.43" y="259" class="st0" width="33.58" height="8"/>
	<rect x="321.2" y="244" class="st0" width="42.88" height="8"/>
	<rect x="330.06" y="229" class="st0" width="42.88" height="8"/>
	<rect x="343.58" y="214" class="st0" width="34.68" height="8"/>
	<rect x="369.5" y="199" class="st0" width="11.86" height="8"/>
	<rect x="340.36" y="289" class="st0" width="71.35" height="8"/>
	<rect x="371.05" y="274" class="st0" width="29.37" height="8"/>
	<rect x="341.09" y="514" class="st0" width="65.2" height="8"/>
</g>
</svg>
