<svg id="Lag_1" data-name="Lag 1" xmlns="http://www.w3.org/2000/svg" viewBox="0 0 263.84 338"><defs><style>.cls-1{fill:#404f5f;}</style></defs><rect class="cls-1" x="72.3" y="330" width="29.64" height="8"/><rect class="cls-1" x="177.76" y="330" width="29.64" height="8"/><rect class="cls-1" x="129.51" y="315" width="25.44" height="8"/><rect class="cls-1" x="57.48" y="315" width="65.2" height="8"/><rect class="cls-1" x="151.52" y="300" width="86.4" height="8"/><rect class="cls-1" x="42.41" y="300" width="106.21" height="8"/><rect class="cls-1" x="34.21" y="285" width="84.64" height="8"/><rect class="cls-1" x="122.68" y="285" width="125.43" height="8"/><rect class="cls-1" x="152.44" y="270" width="104.31" height="8"/><rect class="cls-1" x="24.88" y="270" width="124.27" height="8"/><rect class="cls-1" x="199.34" y="255" width="64.5" height="8"/><rect class="cls-1" x="104.49" y="255" width="91.3" height="8"/><rect class="cls-1" x="17.79" y="255" width="83.28" height="8"/><rect class="cls-1" x="75.95" y="240" width="140.39" height="8"/><rect class="cls-1" x="220.42" y="240" width="31.67" height="8"/><rect class="cls-1" x="12.91" y="240" width="59.83" height="8"/><rect class="cls-1" x="7.81" y="225" width="40.81" height="8"/><rect class="cls-1" x="53" y="225" width="142.78" height="8"/><rect class="cls-1" x="201.32" y="225" width="35.49" height="8"/><rect class="cls-1" x="97.22" y="210" width="132.5" height="8"/><rect class="cls-1" x="4.71" y="210" width="89.88" height="8"/><rect class="cls-1" x="69.56" y="195" width="99.95" height="8"/><rect class="cls-1" x="1.94" y="195" width="64.12" height="8"/><rect class="cls-1" x="174.41" y="195" width="48.99" height="8"/><rect class="cls-1" x="36.3" y="180" width="79.3" height="8"/><rect class="cls-1" x="1.94" y="180" width="30.51" height="8"/><rect class="cls-1" x="119.97" y="180" width="103.43" height="8"/><rect class="cls-1" x="81.15" y="165" width="79.26" height="8"/><rect class="cls-1" x="164.24" y="165" width="59.16" height="8"/><rect class="cls-1" x="1.94" y="165" width="74.29" height="8"/><rect class="cls-1" x="41.85" y="150" width="80.82" height="8"/><rect class="cls-1" x="125.62" y="150.13" width="99.99" height="8"/><rect class="cls-1" x="4.16" y="149.94" width="34.21" height="8"/><rect class="cls-1" x="103.1" y="135" width="128.72" height="8"/><rect class="cls-1" x="10.36" y="135" width="87.62" height="8"/><rect class="cls-1" x="123.85" y="120" width="80.77" height="8"/><rect class="cls-1" x="211.98" y="120" width="32.59" height="8"/><rect class="cls-1" x="17.45" y="120" width="100.76" height="8"/><rect class="cls-1" x="87.49" y="105" width="95.47" height="8"/><rect class="cls-1" x="186.86" y="105" width="63.69" height="8"/><rect class="cls-1" x="29.64" y="105" width="51.52" height="8"/><rect class="cls-1" x="49.58" y="90" width="61.83" height="8"/><rect class="cls-1" x="71.73" y="75" width="18.84" height="8"/><rect class="cls-1" x="132.66" y="75" width="11.31" height="8"/><rect class="cls-1" x="134.32" y="60" width="33.58" height="8"/><rect class="cls-1" x="140.09" y="45" width="42.88" height="8"/><rect class="cls-1" x="148.95" y="30" width="42.88" height="8"/><rect class="cls-1" x="162.47" y="15" width="34.68" height="8"/><rect class="cls-1" x="188.39" width="11.86" height="8"/><rect class="cls-1" x="159.25" y="90" width="71.35" height="8"/><rect class="cls-1" x="189.94" y="75" width="29.37" height="8"/><rect class="cls-1" x="159.98" y="315" width="65.2" height="8"/></svg>