<svg id="Lag_1" data-name="Lag 1" xmlns="http://www.w3.org/2000/svg" viewBox="0 0 1643 898"><defs><style>.cls-1{fill:#f4f3f3;}</style></defs><rect class="cls-1" x="806" y="446" width="85" height="8"/><rect class="cls-1" x="494" y="697" width="117" height="8"/><rect class="cls-1" x="556" y="713" width="37" height="8"/><rect class="cls-1" x="1372" y="371" width="117" height="8"/><rect class="cls-1" x="1434" y="387" width="37" height="8"/><rect class="cls-1" x="1453" y="821" width="117" height="8"/><rect class="cls-1" x="1515" y="837" width="37" height="8"/><rect class="cls-1" x="1526" width="117" height="8"/><rect class="cls-1" x="1588" y="16" width="37" height="8"/><rect class="cls-1" y="825" width="117" height="8"/><rect class="cls-1" x="62" y="841" width="37" height="8"/><rect class="cls-1" x="471" y="247" width="220" height="8"/><rect class="cls-1" x="537" y="262" width="84" height="8"/><rect class="cls-1" x="797" y="477" width="40" height="8"/><rect class="cls-1" x="851" y="477" width="25" height="8"/><rect class="cls-1" x="821" y="461" width="54" height="8"/><rect class="cls-1" x="992" y="859" width="85" height="8"/><rect class="cls-1" x="983" y="890" width="40" height="8"/><rect class="cls-1" x="1037" y="890" width="25" height="8"/><rect class="cls-1" x="1007" y="874" width="54" height="8"/><rect class="cls-1" x="221" y="4" width="85" height="8"/><rect class="cls-1" x="212" y="35" width="40" height="8"/><rect class="cls-1" x="266" y="35" width="25" height="8"/><rect class="cls-1" x="236" y="19" width="54" height="8"/><rect class="cls-1" x="14" y="199" width="85" height="8"/><rect class="cls-1" x="5" y="230" width="40" height="8"/><rect class="cls-1" x="59" y="230" width="25" height="8"/><rect class="cls-1" x="29" y="214" width="54" height="8"/><rect class="cls-1" x="985" y="97" width="85" height="8"/><rect class="cls-1" x="976" y="128" width="40" height="8"/><rect class="cls-1" x="1030" y="128" width="25" height="8"/><rect class="cls-1" x="1000" y="112" width="54" height="8"/></svg>