<?xml version="1.0" encoding="utf-8"?>
<!-- Generator: Adobe Illustrator 24.1.1, SVG Export Plug-In . SVG Version: 6.00 Build 0)  -->
<svg version="1.1" id="Lag_1" xmlns="http://www.w3.org/2000/svg" xmlns:xlink="http://www.w3.org/1999/xlink" x="0px" y="0px"
	 viewBox="0 0 800 800" style="enable-background:new 0 0 800 800;" xml:space="preserve">
<style type="text/css">
	.st0{fill:#D7A458;}
	.st1{fill:#CC5B64;}
	.st2{fill:#404F5F;}
	.st3{fill:#A5BA73;}
	.st4{fill:#BFBCBA;}
	.st5{fill:#7CA5B8;}
</style>
<g>
	<g>
		<rect x="305.39" y="180.85" class="st0" width="53.1" height="8"/>
		<rect x="270.24" y="197.09" class="st1" width="87.8" height="8"/>
		<rect x="284.56" y="228.58" class="st2" width="37.79" height="8"/>
		<rect x="299.58" y="213.34" class="st3" width="58.92" height="8"/>
		<rect x="261.63" y="213.34" class="st4" width="24.37" height="8"/>
		<rect x="258.96" y="228.58" class="st0" width="12.18" height="8"/>
		<rect x="256.78" y="244.25" class="st1" width="60.25" height="8"/>
		<rect x="284.82" y="257.92" class="st5" width="32.22" height="8"/>
		<rect x="289.88" y="273.92" class="st0" width="27.16" height="8"/>
		<rect x="256.66" y="257.92" class="st3" width="14.49" height="8"/>
		<rect x="256.66" y="273.92" class="st2" width="18.67" height="8"/>
		<rect x="253.69" y="289.92" class="st1" width="27.7" height="8"/>
		<rect x="294.91" y="289.92" class="st0" width="22.12" height="8"/>
		<rect x="239.2" y="304.92" class="st4" width="75.31" height="8"/>
		<rect x="257.25" y="321.17" class="st2" width="43.67" height="8"/>
		<rect x="230.14" y="321.17" class="st0" width="13.43" height="8"/>
		<rect x="229.55" y="351.39" class="st3" width="29.41" height="8"/>
		<rect x="272.2" y="351.39" class="st0" width="36.35" height="8"/>
		<rect x="252.08" y="366.46" class="st4" width="34.48" height="8"/>
		<rect x="286.55" y="382.16" class="st0" width="29.82" height="8"/>
		<rect x="256.24" y="382.16" class="st2" width="15.96" height="8"/>
		<rect x="299.55" y="366.46" class="st1" width="15.96" height="8"/>
		<rect x="257.07" y="413.57" class="st0" width="12.24" height="8"/>
		<rect x="283.76" y="413.57" class="st2" width="32.62" height="8"/>
		<rect x="289.66" y="427.87" class="st0" width="26.72" height="8"/>
		<rect x="258.84" y="443.87" class="st1" width="27.71" height="8"/>
		<rect x="300.07" y="443.87" class="st3" width="23.75" height="8"/>
		<rect x="262.73" y="459.88" class="st2" width="59.15" height="8"/>
		<rect x="273.44" y="474.91" class="st1" width="85.05" height="8"/>
		<rect x="311.94" y="491.15" class="st0" width="46.1" height="8"/>
		<rect x="335.22" y="459.88" class="st5" width="23.27" height="8"/>
		<rect x="256.66" y="427.87" class="st4" width="20.2" height="8"/>
		<rect x="256.08" y="397.86" class="st5" width="60.96" height="8"/>
		<rect x="230.14" y="337.06" class="st5" width="50.04" height="8"/>
		<rect x="447.11" y="180.85" class="st3" width="46.19" height="8"/>
		<rect x="447.11" y="197.09" class="st1" width="85.95" height="8"/>
		<rect x="484.57" y="213.34" class="st0" width="57.95" height="8"/>
		<rect x="488.57" y="274.11" class="st2" width="60.01" height="8"/>
		<rect x="525.43" y="337.06" class="st3" width="51.02" height="8"/>
		<rect x="488.17" y="290.09" class="st1" width="30.41" height="8"/>
		<rect x="532.39" y="290.09" class="st0" width="18.3" height="8"/>
		<rect x="489.43" y="305.32" class="st4" width="16.26" height="8"/>
		<rect x="519.23" y="305.32" class="st0" width="34.97" height="8"/>
		<rect x="546.85" y="321.19" class="st5" width="29.03" height="8"/>
		<rect x="496.65" y="321.19" class="st1" width="36.44" height="8"/>
		<rect x="505.1" y="349.96" class="st0" width="44.19" height="8"/>
		<rect x="562.39" y="349.96" class="st0" width="14.06" height="8"/>
		<rect x="491.23" y="366.87" class="st2" width="75.15" height="8"/>
		<rect x="488.39" y="382.22" class="st1" width="22.32" height="8"/>
		<rect x="523.36" y="382.22" class="st3" width="27.58" height="8"/>
		<rect x="530.46" y="397.58" class="st4" width="18.8" height="8"/>
		<rect x="488.39" y="397.58" class="st5" width="27.71" height="8"/>
		<rect x="488.39" y="413.83" class="st0" width="33.16" height="8"/>
		<rect x="519.49" y="459.9" class="st0" width="25.29" height="8"/>
		<rect x="488.39" y="427.9" class="st1" width="60.87" height="8"/>
		<rect x="446.59" y="490.74" class="st1" width="54.19" height="8"/>
		<rect x="446.59" y="459.9" class="st0" width="59.35" height="8"/>
		<rect x="445.81" y="474.99" class="st3" width="87.96" height="8"/>
		<rect x="481.68" y="443.9" class="st0" width="37.76" height="8"/>
		<rect x="533.78" y="443.9" class="st4" width="13.67" height="8"/>
		<rect x="535.1" y="413.83" class="st0" width="15.44" height="8"/>
		<rect x="447.11" y="213.34" class="st2" width="23.09" height="8"/>
		<rect x="481.75" y="227.79" class="st1" width="23.18" height="8"/>
		<rect x="518.12" y="227.79" class="st0" width="29.49" height="8"/>
		<rect x="488.57" y="258.49" class="st3" width="32.85" height="8"/>
		<rect x="488.57" y="244.25" class="st0" width="27.52" height="8"/>
		<rect x="530.03" y="244.25" class="st4" width="17.58" height="8"/>
		<rect x="535.49" y="257.92" class="st1" width="13.09" height="8"/>
	</g>
</g>
<g>
	<rect x="359.04" y="396.95" class="st3" width="28.64" height="8"/>
	<rect x="390.49" y="396.95" class="st3" width="20.44" height="8"/>
	<rect x="395.23" y="381.7" class="st3" width="20.44" height="8"/>
	<rect x="400.71" y="366.46" class="st3" width="20.44" height="8"/>
	<rect x="406.76" y="351.21" class="st3" width="20.44" height="8"/>
	<rect x="413.65" y="335.96" class="st3" width="20.44" height="8"/>
	<rect x="421.53" y="320.72" class="st3" width="20.44" height="8"/>
	<rect x="430.21" y="305.47" class="st3" width="19.19" height="8"/>
	<rect x="440.18" y="290.22" class="st3" width="17.35" height="8"/>
	<rect x="454.96" y="274.97" class="st3" width="11.24" height="8"/>
	<rect x="463.27" y="259.73" class="st3" width="5.85" height="8"/>
	<rect x="366" y="412.08" class="st3" width="39.45" height="8"/>
	<rect x="372.4" y="427.2" class="st3" width="28.31" height="8"/>
	<rect x="379.78" y="442.32" class="st3" width="17.17" height="8"/>
	<rect x="387.45" y="457.45" class="st3" width="4.46" height="8"/>
	<rect x="353.91" y="382.22" class="st3" width="28.23" height="8"/>
	<rect x="349.58" y="366.46" class="st3" width="26.82" height="8"/>
	<rect x="346.61" y="351.21" class="st3" width="18.6" height="8"/>
	<rect x="344.94" y="335.7" class="st3" width="12.66" height="8"/>
	<rect x="344.94" y="320.72" class="st3" width="5.17" height="8"/>
</g>
</svg>
