<svg id="Lag_1" data-name="Lag 1" xmlns="http://www.w3.org/2000/svg" viewBox="0 0 346.9 318.3"><defs><style>.cls-1{fill:#d7a458;}.cls-2{fill:#cc5b64;}.cls-3{fill:#404f5f;}.cls-4{fill:#a5ba73;}.cls-5{fill:#bfbcba;}.cls-6{fill:#7ca5b8;}</style></defs><rect class="cls-1" x="75.84" width="53.1" height="8"/><rect class="cls-2" x="40.69" y="16.24" width="87.8" height="8"/><rect class="cls-3" x="55.01" y="47.73" width="37.79" height="8"/><rect class="cls-4" x="70.03" y="32.49" width="58.92" height="8"/><rect class="cls-5" x="32.08" y="32.49" width="24.37" height="8"/><rect class="cls-1" x="29.41" y="47.73" width="12.18" height="8"/><rect class="cls-2" x="27.23" y="63.4" width="60.25" height="8"/><rect class="cls-6" x="55.27" y="77.07" width="32.22" height="8"/><rect class="cls-1" x="60.33" y="93.07" width="27.16" height="8"/><rect class="cls-4" x="27.11" y="77.07" width="14.49" height="8"/><rect class="cls-3" x="27.11" y="93.07" width="18.67" height="8"/><rect class="cls-2" x="24.14" y="109.07" width="27.7" height="8"/><rect class="cls-1" x="65.36" y="109.07" width="22.12" height="8"/><rect class="cls-5" x="9.65" y="124.07" width="75.31" height="8"/><rect class="cls-3" x="27.7" y="140.32" width="43.67" height="8"/><rect class="cls-1" x="0.59" y="140.32" width="13.43" height="8"/><rect class="cls-4" y="170.54" width="29.41" height="8"/><rect class="cls-1" x="42.65" y="170.54" width="36.35" height="8"/><rect class="cls-5" x="22.53" y="185.61" width="34.48" height="8"/><rect class="cls-1" x="57" y="201.31" width="29.82" height="8"/><rect class="cls-3" x="26.69" y="201.31" width="15.96" height="8"/><rect class="cls-2" x="70" y="185.61" width="15.96" height="8"/><rect class="cls-1" x="27.52" y="232.72" width="12.24" height="8"/><rect class="cls-3" x="54.21" y="232.72" width="32.62" height="8"/><rect class="cls-1" x="60.11" y="247.02" width="26.72" height="8"/><rect class="cls-2" x="29.29" y="263.02" width="27.71" height="8"/><rect class="cls-4" x="70.52" y="263.02" width="23.75" height="8"/><rect class="cls-3" x="33.18" y="279.03" width="59.15" height="8"/><rect class="cls-2" x="43.89" y="294.06" width="85.05" height="8"/><rect class="cls-1" x="82.39" y="310.3" width="46.1" height="8"/><rect class="cls-6" x="105.67" y="279.03" width="23.27" height="8"/><rect class="cls-5" x="27.11" y="247.02" width="20.2" height="8"/><rect class="cls-6" x="26.53" y="217.01" width="60.96" height="8"/><rect class="cls-6" x="0.59" y="156.21" width="50.04" height="8"/><rect class="cls-4" x="217.56" width="46.19" height="8"/><rect class="cls-2" x="217.56" y="16.24" width="85.95" height="8"/><rect class="cls-1" x="255.02" y="32.49" width="57.95" height="8"/><rect class="cls-3" x="259.02" y="93.26" width="60.01" height="8"/><rect class="cls-4" x="295.88" y="156.21" width="51.02" height="8"/><rect class="cls-2" x="258.62" y="109.24" width="30.41" height="8"/><rect class="cls-1" x="302.84" y="109.24" width="18.3" height="8"/><rect class="cls-5" x="259.88" y="124.47" width="16.26" height="8"/><rect class="cls-1" x="289.68" y="124.47" width="34.97" height="8"/><rect class="cls-6" x="317.3" y="140.34" width="29.03" height="8"/><rect class="cls-2" x="267.1" y="140.34" width="36.44" height="8"/><rect class="cls-1" x="275.55" y="169.11" width="44.19" height="8"/><rect class="cls-1" x="332.84" y="169.11" width="14.06" height="8"/><rect class="cls-3" x="261.68" y="186.02" width="75.15" height="8"/><rect class="cls-2" x="258.84" y="201.37" width="22.32" height="8"/><rect class="cls-4" x="293.81" y="201.37" width="27.58" height="8"/><rect class="cls-5" x="300.91" y="216.73" width="18.8" height="8"/><rect class="cls-6" x="258.84" y="216.73" width="27.71" height="8"/><rect class="cls-1" x="258.84" y="232.98" width="33.16" height="8"/><rect class="cls-1" x="289.94" y="279.05" width="25.29" height="8"/><rect class="cls-2" x="258.84" y="247.05" width="60.87" height="8"/><rect class="cls-2" x="217.04" y="309.89" width="54.19" height="8"/><rect class="cls-1" x="217.04" y="279.05" width="59.35" height="8"/><rect class="cls-4" x="216.26" y="294.14" width="87.96" height="8"/><rect class="cls-1" x="252.13" y="263.05" width="37.76" height="8"/><rect class="cls-5" x="304.23" y="263.05" width="13.67" height="8"/><rect class="cls-1" x="305.55" y="232.98" width="15.44" height="8"/><rect class="cls-3" x="217.56" y="32.49" width="23.09" height="8"/><rect class="cls-2" x="252.2" y="46.94" width="23.18" height="8"/><rect class="cls-1" x="288.57" y="46.94" width="29.49" height="8"/><rect class="cls-4" x="259.02" y="77.64" width="32.85" height="8"/><rect class="cls-1" x="259.02" y="63.4" width="27.52" height="8"/><rect class="cls-5" x="300.48" y="63.4" width="17.58" height="8"/><rect class="cls-2" x="305.94" y="77.07" width="13.09" height="8"/><rect class="cls-4" x="129.49" y="216.1" width="28.64" height="8"/><rect class="cls-4" x="160.94" y="216.1" width="20.44" height="8"/><rect class="cls-4" x="165.68" y="200.85" width="20.44" height="8"/><rect class="cls-4" x="171.16" y="185.61" width="20.44" height="8"/><rect class="cls-4" x="177.21" y="170.36" width="20.44" height="8"/><rect class="cls-4" x="184.1" y="155.11" width="20.44" height="8"/><rect class="cls-4" x="191.98" y="139.87" width="20.44" height="8"/><rect class="cls-4" x="200.66" y="124.62" width="19.19" height="8"/><rect class="cls-4" x="210.63" y="109.37" width="17.35" height="8"/><rect class="cls-4" x="225.41" y="94.12" width="11.24" height="8"/><rect class="cls-4" x="233.72" y="78.88" width="5.85" height="8"/><rect class="cls-4" x="136.45" y="231.23" width="39.45" height="8"/><rect class="cls-4" x="142.85" y="246.35" width="28.31" height="8"/><rect class="cls-4" x="150.23" y="261.47" width="17.17" height="8"/><rect class="cls-4" x="157.9" y="276.6" width="4.46" height="8"/><rect class="cls-4" x="124.36" y="201.37" width="28.23" height="8"/><rect class="cls-4" x="120.03" y="185.61" width="26.82" height="8"/><rect class="cls-4" x="117.06" y="170.36" width="18.6" height="8"/><rect class="cls-4" x="115.39" y="154.85" width="12.66" height="8"/><rect class="cls-4" x="115.39" y="139.87" width="5.17" height="8"/></svg>