<svg id="Lag_1" data-name="Lag 1" xmlns="http://www.w3.org/2000/svg" viewBox="0 0 100 55.76"><defs><style>.cls-1{fill:#e6e6e6;}.cls-2{fill:#515f6d;}.cls-3{fill:#d36d75;}.cls-4{fill:#6696ac;}.cls-5{fill:#d8a55b;}.cls-6{fill:#a6bb75;}.cls-7{fill:#d7734b;}.cls-8{fill:#aa81ac;}</style></defs><g id="Layer_2" data-name="Layer 2"><rect class="cls-1" x="43.43" y="1" width="36.11" height="6.17"/><rect class="cls-2" x="23.66" y="19.87" width="34.97" height="5.97"/><rect class="cls-3" x="70.63" y="9.94" width="20" height="6.17"/><rect class="cls-4" x="53.71" y="9.94" width="12.8" height="6.17"/><rect class="cls-5" x="33.37" y="9.94" width="16.23" height="6.17"/><rect class="cls-6" x="62.57" y="19.77" width="16.97" height="6.17"/><rect class="cls-7" x="30.4" y="29.71" width="14.17" height="6.17"/><rect class="cls-1" x="48.46" y="29.71" width="7.09" height="6.17"/><rect class="cls-8" x="59.66" y="29.71" width="25.94" height="6.17"/><rect class="cls-3" x="78.51" y="38.85" width="21.03" height="6.17"/><rect class="cls-4" x="67.54" y="38.85" width="6.97" height="6.17"/><rect class="cls-2" x="23.66" y="38.85" width="39.89" height="6.17"/><rect class="cls-5" x="52.57" y="48.8" width="29.03" height="6.17"/><rect class="cls-2" x="2.63" y="48.8" width="45.83" height="6.17"/><rect class="cls-2" x="2.63" y="24.96" width="6.17" height="28.97"/><rect class="cls-2" x="29.84" y="1" width="9.93" height="6.17"/><polygon class="cls-2" points="2.63 24.96 2.63 22.04 28.1 1 30.4 1 30.4 7.16 8.8 24.96 2.63 24.96"/></g></svg>