<svg id="Lag_1" data-name="Lag 1" xmlns="http://www.w3.org/2000/svg" viewBox="0 0 16 8.46"><defs><style>.cls-1{fill:#e7e6e6;}.cls-2{fill:#52606e;}.cls-3{fill:#d46d76;}.cls-4{fill:#6796ac;}.cls-5{fill:#d9a65b;}.cls-6{fill:#a7bc76;}.cls-7{fill:#d7734b;}.cls-8{fill:#aa81ac;}</style></defs><g id="Layer_2" data-name="Layer 2"><rect class="cls-1" x="6.74" width="5.96" height="0.97"/><rect class="cls-2" x="3.47" y="2.96" width="5.77" height="0.94"/><rect class="cls-3" x="11.23" y="1.4" width="3.3" height="0.97"/><rect class="cls-4" x="8.43" y="1.4" width="2.11" height="0.97"/><rect class="cls-5" x="5.08" y="1.4" width="2.68" height="0.97"/><rect class="cls-6" x="9.9" y="2.94" width="2.8" height="0.97"/><rect class="cls-7" x="4.58" y="4.5" width="2.34" height="0.97"/><rect class="cls-1" x="7.57" y="4.5" width="1.17" height="0.97"/><rect class="cls-8" x="9.42" y="4.5" width="4.28" height="0.97"/><rect class="cls-3" x="12.53" y="5.93" width="3.47" height="0.97"/><rect class="cls-4" x="10.72" y="5.93" width="1.15" height="0.97"/><rect class="cls-2" x="3.47" y="5.93" width="6.59" height="0.97"/><rect class="cls-5" x="8.25" y="7.49" width="4.79" height="0.97"/><rect class="cls-2" y="7.49" width="7.57" height="0.97"/><rect class="cls-2" y="3.76" width="1.02" height="4.54"/><rect class="cls-2" x="4.49" width="1.64" height="0.97"/><polygon class="cls-2" points="0 3.76 0 3.3 4.21 0 4.58 0 4.58 0.97 1.02 3.76 0 3.76"/></g></svg>