<svg id="Lag_1" data-name="Lag 1" xmlns="http://www.w3.org/2000/svg" viewBox="0 0 97.37 55.01"><defs><style>.cls-1{fill:#e6e6e6;}.cls-2{fill:#fff;}</style></defs><g id="Layer_2" data-name="Layer 2"><rect class="cls-1" x="40.8" y="1.04" width="36.11" height="6.17"/><rect class="cls-1" x="21.03" y="19.91" width="34.97" height="5.97"/><rect class="cls-2" x="68" y="9.98" width="20" height="6.17"/><rect class="cls-1" x="51.08" y="9.98" width="12.8" height="6.17"/><rect class="cls-1" x="30.74" y="9.98" width="16.23" height="6.17"/><rect class="cls-1" x="59.94" y="19.81" width="16.97" height="6.17"/><rect class="cls-1" x="27.77" y="29.75" width="14.17" height="6.17"/><rect class="cls-1" x="45.83" y="29.75" width="7.09" height="6.17"/><rect class="cls-2" x="57.03" y="29.75" width="25.94" height="6.17"/><rect class="cls-1" x="75.88" y="38.89" width="21.03" height="6.17"/><rect class="cls-2" x="64.91" y="38.89" width="6.97" height="6.17"/><rect class="cls-2" x="21.03" y="38.89" width="39.89" height="6.17"/><rect class="cls-1" x="49.94" y="48.84" width="29.03" height="6.17"/><rect class="cls-2" y="48.84" width="45.83" height="6.17"/><rect class="cls-2" y="25" width="6.17" height="28.97"/><rect class="cls-2" x="27.21" y="1.04" width="9.93" height="6.17"/><polygon class="cls-2" points="0 25 0 22.08 25.47 1.04 27.77 1.04 27.77 7.2 6.17 25 0 25"/></g></svg>