<?xml version="1.0" encoding="utf-8"?>
<!-- Generator: Adobe Illustrator 24.1.1, SVG Export Plug-In . SVG Version: 6.00 Build 0)  -->
<svg version="1.1" id="Lag_1" xmlns="http://www.w3.org/2000/svg" xmlns:xlink="http://www.w3.org/1999/xlink" x="0px" y="0px"
	 viewBox="0 0 450 450" style="enable-background:new 0 0 450 450;" xml:space="preserve">
<style type="text/css">
	.st0{fill:#FFFFFF;}
	.st1{fill:#C2C2C2;}
	.st2{fill:#E5E5E5;}
	.st3{fill:#C0BCBB;}
</style>
<g>
	<g>
		<g>
			<rect x="137.15" y="225.24" class="st0" width="45" height="6.05"/>
		</g>
		<g>
			
				<rect x="135.17" y="187.5" transform="matrix(0.7696 -0.6385 0.6385 0.7696 -86.5812 140.565)" class="st0" width="32.67" height="5.54"/>
		</g>
		<rect x="137.15" y="198.54" class="st0" width="6.26" height="27.76"/>
		<rect x="162.33" y="177.73" class="st0" width="11.82" height="6.05"/>
	</g>
</g>
<rect x="159.16" y="196.75" class="st0" width="33.91" height="6.05"/>
<rect x="158.23" y="215.79" class="st0" width="39.91" height="6.05"/>
<rect x="186.98" y="225.24" class="st1" width="29.14" height="6.05"/>
<rect x="194.15" y="206.79" class="st0" width="25.98" height="6.05"/>
<rect x="165.2" y="206.79" class="st0" width="13.99" height="6.05"/>
<rect x="168.15" y="186.86" class="st1" width="15.93" height="6.05"/>
<rect x="188.09" y="186.72" class="st1" width="13.08" height="6.05"/>
<rect x="205.09" y="186.72" class="st0" width="20.11" height="6.05"/>
<rect x="178.03" y="177.73" class="st2" width="36.04" height="6.05"/>
<rect x="197.12" y="196.75" class="st1" width="16.95" height="6.05"/>
<rect x="213.14" y="215.79" class="st1" width="21.05" height="6.05"/>
<rect x="202.19" y="215.79" class="st0" width="6.72" height="6.05"/>
<rect x="183.31" y="206.79" class="st3" width="6.72" height="6.05"/>
</svg>
