<svg id="Lag_1" data-name="Lag 1" xmlns="http://www.w3.org/2000/svg" viewBox="0 0 365.87 146.15"><defs><style>.cls-1{fill:#404f5f;}.cls-2{fill:#bfbcba;}.cls-3{fill:#7ca5b8;}.cls-4{fill:#cc5b64;}.cls-5{fill:#d7a458;}.cls-6{fill:#a5ba73;}</style></defs><rect class="cls-1" x="90.05" y="120.41" width="33.41" height="8"/><rect class="cls-2" x="116.84" y="105.2" width="15.52" height="8"/><rect class="cls-2" x="154.97" y="105.2" width="24.49" height="8"/><rect class="cls-2" x="145.1" y="89.99" width="96.26" height="8"/><rect class="cls-1" x="110.98" y="74.77" width="93.09" height="8"/><rect class="cls-2" x="73.76" y="120.41" width="11.83" height="8"/><rect class="cls-3" x="34.78" y="135.62" width="28.85" height="8"/><rect class="cls-3" x="2.42" y="89.99" width="33.64" height="8"/><rect class="cls-4" x="5.55" y="105.2" width="57.27" height="8"/><rect class="cls-3" x="99.06" y="105.2" width="13.1" height="8"/><rect class="cls-3" x="213.72" y="74.77" width="32.97" height="8"/><rect class="cls-3" x="250.03" y="89.99" width="32.97" height="8"/><rect class="cls-3" x="102.38" y="135.62" width="8.43" height="8"/><rect class="cls-1" x="18.16" y="120.41" width="50.74" height="8"/><rect class="cls-5" x="66.13" y="89.99" width="14.12" height="8"/><rect class="cls-4" x="292.42" y="89.99" width="16.63" height="8"/><rect class="cls-1" x="318.15" y="89.99" width="22.6" height="8"/><rect class="cls-6" x="320.84" y="74.77" width="45.03" height="8"/><rect class="cls-1" x="298.85" y="59.56" width="51.07" height="8"/><rect class="cls-6" x="248.59" y="59.56" width="37.12" height="8"/><rect class="cls-4" x="309.76" y="44.35" width="13.07" height="8"/><rect class="cls-6" x="262.05" y="44.35" width="13.07" height="8"/><rect class="cls-6" x="205.77" y="59.56" width="31.03" height="8"/><rect class="cls-6" x="148.99" y="59.56" width="60.5" height="8"/><rect class="cls-6" x="154.02" y="45.5" width="27.95" height="8"/><rect class="cls-5" x="170.88" y="31.43" width="11.09" height="8"/><rect class="cls-5" x="170.3" y="120.41" width="8" height="8"/><rect class="cls-4" x="132.36" y="44.35" width="14.92" height="8"/><rect class="cls-2" x="115.23" y="31.43" width="17.12" height="8"/><rect class="cls-1" x="22.86" y="16.89" width="11.92" height="8"/><rect class="cls-4" x="87.1" y="16.89" width="10.18" height="8"/><rect class="cls-1" x="101.96" y="16.89" width="21.01" height="8"/><rect class="cls-6" x="75.18" y="31.43" width="34.01" height="8"/><rect class="cls-4" x="214.75" y="45.5" width="13.07" height="8"/><rect class="cls-6" x="71.81" y="74.77" width="32.56" height="8"/><rect class="cls-4" x="66.56" y="59.56" width="41.47" height="8"/><rect class="cls-1" x="114.9" y="59.56" width="28.3" height="8"/><rect class="cls-1" x="2.42" y="74.77" width="27.99" height="8"/><rect class="cls-6" x="2.42" y="59.56" width="33.64" height="8"/><rect class="cls-6" x="67" y="105.2" width="26.81" height="8"/><rect class="cls-1" x="254.73" y="74.77" width="54.32" height="8"/><rect class="cls-5" x="66.45" y="135.62" width="31.32" height="8"/><rect class="cls-3" x="34.34" y="1.68" width="33.23" height="8"/><rect class="cls-3" x="104.17" y="1.68" width="10.06" height="8"/><rect class="cls-6" x="71.75" y="1.68" width="27.79" height="8"/><rect class="cls-4" x="38.62" y="16.89" width="45.47" height="8"/><rect class="cls-5" x="25.57" y="31.43" width="44.41" height="8"/><rect class="cls-6" x="13.28" y="31.43" width="8.51" height="8"/><rect class="cls-5" x="86" y="89.99" width="56.04" height="8"/><rect class="cls-2" x="2.42" y="44.35" width="44.23" height="8"/><rect class="cls-3" x="51.17" y="44.35" width="72.73" height="8"/></svg>