<?xml version="1.0" encoding="utf-8"?>
<!-- Generator: Adobe Illustrator 24.1.1, SVG Export Plug-In . SVG Version: 6.00 Build 0)  -->
<svg version="1.1" id="Lag_1" xmlns="http://www.w3.org/2000/svg" xmlns:xlink="http://www.w3.org/1999/xlink" x="0px" y="0px"
	 viewBox="0 0 800 800" style="enable-background:new 0 0 800 800;" xml:space="preserve">
<style type="text/css">
	.st0{fill:#404F5F;}
	.st1{fill:#BFBCBA;}
	.st2{fill:#7CA5B8;}
	.st3{fill:#CC5B64;}
	.st4{fill:#D7A458;}
	.st5{fill:#A5BA73;}
</style>
<g>
	<rect x="326.9" y="447.76" class="st0" width="33.41" height="8"/>
	<rect x="353.69" y="432.55" class="st1" width="15.52" height="8"/>
	<rect x="391.82" y="432.55" class="st1" width="24.49" height="8"/>
	<rect x="381.95" y="417.34" class="st1" width="96.26" height="8"/>
	<rect x="347.83" y="402.12" class="st0" width="93.09" height="8"/>
	<rect x="310.61" y="447.76" class="st1" width="11.83" height="8"/>
	<rect x="271.63" y="462.97" class="st2" width="28.85" height="8"/>
	<rect x="239.27" y="417.34" class="st2" width="33.64" height="8"/>
	<rect x="242.4" y="432.55" class="st3" width="57.27" height="8"/>
	<rect x="335.91" y="432.55" class="st2" width="13.1" height="8"/>
	<rect x="450.57" y="402.12" class="st2" width="32.97" height="8"/>
	<rect x="486.88" y="417.34" class="st2" width="32.97" height="8"/>
	<rect x="339.23" y="462.97" class="st2" width="8.43" height="8"/>
	<rect x="255.01" y="447.76" class="st0" width="50.74" height="8"/>
	<rect x="302.98" y="417.34" class="st4" width="14.12" height="8"/>
	<rect x="529.27" y="417.34" class="st3" width="16.63" height="8"/>
	<rect x="555" y="417.34" class="st0" width="22.6" height="8"/>
	<rect x="557.69" y="402.12" class="st5" width="45.03" height="8"/>
	<rect x="535.7" y="386.91" class="st0" width="51.07" height="8"/>
	<rect x="485.44" y="386.91" class="st5" width="37.12" height="8"/>
	<rect x="546.61" y="371.7" class="st3" width="13.07" height="8"/>
	<rect x="498.9" y="371.7" class="st5" width="13.07" height="8"/>
	<rect x="442.62" y="386.91" class="st5" width="31.03" height="8"/>
	<rect x="385.84" y="386.91" class="st5" width="60.5" height="8"/>
	<rect x="390.87" y="372.85" class="st5" width="27.95" height="8"/>
	<rect x="407.73" y="358.78" class="st4" width="11.09" height="8"/>
	<rect x="407.15" y="447.76" class="st4" width="8" height="8"/>
	<rect x="369.21" y="371.7" class="st3" width="14.92" height="8"/>
	<rect x="352.08" y="358.78" class="st1" width="17.12" height="8"/>
	<rect x="259.71" y="344.24" class="st0" width="11.92" height="8"/>
	<rect x="323.95" y="344.24" class="st3" width="10.18" height="8"/>
	<rect x="338.81" y="344.24" class="st0" width="21.01" height="8"/>
	<rect x="312.03" y="358.78" class="st5" width="34.01" height="8"/>
	<rect x="451.6" y="372.85" class="st3" width="13.07" height="8"/>
	<rect x="308.66" y="402.12" class="st5" width="32.56" height="8"/>
	<rect x="303.41" y="386.91" class="st3" width="41.47" height="8"/>
	<rect x="351.75" y="386.91" class="st0" width="28.3" height="8"/>
	<rect x="239.27" y="402.12" class="st0" width="27.99" height="8"/>
	<rect x="239.27" y="386.91" class="st5" width="33.64" height="8"/>
	<rect x="303.85" y="432.55" class="st5" width="26.81" height="8"/>
	<rect x="491.58" y="402.12" class="st0" width="54.32" height="8"/>
	<rect x="303.3" y="462.97" class="st4" width="31.32" height="8"/>
	<rect x="271.19" y="329.03" class="st2" width="33.23" height="8"/>
	<rect x="341.02" y="329.03" class="st2" width="10.06" height="8"/>
	<rect x="308.6" y="329.03" class="st5" width="27.79" height="8"/>
	<rect x="275.47" y="344.24" class="st3" width="45.47" height="8"/>
	<rect x="262.42" y="358.78" class="st4" width="44.41" height="8"/>
	<rect x="250.13" y="358.78" class="st5" width="8.51" height="8"/>
	<rect x="322.85" y="417.34" class="st4" width="56.04" height="8"/>
	<rect x="239.27" y="371.7" class="st1" width="44.23" height="8"/>
	<rect x="288.02" y="371.7" class="st2" width="72.73" height="8"/>
</g>
</svg>
