<?xml version="1.0" encoding="utf-8"?>
<!-- Generator: Adobe Illustrator 24.1.1, SVG Export Plug-In . SVG Version: 6.00 Build 0)  -->
<svg version="1.1" id="Lag_1" xmlns="http://www.w3.org/2000/svg" xmlns:xlink="http://www.w3.org/1999/xlink" x="0px" y="0px"
	 viewBox="0 0 450 450" style="enable-background:new 0 0 450 450;" xml:space="preserve">
<style type="text/css">
	.st0{fill:#515F6D;}
	.st1{fill:#D7A458;}
	.st2{fill:#AA81AC;}
	.st3{fill:#D7734B;}
	.st4{fill:#7CA5B8;}
	.st5{fill:#CC5B64;}
	.st6{fill:#C0BCBB;}
	.st7{fill:#A5BA73;}
</style>
<rect x="171.51" y="213.87" class="st0" width="45" height="6.05"/>
<rect x="169.52" y="176.13" transform="matrix(0.7696 -0.6385 0.6385 0.7696 -71.4056 159.8821)" class="st0" width="32.67" height="5.54"/>
<rect x="171.51" y="187.17" class="st0" width="6.26" height="27.76"/>
<rect x="196.69" y="166.36" class="st0" width="11.82" height="6.05"/>
<rect x="193.52" y="185.38" class="st0" width="33.91" height="6.05"/>
<rect x="192.59" y="204.42" class="st0" width="39.91" height="6.05"/>
<rect x="221.33" y="213.87" class="st1" width="29.14" height="6.05"/>
<rect x="228.51" y="195.42" class="st2" width="25.98" height="6.05"/>
<rect x="199.55" y="195.42" class="st3" width="13.99" height="6.05"/>
<rect x="202.51" y="175.49" class="st1" width="15.93" height="6.05"/>
<rect x="222.44" y="175.34" class="st4" width="13.08" height="6.05"/>
<rect x="239.44" y="175.34" class="st5" width="20.11" height="6.05"/>
<rect x="212.39" y="166.35" class="st6" width="36.04" height="6.05"/>
<rect x="231.48" y="185.38" class="st7" width="16.95" height="6.05"/>
<rect x="247.5" y="204.42" class="st5" width="21.05" height="6.05"/>
<rect x="236.55" y="204.42" class="st4" width="6.72" height="6.05"/>
<rect x="217.66" y="195.42" class="st6" width="6.72" height="6.05"/>
</svg>
