<svg id="Lag_1" data-name="Lag 1" xmlns="http://www.w3.org/2000/svg" viewBox="0 0 383.54 321.66"><defs><style>.cls-1{fill:#bfbcba;}.cls-2{fill:#a5ba73;}.cls-3{fill:#d7a458;}.cls-4{fill:#cc5b64;}.cls-5{fill:#7ca5b8;}.cls-6{fill:#404f5f;}</style></defs><rect class="cls-1" x="141.36" y="222.96" width="21.48" height="8"/><rect class="cls-2" x="100.33" y="237.83" width="21.48" height="8"/><rect class="cls-3" x="80.33" y="237.83" width="15.8" height="8"/><rect class="cls-3" x="44.41" y="193.33" width="18.47" height="8"/><rect class="cls-4" x="52.84" y="267.46" width="26.51" height="8"/><rect class="cls-5" x="93.33" y="222.96" width="45.17" height="8"/><rect class="cls-4" x="124.82" y="237.83" width="52.72" height="8"/><rect class="cls-4" x="181.22" y="282.33" width="52.72" height="8"/><rect class="cls-3" x="108.03" y="208.2" width="18.05" height="8"/><rect class="cls-6" x="129.71" y="208.2" width="18.68" height="8"/><rect class="cls-6" x="238.2" y="282.33" width="18.68" height="8"/><rect class="cls-1" x="238.2" y="208.2" width="40.61" height="8"/><rect class="cls-6" x="121.47" y="193.1" width="12.6" height="8"/><rect class="cls-6" x="253.1" y="193.33" width="12.6" height="8"/><rect class="cls-1" x="292.01" y="237.83" width="12.6" height="8"/><rect class="cls-6" x="332.38" y="282.33" width="12.6" height="8"/><rect class="cls-3" x="278.81" y="223.08" width="12.6" height="8"/><rect class="cls-5" x="225.5" y="222.96" width="49.78" height="8"/><rect class="cls-2" x="183.02" y="193.1" width="15.46" height="8"/><rect class="cls-4" x="19.94" y="14.87" width="24.52" height="8"/><rect class="cls-4" x="199.53" y="89" width="31.58" height="8"/><rect class="cls-4" x="233" y="29.75" width="31.58" height="8"/><rect class="cls-4" x="112.8" y="44.62" width="50.59" height="8"/><rect class="cls-4" x="147.49" y="104.1" width="27.37" height="8"/><rect class="cls-4" x="147.49" y="29.75" width="27.37" height="8"/><rect class="cls-4" x="174.95" y="178.23" width="32.51" height="8"/><rect class="cls-3" x="161.06" y="163.36" width="25.25" height="8"/><rect class="cls-6" x="189.23" y="163.36" width="31.45" height="8"/><rect class="cls-6" x="191.85" y="133.62" width="31.45" height="8"/><rect class="cls-5" x="146.25" y="148.72" width="17.88" height="8"/><rect class="cls-5" x="286.97" y="74.13" width="17.88" height="8"/><rect class="cls-2" x="286.97" y="44.62" width="23.06" height="8"/><rect class="cls-2" x="342.69" y="14.87" width="17.51" height="8"/><rect class="cls-5" x="328.13" y="29.75" width="17.88" height="8"/><rect class="cls-5" x="301.09" y="59.49" width="17.88" height="8"/><rect class="cls-5" x="314.08" y="44.62" width="17.88" height="8"/><rect class="cls-5" x="263.86" y="59.49" width="55.11" height="8"/><rect class="cls-5" x="75.98" y="74.13" width="17.88" height="8"/><rect class="cls-5" x="125.12" y="29.75" width="17.88" height="8"/><rect class="cls-5" x="167.34" y="44.62" width="32.19" height="8"/><rect class="cls-5" x="204.33" y="44.62" width="77.25" height="8"/><rect class="cls-2" x="169.1" y="148.72" width="32.24" height="8"/><rect class="cls-5" x="206.17" y="148.72" width="28.51" height="8"/><rect class="cls-5" x="178.41" y="104.1" width="28.51" height="8"/><rect class="cls-2" x="179.59" y="29.75" width="48.36" height="8"/><rect class="cls-6" x="227.95" y="133.62" width="20.49" height="8"/><rect class="cls-6" x="125.64" y="118.97" width="38.49" height="8"/><rect class="cls-6" x="104.22" y="104.1" width="38.49" height="8"/><rect class="cls-3" x="99.44" y="74.13" width="41.24" height="8"/><rect class="cls-3" x="162.82" y="14.87" width="41.24" height="8"/><rect class="cls-3" x="78.82" y="29.75" width="41.24" height="8"/><rect class="cls-2" x="144.89" y="74.13" width="103.56" height="8"/><rect class="cls-3" x="155.15" y="59.26" width="103.56" height="8"/><rect class="cls-6" x="236.99" y="89.23" width="53.74" height="8"/><rect class="cls-6" x="61.17" y="59.49" width="89.72" height="8"/><rect class="cls-2" x="90.1" y="89.23" width="38.49" height="8"/><rect class="cls-2" x="33.38" y="29.75" width="38.49" height="8"/><rect class="cls-6" x="132.93" y="89" width="60.92" height="8"/><rect class="cls-6" x="49.23" y="14.87" width="108.75" height="8"/><rect class="cls-6" x="48.23" y="44.62" width="60.92" height="8"/><rect class="cls-6" x="238.2" y="118.97" width="20.49" height="8"/><rect class="cls-6" x="253.61" y="74.13" width="29.15" height="8"/><rect class="cls-6" x="269.8" y="29.75" width="53.21" height="8"/><rect class="cls-4" x="132.93" y="133.85" width="53.5" height="8"/><rect class="cls-4" x="207.94" y="14.87" width="45.16" height="8"/><rect class="cls-3" x="169.1" y="118.97" width="63.9" height="8"/><rect class="cls-4" x="212.7" y="104.1" width="63.9" height="8"/><rect class="cls-5" x="259.66" y="14.87" width="78.57" height="8"/><rect class="cls-6" x="2.34" y="282.34" width="6.82" height="8"/><rect class="cls-2" x="2.38" y="44.61" width="6.82" height="8"/><rect class="cls-4" x="2.34" y="267.46" width="16.3" height="8"/><rect class="cls-3" x="2.38" y="59.26" width="16.3" height="8"/><rect class="cls-3" x="2.34" y="252.59" width="28.95" height="8"/><rect class="cls-5" x="2.33" y="74.13" width="9.16" height="8"/><rect class="cls-4" x="14.39" y="74.13" width="16.9" height="8"/><rect class="cls-6" x="26.1" y="237.72" width="17.63" height="8"/><rect class="cls-5" x="2.34" y="237.74" width="20.7" height="8"/><rect class="cls-4" x="28.99" y="89.01" width="14.74" height="8"/><rect class="cls-4" x="2.33" y="103.88" width="10.58" height="8"/><rect class="cls-4" x="50.64" y="133.61" width="32.63" height="8"/><rect class="cls-4" x="49.22" y="163.36" width="32.63" height="8"/><rect class="cls-3" x="2.33" y="89.01" width="23.48" height="8"/><rect class="cls-5" x="39.59" y="222.84" width="17.78" height="8"/><rect class="cls-4" x="2.34" y="222.96" width="34.14" height="8"/><rect class="cls-6" x="16.81" y="103.88" width="40.57" height="8"/><rect class="cls-6" x="26.1" y="207.98" width="44.52" height="8"/><rect class="cls-5" x="2.34" y="207.98" width="21.16" height="8"/><rect class="cls-2" x="2.33" y="118.74" width="17.02" height="8"/><rect class="cls-3" x="23.16" y="118.74" width="17.02" height="8"/><rect class="cls-2" x="31.67" y="133.61" width="15.93" height="8"/><rect class="cls-3" x="44.36" y="118.74" width="26.26" height="8"/><rect class="cls-3" x="2.26" y="133.61" width="26.26" height="8"/><rect class="cls-3" x="19.35" y="163.36" width="26.26" height="8"/><rect class="cls-5" x="66.09" y="193.34" width="17.18" height="8"/><rect class="cls-4" x="2.13" y="193.34" width="39.33" height="8"/><rect class="cls-5" x="88.22" y="178.23" width="7.9" height="8"/><rect class="cls-1" x="2.33" y="178.23" width="30.15" height="8"/><rect class="cls-6" x="64.9" y="148.49" width="31.22" height="8"/><rect class="cls-5" x="42.28" y="148.72" width="19.91" height="8"/><rect class="cls-5" x="35.66" y="178.23" width="17.17" height="8"/><rect class="cls-4" x="2.33" y="148.72" width="36.03" height="8"/><rect class="cls-5" x="2.34" y="163.36" width="13.06" height="8"/><rect class="cls-2" x="85.91" y="163.36" width="21.08" height="8"/><rect class="cls-2" x="56.52" y="178.23" width="26.74" height="8"/><rect class="cls-2" x="374.85" y="44.62" width="6.82" height="8"/><rect class="cls-4" x="374.81" y="282.33" width="6.82" height="8"/><rect class="cls-6" x="266.26" y="311.62" width="8.79" height="8"/><rect class="cls-3" x="365.37" y="59.49" width="16.3" height="8"/><rect class="cls-2" x="365.33" y="267.69" width="16.3" height="8"/><rect class="cls-5" x="352.72" y="74.36" width="28.95" height="8"/><rect class="cls-6" x="352.72" y="252.82" width="28.95" height="8"/><rect class="cls-4" x="340.27" y="89.23" width="17.91" height="8"/><rect class="cls-2" x="362.25" y="89.23" width="19.43" height="8"/><rect class="cls-5" x="340.27" y="237.95" width="41.41" height="8"/><rect class="cls-3" x="326.63" y="104.1" width="20.88" height="8"/><rect class="cls-5" x="351.58" y="104.1" width="30.1" height="8"/><rect class="cls-6" x="326.63" y="223.08" width="22.91" height="8"/><rect class="cls-2" x="354.15" y="223.08" width="27.52" height="8"/><rect class="cls-1" x="313.39" y="118.97" width="42.79" height="8"/><rect class="cls-4" x="359.72" y="118.97" width="21.96" height="8"/><rect class="cls-3" x="341.21" y="208.2" width="40.47" height="8"/><rect class="cls-4" x="313.39" y="208.2" width="24.7" height="8"/><rect class="cls-2" x="300.74" y="133.85" width="27.71" height="8"/><rect class="cls-5" x="332.44" y="133.85" width="49.24" height="8"/><rect class="cls-1" x="300.74" y="193.33" width="53.42" height="8"/><rect class="cls-4" x="357.84" y="193.33" width="23.84" height="8"/><rect class="cls-4" x="288.1" y="148.72" width="73.34" height="8"/><rect class="cls-6" x="365.02" y="148.72" width="16.65" height="8"/><rect class="cls-2" x="343.05" y="178.46" width="26.24" height="8"/><rect class="cls-4" x="287.89" y="178.46" width="50.2" height="8"/><rect class="cls-6" x="372.18" y="178.46" width="9.49" height="8"/><rect class="cls-3" x="304.85" y="163.59" width="42.68" height="8"/><rect class="cls-4" x="277.02" y="163.59" width="22.17" height="8"/><rect class="cls-5" x="352.72" y="163.59" width="28.95" height="8"/><rect class="cls-2" x="9.68" width="72.7" height="8"/><rect class="cls-4" x="295.01" width="73.36" height="8"/><rect class="cls-1" x="217.26" width="72.7" height="8"/><rect class="cls-6" x="89.64" width="121.77" height="8"/><rect class="cls-4" x="14.29" y="311.62" width="91.42" height="8"/><rect class="cls-5" x="111.18" y="311.62" width="39.42" height="8"/><rect class="cls-3" x="181.43" y="297.2" width="31.93" height="8"/><rect class="cls-3" x="194.79" y="252.59" width="31.93" height="8"/><rect class="cls-6" x="269.3" y="237.95" width="17.7" height="8"/><rect class="cls-4" x="261.84" y="282.33" width="66.69" height="8"/><rect class="cls-3" x="210.75" y="237.83" width="53.83" height="8"/><rect class="cls-4" x="229.99" y="252.59" width="86.5" height="8"/><rect class="cls-4" x="134.48" y="297.2" width="40.95" height="8"/><rect class="cls-4" x="148.39" y="252.59" width="40.95" height="8"/><rect class="cls-6" x="136.18" y="267.46" width="49.26" height="8"/><rect class="cls-3" x="115.7" y="297.2" width="13.36" height="8"/><rect class="cls-6" x="127.76" y="252.59" width="13.36" height="8"/><rect class="cls-1" x="115.21" y="267.46" width="15.56" height="8"/><rect class="cls-3" x="84.19" y="267.46" width="26.04" height="8"/><rect class="cls-5" x="23.5" y="297.2" width="27.13" height="8"/><rect class="cls-6" x="56.82" y="297.2" width="55.02" height="8"/><rect class="cls-4" x="66.96" y="252.59" width="55.02" height="8"/><rect class="cls-4" x="156.99" y="311.62" width="104.22" height="8"/><rect class="cls-4" x="280.59" y="311.62" width="89.17" height="8"/><rect class="cls-2" x="220.54" y="297.2" width="136.74" height="8"/><rect class="cls-2" x="193.31" y="267.46" width="137.23" height="8"/><rect class="cls-2" x="38.77" y="282.33" width="137.23" height="8"/></svg>