<?xml version="1.0" encoding="utf-8"?>
<!-- Generator: Adobe Illustrator 24.1.1, SVG Export Plug-In . SVG Version: 6.00 Build 0)  -->
<svg version="1.1" id="Lag_1" xmlns="http://www.w3.org/2000/svg" xmlns:xlink="http://www.w3.org/1999/xlink" x="0px" y="0px"
	 viewBox="0 0 800 800" style="enable-background:new 0 0 800 800;" xml:space="preserve">
<style type="text/css">
	.st0{fill:#BFBCBA;}
	.st1{fill:#A5BA73;}
	.st2{fill:#D7A458;}
	.st3{fill:#CC5B64;}
	.st4{fill:#7CA5B8;}
	.st5{fill:#404F5F;}
</style>
<g>
	<g>
		<rect x="367.46" y="415.15" class="st0" width="21.48" height="8"/>
		<rect x="326.43" y="430.02" class="st1" width="21.48" height="8"/>
		<rect x="306.43" y="430.02" class="st2" width="15.8" height="8"/>
		<rect x="270.51" y="385.52" class="st2" width="18.47" height="8"/>
		<rect x="278.94" y="459.65" class="st3" width="26.51" height="8"/>
		<rect x="319.43" y="415.15" class="st4" width="45.17" height="8"/>
		<rect x="350.92" y="430.02" class="st3" width="52.72" height="8"/>
		<rect x="407.32" y="474.52" class="st3" width="52.72" height="8"/>
		<rect x="334.13" y="400.39" class="st2" width="18.05" height="8"/>
		<rect x="355.81" y="400.39" class="st5" width="18.68" height="8"/>
		<rect x="464.3" y="474.52" class="st5" width="18.68" height="8"/>
		<rect x="464.3" y="400.39" class="st0" width="40.61" height="8"/>
		<rect x="347.57" y="385.29" class="st5" width="12.6" height="8"/>
		<rect x="479.2" y="385.52" class="st5" width="12.6" height="8"/>
		<rect x="518.11" y="430.02" class="st0" width="12.6" height="8"/>
		<rect x="558.48" y="474.52" class="st5" width="12.6" height="8"/>
		<rect x="504.91" y="415.27" class="st2" width="12.6" height="8"/>
		<rect x="451.6" y="415.15" class="st4" width="49.78" height="8"/>
		<rect x="409.12" y="385.29" class="st1" width="15.46" height="8"/>
		<rect x="246.04" y="207.06" class="st3" width="24.52" height="8"/>
		<rect x="425.63" y="281.19" class="st3" width="31.58" height="8"/>
		<rect x="459.1" y="221.94" class="st3" width="31.58" height="8"/>
		<rect x="338.9" y="236.81" class="st3" width="50.59" height="8"/>
		<rect x="373.59" y="296.29" class="st3" width="27.37" height="8"/>
		<rect x="373.59" y="221.94" class="st3" width="27.37" height="8"/>
		<rect x="401.05" y="370.42" class="st3" width="32.51" height="8"/>
		<rect x="387.16" y="355.55" class="st2" width="25.25" height="8"/>
		<rect x="415.33" y="355.55" class="st5" width="31.45" height="8"/>
		<rect x="417.95" y="325.81" class="st5" width="31.45" height="8"/>
		<rect x="372.35" y="340.91" class="st4" width="17.88" height="8"/>
		<rect x="513.07" y="266.32" class="st4" width="17.88" height="8"/>
		<rect x="513.07" y="236.81" class="st1" width="23.06" height="8"/>
		<rect x="568.79" y="207.06" class="st1" width="17.51" height="8"/>
		<rect x="554.23" y="221.94" class="st4" width="17.88" height="8"/>
		<rect x="527.19" y="251.68" class="st4" width="17.88" height="8"/>
		<rect x="540.18" y="236.81" class="st4" width="17.88" height="8"/>
		<rect x="489.96" y="251.68" class="st4" width="55.11" height="8"/>
		<rect x="302.08" y="266.32" class="st4" width="17.88" height="8"/>
		<rect x="351.22" y="221.94" class="st4" width="17.88" height="8"/>
		<rect x="393.44" y="236.81" class="st4" width="32.19" height="8"/>
		<rect x="430.43" y="236.81" class="st4" width="77.25" height="8"/>
		<rect x="395.2" y="340.91" class="st1" width="32.24" height="8"/>
		<rect x="432.27" y="340.91" class="st4" width="28.51" height="8"/>
		<rect x="404.51" y="296.29" class="st4" width="28.51" height="8"/>
		<rect x="405.69" y="221.94" class="st1" width="48.36" height="8"/>
		<rect x="454.05" y="325.81" class="st5" width="20.49" height="8"/>
		<rect x="351.74" y="311.16" class="st5" width="38.49" height="8"/>
		<rect x="330.32" y="296.29" class="st5" width="38.49" height="8"/>
		<rect x="325.54" y="266.32" class="st2" width="41.24" height="8"/>
		<rect x="388.92" y="207.06" class="st2" width="41.24" height="8"/>
		<rect x="304.92" y="221.94" class="st2" width="41.24" height="8"/>
		<rect x="370.99" y="266.32" class="st1" width="103.56" height="8"/>
		<rect x="381.25" y="251.45" class="st2" width="103.56" height="8"/>
		<rect x="463.09" y="281.42" class="st5" width="53.74" height="8"/>
		<rect x="287.27" y="251.68" class="st5" width="89.72" height="8"/>
		<rect x="316.2" y="281.42" class="st1" width="38.49" height="8"/>
		<rect x="259.48" y="221.94" class="st1" width="38.49" height="8"/>
		<rect x="359.03" y="281.19" class="st5" width="60.92" height="8"/>
		<rect x="275.33" y="207.06" class="st5" width="108.75" height="8"/>
		<rect x="274.33" y="236.81" class="st5" width="60.92" height="8"/>
		<rect x="464.3" y="311.16" class="st5" width="20.49" height="8"/>
		<rect x="479.71" y="266.32" class="st5" width="29.15" height="8"/>
		<rect x="495.9" y="221.94" class="st5" width="53.21" height="8"/>
		<rect x="359.03" y="326.04" class="st3" width="53.5" height="8"/>
		<rect x="434.04" y="207.06" class="st3" width="45.16" height="8"/>
		<rect x="395.2" y="311.16" class="st2" width="63.9" height="8"/>
		<rect x="438.8" y="296.29" class="st3" width="63.9" height="8"/>
		<rect x="485.76" y="207.06" class="st4" width="78.57" height="8"/>
		
			<rect x="228.43" y="474.52" transform="matrix(-1 -1.224647e-16 1.224647e-16 -1 463.6889 957.0453)" class="st5" width="6.82" height="8"/>
		
			<rect x="228.48" y="236.81" transform="matrix(-1 -1.224647e-16 1.224647e-16 -1 463.7836 481.6146)" class="st1" width="6.82" height="8"/>
		
			<rect x="228.43" y="459.65" transform="matrix(-1 -1.224647e-16 1.224647e-16 -1 473.1694 927.3023)" class="st3" width="16.3" height="8"/>
		
			<rect x="228.48" y="251.45" transform="matrix(-1 -1.224647e-16 1.224647e-16 -1 473.264 510.8992)" class="st2" width="16.3" height="8"/>
		
			<rect x="228.43" y="444.78" transform="matrix(-1 -1.224647e-16 1.224647e-16 -1 485.82 897.5592)" class="st2" width="28.95" height="8"/>
		
			<rect x="228.43" y="266.32" transform="matrix(-1 -1.224647e-16 1.224647e-16 -1 466.0223 540.6423)" class="st4" width="9.16" height="8"/>
		
			<rect x="240.48" y="266.32" transform="matrix(-1 -1.224647e-16 1.224647e-16 -1 497.8702 540.6423)" class="st3" width="16.9" height="8"/>
		
			<rect x="252.21" y="429.91" transform="matrix(-1 -1.224647e-16 1.224647e-16 -1 522.0471 867.8161)" class="st5" width="17.63" height="8"/>
		
			<rect x="228.43" y="429.93" transform="matrix(-1 -1.224647e-16 1.224647e-16 -1 477.5695 867.8631)" class="st4" width="20.7" height="8"/>
		
			<rect x="255.1" y="281.19" transform="matrix(-1 -1.224647e-16 1.224647e-16 -1 524.9379 570.3854)" class="st3" width="14.74" height="8"/>
		
			<rect x="228.43" y="296.06" transform="matrix(-1 -1.224647e-16 1.224647e-16 -1 467.4482 600.1285)" class="st3" width="10.58" height="8"/>
		
			<rect x="276.74" y="325.81" transform="matrix(-1 -1.224647e-16 1.224647e-16 -1 586.113 659.6146)" class="st3" width="32.63" height="8"/>
		
			<rect x="275.33" y="355.55" transform="matrix(-1 -1.224647e-16 1.224647e-16 -1 583.2881 719.1008)" class="st3" width="32.63" height="8"/>
		
			<rect x="228.43" y="281.19" transform="matrix(-1 -1.224647e-16 1.224647e-16 -1 480.3476 570.3854)" class="st2" width="23.48" height="8"/>
		
			<rect x="265.7" y="415.04" transform="matrix(-1 -1.224647e-16 1.224647e-16 -1 549.174 838.0731)" class="st4" width="17.78" height="8"/>
		
			<rect x="228.43" y="415.15" transform="matrix(-1 -1.224647e-16 1.224647e-16 -1 491.0109 838.3023)" class="st3" width="34.14" height="8"/>
		
			<rect x="242.91" y="296.06" transform="matrix(-1 -1.224647e-16 1.224647e-16 -1 526.3889 600.1285)" class="st5" width="40.57" height="8"/>
		
			<rect x="252.21" y="400.16" transform="matrix(-1 -1.224647e-16 1.224647e-16 -1 548.9297 808.33)" class="st5" width="44.52" height="8"/>
		
			<rect x="228.43" y="400.16" transform="matrix(-1 -1.224647e-16 1.224647e-16 -1 478.0303 808.33)" class="st4" width="21.16" height="8"/>
		
			<rect x="228.43" y="310.94" transform="matrix(-1 -1.224647e-16 1.224647e-16 -1 473.8855 629.8715)" class="st1" width="17.02" height="8"/>
		
			<rect x="249.27" y="310.94" transform="matrix(-1 -1.224647e-16 1.224647e-16 -1 515.5563 629.8715)" class="st2" width="17.02" height="8"/>
		
			<rect x="257.78" y="325.81" transform="matrix(-1 -1.224647e-16 1.224647e-16 -1 531.4868 659.6146)" class="st1" width="15.93" height="8"/>
		
			<rect x="270.46" y="310.94" transform="matrix(-1 -1.224647e-16 1.224647e-16 -1 567.1832 629.8715)" class="st2" width="26.26" height="8"/>
		
			<rect x="228.37" y="325.81" transform="matrix(-1 -1.224647e-16 1.224647e-16 -1 482.9922 659.6146)" class="st2" width="26.26" height="8"/>
		
			<rect x="245.45" y="355.55" transform="matrix(-1 -1.224647e-16 1.224647e-16 -1 517.1669 719.1008)" class="st2" width="26.26" height="8"/>
		
			<rect x="292.19" y="385.52" transform="matrix(-1 -1.224647e-16 1.224647e-16 -1 601.5646 779.0453)" class="st4" width="17.18" height="8"/>
		
			<rect x="228.22" y="385.52" transform="matrix(-1 -1.224647e-16 1.224647e-16 -1 495.783 779.0453)" class="st3" width="39.33" height="8"/>
		
			<rect x="314.32" y="370.42" transform="matrix(-1 -1.224647e-16 1.224647e-16 -1 636.545 748.8438)" class="st4" width="7.9" height="8"/>
		
			<rect x="228.43" y="370.42" transform="matrix(-1 -1.224647e-16 1.224647e-16 -1 487.0165 748.8438)" class="st0" width="30.15" height="8"/>
		
			<rect x="291" y="340.68" transform="matrix(-1 -1.224647e-16 1.224647e-16 -1 613.2236 689.3577)" class="st5" width="31.22" height="8"/>
		
			<rect x="268.38" y="340.91" transform="matrix(-1 -1.224647e-16 1.224647e-16 -1 556.669 689.8161)" class="st4" width="19.91" height="8"/>
		
			<rect x="261.76" y="370.42" transform="matrix(-1 -1.224647e-16 1.224647e-16 -1 540.6974 748.8438)" class="st4" width="17.17" height="8"/>
		
			<rect x="228.43" y="340.91" transform="matrix(-1 -1.224647e-16 1.224647e-16 -1 492.8936 689.8161)" class="st3" width="36.03" height="8"/>
		
			<rect x="228.43" y="355.55" transform="matrix(-1 -1.224647e-16 1.224647e-16 -1 469.9292 719.1008)" class="st4" width="13.06" height="8"/>
		
			<rect x="312.02" y="355.55" transform="matrix(-1 -1.224647e-16 1.224647e-16 -1 645.1096 719.1008)" class="st1" width="21.08" height="8"/>
		
			<rect x="282.63" y="370.42" transform="matrix(-1 -1.224647e-16 1.224647e-16 -1 591.9908 748.8438)" class="st1" width="26.74" height="8"/>
	</g>
	<g>
		<rect x="600.95" y="236.81" class="st1" width="6.82" height="8"/>
		<rect x="600.91" y="474.52" class="st3" width="6.82" height="8"/>
		<rect x="492.36" y="503.81" class="st5" width="8.79" height="8"/>
		<rect x="591.47" y="251.68" class="st2" width="16.3" height="8"/>
		<rect x="591.43" y="459.88" class="st1" width="16.3" height="8"/>
		<rect x="578.82" y="266.55" class="st4" width="28.95" height="8"/>
		<rect x="578.82" y="445.01" class="st5" width="28.95" height="8"/>
		<rect x="566.37" y="281.42" class="st3" width="17.91" height="8"/>
		<rect x="588.35" y="281.42" class="st1" width="19.43" height="8"/>
		<rect x="566.37" y="430.14" class="st4" width="41.41" height="8"/>
		<rect x="552.73" y="296.29" class="st2" width="20.88" height="8"/>
		<rect x="577.68" y="296.29" class="st4" width="30.1" height="8"/>
		<rect x="552.73" y="415.27" class="st5" width="22.91" height="8"/>
		<rect x="580.25" y="415.27" class="st1" width="27.52" height="8"/>
		<rect x="539.49" y="311.16" class="st0" width="42.79" height="8"/>
		<rect x="585.82" y="311.16" class="st3" width="21.96" height="8"/>
		<rect x="567.31" y="400.39" class="st2" width="40.47" height="8"/>
		<rect x="539.49" y="400.39" class="st3" width="24.7" height="8"/>
		<rect x="526.84" y="326.04" class="st1" width="27.71" height="8"/>
		<rect x="558.54" y="326.04" class="st4" width="49.24" height="8"/>
		<rect x="526.84" y="385.52" class="st0" width="53.42" height="8"/>
		<rect x="583.94" y="385.52" class="st3" width="23.84" height="8"/>
		<rect x="514.2" y="340.91" class="st3" width="73.34" height="8"/>
		<rect x="591.12" y="340.91" class="st5" width="16.65" height="8"/>
		<rect x="569.15" y="370.65" class="st1" width="26.24" height="8"/>
		<rect x="513.99" y="370.65" class="st3" width="50.2" height="8"/>
		<rect x="598.28" y="370.65" class="st5" width="9.49" height="8"/>
		<rect x="530.95" y="355.78" class="st2" width="42.68" height="8"/>
		<rect x="503.12" y="355.78" class="st3" width="22.17" height="8"/>
		<rect x="578.82" y="355.78" class="st4" width="28.95" height="8"/>
		<rect x="235.78" y="192.19" class="st1" width="72.7" height="8"/>
		<rect x="521.11" y="192.19" class="st3" width="73.36" height="8"/>
		<rect x="443.36" y="192.19" class="st0" width="72.7" height="8"/>
		<rect x="315.74" y="192.19" class="st5" width="121.77" height="8"/>
		<rect x="240.39" y="503.81" class="st3" width="91.42" height="8"/>
		<rect x="337.28" y="503.81" class="st4" width="39.42" height="8"/>
		<rect x="407.53" y="489.39" class="st2" width="31.93" height="8"/>
		<rect x="420.89" y="444.78" class="st2" width="31.93" height="8"/>
		<rect x="495.4" y="430.14" class="st5" width="17.7" height="8"/>
		<rect x="487.94" y="474.52" class="st3" width="66.69" height="8"/>
		<rect x="436.85" y="430.02" class="st2" width="53.83" height="8"/>
		<rect x="456.09" y="444.78" class="st3" width="86.5" height="8"/>
		<rect x="360.58" y="489.39" class="st3" width="40.95" height="8"/>
		<rect x="374.49" y="444.78" class="st3" width="40.95" height="8"/>
		<rect x="362.28" y="459.65" class="st5" width="49.26" height="8"/>
		<rect x="341.8" y="489.39" class="st2" width="13.36" height="8"/>
		<rect x="353.86" y="444.78" class="st5" width="13.36" height="8"/>
		<rect x="341.31" y="459.65" class="st0" width="15.56" height="8"/>
		<rect x="310.29" y="459.65" class="st2" width="26.04" height="8"/>
		<rect x="249.6" y="489.39" class="st4" width="27.13" height="8"/>
		<rect x="282.92" y="489.39" class="st5" width="55.02" height="8"/>
		<rect x="293.06" y="444.78" class="st3" width="55.02" height="8"/>
		<rect x="383.09" y="503.81" class="st3" width="104.22" height="8"/>
		<rect x="506.69" y="503.81" class="st3" width="89.17" height="8"/>
		<rect x="446.64" y="489.39" class="st1" width="136.74" height="8"/>
		<rect x="419.41" y="459.65" class="st1" width="137.23" height="8"/>
		<rect x="264.87" y="474.52" class="st1" width="137.23" height="8"/>
	</g>
</g>
</svg>
