<svg id="Lag_1" data-name="Lag 1" xmlns="http://www.w3.org/2000/svg" viewBox="0 0 626 645"><defs><style>.cls-1{fill:#d7a458;}.cls-2{fill:#a5ba73;}.cls-3{fill:#bfbcba;}.cls-4{fill:#404f5f;}.cls-5{fill:#7ca5b8;}.cls-6{fill:#cc5b64;}.cls-7{fill:none;}</style></defs><rect class="cls-1" x="7.64" y="356.72" width="140.46" height="8"/><rect class="cls-2" x="8.59" y="340.54" width="180.08" height="8"/><rect class="cls-2" x="155.64" y="356.72" width="140.46" height="8"/><rect class="cls-3" x="198.23" y="461.11" width="145.66" height="8"/><rect class="cls-4" x="8.25" y="387.17" width="54.44" height="8"/><rect class="cls-4" x="71.25" y="387.17" width="54.44" height="8"/><rect class="cls-3" x="223.87" y="445.73" width="7.33" height="8"/><rect class="cls-3" x="241.49" y="386.73" width="18.29" height="8"/><rect class="cls-3" x="197.74" y="340.54" width="18.29" height="8"/><rect class="cls-3" x="110.8" y="403.73" width="14.98" height="8"/><rect class="cls-4" x="145.27" y="372.72" width="123.22" height="8"/><rect class="cls-2" x="133.27" y="402.72" width="135.22" height="8"/><rect class="cls-5" x="330.88" y="340.41" width="64.12" height="8"/><rect class="cls-2" x="284.11" y="340.41" width="41.22" height="8"/><rect class="cls-2" x="312.26" y="402.72" width="82.74" height="8"/><rect class="cls-6" x="240.62" y="415.07" width="56.91" height="8"/><rect class="cls-4" x="263.98" y="430.57" width="50.09" height="8"/><rect class="cls-4" x="305.85" y="356.57" width="56.64" height="8"/><rect class="cls-4" x="222.31" y="340.54" width="56.64" height="8"/><rect class="cls-5" x="234.82" y="446.05" width="83.67" height="8"/><rect class="cls-1" x="227.75" y="430.72" width="29.03" height="8"/><rect class="cls-6" x="272.88" y="402.72" width="32.83" height="8"/><rect class="cls-3" x="279.88" y="385.72" width="32.83" height="8"/><rect class="cls-5" x="272.88" y="372.72" width="75.61" height="8"/><rect class="cls-6" x="316.88" y="385.72" width="77.12" height="8"/><rect class="cls-3" x="508.98" y="180.81" width="22.32" height="8"/><rect class="cls-2" x="508.98" y="164.84" width="22.32" height="8"/><rect class="cls-6" x="508.98" y="148.87" width="22.32" height="8"/><rect class="cls-5" x="508.98" y="132.91" width="22.32" height="8"/><rect class="cls-4" x="508.98" y="116.94" width="22.32" height="8"/><rect class="cls-6" x="508.98" y="100.97" width="22.32" height="8"/><rect class="cls-2" x="508.98" y="85" width="22.32" height="8"/><rect class="cls-3" x="508.98" y="69.03" width="22.32" height="8"/><rect class="cls-6" x="508.98" y="53.07" width="22.32" height="8"/><rect class="cls-5" x="508.98" y="37.1" width="22.32" height="8"/><rect class="cls-2" x="451.51" y="21.13" width="76.18" height="8"/><rect class="cls-4" x="389.9" y="21.13" width="53.64" height="8"/><rect class="cls-3" x="405.45" y="5.16" width="115.59" height="8"/><rect class="cls-4" x="7.36" y="324.37" width="22.32" height="8"/><rect class="cls-3" x="7.36" y="308.4" width="22.32" height="8"/><rect class="cls-6" x="7.36" y="292.44" width="22.32" height="8"/><rect class="cls-2" x="7.36" y="276.47" width="22.32" height="8"/><rect class="cls-3" x="7.36" y="260.5" width="22.32" height="8"/><rect class="cls-4" x="7.36" y="244.53" width="22.32" height="8"/><rect class="cls-6" x="7.36" y="228.56" width="22.32" height="8"/><rect class="cls-5" x="7.36" y="212.59" width="22.32" height="8"/><rect class="cls-5" x="7.36" y="196.63" width="22.32" height="8"/><rect class="cls-6" x="7.36" y="180.66" width="22.32" height="8"/><rect class="cls-3" x="7.36" y="164.69" width="22.32" height="8"/><rect class="cls-2" x="7.36" y="148.72" width="22.32" height="8"/><rect class="cls-4" x="7.36" y="132.75" width="22.32" height="8"/><rect class="cls-6" x="7.36" y="116.79" width="22.32" height="8"/><rect class="cls-5" x="7.36" y="100.82" width="22.32" height="8"/><rect class="cls-4" x="7.36" y="84.85" width="22.32" height="8"/><rect class="cls-2" x="7.36" y="68.88" width="22.32" height="8"/><rect class="cls-3" x="7.36" y="52.91" width="22.32" height="8"/><rect class="cls-6" x="6.51" y="36.95" width="22.32" height="8"/><rect class="cls-6" x="12.51" y="20.98" width="22.32" height="8"/><rect class="cls-6" x="11.73" y="20.98" width="22.32" height="8"/><rect class="cls-6" x="41.98" y="20.98" width="71.4" height="8"/><rect class="cls-3" x="405.45" y="85" width="71.4" height="8"/><rect class="cls-3" x="407.85" y="116.94" width="71.4" height="8"/><rect class="cls-3" x="389.9" y="100.97" width="71.4" height="8"/><rect class="cls-3" x="219.55" y="148.87" width="71.4" height="8"/><rect class="cls-3" x="221.94" y="180.81" width="71.4" height="8"/><rect class="cls-3" x="204" y="164.84" width="71.4" height="8"/><rect class="cls-3" x="114.02" y="260.5" width="71.4" height="8"/><rect class="cls-3" x="116.41" y="292.44" width="71.4" height="8"/><rect class="cls-3" x="98.47" y="276.47" width="71.4" height="8"/><rect class="cls-3" x="117.69" y="68.88" width="71.4" height="8"/><rect class="cls-3" x="120.08" y="100.82" width="71.4" height="8"/><rect class="cls-3" x="102.14" y="84.85" width="71.4" height="8"/><rect class="cls-3" x="17.84" y="5.01" width="50.8" height="8"/><rect class="cls-5" x="76.73" y="5.01" width="50.8" height="8"/><rect class="cls-5" x="133.8" y="5.01" width="69.17" height="8"/><rect class="cls-2" x="213.87" y="5.01" width="25.4" height="8"/><rect class="cls-4" x="340" y="5.01" width="56.08" height="8"/><rect class="cls-4" x="248.22" y="5.01" width="84.46" height="8"/><rect class="cls-6" x="221.36" y="21.13" width="163.47" height="8"/><rect class="cls-3" x="120.76" y="20.98" width="95.53" height="8"/><rect class="cls-4" x="354.88" y="372.72" width="40.12" height="8"/><rect class="cls-1" x="134.34" y="387.07" width="99.77" height="8"/><rect class="cls-6" x="139.12" y="461.3" width="53.97" height="8"/><rect class="cls-6" x="127.34" y="477.3" width="52.25" height="8"/><rect class="cls-6" x="186.7" y="477.3" width="56.01" height="8"/><rect class="cls-6" x="239.33" y="477.3" width="53.97" height="8"/><rect class="cls-1" x="301.97" y="477.3" width="53.97" height="8"/><rect class="cls-6" x="348.97" y="461.3" width="46.29" height="8"/><rect class="cls-5" x="8.59" y="372.64" width="58.63" height="8"/><rect class="cls-5" x="75.59" y="372.64" width="58.63" height="8"/><rect class="cls-5" x="14.62" y="403.73" width="46.07" height="8"/><rect class="cls-5" x="58.62" y="403.73" width="46.07" height="8"/><rect class="cls-4" x="119.95" y="492.62" width="94.55" height="8"/><rect class="cls-1" x="224.95" y="492.62" width="54" height="8"/><rect class="cls-4" x="287.95" y="492.99" width="24" height="8"/><rect class="cls-4" x="358.5" y="477.3" width="36.5" height="8"/><rect class="cls-4" x="320.95" y="492.99" width="74.05" height="8"/><rect class="cls-4" x="371.49" y="356.3" width="23.51" height="8"/><path class="cls-7" d="M517.55,215.16H487.6a2.63,2.63,0,0,0-2.73,2.49,2.33,2.33,0,0,0,.45,1.36,2.81,2.81,0,0,0,2.28,1.14h29.95a2.78,2.78,0,0,0,2.28-1.14,2.33,2.33,0,0,0,.45-1.36A2.63,2.63,0,0,0,517.55,215.16Z"/><path class="cls-7" d="M474.84,215.11a2.67,2.67,0,0,0-2.78,2.55,2.35,2.35,0,0,0,.44,1.36,2.92,2.92,0,0,0,4.7,0,2.4,2.4,0,0,0,.44-1.36A2.69,2.69,0,0,0,474.84,215.11Z"/><polygon class="cls-7" points="610.03 584.79 610.03 546.94 610.03 538.94 610.03 515.88 610.03 507.88 610.03 499.85 610.03 491.85 610.03 485.4 610.03 477.4 610.03 469.9 610.03 461.9 610.03 453.85 610.03 445.85 610.03 438.57 610.03 430.57 610.03 422.83 610.03 414.83 610.03 407.35 610.03 399.35 610.03 391.85 610.03 383.85 610.03 373.95 610.03 365.95 610.03 358.43 610.03 350.43 610.03 349.99 610.03 328.03 610.03 320.03 610.03 312.31 610.03 304.31 610.03 281.13 610.03 273.13 610.03 265.46 610.03 257.46 610.03 249.98 610.03 241.98 610.03 234.49 610.03 233.1 529.36 233.1 517.05 233.1 503.69 233.1 492.02 233.1 450.94 233.1 438.08 233.1 409.76 233.1 409.76 234.49 409.76 241.98 409.76 249.98 409.76 257.46 409.76 265.46 409.76 273.2 409.76 281.2 409.76 288.81 409.76 296.81 409.76 304.42 409.76 312.42 409.76 320.03 409.76 328.03 409.76 334.69 409.76 342.69 409.76 350.51 409.76 358.51 409.76 366.72 409.76 374.72 409.76 383.85 409.76 391.85 409.76 399.85 409.76 407.85 409.76 414.85 409.76 422.85 409.76 430.85 409.76 438.85 409.76 445.85 409.76 453.85 409.76 461.85 409.76 469.85 409.76 476.85 409.76 484.85 409.76 507.85 409.76 515.85 409.76 522.85 409.76 530.85 409.76 538.33 409.76 546.33 409.76 554.69 409.76 562.69 409.76 569.29 409.76 577.29 409.76 585.03 409.76 588.47 429.19 588.47 437.13 588.47 506.21 588.47 513.22 588.47 585.31 588.47 595.54 588.47 610.03 588.47 610.03 584.79"/><path class="cls-7" d="M545,215.16H531.19a2.63,2.63,0,0,0-2.73,2.49,2.33,2.33,0,0,0,.45,1.36,2.81,2.81,0,0,0,2.28,1.14H545a2.78,2.78,0,0,0,2.28-1.14,2.33,2.33,0,0,0,.45-1.36A2.63,2.63,0,0,0,545,215.16Z"/><path class="cls-7" d="M517.38,616.15a12.52,12.52,0,0,0,5.74-7.51,11.32,11.32,0,0,0-.83-8,14.14,14.14,0,0,0-24.78,0,11.32,11.32,0,0,0-.83,8,12.55,12.55,0,0,0,5.74,7.51,14.61,14.61,0,0,0,15,0Z"/><rect class="cls-7" x="401.18" y="422.85" width="8.58" height="8"/><rect class="cls-7" x="610.03" y="373.95" width="8.58" height="9.9"/><polygon class="cls-7" points="610.03 349.99 618.61 349.99 618.61 342.3 616.94 342.3 616.94 334.3 618.61 334.3 618.61 328.03 610.03 328.03 610.03 349.99"/><polygon class="cls-7" points="610.03 304.31 618.61 304.31 618.61 296.81 617.56 296.81 617.56 288.81 618.61 288.81 618.61 281.13 610.03 281.13 610.03 304.31"/><rect class="cls-7" x="610.03" y="358.43" width="8.58" height="7.52"/><rect class="cls-7" x="610.03" y="312.31" width="8.58" height="7.71"/><rect class="cls-7" x="610.03" y="234.49" width="8.58" height="7.48"/><path class="cls-7" d="M409.76,234.49h-1v-8h29.27v6.6h12.86v-6.6H492v6.6h11.67v-6.6H517v6.6h12.32v-6.6h89.22a28.08,28.08,0,0,0-1.15-7.24h-2.52v-5.94a31.55,31.55,0,0,0-8-9.3H496.68v-7.38H484.54V204H431.33v-7.23a35.48,35.48,0,0,0-12.14,3.32V204h-6.3a32,32,0,0,0-6.6,7h37.17v8h-41a28.26,28.26,0,0,0-1.24,8.25V242h8.58v-7.48ZM456.54,211H602.18v8H547.27a2.81,2.81,0,0,1-2.28,1.14H531.18A2.78,2.78,0,0,1,528.9,219h-9.07a2.81,2.81,0,0,1-2.28,1.14H487.6a2.78,2.78,0,0,1-2.28-1.14h-8.14a2.92,2.92,0,0,1-4.7,0h-16v-8Z"/><rect class="cls-7" x="610.03" y="249.98" width="8.58" height="7.48"/><rect class="cls-7" x="610.03" y="265.46" width="8.58" height="7.67"/><rect class="cls-7" x="401.18" y="249.98" width="8.58" height="7.48"/><rect class="cls-7" x="610.03" y="485.4" width="8.58" height="6.45"/><rect class="cls-7" x="610.03" y="499.85" width="8.58" height="8.04"/><rect class="cls-7" x="610.03" y="469.9" width="8.58" height="7.5"/><polygon class="cls-7" points="610.03 538.94 618.61 538.94 618.61 530.85 613.18 530.85 613.18 522.85 618.61 522.85 618.61 515.88 610.03 515.88 610.03 538.94"/><polygon class="cls-7" points="610.03 445.85 617.12 445.85 617.12 453.85 610.03 453.85 610.03 461.9 618.61 461.9 618.61 438.57 610.03 438.57 610.03 445.85"/><rect class="cls-7" x="610.03" y="407.35" width="8.58" height="7.48"/><rect class="cls-7" x="610.03" y="422.83" width="8.58" height="7.74"/><rect class="cls-7" x="610.03" y="391.85" width="8.58" height="7.5"/><rect class="cls-7" x="401.18" y="453.85" width="8.58" height="8"/><rect class="cls-7" x="401.18" y="469.85" width="8.58" height="7"/><rect class="cls-7" x="401.18" y="438.85" width="8.58" height="7"/><polygon class="cls-7" points="610.03 584.79 618.61 584.79 618.61 577.29 618.26 577.29 618.26 569.29 618.61 569.29 618.61 562.69 613.9 562.69 613.9 554.69 618.61 554.69 618.61 546.94 610.03 546.94 610.03 584.79"/><rect class="cls-7" x="401.18" y="265.46" width="8.58" height="7.74"/><rect class="cls-7" x="401.18" y="484.85" width="8.58" height="23"/><rect class="cls-7" x="401.18" y="546.33" width="8.58" height="8.36"/><rect class="cls-7" x="401.18" y="577.29" width="8.58" height="7.74"/><path class="cls-7" d="M533.9,608.64v-8h84a28,28,0,0,0,.73-6.37v-1.48H595.53v-4.32H585.3V593H513.21v-4.56h-7V593H437.11v-4.56h-7.94V593h-28v1.24a28.6,28.6,0,0,0,.73,6.37H412v8h-7a31.15,31.15,0,0,0,6.15,7.51h35v8H427.3a36.29,36.29,0,0,0,7.35.75H585.13a36.86,36.86,0,0,0,7.35-.75H458.92v-8h43.49a12.52,12.52,0,0,1-5.74-7.51H425.39v-8H497.5a14.14,14.14,0,0,1,24.78,0h1.91v8h-1.07a12.55,12.55,0,0,1-5.74,7.51h87.18v3a31.85,31.85,0,0,0,10.12-10.55Z"/><rect class="cls-7" x="401.18" y="562.69" width="8.58" height="6.6"/><rect class="cls-7" x="401.18" y="530.85" width="8.58" height="7.48"/><rect class="cls-7" x="401.18" y="312.42" width="8.58" height="7.61"/><rect class="cls-7" x="401.18" y="296.81" width="8.58" height="7.61"/><rect class="cls-7" x="401.18" y="281.2" width="8.58" height="7.61"/><rect class="cls-7" x="401.18" y="328.03" width="8.58" height="6.66"/><polygon class="cls-7" points="409.76 374.72 404.02 374.72 404.02 366.72 409.76 366.72 409.76 358.51 401.18 358.51 401.18 383.85 409.76 383.85 409.76 374.72"/><rect class="cls-7" x="401.18" y="342.69" width="8.58" height="7.82"/><rect class="cls-7" x="401.18" y="391.85" width="8.58" height="8"/><rect class="cls-7" x="401.18" y="407.85" width="8.58" height="7"/><rect class="cls-7" x="401.18" y="515.85" width="8.58" height="7"/><path class="cls-6" d="M574.51,204v-7.55H495.69V204Z"/><rect class="cls-2" x="401.18" y="522.85" width="12.3" height="8"/><path class="cls-3" d="M489.88,204v-7.55H434.47V204Z"/><path class="cls-4" d="M443.47,211H404.14c0,3.38-.05,4.92-.05,8h39.38v-8Z"/><rect class="cls-5" x="605.82" y="242.13" width="13" height="8"/><rect class="cls-3" x="503.69" y="226.49" width="13.36" height="6.6"/><path class="cls-2" d="M524.35,233.1h94.26v-5.84c0-.26,0-.51,0-.77H524.36v6.61Z"/><rect class="cls-5" x="444.24" y="226.49" width="52.45" height="6.6"/><polygon class="cls-6" points="438.08 233.1 438.08 226.49 401.18 226.49 401.18 233.1 401.77 233.1 402.39 233.1 438.08 233.1"/><rect class="cls-4" x="401.18" y="241.98" width="12.3" height="8"/><rect class="cls-6" x="605.82" y="257.61" width="13" height="8"/><rect class="cls-6" x="401.18" y="257.46" width="12.3" height="8"/><rect class="cls-3" x="401.18" y="273.2" width="12.3" height="8"/><rect class="cls-3" x="605.82" y="304.46" width="13" height="8"/><rect class="cls-3" x="605.82" y="384" width="13" height="8"/><rect class="cls-3" x="532.96" y="384" width="31.71" height="8"/><rect class="cls-3" x="518.02" y="366.1" width="31.71" height="8"/><rect class="cls-3" x="518.02" y="399.5" width="31.71" height="8"/><rect class="cls-3" x="464.11" y="321.23" width="31.71" height="8"/><rect class="cls-3" x="449.18" y="303.33" width="31.71" height="8"/><rect class="cls-3" x="449.18" y="336.73" width="31.71" height="8"/><rect class="cls-3" x="543.39" y="273.31" width="31.71" height="8"/><rect class="cls-3" x="528.46" y="255.41" width="31.71" height="8"/><rect class="cls-3" x="528.46" y="288.81" width="31.71" height="8"/><rect class="cls-3" x="450.04" y="539.53" width="31.71" height="8"/><rect class="cls-3" x="435.1" y="521.63" width="31.71" height="8"/><rect class="cls-3" x="435.1" y="555.03" width="31.71" height="8"/><rect class="cls-6" x="401.18" y="304.42" width="12.3" height="8"/><rect class="cls-1" x="401.18" y="288.81" width="12.3" height="8"/><rect class="cls-5" x="605.82" y="273.28" width="13" height="8"/><rect class="cls-2" x="401.18" y="320.03" width="12.3" height="8"/><rect class="cls-3" x="401.18" y="334.69" width="12.3" height="8"/><rect class="cls-6" x="605.82" y="320.18" width="13" height="8"/><rect class="cls-6" x="605.82" y="288.96" width="13" height="8"/><rect class="cls-6" x="401.18" y="350.51" width="12.3" height="8"/><rect class="cls-2" x="401.18" y="366.72" width="12.3" height="8"/><rect class="cls-6" x="401.18" y="430.85" width="12.3" height="8"/><path class="cls-5" d="M446.24,616.15H412.92v8h33.32Z"/><rect class="cls-1" x="401.18" y="445.85" width="12.3" height="8"/><rect class="cls-3" x="401.18" y="414.85" width="12.3" height="8"/><rect class="cls-5" x="401.18" y="461.85" width="12.3" height="8"/><rect class="cls-4" x="401.18" y="476.85" width="12.3" height="8"/><rect class="cls-2" x="401.18" y="383.85" width="12.3" height="8"/><rect class="cls-5" x="401.18" y="399.85" width="12.3" height="8"/><rect class="cls-5" x="605.82" y="399.5" width="13" height="8"/><rect class="cls-6" x="605.82" y="414.98" width="13" height="8"/><rect class="cls-3" x="605.82" y="430.72" width="13" height="8"/><rect class="cls-5" x="605.82" y="446" width="13" height="8"/><rect class="cls-1" x="605.82" y="477.55" width="13" height="8"/><rect class="cls-1" x="605.82" y="508.03" width="13" height="8"/><rect class="cls-1" x="605.82" y="523" width="13" height="8"/><rect class="cls-3" x="437.13" y="584.79" width="69.09" height="8.24"/><rect class="cls-3" x="605.82" y="539.09" width="13" height="8"/><rect class="cls-6" x="401.18" y="507.85" width="12.3" height="8"/><rect class="cls-5" x="401.18" y="538.33" width="12.3" height="8"/><rect class="cls-5" x="401.18" y="554.69" width="12.3" height="8"/><rect class="cls-6" x="401.18" y="569.29" width="12.3" height="8"/><path class="cls-6" d="M497.51,600.64H425.4v8h72.11v-8Z"/><polygon class="cls-3" points="429.19 585.03 413.73 585.03 409.76 585.03 401.18 585.03 401.18 593.03 429.19 593.03 429.19 585.03"/><path class="cls-5" d="M419.1,600.64H405.47v8H419.1Z"/><rect class="cls-6" x="605.82" y="462.05" width="13" height="8"/><rect class="cls-1" x="605.82" y="366.1" width="13" height="8"/><rect class="cls-5" x="605.82" y="492" width="13" height="8"/><rect class="cls-5" x="605.82" y="350.58" width="13" height="8"/><rect class="cls-5" x="605.82" y="334.45" width="13" height="8"/><rect class="cls-4" x="605.82" y="569.44" width="13" height="8"/><rect class="cls-6" x="521.75" y="584.79" width="63.57" height="8.24"/><rect class="cls-6" x="605.82" y="554.84" width="13" height="8"/><polygon class="cls-6" points="606.54 584.79 595.54 584.79 595.54 592.79 618.61 592.79 618.61 584.79 610.03 584.79 606.54 584.79"/><path class="cls-2" d="M563.18,608.64h54.15c0-2.88,0-5,0-8H563.18v8Z"/><rect class="cls-6" x="528.77" y="600.64" width="26.12" height="8"/><rect class="cls-6" x="489.63" y="600.64" width="7.47" height="8"/><rect class="cls-6" x="401.18" y="492.35" width="12.3" height="8"/><rect class="cls-5" x="415.39" y="196.63" width="11.29" height="7.38"/><rect class="cls-3" x="579.22" y="196.63" width="22.96" height="7.38"/><rect class="cls-2" x="456.54" y="211.01" width="15.52" height="8.24"/><rect class="cls-6" x="477.63" y="211.01" width="34.19" height="8"/><rect class="cls-1" x="519.8" y="211.01" width="9.11" height="8"/><rect class="cls-5" x="547.16" y="211.01" width="65.6" height="8"/><path class="cls-6" d="M588.48,631.54H435.36v8H586.71a6,6,0,0,1-.81-2.88A7.18,7.18,0,0,1,588.48,631.54Z"/><rect class="cls-6" x="579.68" y="631.54" width="15.86" height="8"/><rect class="cls-1" x="458.92" y="616.15" width="48.93" height="8"/><rect class="cls-4" x="516.68" y="616.15" width="87.89" height="8"/></svg>