<?xml version="1.0" encoding="utf-8"?>
<!-- Generator: Adobe Illustrator 24.1.1, SVG Export Plug-In . SVG Version: 6.00 Build 0)  -->
<svg version="1.1" id="Lag_1" xmlns="http://www.w3.org/2000/svg" xmlns:xlink="http://www.w3.org/1999/xlink" x="0px" y="0px"
	 viewBox="0 0 800 800" style="enable-background:new 0 0 800 800;" xml:space="preserve">
<style type="text/css">
	.st0{fill:none;}
	.st1{fill:#CC5B64;}
	.st2{fill:#A5BA73;}
	.st3{fill:#BFBCBA;}
	.st4{fill:#404F5F;}
	.st5{fill:#7CA5B8;}
	.st6{fill:#D7A458;}
</style>
<g>
	<g>
		<g>
			<path class="st0" d="M400.55,162.16h-29.95c-1.5,0-2.73,1.12-2.73,2.49c0,0.5,0.17,0.97,0.45,1.36c0.49,0.68,1.33,1.14,2.28,1.14
				h29.95c0.95,0,1.79-0.45,2.28-1.14c0.28-0.39,0.45-0.86,0.45-1.36C403.28,163.28,402.05,162.16,400.55,162.16z"/>
			<path class="st0" d="M357.84,162.11c-1.54,0-2.78,1.14-2.78,2.55c0,0.5,0.16,0.96,0.44,1.36c0.49,0.71,1.36,1.19,2.35,1.19
				c0.99,0,1.85-0.48,2.35-1.19c0.27-0.39,0.44-0.86,0.44-1.36C360.63,163.25,359.38,162.11,357.84,162.11z"/>
			<polygon class="st0" points="493.03,531.79 493.03,493.94 493.03,485.94 493.03,462.88 493.03,454.88 493.03,446.85 
				493.03,438.85 493.03,432.4 493.03,424.4 493.03,416.9 493.03,408.9 493.03,400.85 493.03,392.85 493.03,385.57 493.03,377.57 
				493.03,369.83 493.03,361.83 493.03,354.35 493.03,346.35 493.03,338.85 493.03,330.85 493.03,320.95 493.03,312.95 
				493.03,305.43 493.03,297.43 493.03,296.99 493.03,275.03 493.03,267.03 493.03,259.31 493.03,251.31 493.03,228.13 
				493.03,220.13 493.03,212.46 493.03,204.46 493.03,196.98 493.03,188.98 493.03,181.49 493.03,180.1 412.36,180.1 400.05,180.1 
				386.69,180.1 375.02,180.1 333.94,180.1 321.08,180.1 292.76,180.1 292.76,181.49 292.76,188.98 292.76,196.98 292.76,204.46 
				292.76,212.46 292.76,220.2 292.76,228.2 292.76,235.81 292.76,243.81 292.76,251.42 292.76,259.42 292.76,267.03 292.76,275.03 
				292.76,281.69 292.76,289.69 292.76,297.51 292.76,305.51 292.76,313.72 292.76,321.72 292.76,330.85 292.76,338.85 
				292.76,346.85 292.76,354.85 292.76,361.85 292.76,369.85 292.76,377.85 292.76,385.85 292.76,392.85 292.76,400.85 
				292.76,408.85 292.76,416.85 292.76,423.85 292.76,431.85 292.76,454.85 292.76,462.85 292.76,469.85 292.76,477.85 
				292.76,485.33 292.76,493.33 292.76,501.69 292.76,509.69 292.76,516.29 292.76,524.29 292.76,532.03 292.76,535.47 
				312.19,535.47 320.13,535.47 389.21,535.47 396.22,535.47 468.31,535.47 478.54,535.47 493.03,535.47 			"/>
			<path class="st0" d="M428,162.16h-13.81c-1.5,0-2.73,1.12-2.73,2.49c0,0.5,0.17,0.97,0.45,1.36c0.49,0.68,1.33,1.14,2.28,1.14
				H428c0.95,0,1.79-0.45,2.28-1.14c0.28-0.39,0.45-0.86,0.45-1.36C430.72,163.28,429.5,162.16,428,162.16z"/>
			<path class="st0" d="M400.38,563.15c2.84-1.72,4.93-4.38,5.74-7.51c0.24-0.93,0.38-1.89,0.38-2.88c0-1.83-0.44-3.56-1.21-5.12
				c-2.13-4.32-6.87-7.33-12.39-7.33c-5.52,0-10.25,3.01-12.39,7.33c-0.77,1.56-1.21,3.29-1.21,5.12c0,0.99,0.14,1.95,0.38,2.88
				c0.81,3.12,2.9,5.79,5.74,7.51c2.15,1.3,4.72,2.06,7.48,2.06C395.66,565.2,398.23,564.44,400.38,563.15z"/>
			<rect x="284.18" y="369.85" class="st0" width="8.58" height="8"/>
			<rect x="493.03" y="320.95" class="st0" width="8.58" height="9.9"/>
			<polygon class="st0" points="493.03,296.99 501.61,296.99 501.61,289.3 499.94,289.3 499.94,281.3 501.61,281.3 501.61,275.03 
				493.03,275.03 			"/>
			<polygon class="st0" points="493.03,251.31 501.61,251.31 501.61,243.81 500.56,243.81 500.56,235.81 501.61,235.81 
				501.61,228.13 493.03,228.13 			"/>
			<rect x="493.03" y="305.43" class="st0" width="8.58" height="7.52"/>
			<rect x="493.03" y="259.31" class="st0" width="8.58" height="7.71"/>
			<rect x="493.03" y="181.49" class="st0" width="8.58" height="7.48"/>
			<path class="st0" d="M292.76,181.49h-0.96v-8h29.27v6.6h12.86v-6.6h41.08v6.6h11.67v-6.6h13.36v6.6h12.32v-6.6h89.22
				c-0.07-2.5-0.46-4.92-1.15-7.24h-2.52v-5.94c-2-3.56-4.74-6.71-8.03-9.3h-110.2v-7.38h-12.14v7.38h-53.21v-7.23
				c-4.34,0.39-8.44,1.55-12.14,3.32v3.91h-6.3c-2.56,2.01-4.79,4.37-6.6,7h37.17v8h-41.05c-0.8,2.63-1.24,5.39-1.24,8.25v14.71
				h8.58V181.49z M339.54,158.01h145.64v8h-54.91c-0.49,0.68-1.33,1.14-2.28,1.14h-13.81c-0.95,0-1.79-0.45-2.28-1.14h-9.07
				c-0.49,0.68-1.33,1.14-2.28,1.14h-29.95c-0.95,0-1.79-0.45-2.28-1.14h-8.14c-0.49,0.71-1.36,1.19-2.35,1.19
				c-0.99,0-1.85-0.48-2.35-1.19h-15.95V158.01z"/>
			<rect x="493.03" y="196.98" class="st0" width="8.58" height="7.48"/>
			<rect x="493.03" y="212.46" class="st0" width="8.58" height="7.67"/>
			<rect x="284.18" y="196.98" class="st0" width="8.58" height="7.48"/>
			<rect x="493.03" y="432.4" class="st0" width="8.58" height="6.45"/>
			<rect x="493.03" y="446.85" class="st0" width="8.58" height="8.04"/>
			<rect x="493.03" y="416.9" class="st0" width="8.58" height="7.5"/>
			<polygon class="st0" points="493.03,485.94 501.61,485.94 501.61,477.85 496.18,477.85 496.18,469.85 501.61,469.85 
				501.61,462.88 493.03,462.88 			"/>
			<polygon class="st0" points="493.03,392.85 500.12,392.85 500.12,400.85 493.03,400.85 493.03,408.9 501.61,408.9 501.61,385.57 
				493.03,385.57 			"/>
			<rect x="493.03" y="354.35" class="st0" width="8.58" height="7.48"/>
			<rect x="493.03" y="369.83" class="st0" width="8.58" height="7.74"/>
			<rect x="493.03" y="338.85" class="st0" width="8.58" height="7.5"/>
			<rect x="284.18" y="400.85" class="st0" width="8.58" height="8"/>
			<rect x="284.18" y="416.85" class="st0" width="8.58" height="7"/>
			<rect x="284.18" y="385.85" class="st0" width="8.58" height="7"/>
			<polygon class="st0" points="493.03,531.79 501.61,531.79 501.61,524.29 501.26,524.29 501.26,516.29 501.61,516.29 
				501.61,509.69 496.9,509.69 496.9,501.69 501.61,501.69 501.61,493.94 493.03,493.94 			"/>
			<rect x="284.18" y="212.46" class="st0" width="8.58" height="7.74"/>
			<rect x="284.18" y="431.85" class="st0" width="8.58" height="23"/>
			<rect x="284.18" y="493.33" class="st0" width="8.58" height="8.36"/>
			<rect x="284.18" y="524.29" class="st0" width="8.58" height="7.74"/>
			<path class="st0" d="M416.9,555.64v-8h83.97c0.48-2.06,0.73-4.18,0.73-6.37v-1.48h-23.07v-4.32h-10.23v4.56h-72.09v-4.56h-7.01
				v4.56h-69.09v-4.56h-7.94v4.56h-28.01v1.24c0,2.18,0.26,4.31,0.73,6.37h10.15v8h-6.96c1.62,2.79,3.71,5.32,6.15,7.51h34.99v8
				H310.3c2.37,0.49,4.83,0.75,7.35,0.75h150.48c2.53,0,4.99-0.27,7.35-0.75H341.92v-8h43.49c-2.84-1.72-4.93-4.38-5.74-7.51h-71.28
				v-8h72.11c2.13-4.32,6.87-7.33,12.39-7.33c5.52,0,10.25,3.01,12.39,7.33h1.91v8h-1.07c-0.81,3.12-2.9,5.79-5.74,7.51h87.18v3.04
				c4.2-2.75,7.68-6.36,10.12-10.55H416.9z"/>
			<rect x="284.18" y="509.69" class="st0" width="8.58" height="6.6"/>
			<rect x="284.18" y="477.85" class="st0" width="8.58" height="7.48"/>
			<rect x="284.18" y="259.42" class="st0" width="8.58" height="7.61"/>
			<rect x="284.18" y="243.81" class="st0" width="8.58" height="7.61"/>
			<rect x="284.18" y="228.2" class="st0" width="8.58" height="7.61"/>
			<rect x="284.18" y="275.03" class="st0" width="8.58" height="6.66"/>
			<polygon class="st0" points="292.76,321.72 287.02,321.72 287.02,313.72 292.76,313.72 292.76,305.51 284.18,305.51 
				284.18,330.85 292.76,330.85 			"/>
			<rect x="284.18" y="289.69" class="st0" width="8.58" height="7.82"/>
			<rect x="284.18" y="338.85" class="st0" width="8.58" height="8"/>
			<rect x="284.18" y="354.85" class="st0" width="8.58" height="7"/>
			<rect x="284.18" y="462.85" class="st0" width="8.58" height="7"/>
			<path class="st1" d="M457.51,151.01c0-6.6,0-1.73,0-7.55h-78.82v7.55H457.51z"/>
			<rect x="284.18" y="469.85" class="st2" width="12.3" height="8"/>
			<path class="st3" d="M372.88,151.01v-7.55h-52.07c-1.17,0-2.14,0-3.34,0v7.55H372.88z"/>
			<path class="st4" d="M326.47,158.01h-39.33c0,3.38-0.05,4.92-0.05,8h39.38V158.01z"/>
			<rect x="488.82" y="189.13" class="st5" width="13" height="8"/>
			<rect x="386.69" y="173.49" class="st3" width="13.36" height="6.6"/>
			<path class="st2" d="M407.35,180.1h85.2h1.8h7.26v-5.84c0-0.26-0.02-0.51-0.02-0.77h-94.23V180.1z"/>
			<rect x="327.24" y="173.49" class="st5" width="52.45" height="6.6"/>
			<polygon class="st1" points="321.08,180.1 321.08,173.49 284.18,173.49 284.18,180.1 284.77,180.1 285.39,180.1 			"/>
			<rect x="284.18" y="188.98" class="st4" width="12.3" height="8"/>
			<rect x="488.82" y="204.61" class="st1" width="13" height="8"/>
			<rect x="284.18" y="204.46" class="st1" width="12.3" height="8"/>
			<rect x="284.18" y="220.2" class="st3" width="12.3" height="8"/>
			<rect x="488.82" y="251.46" class="st3" width="13" height="8"/>
			<rect x="488.82" y="331" class="st3" width="13" height="8"/>
			<rect x="284.18" y="251.42" class="st1" width="12.3" height="8"/>
			<rect x="284.18" y="235.81" class="st6" width="12.3" height="8"/>
			<rect x="488.82" y="220.28" class="st5" width="13" height="8"/>
			<rect x="284.18" y="267.03" class="st2" width="12.3" height="8"/>
			<rect x="284.18" y="281.69" class="st3" width="12.3" height="8"/>
			<rect x="488.82" y="267.18" class="st1" width="13" height="8"/>
			<rect x="488.82" y="235.96" class="st1" width="13" height="8"/>
			<rect x="284.18" y="297.51" class="st1" width="12.3" height="8"/>
			<rect x="284.18" y="313.72" class="st2" width="12.3" height="8"/>
			<rect x="284.18" y="377.85" class="st1" width="12.3" height="8"/>
			<path class="st5" d="M329.24,563.15h-33.32c0,5.84,0,4.56,0,8h33.32V563.15z"/>
			<rect x="284.18" y="392.85" class="st6" width="12.3" height="8"/>
			<rect x="284.18" y="361.85" class="st3" width="12.3" height="8"/>
			<rect x="284.18" y="408.85" class="st5" width="12.3" height="8"/>
			<rect x="284.18" y="423.85" class="st4" width="12.3" height="8"/>
			<rect x="284.18" y="330.85" class="st2" width="12.3" height="8"/>
			<rect x="284.18" y="346.85" class="st5" width="12.3" height="8"/>
			<rect x="488.82" y="346.5" class="st5" width="13" height="8"/>
			<rect x="488.82" y="361.98" class="st1" width="13" height="8"/>
			<rect x="488.82" y="377.72" class="st3" width="13" height="8"/>
			<rect x="488.82" y="393" class="st5" width="13" height="8"/>
			<rect x="488.82" y="424.55" class="st6" width="13" height="8"/>
			<rect x="488.82" y="455.03" class="st6" width="13" height="8"/>
			<rect x="488.82" y="470" class="st6" width="13" height="8"/>
			<rect x="320.13" y="531.79" class="st3" width="69.09" height="8.24"/>
			<rect x="488.82" y="486.09" class="st3" width="13" height="8"/>
			<rect x="284.18" y="454.85" class="st1" width="12.3" height="8"/>
			<rect x="284.18" y="485.33" class="st5" width="12.3" height="8"/>
			<rect x="284.18" y="501.69" class="st5" width="12.3" height="8"/>
			<rect x="284.18" y="516.29" class="st1" width="12.3" height="8"/>
			<path class="st1" d="M380.51,547.64h-72.11v8h72.11c0-1.03,0-1.89,0-2.88C380.51,550.93,380.51,550.21,380.51,547.64z"/>
			<polygon class="st3" points="312.19,532.03 296.73,532.03 292.76,532.03 284.18,532.03 284.18,540.03 312.19,540.03 			"/>
			<path class="st5" d="M302.1,547.64h-13.63c0,3.21,0,5.13,0,8h13.63V547.64z"/>
			<rect x="488.82" y="409.05" class="st1" width="13" height="8"/>
			<rect x="488.82" y="313.1" class="st6" width="13" height="8"/>
			<rect x="488.82" y="439" class="st5" width="13" height="8"/>
			<rect x="488.82" y="297.58" class="st5" width="13" height="8"/>
			<rect x="488.82" y="281.45" class="st5" width="13" height="8"/>
			<rect x="488.82" y="516.44" class="st4" width="13" height="8"/>
			<rect x="404.75" y="531.79" class="st1" width="63.57" height="8.24"/>
			<rect x="488.82" y="501.84" class="st1" width="13" height="8"/>
			<polygon class="st1" points="489.54,531.79 478.54,531.79 478.54,539.79 501.61,539.79 501.61,531.79 493.03,531.79 			"/>
			<path class="st2" d="M446.18,555.64h54.15c0-2.88-0.04-5-0.04-8h-54.11V555.64z"/>
		</g>
		<rect x="411.77" y="547.64" class="st1" width="26.12" height="8"/>
		<rect x="372.63" y="547.64" class="st1" width="7.47" height="8"/>
		<rect x="284.18" y="439.35" class="st1" width="12.3" height="8"/>
		<rect x="298.39" y="143.63" class="st5" width="11.29" height="7.38"/>
		<rect x="462.22" y="143.63" class="st3" width="22.96" height="7.38"/>
		<rect x="339.54" y="158.01" class="st2" width="15.52" height="8.24"/>
		<rect x="360.63" y="158.01" class="st1" width="34.19" height="8"/>
		<rect x="402.8" y="158.01" class="st6" width="9.11" height="8"/>
		<rect x="430.16" y="158.01" class="st5" width="65.6" height="8"/>
	</g>
	<path class="st1" d="M471.48,578.54H318.36v8h151.35c-0.51-0.93-0.81-1.89-0.81-2.88C468.9,581.83,469.84,580.1,471.48,578.54z"/>
	<rect x="462.68" y="578.54" class="st1" width="15.86" height="8"/>
	<rect x="341.92" y="563.15" class="st6" width="48.93" height="8"/>
	<rect x="399.68" y="563.15" class="st4" width="87.89" height="8"/>
</g>
<g>
	<g>
		<g>
			<path class="st0" d="M406.53,432.32H389.8v-7.86c-4.81,0.29-8.48,1.84-11.01,4.68c-0.79,0.88-1.45,1.84-2.02,2.85v0.58h-0.31
				c-1.16,2.28-1.78,4.86-1.87,7.75h34.01C408.51,437.33,407.82,434.66,406.53,432.32z"/>
			<path class="st0" d="M383.78,455.72v-0.4h16.32c1.6-0.73,2.99-1.7,4.15-2.92c1.18-1.24,2.1-2.6,2.8-4.08h-30.99
				c0.68,1.48,1.57,2.84,2.71,4.08C380.13,453.86,381.8,454.96,383.78,455.72z"/>
			<path class="st0" d="M394.19,348.5c-2.19,2.16-4.09,4.14-5.7,5.93c-2.28,2.54-4.14,5.17-5.6,7.89h22.59v8h-25.69
				c-0.55,2.12-0.96,4.37-1.22,6.77c-0.48,4.41-0.77,10-0.87,16.73h27.39c0.01-2.71,0.07-5.22,0.18-7.5H389.8v-8h16.42
				c0.19-0.84,0.39-1.68,0.63-2.49c0.79-2.67,2-5.28,3.63-7.85c0.94-1.47,2.1-3,3.47-4.57v-1.09h0.98c0.76-0.82,1.56-1.64,2.43-2.49
				c1.63-1.46,3.27-2.97,4.92-4.51h-28.1V348.5z"/>
			<path class="st0" d="M409.02,333.66c-2.94,3.06-5.85,6.07-8.68,8.99c-1.78,1.64-3.42,3.19-4.95,4.67h35.15
				c0.32-0.32,0.64-0.64,0.97-0.96c2.24-2.26,4.37-4.61,6.4-7.04h-28.89V333.66z"/>
			<path class="st0" d="M330.28,290.08h27.4c0-0.1,0.01-0.2,0.01-0.3H330.3C330.29,289.88,330.29,289.98,330.28,290.08z"/>
			<path class="st0" d="M427.44,307.85c-0.8,1.9-1.72,3.75-2.71,5.57h29.03c0.06-0.15,0.13-0.31,0.19-0.46
				c0.94-2.39,1.7-4.85,2.28-7.36h-27.94C428.03,306.36,427.75,307.11,427.44,307.85z"/>
			<path class="st0" d="M411.25,331.32h32.79c0.14-0.2,0.29-0.39,0.42-0.59c2.07-3,3.94-6.11,5.61-9.31h-30.51
				C417.02,324.85,414.24,328.15,411.25,331.32z"/>
			<path class="st0" d="M358.77,281.78c0.5-1.77,1.17-3.43,2.03-4.95c0.25-0.45,0.52-0.89,0.79-1.32h-24.36v-8h32
				c3.36-2.34,7.18-4.08,11.49-5.19c4.39-1.13,8.91-1.7,13.55-1.7c10.39,0,18.61,2.3,24.69,6.89h7.61v8h-0.55
				c1.1,1.92,1.98,4.01,2.65,6.28h11.46v8H430.1c0.1,1.29,0.15,2.63,0.15,4c0,1.29-0.07,2.56-0.2,3.82h27.4
				c0.12-1.55,0.2-3.12,0.2-4.71c0-1.05-0.02-2.09-0.06-3.12h-8.72v-8h7.94c-0.34-2.16-0.78-4.26-1.33-6.28h-17.19v-8h14.31
				c-1.25-2.74-2.71-5.32-4.38-7.71h-14.05v-8h6.97c-0.08-0.07-0.15-0.14-0.23-0.21c-3.18-2.83-6.79-5.26-10.8-7.29h-4.39h-61.04
				h-5.19v-0.03c-3.81,1.88-7.31,4.09-10.48,6.65c-0.39,0.32-0.77,0.65-1.15,0.98h75.94v8h-77.22v-6.88
				c-4.55,4.17-8.26,9.07-11.12,14.7c-2.2,4.33-3.68,9.02-4.48,14.06H358.77z"/>
			<path class="st5" d="M433.56,267.5h-7.61c0.68,0.51,1.34,1.05,1.97,1.62c2.03,1.85,3.72,3.98,5.09,6.38h0.55V267.5z"/>
			<path class="st6" d="M364.69,244.28v-2.31c-1.79,0.7-3.52,1.46-5.19,2.28v0.03H364.69z"/>
			<path class="st2" d="M425.73,244.28h4.39c-2.84-1.44-5.87-2.7-9.12-3.74c-7.85-2.52-16.76-3.78-26.73-3.78
				c-8.99,0-17.35,1.21-25.1,3.63c-1.53,0.48-3.02,1.01-4.47,1.58v2.31H425.73z"/>
			<path class="st4" d="M440.11,281.78h-11.46c0.73,2.46,1.21,5.13,1.44,8h10.02V281.78z"/>
			<path class="st4" d="M330.3,289.78h27.39c0.02-2.9,0.39-5.56,1.08-8h-27.78C330.58,284.35,330.34,287.02,330.3,289.78z"/>
			<path class="st1" d="M423.81,259.89v-8h-75.94c-0.81,0-0.42,0-1.28,0v8H423.81z"/>
			<path class="st1" d="M438.29,275.5h17.19c-0.59-2.18-1.29-4.29-2.12-6.3c-0.24-0.58-0.5-1.13-0.76-1.7h-14.31V275.5z"/>
			<path class="st6" d="M444.65,289.78h12.94c-0.16-2.77-0.56-5.43-1.16-8h-11.78V289.78z"/>
			<path class="st1" d="M428.29,305.6h27.94c0.6-2.6,1.01-5.27,1.22-8h-27.4C429.77,300.35,429.18,303.01,428.29,305.6z"/>
			<path class="st1" d="M383.78,455.72c2.17,0.84,4.72,1.27,7.66,1.27c3.38,0,6.26-0.56,8.66-1.67h-16.32V455.72z"/>
			<path class="st5" d="M410.63,331.99c-0.54,0.57-1.07,1.11-1.61,1.67v5.66h28.89c2.16-2.58,4.21-5.24,6.13-8h-32.79
				C411.04,331.54,410.84,331.77,410.63,331.99z"/>
			<path class="st6" d="M394.19,347.32v8h28.1c2.73-2.55,5.48-5.22,8.26-8h-35.15C394.54,347.32,394.94,347.32,394.19,347.32z"/>
			<path class="st1" d="M376.77,431.99c-0.11,0.19-0.21,0.38-0.31,0.58h0.31V431.99z"/>
			<path class="st5" d="M376.46,401.49h28.61c0-2.63,0-5.08,0.01-7.67h-28.61C376.47,396.4,376.46,398.87,376.46,401.49z"/>
			<path class="st5" d="M405.48,362.32h-25.21c-0.44,0.82-0.24,2.08-0.24,3.45c0,1.89-0.25,1.59-0.25,4.55h25.69V362.32z"/>
		</g>
		<rect x="376.46" y="378.32" class="st2" width="12.09" height="8"/>
		<rect x="379.79" y="362.32" class="st5" width="25.69" height="8"/>
		<rect x="409.02" y="331.32" class="st5" width="35.03" height="8"/>
		<rect x="396.99" y="347.32" class="st6" width="33.56" height="8"/>
		<rect x="449.21" y="313.42" class="st2" width="4.55" height="8"/>
		<rect x="428.29" y="297.6" class="st1" width="29.17" height="8"/>
		<rect x="428.66" y="281.78" class="st4" width="11.46" height="8"/>
		<rect x="330.28" y="281.78" class="st4" width="28.48" height="8"/>
		<rect x="337.22" y="267.5" class="st4" width="29.34" height="8"/>
		<rect x="338.26" y="296.05" class="st2" width="11.46" height="8"/>
		<rect x="383.28" y="424.41" class="st4" width="16.59" height="8.17"/>
		<rect x="383.41" y="455.32" class="st6" width="16.32" height="8"/>
		<rect x="423.3" y="267.5" class="st5" width="10.26" height="8"/>
		<rect x="432.17" y="251.79" class="st2" width="10.23" height="8"/>
		<rect x="450.88" y="281.78" class="st6" width="6.77" height="8"/>
		<rect x="446.88" y="267.5" class="st1" width="8.59" height="8"/>
		<rect x="359.5" y="236.77" class="st6" width="70.62" height="7.52"/>
	</g>
	<rect x="395.62" y="440.32" class="st1" width="12.98" height="8"/>
	<rect x="374.59" y="440.32" class="st5" width="15.13" height="8"/>
	<rect x="391.6" y="378.32" class="st6" width="14.01" height="8"/>
	<rect x="419" y="313.42" class="st4" width="11.46" height="8"/>
	<rect x="437.38" y="313.42" class="st1" width="16.38" height="8"/>
</g>
</svg>
