<?xml version="1.0" encoding="utf-8"?>
<!-- Generator: Adobe Illustrator 24.1.1, SVG Export Plug-In . SVG Version: 6.00 Build 0)  -->
<svg version="1.1" id="Lag_1" xmlns="http://www.w3.org/2000/svg" xmlns:xlink="http://www.w3.org/1999/xlink" x="0px" y="0px"
	 viewBox="0 0 800 800" style="enable-background:new 0 0 800 800;" xml:space="preserve">
<style type="text/css">
	.st0{fill:none;}
	.st1{fill:#CC5B64;}
	.st2{fill:#A5BA73;}
	.st3{fill:#BFBCBA;}
	.st4{fill:#404F5F;}
	.st5{fill:#7CA5B8;}
	.st6{fill:#D7A458;}
</style>
<g>
	<g>
		<g>
			<path class="st0" d="M387.55,142.16h-29.95c-1.5,0-2.73,1.12-2.73,2.49c0,0.5,0.17,0.97,0.45,1.36c0.49,0.68,1.33,1.14,2.28,1.14
				h29.95c0.95,0,1.79-0.45,2.28-1.14c0.28-0.39,0.45-0.86,0.45-1.36C390.28,143.28,389.05,142.16,387.55,142.16z"/>
			<path class="st0" d="M344.84,142.11c-1.54,0-2.78,1.14-2.78,2.55c0,0.5,0.16,0.96,0.44,1.36c0.49,0.71,1.36,1.19,2.35,1.19
				c0.99,0,1.85-0.48,2.35-1.19c0.27-0.39,0.44-0.86,0.44-1.36C347.63,143.25,346.38,142.11,344.84,142.11z"/>
			<polygon class="st0" points="480.03,511.79 480.03,473.94 480.03,465.94 480.03,442.88 480.03,434.88 480.03,426.85 
				480.03,418.85 480.03,412.4 480.03,404.4 480.03,396.9 480.03,388.9 480.03,380.85 480.03,372.85 480.03,365.57 480.03,357.57 
				480.03,349.83 480.03,341.83 480.03,334.35 480.03,326.35 480.03,318.85 480.03,310.85 480.03,300.95 480.03,292.95 
				480.03,285.43 480.03,277.43 480.03,276.99 480.03,255.03 480.03,247.03 480.03,239.31 480.03,231.31 480.03,208.13 
				480.03,200.13 480.03,192.46 480.03,184.46 480.03,176.98 480.03,168.98 480.03,161.49 480.03,160.1 399.36,160.1 387.05,160.1 
				373.69,160.1 362.02,160.1 320.94,160.1 308.08,160.1 279.76,160.1 279.76,161.49 279.76,168.98 279.76,176.98 279.76,184.46 
				279.76,192.46 279.76,200.2 279.76,208.2 279.76,215.81 279.76,223.81 279.76,231.42 279.76,239.42 279.76,247.03 279.76,255.03 
				279.76,261.69 279.76,269.69 279.76,277.51 279.76,285.51 279.76,293.72 279.76,301.72 279.76,310.85 279.76,318.85 
				279.76,326.85 279.76,334.85 279.76,341.85 279.76,349.85 279.76,357.85 279.76,365.85 279.76,372.85 279.76,380.85 
				279.76,388.85 279.76,396.85 279.76,403.85 279.76,411.85 279.76,434.85 279.76,442.85 279.76,449.85 279.76,457.85 
				279.76,465.33 279.76,473.33 279.76,481.69 279.76,489.69 279.76,496.29 279.76,504.29 279.76,512.03 279.76,515.47 
				299.19,515.47 307.13,515.47 376.21,515.47 383.22,515.47 455.31,515.47 465.54,515.47 480.03,515.47 			"/>
			<path class="st0" d="M415,142.16h-13.81c-1.5,0-2.73,1.12-2.73,2.49c0,0.5,0.17,0.97,0.45,1.36c0.49,0.68,1.33,1.14,2.28,1.14
				H415c0.95,0,1.79-0.45,2.28-1.14c0.28-0.39,0.45-0.86,0.45-1.36C417.72,143.28,416.5,142.16,415,142.16z"/>
			<path class="st0" d="M387.38,543.15c2.84-1.72,4.93-4.38,5.74-7.51c0.24-0.93,0.38-1.89,0.38-2.88c0-1.83-0.44-3.56-1.21-5.12
				c-2.13-4.32-6.87-7.33-12.39-7.33c-5.52,0-10.25,3.01-12.39,7.33c-0.77,1.56-1.21,3.29-1.21,5.12c0,0.99,0.14,1.95,0.38,2.88
				c0.81,3.12,2.9,5.79,5.74,7.51c2.15,1.3,4.72,2.06,7.48,2.06C382.66,545.2,385.23,544.44,387.38,543.15z"/>
			<rect x="271.18" y="349.85" class="st0" width="8.58" height="8"/>
			<rect x="480.03" y="300.95" class="st0" width="8.58" height="9.9"/>
			<polygon class="st0" points="480.03,276.99 488.61,276.99 488.61,269.3 486.94,269.3 486.94,261.3 488.61,261.3 488.61,255.03 
				480.03,255.03 			"/>
			<polygon class="st0" points="480.03,231.31 488.61,231.31 488.61,223.81 487.56,223.81 487.56,215.81 488.61,215.81 
				488.61,208.13 480.03,208.13 			"/>
			<rect x="480.03" y="285.43" class="st0" width="8.58" height="7.52"/>
			<rect x="480.03" y="239.31" class="st0" width="8.58" height="7.71"/>
			<rect x="480.03" y="161.49" class="st0" width="8.58" height="7.48"/>
			<path class="st0" d="M279.76,161.49h-0.96v-8h29.27v6.6h12.86v-6.6h41.08v6.6h11.67v-6.6h13.36v6.6h12.32v-6.6h89.22
				c-0.07-2.5-0.46-4.92-1.15-7.24h-2.52v-5.94c-2-3.56-4.74-6.71-8.03-9.3h-110.2v-7.38h-12.14v7.38h-53.21v-7.23
				c-4.34,0.39-8.44,1.55-12.14,3.32v3.91h-6.3c-2.56,2.01-4.79,4.37-6.6,7h37.17v8h-41.05c-0.8,2.63-1.24,5.39-1.24,8.25v14.71
				h8.58V161.49z M326.54,138.01h145.64v8h-54.91c-0.49,0.68-1.33,1.14-2.28,1.14h-13.81c-0.95,0-1.79-0.45-2.28-1.14h-9.07
				c-0.49,0.68-1.33,1.14-2.28,1.14h-29.95c-0.95,0-1.79-0.45-2.28-1.14h-8.14c-0.49,0.71-1.36,1.19-2.35,1.19
				c-0.99,0-1.85-0.48-2.35-1.19h-15.95V138.01z"/>
			<rect x="480.03" y="176.98" class="st0" width="8.58" height="7.48"/>
			<rect x="480.03" y="192.46" class="st0" width="8.58" height="7.67"/>
			<rect x="271.18" y="176.98" class="st0" width="8.58" height="7.48"/>
			<rect x="480.03" y="412.4" class="st0" width="8.58" height="6.45"/>
			<rect x="480.03" y="426.85" class="st0" width="8.58" height="8.04"/>
			<rect x="480.03" y="396.9" class="st0" width="8.58" height="7.5"/>
			<polygon class="st0" points="480.03,465.94 488.61,465.94 488.61,457.85 483.18,457.85 483.18,449.85 488.61,449.85 
				488.61,442.88 480.03,442.88 			"/>
			<polygon class="st0" points="480.03,372.85 487.12,372.85 487.12,380.85 480.03,380.85 480.03,388.9 488.61,388.9 488.61,365.57 
				480.03,365.57 			"/>
			<rect x="480.03" y="334.35" class="st0" width="8.58" height="7.48"/>
			<rect x="480.03" y="349.83" class="st0" width="8.58" height="7.74"/>
			<rect x="480.03" y="318.85" class="st0" width="8.58" height="7.5"/>
			<rect x="271.18" y="380.85" class="st0" width="8.58" height="8"/>
			<rect x="271.18" y="396.85" class="st0" width="8.58" height="7"/>
			<rect x="271.18" y="365.85" class="st0" width="8.58" height="7"/>
			<polygon class="st0" points="480.03,511.79 488.61,511.79 488.61,504.29 488.26,504.29 488.26,496.29 488.61,496.29 
				488.61,489.69 483.9,489.69 483.9,481.69 488.61,481.69 488.61,473.94 480.03,473.94 			"/>
			<rect x="271.18" y="192.46" class="st0" width="8.58" height="7.74"/>
			<rect x="271.18" y="411.85" class="st0" width="8.58" height="23"/>
			<rect x="271.18" y="473.33" class="st0" width="8.58" height="8.36"/>
			<rect x="271.18" y="504.29" class="st0" width="8.58" height="7.74"/>
			<path class="st0" d="M403.9,535.64v-8h83.97c0.48-2.06,0.73-4.18,0.73-6.37v-1.48h-23.07v-4.32h-10.23v4.56h-72.09v-4.56h-7.01
				v4.56h-69.09v-4.56h-7.94v4.56h-28.01v1.24c0,2.18,0.26,4.31,0.73,6.37h10.15v8h-6.96c1.62,2.79,3.71,5.32,6.15,7.51h34.99v8
				H297.3c2.37,0.49,4.83,0.75,7.35,0.75h150.48c2.53,0,4.99-0.27,7.35-0.75H328.92v-8h43.49c-2.84-1.72-4.93-4.38-5.74-7.51h-71.28
				v-8h72.11c2.13-4.32,6.87-7.33,12.39-7.33c5.52,0,10.25,3.01,12.39,7.33h1.91v8h-1.07c-0.81,3.12-2.9,5.79-5.74,7.51h87.18v3.04
				c4.2-2.75,7.68-6.36,10.12-10.55H403.9z"/>
			<rect x="271.18" y="489.69" class="st0" width="8.58" height="6.6"/>
			<rect x="271.18" y="457.85" class="st0" width="8.58" height="7.48"/>
			<rect x="271.18" y="239.42" class="st0" width="8.58" height="7.61"/>
			<rect x="271.18" y="223.81" class="st0" width="8.58" height="7.61"/>
			<rect x="271.18" y="208.2" class="st0" width="8.58" height="7.61"/>
			<rect x="271.18" y="255.03" class="st0" width="8.58" height="6.66"/>
			<polygon class="st0" points="279.76,301.72 274.02,301.72 274.02,293.72 279.76,293.72 279.76,285.51 271.18,285.51 
				271.18,310.85 279.76,310.85 			"/>
			<rect x="271.18" y="269.69" class="st0" width="8.58" height="7.82"/>
			<rect x="271.18" y="318.85" class="st0" width="8.58" height="8"/>
			<rect x="271.18" y="334.85" class="st0" width="8.58" height="7"/>
			<rect x="271.18" y="442.85" class="st0" width="8.58" height="7"/>
			<path class="st1" d="M444.51,131.01c0-6.6,0-1.73,0-7.55h-78.82v7.55H444.51z"/>
			<rect x="271.18" y="449.85" class="st2" width="12.3" height="8"/>
			<path class="st3" d="M359.88,131.01v-7.55h-52.07c-1.17,0-2.14,0-3.34,0v7.55H359.88z"/>
			<path class="st4" d="M313.47,138.01h-39.33c0,3.38-0.05,4.92-0.05,8h39.38V138.01z"/>
			<rect x="475.82" y="169.13" class="st5" width="13" height="8"/>
			<rect x="373.69" y="153.49" class="st3" width="13.36" height="6.6"/>
			<path class="st2" d="M394.35,160.1h85.2h1.8h7.26v-5.84c0-0.26-0.02-0.51-0.02-0.77h-94.23V160.1z"/>
			<rect x="314.24" y="153.49" class="st5" width="52.45" height="6.6"/>
			<polygon class="st1" points="308.08,160.1 308.08,153.49 271.18,153.49 271.18,160.1 271.77,160.1 272.39,160.1 			"/>
			<rect x="271.18" y="168.98" class="st4" width="12.3" height="8"/>
			<rect x="475.82" y="184.61" class="st1" width="13" height="8"/>
			<rect x="271.18" y="184.46" class="st1" width="12.3" height="8"/>
			<rect x="271.18" y="200.2" class="st3" width="12.3" height="8"/>
			<rect x="475.82" y="231.46" class="st3" width="13" height="8"/>
			<rect x="475.82" y="311" class="st3" width="13" height="8"/>
			<rect x="271.18" y="231.42" class="st1" width="12.3" height="8"/>
			<rect x="271.18" y="215.81" class="st6" width="12.3" height="8"/>
			<rect x="475.82" y="200.28" class="st5" width="13" height="8"/>
			<rect x="271.18" y="247.03" class="st2" width="12.3" height="8"/>
			<rect x="271.18" y="261.69" class="st3" width="12.3" height="8"/>
			<rect x="475.82" y="247.18" class="st1" width="13" height="8"/>
			<rect x="475.82" y="215.96" class="st1" width="13" height="8"/>
			<rect x="271.18" y="277.51" class="st1" width="12.3" height="8"/>
			<rect x="271.18" y="293.72" class="st2" width="12.3" height="8"/>
			<rect x="271.18" y="357.85" class="st1" width="12.3" height="8"/>
			<path class="st5" d="M316.24,543.15h-33.32c0,5.84,0,4.56,0,8h33.32V543.15z"/>
			<rect x="271.18" y="372.85" class="st6" width="12.3" height="8"/>
			<rect x="271.18" y="341.85" class="st3" width="12.3" height="8"/>
			<rect x="271.18" y="388.85" class="st5" width="12.3" height="8"/>
			<rect x="271.18" y="403.85" class="st4" width="12.3" height="8"/>
			<rect x="271.18" y="310.85" class="st2" width="12.3" height="8"/>
			<rect x="271.18" y="326.85" class="st5" width="12.3" height="8"/>
			<rect x="475.82" y="326.5" class="st5" width="13" height="8"/>
			<rect x="475.82" y="341.98" class="st1" width="13" height="8"/>
			<rect x="475.82" y="357.72" class="st3" width="13" height="8"/>
			<rect x="475.82" y="373" class="st5" width="13" height="8"/>
			<rect x="475.82" y="404.55" class="st6" width="13" height="8"/>
			<rect x="475.82" y="435.03" class="st6" width="13" height="8"/>
			<rect x="475.82" y="450" class="st6" width="13" height="8"/>
			<rect x="307.13" y="511.79" class="st3" width="69.09" height="8.24"/>
			<rect x="475.82" y="466.09" class="st3" width="13" height="8"/>
			<rect x="271.18" y="434.85" class="st1" width="12.3" height="8"/>
			<rect x="271.18" y="465.33" class="st5" width="12.3" height="8"/>
			<rect x="271.18" y="481.69" class="st5" width="12.3" height="8"/>
			<rect x="271.18" y="496.29" class="st1" width="12.3" height="8"/>
			<path class="st1" d="M367.51,527.64h-72.11v8h72.11c0-1.03,0-1.89,0-2.88C367.51,530.93,367.51,530.21,367.51,527.64z"/>
			<polygon class="st3" points="299.19,512.03 283.73,512.03 279.76,512.03 271.18,512.03 271.18,520.03 299.19,520.03 			"/>
			<path class="st5" d="M289.1,527.64h-13.63c0,3.21,0,5.13,0,8h13.63V527.64z"/>
			<rect x="475.82" y="389.05" class="st1" width="13" height="8"/>
			<rect x="475.82" y="293.1" class="st6" width="13" height="8"/>
			<rect x="475.82" y="419" class="st5" width="13" height="8"/>
			<rect x="475.82" y="277.58" class="st5" width="13" height="8"/>
			<rect x="475.82" y="261.45" class="st5" width="13" height="8"/>
			<rect x="475.82" y="496.44" class="st4" width="13" height="8"/>
			<rect x="391.75" y="511.79" class="st1" width="63.57" height="8.24"/>
			<rect x="475.82" y="481.84" class="st1" width="13" height="8"/>
			<polygon class="st1" points="476.54,511.79 465.54,511.79 465.54,519.79 488.61,519.79 488.61,511.79 480.03,511.79 			"/>
			<path class="st2" d="M433.18,535.64h54.15c0-2.88-0.04-5-0.04-8h-54.11V535.64z"/>
		</g>
		<rect x="398.77" y="527.64" class="st1" width="26.12" height="8"/>
		<rect x="359.63" y="527.64" class="st1" width="7.47" height="8"/>
		<rect x="271.18" y="419.35" class="st1" width="12.3" height="8"/>
		<rect x="285.39" y="123.63" class="st5" width="11.29" height="7.38"/>
		<rect x="449.22" y="123.63" class="st3" width="22.96" height="7.38"/>
		<rect x="326.54" y="138.01" class="st2" width="15.52" height="8.24"/>
		<rect x="347.63" y="138.01" class="st1" width="34.19" height="8"/>
		<rect x="389.8" y="138.01" class="st6" width="9.11" height="8"/>
		<rect x="417.16" y="138.01" class="st5" width="65.6" height="8"/>
	</g>
	<path class="st1" d="M458.48,558.54H305.36v8h151.35c-0.51-0.93-0.81-1.89-0.81-2.88C455.9,561.83,456.84,560.1,458.48,558.54z"/>
	<rect x="449.68" y="558.54" class="st1" width="15.86" height="8"/>
	<rect x="328.92" y="543.15" class="st6" width="48.93" height="8"/>
	<rect x="386.68" y="543.15" class="st4" width="87.89" height="8"/>
</g>
<g>
	<rect x="379.86" y="247.9" class="st4" width="9.72" height="8.34"/>
	<rect x="379.86" y="263.54" class="st4" width="9.72" height="8.34"/>
	<rect x="379" y="420.07" class="st4" width="9.72" height="8.34"/>
	<rect x="379" y="435.72" class="st4" width="9.72" height="8.34"/>
	<rect x="364.64" y="404.42" class="st4" width="42.21" height="8.34"/>
	<rect x="396.79" y="388.78" class="st4" width="25.29" height="8.34"/>
	<rect x="392.73" y="357.49" class="st4" width="33.11" height="8.34"/>
	<rect x="370.73" y="341.84" class="st4" width="39.35" height="8.34"/>
	<rect x="349.84" y="326.2" class="st4" width="34.02" height="8.34"/>
	<rect x="345.5" y="310.53" class="st4" width="19.1" height="8.34"/>
	<rect x="346.44" y="294.87" class="st4" width="19.1" height="8.34"/>
	<rect x="411.55" y="294.87" class="st4" width="9.2" height="8.34"/>
	<rect x="416.15" y="310.53" class="st4" width="5.2" height="8.34"/>
	<rect x="398.2" y="294.87" class="st4" width="9.72" height="8.34"/>
	<rect x="402.69" y="279.2" class="st4" width="10.45" height="8.34"/>
	<rect x="357.3" y="279.2" class="st4" width="42.02" height="8.34"/>
	<rect x="344.33" y="388.78" class="st4" width="8.98" height="8.34"/>
	<rect x="356.49" y="388.78" class="st4" width="8.59" height="8.34"/>
	<rect x="344.33" y="373.13" class="st4" width="4.87" height="8.34"/>
	<rect x="353.32" y="404.42" class="st4" width="8.07" height="8.34"/>
	<rect x="403.44" y="373.13" class="st4" width="9.76" height="8.34"/>
	<rect x="416.51" y="373.13" class="st4" width="8" height="8.34"/>
</g>
</svg>
