<svg id="Lag_1" data-name="Lag 1" xmlns="http://www.w3.org/2000/svg" viewBox="0 0 226.5 452"><defs><style>.cls-1{fill:none;}.cls-2{fill:#cc5b64;}.cls-3{fill:#a5ba73;}.cls-4{fill:#bfbcba;}.cls-5{fill:#404f5f;}.cls-6{fill:#7ca5b8;}.cls-7{fill:#d7a458;}</style></defs><path class="cls-1" d="M120.05,23.16H90.1a2.63,2.63,0,0,0-2.73,2.49A2.33,2.33,0,0,0,87.82,27a2.81,2.81,0,0,0,2.28,1.14h30A2.78,2.78,0,0,0,122.33,27a2.33,2.33,0,0,0,.45-1.36A2.63,2.63,0,0,0,120.05,23.16Z"/><path class="cls-1" d="M77.34,23.11a2.67,2.67,0,0,0-2.78,2.55A2.35,2.35,0,0,0,75,27a2.92,2.92,0,0,0,4.7,0,2.4,2.4,0,0,0,.44-1.36A2.69,2.69,0,0,0,77.34,23.11Z"/><polygon class="cls-1" points="212.53 392.79 212.53 354.94 212.53 346.94 212.53 323.88 212.53 315.88 212.53 307.85 212.53 299.85 212.53 293.4 212.53 285.4 212.53 277.9 212.53 269.9 212.53 261.85 212.53 253.85 212.53 246.57 212.53 238.57 212.53 230.83 212.53 222.83 212.53 215.35 212.53 207.35 212.53 199.85 212.53 191.85 212.53 181.95 212.53 173.95 212.53 166.43 212.53 158.43 212.53 157.99 212.53 136.03 212.53 128.03 212.53 120.31 212.53 112.31 212.53 89.13 212.53 81.13 212.53 73.46 212.53 65.46 212.53 57.98 212.53 49.98 212.53 42.49 212.53 41.1 131.86 41.1 119.55 41.1 106.19 41.1 94.52 41.1 53.44 41.1 40.58 41.1 12.26 41.1 12.26 42.49 12.26 49.98 12.26 57.98 12.26 65.46 12.26 73.46 12.26 81.2 12.26 89.2 12.26 96.81 12.26 104.81 12.26 112.42 12.26 120.42 12.26 128.03 12.26 136.03 12.26 142.69 12.26 150.69 12.26 158.51 12.26 166.51 12.26 174.72 12.26 182.72 12.26 191.85 12.26 199.85 12.26 207.85 12.26 215.85 12.26 222.85 12.26 230.85 12.26 238.85 12.26 246.85 12.26 253.85 12.26 261.85 12.26 269.85 12.26 277.85 12.26 284.85 12.26 292.85 12.26 315.85 12.26 323.85 12.26 330.85 12.26 338.85 12.26 346.33 12.26 354.33 12.26 362.69 12.26 370.69 12.26 377.29 12.26 385.29 12.26 393.03 12.26 396.47 31.69 396.47 39.63 396.47 108.71 396.47 115.72 396.47 187.81 396.47 198.04 396.47 212.53 396.47 212.53 392.79"/><path class="cls-1" d="M147.5,23.16H133.69A2.63,2.63,0,0,0,131,25.65a2.33,2.33,0,0,0,.45,1.36,2.81,2.81,0,0,0,2.28,1.14H147.5A2.78,2.78,0,0,0,149.78,27a2.33,2.33,0,0,0,.45-1.36A2.63,2.63,0,0,0,147.5,23.16Z"/><path class="cls-1" d="M119.88,424.15a12.52,12.52,0,0,0,5.74-7.51,11.32,11.32,0,0,0-.83-8,14.14,14.14,0,0,0-24.78,0,11.32,11.32,0,0,0-.83,8,12.55,12.55,0,0,0,5.74,7.51,14.43,14.43,0,0,0,7.48,2.06A14.63,14.63,0,0,0,119.88,424.15Z"/><rect class="cls-1" x="3.68" y="230.85" width="8.58" height="8"/><rect class="cls-1" x="212.53" y="181.95" width="8.58" height="9.9"/><polygon class="cls-1" points="212.53 157.99 221.11 157.99 221.11 150.3 219.44 150.3 219.44 142.3 221.11 142.3 221.11 136.03 212.53 136.03 212.53 157.99"/><polygon class="cls-1" points="212.53 112.31 221.11 112.31 221.11 104.81 220.06 104.81 220.06 96.81 221.11 96.81 221.11 89.13 212.53 89.13 212.53 112.31"/><rect class="cls-1" x="212.53" y="166.43" width="8.58" height="7.52"/><rect class="cls-1" x="212.53" y="120.31" width="8.58" height="7.71"/><rect class="cls-1" x="212.53" y="42.49" width="8.58" height="7.48"/><path class="cls-1" d="M12.26,42.49h-1v-8H40.57v6.6H53.43v-6.6H94.51v6.6h11.67v-6.6h13.36v6.6h12.32v-6.6h89.22a28.08,28.08,0,0,0-1.15-7.24h-2.52V21.31a31.55,31.55,0,0,0-8-9.3H99.18V4.63H87V12H33.83V4.78A35.48,35.48,0,0,0,21.69,8.1V12h-6.3a32,32,0,0,0-6.6,7H46v8h-41a28.26,28.26,0,0,0-1.24,8.25V50h8.58V42.49ZM59,19H204.68v8H149.77a2.81,2.81,0,0,1-2.28,1.14H133.68A2.78,2.78,0,0,1,131.4,27h-9.07a2.81,2.81,0,0,1-2.28,1.14H90.1A2.78,2.78,0,0,1,87.82,27H79.68A2.92,2.92,0,0,1,75,27H59V19Z"/><rect class="cls-1" x="212.53" y="57.98" width="8.58" height="7.48"/><rect class="cls-1" x="212.53" y="73.46" width="8.58" height="7.67"/><rect class="cls-1" x="3.68" y="57.98" width="8.58" height="7.48"/><rect class="cls-1" x="212.53" y="293.4" width="8.58" height="6.45"/><rect class="cls-1" x="212.53" y="307.85" width="8.58" height="8.04"/><rect class="cls-1" x="212.53" y="277.9" width="8.58" height="7.5"/><polygon class="cls-1" points="212.53 346.94 221.11 346.94 221.11 338.85 215.68 338.85 215.68 330.85 221.11 330.85 221.11 323.88 212.53 323.88 212.53 346.94"/><polygon class="cls-1" points="212.53 253.85 219.62 253.85 219.62 261.85 212.53 261.85 212.53 269.9 221.11 269.9 221.11 246.57 212.53 246.57 212.53 253.85"/><rect class="cls-1" x="212.53" y="215.35" width="8.58" height="7.48"/><rect class="cls-1" x="212.53" y="230.83" width="8.58" height="7.74"/><rect class="cls-1" x="212.53" y="199.85" width="8.58" height="7.5"/><rect class="cls-1" x="3.68" y="261.85" width="8.58" height="8"/><rect class="cls-1" x="3.68" y="277.85" width="8.58" height="7"/><rect class="cls-1" x="3.68" y="246.85" width="8.58" height="7"/><polygon class="cls-1" points="212.53 392.79 221.11 392.79 221.11 385.29 220.76 385.29 220.76 377.29 221.11 377.29 221.11 370.69 216.4 370.69 216.4 362.69 221.11 362.69 221.11 354.94 212.53 354.94 212.53 392.79"/><rect class="cls-1" x="3.68" y="73.46" width="8.58" height="7.74"/><rect class="cls-1" x="3.68" y="292.85" width="8.58" height="23"/><rect class="cls-1" x="3.68" y="354.33" width="8.58" height="8.36"/><rect class="cls-1" x="3.68" y="385.29" width="8.58" height="7.74"/><path class="cls-1" d="M136.4,416.64v-8h84a28,28,0,0,0,.73-6.37v-1.48H198v-4.32H187.8V401H115.71v-4.56h-7V401H39.61v-4.56H31.67V401h-28v1.24a28.6,28.6,0,0,0,.73,6.37H14.54v8h-7a31.15,31.15,0,0,0,6.15,7.51h35v8H29.8a36.29,36.29,0,0,0,7.35.75H187.63a36.86,36.86,0,0,0,7.35-.75H61.42v-8h43.49a12.52,12.52,0,0,1-5.74-7.51H27.89v-8H100a14.14,14.14,0,0,1,24.78,0h1.91v8h-1.07a12.55,12.55,0,0,1-5.74,7.51h87.18v3a31.85,31.85,0,0,0,10.12-10.55Z"/><rect class="cls-1" x="3.68" y="370.69" width="8.58" height="6.6"/><rect class="cls-1" x="3.68" y="338.85" width="8.58" height="7.48"/><rect class="cls-1" x="3.68" y="120.42" width="8.58" height="7.61"/><rect class="cls-1" x="3.68" y="104.81" width="8.58" height="7.61"/><rect class="cls-1" x="3.68" y="89.2" width="8.58" height="7.61"/><rect class="cls-1" x="3.68" y="136.03" width="8.58" height="6.66"/><polygon class="cls-1" points="12.26 182.72 6.52 182.72 6.52 174.72 12.26 174.72 12.26 166.51 3.68 166.51 3.68 191.85 12.26 191.85 12.26 182.72"/><rect class="cls-1" x="3.68" y="150.69" width="8.58" height="7.82"/><rect class="cls-1" x="3.68" y="199.85" width="8.58" height="8"/><rect class="cls-1" x="3.68" y="215.85" width="8.58" height="7"/><rect class="cls-1" x="3.68" y="323.85" width="8.58" height="7"/><path class="cls-2" d="M177,12V4.46H98.19V12Z"/><rect class="cls-3" x="3.68" y="330.85" width="12.3" height="8"/><path class="cls-4" d="M92.38,12V4.46H37V12Z"/><path class="cls-5" d="M46,19H6.64c0,3.38,0,4.92,0,8H46Z"/><rect class="cls-6" x="208.32" y="50.13" width="13" height="8"/><rect class="cls-4" x="106.19" y="34.49" width="13.36" height="6.6"/><path class="cls-3" d="M126.85,41.1h94.26V35.26c0-.26,0-.51,0-.77H126.86V41.1Z"/><rect class="cls-6" x="46.74" y="34.49" width="52.45" height="6.6"/><polygon class="cls-2" points="40.58 41.1 40.58 34.49 3.68 34.49 3.68 41.1 4.27 41.1 4.89 41.1 40.58 41.1"/><rect class="cls-5" x="3.68" y="49.98" width="12.3" height="8"/><rect class="cls-2" x="208.32" y="65.61" width="13" height="8"/><rect class="cls-2" x="3.68" y="65.46" width="12.3" height="8"/><rect class="cls-4" x="3.68" y="81.2" width="12.3" height="8"/><rect class="cls-4" x="208.32" y="112.46" width="13" height="8"/><rect class="cls-4" x="208.32" y="192" width="13" height="8"/><rect class="cls-4" x="135.46" y="192" width="31.71" height="8"/><rect class="cls-4" x="120.52" y="174.1" width="31.71" height="8"/><rect class="cls-4" x="120.52" y="207.5" width="31.71" height="8"/><rect class="cls-4" x="66.61" y="129.23" width="31.71" height="8"/><rect class="cls-4" x="51.68" y="111.33" width="31.71" height="8"/><rect class="cls-4" x="51.68" y="144.73" width="31.71" height="8"/><rect class="cls-4" x="145.89" y="81.31" width="31.71" height="8"/><rect class="cls-4" x="130.96" y="63.41" width="31.71" height="8"/><rect class="cls-4" x="130.96" y="96.81" width="31.71" height="8"/><rect class="cls-4" x="52.54" y="347.53" width="31.71" height="8"/><rect class="cls-4" x="37.6" y="329.63" width="31.71" height="8"/><rect class="cls-4" x="37.6" y="363.03" width="31.71" height="8"/><rect class="cls-2" x="3.68" y="112.42" width="12.3" height="8"/><rect class="cls-7" x="3.68" y="96.81" width="12.3" height="8"/><rect class="cls-6" x="208.32" y="81.28" width="13" height="8"/><rect class="cls-3" x="3.68" y="128.03" width="12.3" height="8"/><rect class="cls-4" x="3.68" y="142.69" width="12.3" height="8"/><rect class="cls-2" x="208.32" y="128.18" width="13" height="8"/><rect class="cls-2" x="208.32" y="96.96" width="13" height="8"/><rect class="cls-2" x="3.68" y="158.51" width="12.3" height="8"/><rect class="cls-3" x="3.68" y="174.72" width="12.3" height="8"/><rect class="cls-2" x="3.68" y="238.85" width="12.3" height="8"/><path class="cls-6" d="M48.74,424.15H15.42v8H48.74Z"/><rect class="cls-7" x="3.68" y="253.85" width="12.3" height="8"/><rect class="cls-4" x="3.68" y="222.85" width="12.3" height="8"/><rect class="cls-6" x="3.68" y="269.85" width="12.3" height="8"/><rect class="cls-5" x="3.68" y="284.85" width="12.3" height="8"/><rect class="cls-3" x="3.68" y="191.85" width="12.3" height="8"/><rect class="cls-6" x="3.68" y="207.85" width="12.3" height="8"/><rect class="cls-6" x="208.32" y="207.5" width="13" height="8"/><rect class="cls-2" x="208.32" y="222.98" width="13" height="8"/><rect class="cls-4" x="208.32" y="238.72" width="13" height="8"/><rect class="cls-6" x="208.32" y="254" width="13" height="8"/><rect class="cls-7" x="208.32" y="285.55" width="13" height="8"/><rect class="cls-7" x="208.32" y="316.03" width="13" height="8"/><rect class="cls-7" x="208.32" y="331" width="13" height="8"/><rect class="cls-4" x="39.63" y="392.79" width="69.09" height="8.24"/><rect class="cls-4" x="208.32" y="347.09" width="13" height="8"/><rect class="cls-2" x="3.68" y="315.85" width="12.3" height="8"/><rect class="cls-6" x="3.68" y="346.33" width="12.3" height="8"/><rect class="cls-6" x="3.68" y="362.69" width="12.3" height="8"/><rect class="cls-2" x="3.68" y="377.29" width="12.3" height="8"/><path class="cls-2" d="M100,408.64H27.9v8H100v-8Z"/><polygon class="cls-4" points="31.69 393.03 16.23 393.03 12.26 393.03 3.68 393.03 3.68 401.03 31.69 401.03 31.69 393.03"/><path class="cls-6" d="M21.6,408.64H8v8H21.6Z"/><rect class="cls-2" x="208.32" y="270.05" width="13" height="8"/><rect class="cls-7" x="208.32" y="174.1" width="13" height="8"/><rect class="cls-6" x="208.32" y="300" width="13" height="8"/><rect class="cls-6" x="208.32" y="158.58" width="13" height="8"/><rect class="cls-6" x="208.32" y="142.45" width="13" height="8"/><rect class="cls-5" x="208.32" y="377.44" width="13" height="8"/><rect class="cls-2" x="124.25" y="392.79" width="63.57" height="8.24"/><rect class="cls-2" x="208.32" y="362.84" width="13" height="8"/><polygon class="cls-2" points="209.04 392.79 198.04 392.79 198.04 400.79 221.11 400.79 221.11 392.79 212.53 392.79 209.04 392.79"/><path class="cls-3" d="M165.68,416.64h54.15c0-2.88,0-5,0-8H165.68Z"/><rect class="cls-2" x="131.27" y="408.64" width="26.12" height="8"/><rect class="cls-2" x="92.13" y="408.64" width="7.47" height="8"/><rect class="cls-2" x="3.68" y="300.35" width="12.3" height="8"/><rect class="cls-6" x="17.89" y="4.63" width="11.29" height="7.38"/><rect class="cls-4" x="181.72" y="4.63" width="22.96" height="7.38"/><rect class="cls-3" x="59.04" y="19.01" width="15.52" height="8.24"/><rect class="cls-2" x="80.13" y="19.01" width="34.19" height="8"/><rect class="cls-7" x="122.3" y="19.01" width="9.11" height="8"/><rect class="cls-6" x="149.66" y="19.01" width="65.6" height="8"/><path class="cls-2" d="M191,439.54H37.86v8H189.21a6,6,0,0,1-.81-2.88A7.18,7.18,0,0,1,191,439.54Z"/><rect class="cls-2" x="182.18" y="439.54" width="15.86" height="8"/><rect class="cls-7" x="61.42" y="424.15" width="48.93" height="8"/><rect class="cls-5" x="119.18" y="424.15" width="87.89" height="8"/></svg>