<?xml version="1.0" encoding="utf-8"?>
<!-- Generator: Adobe Illustrator 24.1.1, SVG Export Plug-In . SVG Version: 6.00 Build 0)  -->
<svg version="1.1" id="Lag_1" xmlns="http://www.w3.org/2000/svg" xmlns:xlink="http://www.w3.org/1999/xlink" x="0px" y="0px"
	 viewBox="0 0 800 800" style="enable-background:new 0 0 800 800;" xml:space="preserve">
<style type="text/css">
	.st0{fill:none;}
	.st1{fill:#CC5B64;}
	.st2{fill:#A5BA73;}
	.st3{fill:#BFBCBA;}
	.st4{fill:#404F5F;}
	.st5{fill:#7CA5B8;}
	.st6{fill:#D7A458;}
</style>
<g>
	<g>
		<g>
			<path class="st0" d="M346.55,119.16h-29.95c-1.5,0-2.73,1.12-2.73,2.49c0,0.5,0.17,0.97,0.45,1.36c0.49,0.68,1.33,1.14,2.28,1.14
				h29.95c0.95,0,1.79-0.45,2.28-1.14c0.28-0.39,0.45-0.86,0.45-1.36C349.28,120.28,348.05,119.16,346.55,119.16z"/>
			<path class="st0" d="M303.84,119.11c-1.54,0-2.78,1.14-2.78,2.55c0,0.5,0.16,0.96,0.44,1.36c0.49,0.71,1.36,1.19,2.35,1.19
				c0.99,0,1.85-0.48,2.35-1.19c0.27-0.39,0.44-0.86,0.44-1.36C306.63,120.25,305.38,119.11,303.84,119.11z"/>
			<polygon class="st0" points="439.03,488.79 439.03,450.94 439.03,442.94 439.03,419.88 439.03,411.88 439.03,403.85 
				439.03,395.85 439.03,389.4 439.03,381.4 439.03,373.9 439.03,365.9 439.03,357.85 439.03,349.85 439.03,342.57 439.03,334.57 
				439.03,326.83 439.03,318.83 439.03,311.35 439.03,303.35 439.03,295.85 439.03,287.85 439.03,277.95 439.03,269.95 
				439.03,262.43 439.03,254.43 439.03,253.99 439.03,232.03 439.03,224.03 439.03,216.31 439.03,208.31 439.03,185.13 
				439.03,177.13 439.03,169.46 439.03,161.46 439.03,153.98 439.03,145.98 439.03,138.49 439.03,137.1 358.36,137.1 346.05,137.1 
				332.69,137.1 321.02,137.1 279.94,137.1 267.08,137.1 238.76,137.1 238.76,138.49 238.76,145.98 238.76,153.98 238.76,161.46 
				238.76,169.46 238.76,177.2 238.76,185.2 238.76,192.81 238.76,200.81 238.76,208.42 238.76,216.42 238.76,224.03 238.76,232.03 
				238.76,238.69 238.76,246.69 238.76,254.51 238.76,262.51 238.76,270.72 238.76,278.72 238.76,287.85 238.76,295.85 
				238.76,303.85 238.76,311.85 238.76,318.85 238.76,326.85 238.76,334.85 238.76,342.85 238.76,349.85 238.76,357.85 
				238.76,365.85 238.76,373.85 238.76,380.85 238.76,388.85 238.76,411.85 238.76,419.85 238.76,426.85 238.76,434.85 
				238.76,442.33 238.76,450.33 238.76,458.69 238.76,466.69 238.76,473.29 238.76,481.29 238.76,489.03 238.76,492.47 
				258.19,492.47 266.13,492.47 335.21,492.47 342.22,492.47 414.31,492.47 424.54,492.47 439.03,492.47 			"/>
			<path class="st0" d="M374,119.16h-13.81c-1.5,0-2.73,1.12-2.73,2.49c0,0.5,0.17,0.97,0.45,1.36c0.49,0.68,1.33,1.14,2.28,1.14
				H374c0.95,0,1.79-0.45,2.28-1.14c0.28-0.39,0.45-0.86,0.45-1.36C376.72,120.28,375.5,119.16,374,119.16z"/>
			<path class="st0" d="M346.38,520.15c2.84-1.72,4.93-4.38,5.74-7.51c0.24-0.93,0.38-1.89,0.38-2.88c0-1.83-0.44-3.56-1.21-5.12
				c-2.13-4.32-6.87-7.33-12.39-7.33c-5.52,0-10.25,3.01-12.39,7.33c-0.77,1.56-1.21,3.29-1.21,5.12c0,0.99,0.14,1.95,0.38,2.88
				c0.81,3.12,2.9,5.79,5.74,7.51c2.15,1.3,4.72,2.06,7.48,2.06C341.66,522.2,344.23,521.44,346.38,520.15z"/>
			<rect x="230.18" y="326.85" class="st0" width="8.58" height="8"/>
			<rect x="439.03" y="277.95" class="st0" width="8.58" height="9.9"/>
			<polygon class="st0" points="439.03,253.99 447.61,253.99 447.61,246.3 445.94,246.3 445.94,238.3 447.61,238.3 447.61,232.03 
				439.03,232.03 			"/>
			<polygon class="st0" points="439.03,208.31 447.61,208.31 447.61,200.81 446.56,200.81 446.56,192.81 447.61,192.81 
				447.61,185.13 439.03,185.13 			"/>
			<rect x="439.03" y="262.43" class="st0" width="8.58" height="7.52"/>
			<rect x="439.03" y="216.31" class="st0" width="8.58" height="7.71"/>
			<rect x="439.03" y="138.49" class="st0" width="8.58" height="7.48"/>
			<path class="st0" d="M238.76,138.49h-0.96v-8h29.27v6.6h12.86v-6.6h41.08v6.6h11.67v-6.6h13.36v6.6h12.32v-6.6h89.22
				c-0.07-2.5-0.46-4.92-1.15-7.24h-2.52v-5.94c-2-3.56-4.74-6.71-8.03-9.3h-110.2v-7.38h-12.14v7.38h-53.21v-7.23
				c-4.34,0.39-8.44,1.55-12.14,3.32v3.91h-6.3c-2.56,2.01-4.79,4.37-6.6,7h37.17v8h-41.05c-0.8,2.63-1.24,5.39-1.24,8.25v14.71
				h8.58V138.49z M285.54,115.01h145.64v8h-54.91c-0.49,0.68-1.33,1.14-2.28,1.14h-13.81c-0.95,0-1.79-0.45-2.28-1.14h-9.07
				c-0.49,0.68-1.33,1.14-2.28,1.14h-29.95c-0.95,0-1.79-0.45-2.28-1.14h-8.14c-0.49,0.71-1.36,1.19-2.35,1.19
				c-0.99,0-1.85-0.48-2.35-1.19h-15.95V115.01z"/>
			<rect x="439.03" y="153.98" class="st0" width="8.58" height="7.48"/>
			<rect x="439.03" y="169.46" class="st0" width="8.58" height="7.67"/>
			<rect x="230.18" y="153.98" class="st0" width="8.58" height="7.48"/>
			<rect x="439.03" y="389.4" class="st0" width="8.58" height="6.45"/>
			<rect x="439.03" y="403.85" class="st0" width="8.58" height="8.04"/>
			<rect x="439.03" y="373.9" class="st0" width="8.58" height="7.5"/>
			<polygon class="st0" points="439.03,442.94 447.61,442.94 447.61,434.85 442.18,434.85 442.18,426.85 447.61,426.85 
				447.61,419.88 439.03,419.88 			"/>
			<polygon class="st0" points="439.03,349.85 446.12,349.85 446.12,357.85 439.03,357.85 439.03,365.9 447.61,365.9 447.61,342.57 
				439.03,342.57 			"/>
			<rect x="439.03" y="311.35" class="st0" width="8.58" height="7.48"/>
			<rect x="439.03" y="326.83" class="st0" width="8.58" height="7.74"/>
			<rect x="439.03" y="295.85" class="st0" width="8.58" height="7.5"/>
			<rect x="230.18" y="357.85" class="st0" width="8.58" height="8"/>
			<rect x="230.18" y="373.85" class="st0" width="8.58" height="7"/>
			<rect x="230.18" y="342.85" class="st0" width="8.58" height="7"/>
			<polygon class="st0" points="439.03,488.79 447.61,488.79 447.61,481.29 447.26,481.29 447.26,473.29 447.61,473.29 
				447.61,466.69 442.9,466.69 442.9,458.69 447.61,458.69 447.61,450.94 439.03,450.94 			"/>
			<rect x="230.18" y="169.46" class="st0" width="8.58" height="7.74"/>
			<rect x="230.18" y="388.85" class="st0" width="8.58" height="23"/>
			<rect x="230.18" y="450.33" class="st0" width="8.58" height="8.36"/>
			<rect x="230.18" y="481.29" class="st0" width="8.58" height="7.74"/>
			<path class="st0" d="M362.9,512.64v-8h83.97c0.48-2.06,0.73-4.18,0.73-6.37v-1.48h-23.07v-4.32h-10.23v4.56h-72.09v-4.56h-7.01
				v4.56h-69.09v-4.56h-7.94v4.56h-28.01v1.24c0,2.18,0.26,4.31,0.73,6.37h10.15v8h-6.96c1.62,2.79,3.71,5.32,6.15,7.51h34.99v8
				H256.3c2.37,0.49,4.83,0.75,7.35,0.75h150.48c2.53,0,4.99-0.27,7.35-0.75H287.92v-8h43.49c-2.84-1.72-4.93-4.38-5.74-7.51h-71.28
				v-8h72.11c2.13-4.32,6.87-7.33,12.39-7.33c5.52,0,10.25,3.01,12.39,7.33h1.91v8h-1.07c-0.81,3.12-2.9,5.79-5.74,7.51h87.18v3.04
				c4.2-2.75,7.68-6.36,10.12-10.55H362.9z"/>
			<rect x="230.18" y="466.69" class="st0" width="8.58" height="6.6"/>
			<rect x="230.18" y="434.85" class="st0" width="8.58" height="7.48"/>
			<rect x="230.18" y="216.42" class="st0" width="8.58" height="7.61"/>
			<rect x="230.18" y="200.81" class="st0" width="8.58" height="7.61"/>
			<rect x="230.18" y="185.2" class="st0" width="8.58" height="7.61"/>
			<rect x="230.18" y="232.03" class="st0" width="8.58" height="6.66"/>
			<polygon class="st0" points="238.76,278.72 233.02,278.72 233.02,270.72 238.76,270.72 238.76,262.51 230.18,262.51 
				230.18,287.85 238.76,287.85 			"/>
			<rect x="230.18" y="246.69" class="st0" width="8.58" height="7.82"/>
			<rect x="230.18" y="295.85" class="st0" width="8.58" height="8"/>
			<rect x="230.18" y="311.85" class="st0" width="8.58" height="7"/>
			<rect x="230.18" y="419.85" class="st0" width="8.58" height="7"/>
			<path class="st1" d="M403.51,108.01c0-6.6,0-1.73,0-7.55h-78.82v7.55H403.51z"/>
			<rect x="230.18" y="426.85" class="st2" width="12.3" height="8"/>
			<path class="st3" d="M318.88,108.01v-7.55h-52.07c-1.17,0-2.14,0-3.34,0v7.55H318.88z"/>
			<path class="st4" d="M272.47,115.01h-39.33c0,3.38-0.05,4.92-0.05,8h39.38V115.01z"/>
			<rect x="434.82" y="146.13" class="st5" width="13" height="8"/>
			<rect x="332.69" y="130.49" class="st3" width="13.36" height="6.6"/>
			<path class="st2" d="M353.35,137.1h85.2h1.8h7.26v-5.84c0-0.26-0.02-0.51-0.02-0.77h-94.23V137.1z"/>
			<rect x="273.24" y="130.49" class="st5" width="52.45" height="6.6"/>
			<polygon class="st1" points="267.08,137.1 267.08,130.49 230.18,130.49 230.18,137.1 230.77,137.1 231.39,137.1 			"/>
			<rect x="230.18" y="145.98" class="st4" width="12.3" height="8"/>
			<rect x="434.82" y="161.61" class="st1" width="13" height="8"/>
			<rect x="230.18" y="161.46" class="st1" width="12.3" height="8"/>
			<rect x="230.18" y="177.2" class="st3" width="12.3" height="8"/>
			<rect x="434.82" y="208.46" class="st3" width="13" height="8"/>
			<rect x="434.82" y="288" class="st3" width="13" height="8"/>
			<rect x="361.96" y="288" class="st3" width="31.71" height="8"/>
			<rect x="347.02" y="270.1" class="st3" width="31.71" height="8"/>
			<rect x="347.02" y="303.5" class="st3" width="31.71" height="8"/>
			<rect x="293.11" y="225.23" class="st3" width="31.71" height="8"/>
			<rect x="278.18" y="207.33" class="st3" width="31.71" height="8"/>
			<rect x="278.18" y="240.73" class="st3" width="31.71" height="8"/>
			<rect x="372.39" y="177.31" class="st3" width="31.71" height="8"/>
			<rect x="357.46" y="159.41" class="st3" width="31.71" height="8"/>
			<rect x="357.46" y="192.81" class="st3" width="31.71" height="8"/>
			<rect x="279.04" y="443.53" class="st3" width="31.71" height="8"/>
			<rect x="264.1" y="425.63" class="st3" width="31.71" height="8"/>
			<rect x="264.1" y="459.03" class="st3" width="31.71" height="8"/>
			<rect x="230.18" y="208.42" class="st1" width="12.3" height="8"/>
			<rect x="230.18" y="192.81" class="st6" width="12.3" height="8"/>
			<rect x="434.82" y="177.28" class="st5" width="13" height="8"/>
			<rect x="230.18" y="224.03" class="st2" width="12.3" height="8"/>
			<rect x="230.18" y="238.69" class="st3" width="12.3" height="8"/>
			<rect x="434.82" y="224.18" class="st1" width="13" height="8"/>
			<rect x="434.82" y="192.96" class="st1" width="13" height="8"/>
			<rect x="230.18" y="254.51" class="st1" width="12.3" height="8"/>
			<rect x="230.18" y="270.72" class="st2" width="12.3" height="8"/>
			<rect x="230.18" y="334.85" class="st1" width="12.3" height="8"/>
			<path class="st5" d="M275.24,520.15h-33.32c0,5.84,0,4.56,0,8h33.32V520.15z"/>
			<rect x="230.18" y="349.85" class="st6" width="12.3" height="8"/>
			<rect x="230.18" y="318.85" class="st3" width="12.3" height="8"/>
			<rect x="230.18" y="365.85" class="st5" width="12.3" height="8"/>
			<rect x="230.18" y="380.85" class="st4" width="12.3" height="8"/>
			<rect x="230.18" y="287.85" class="st2" width="12.3" height="8"/>
			<rect x="230.18" y="303.85" class="st5" width="12.3" height="8"/>
			<rect x="434.82" y="303.5" class="st5" width="13" height="8"/>
			<rect x="434.82" y="318.98" class="st1" width="13" height="8"/>
			<rect x="434.82" y="334.72" class="st3" width="13" height="8"/>
			<rect x="434.82" y="350" class="st5" width="13" height="8"/>
			<rect x="434.82" y="381.55" class="st6" width="13" height="8"/>
			<rect x="434.82" y="412.03" class="st6" width="13" height="8"/>
			<rect x="434.82" y="427" class="st6" width="13" height="8"/>
			<rect x="266.13" y="488.79" class="st3" width="69.09" height="8.24"/>
			<rect x="434.82" y="443.09" class="st3" width="13" height="8"/>
			<rect x="230.18" y="411.85" class="st1" width="12.3" height="8"/>
			<rect x="230.18" y="442.33" class="st5" width="12.3" height="8"/>
			<rect x="230.18" y="458.69" class="st5" width="12.3" height="8"/>
			<rect x="230.18" y="473.29" class="st1" width="12.3" height="8"/>
			<path class="st1" d="M326.51,504.64h-72.11v8h72.11c0-1.03,0-1.89,0-2.88C326.51,507.93,326.51,507.21,326.51,504.64z"/>
			<polygon class="st3" points="258.19,489.03 242.73,489.03 238.76,489.03 230.18,489.03 230.18,497.03 258.19,497.03 			"/>
			<path class="st5" d="M248.1,504.64h-13.63c0,3.21,0,5.13,0,8h13.63V504.64z"/>
			<rect x="434.82" y="366.05" class="st1" width="13" height="8"/>
			<rect x="434.82" y="270.1" class="st6" width="13" height="8"/>
			<rect x="434.82" y="396" class="st5" width="13" height="8"/>
			<rect x="434.82" y="254.58" class="st5" width="13" height="8"/>
			<rect x="434.82" y="238.45" class="st5" width="13" height="8"/>
			<rect x="434.82" y="473.44" class="st4" width="13" height="8"/>
			<rect x="350.75" y="488.79" class="st1" width="63.57" height="8.24"/>
			<rect x="434.82" y="458.84" class="st1" width="13" height="8"/>
			<polygon class="st1" points="435.54,488.79 424.54,488.79 424.54,496.79 447.61,496.79 447.61,488.79 439.03,488.79 			"/>
			<path class="st2" d="M392.18,512.64h54.15c0-2.88-0.04-5-0.04-8h-54.11V512.64z"/>
		</g>
		<rect x="357.77" y="504.64" class="st1" width="26.12" height="8"/>
		<rect x="318.63" y="504.64" class="st1" width="7.47" height="8"/>
		<rect x="230.18" y="396.35" class="st1" width="12.3" height="8"/>
		<rect x="244.39" y="100.63" class="st5" width="11.29" height="7.38"/>
		<rect x="408.22" y="100.63" class="st3" width="22.96" height="7.38"/>
		<rect x="285.54" y="115.01" class="st2" width="15.52" height="8.24"/>
		<rect x="306.63" y="115.01" class="st1" width="34.19" height="8"/>
		<rect x="348.8" y="115.01" class="st6" width="9.11" height="8"/>
		<rect x="376.16" y="115.01" class="st5" width="65.6" height="8"/>
	</g>
	<path class="st1" d="M417.48,535.54H264.36v8h151.35c-0.51-0.93-0.81-1.89-0.81-2.88C414.9,538.83,415.84,537.1,417.48,535.54z"/>
	<rect x="408.68" y="535.54" class="st1" width="15.86" height="8"/>
	<rect x="287.92" y="520.15" class="st6" width="48.93" height="8"/>
	<rect x="345.68" y="520.15" class="st4" width="87.89" height="8"/>
</g>
</svg>
