<svg id="Lag_1" data-name="Lag 1" xmlns="http://www.w3.org/2000/svg" viewBox="0 0 217.66 443.08"><defs><style>.cls-1{fill:none;}.cls-2{fill:#cc5b64;}.cls-3{fill:#a5ba73;}.cls-4{fill:#bfbcba;}.cls-5{fill:#404f5f;}.cls-6{fill:#7ca5b8;}.cls-7{fill:#d7a458;}</style></defs><path class="cls-1" d="M116.39,18.7H86.44a2.63,2.63,0,0,0-2.73,2.49,2.33,2.33,0,0,0,.45,1.36,2.81,2.81,0,0,0,2.28,1.14h30a2.78,2.78,0,0,0,2.28-1.14,2.33,2.33,0,0,0,.45-1.36A2.63,2.63,0,0,0,116.39,18.7Z"/><path class="cls-1" d="M73.68,18.65A2.67,2.67,0,0,0,70.9,21.2a2.35,2.35,0,0,0,.44,1.36,2.92,2.92,0,0,0,4.7,0,2.4,2.4,0,0,0,.44-1.36A2.69,2.69,0,0,0,73.68,18.65Z"/><polygon class="cls-1" points="208.87 388.33 208.87 350.48 208.87 342.48 208.87 319.42 208.87 311.42 208.87 303.39 208.87 295.39 208.87 288.94 208.87 280.94 208.87 273.44 208.87 265.44 208.87 257.39 208.87 249.39 208.87 242.11 208.87 234.11 208.87 226.37 208.87 218.37 208.87 210.89 208.87 202.89 208.87 195.39 208.87 187.39 208.87 177.49 208.87 169.49 208.87 161.97 208.87 153.97 208.87 153.53 208.87 131.57 208.87 123.57 208.87 115.85 208.87 107.85 208.87 84.67 208.87 76.67 208.87 69 208.87 61 208.87 53.52 208.87 45.52 208.87 38.03 208.87 36.64 128.2 36.64 115.89 36.64 102.53 36.64 90.86 36.64 49.78 36.64 36.92 36.64 8.6 36.64 8.6 38.03 8.6 45.52 8.6 53.52 8.6 61 8.6 69 8.6 76.74 8.6 84.74 8.6 92.35 8.6 100.35 8.6 107.96 8.6 115.96 8.6 123.57 8.6 131.57 8.6 138.23 8.6 146.23 8.6 154.05 8.6 162.05 8.6 170.26 8.6 178.26 8.6 187.39 8.6 195.39 8.6 203.39 8.6 211.39 8.6 218.39 8.6 226.39 8.6 234.39 8.6 242.39 8.6 249.39 8.6 257.39 8.6 265.39 8.6 273.39 8.6 280.39 8.6 288.39 8.6 311.39 8.6 319.39 8.6 326.39 8.6 334.39 8.6 341.87 8.6 349.87 8.6 358.23 8.6 366.23 8.6 372.83 8.6 380.83 8.6 388.57 8.6 392.01 28.03 392.01 35.97 392.01 105.05 392.01 112.06 392.01 184.15 392.01 194.38 392.01 208.87 392.01 208.87 388.33"/><path class="cls-1" d="M143.84,18.7H130a2.63,2.63,0,0,0-2.73,2.49,2.33,2.33,0,0,0,.45,1.36A2.81,2.81,0,0,0,130,23.69h13.81a2.78,2.78,0,0,0,2.28-1.14,2.33,2.33,0,0,0,.45-1.36A2.63,2.63,0,0,0,143.84,18.7Z"/><path class="cls-1" d="M116.22,419.69a12.52,12.52,0,0,0,5.74-7.51,11.32,11.32,0,0,0-.83-8,14.14,14.14,0,0,0-24.78,0,11.32,11.32,0,0,0-.83,8,12.55,12.55,0,0,0,5.74,7.51,14.43,14.43,0,0,0,7.48,2.06A14.63,14.63,0,0,0,116.22,419.69Z"/><rect class="cls-1" x="0.02" y="226.39" width="8.58" height="8"/><rect class="cls-1" x="208.87" y="177.49" width="8.58" height="9.9"/><polygon class="cls-1" points="208.87 153.53 217.45 153.53 217.45 145.84 215.78 145.84 215.78 137.84 217.45 137.84 217.45 131.57 208.87 131.57 208.87 153.53"/><polygon class="cls-1" points="208.87 107.85 217.45 107.85 217.45 100.35 216.4 100.35 216.4 92.35 217.45 92.35 217.45 84.67 208.87 84.67 208.87 107.85"/><rect class="cls-1" x="208.87" y="161.97" width="8.58" height="7.52"/><rect class="cls-1" x="208.87" y="115.85" width="8.58" height="7.71"/><rect class="cls-1" x="208.87" y="38.03" width="8.58" height="7.48"/><path class="cls-1" d="M8.6,38h-1V30H36.91v6.6H49.77V30H90.85v6.6h11.67V30h13.36v6.6H128.2V30h89.22a28.08,28.08,0,0,0-1.15-7.24h-2.52V16.85a31.55,31.55,0,0,0-8-9.3H95.52V.17H83.38V7.55H30.17V.32A35.48,35.48,0,0,0,18,3.64V7.55h-6.3a32,32,0,0,0-6.6,7H42.3v8h-41A28.26,28.26,0,0,0,0,30.8V45.51H8.59V38ZM55.38,14.55H201v8H146.11a2.81,2.81,0,0,1-2.28,1.14H130a2.78,2.78,0,0,1-2.28-1.14h-9.07a2.81,2.81,0,0,1-2.28,1.14H86.44a2.78,2.78,0,0,1-2.28-1.14H76a2.92,2.92,0,0,1-4.7,0H55.37v-8Z"/><rect class="cls-1" x="208.87" y="53.52" width="8.58" height="7.48"/><rect class="cls-1" x="208.87" y="69" width="8.58" height="7.67"/><rect class="cls-1" x="0.02" y="53.52" width="8.58" height="7.48"/><rect class="cls-1" x="208.87" y="288.94" width="8.58" height="6.45"/><rect class="cls-1" x="208.87" y="303.39" width="8.58" height="8.04"/><rect class="cls-1" x="208.87" y="273.44" width="8.58" height="7.5"/><polygon class="cls-1" points="208.87 342.48 217.45 342.48 217.45 334.39 212.02 334.39 212.02 326.39 217.45 326.39 217.45 319.42 208.87 319.42 208.87 342.48"/><polygon class="cls-1" points="208.87 249.39 215.96 249.39 215.96 257.39 208.87 257.39 208.87 265.44 217.45 265.44 217.45 242.11 208.87 242.11 208.87 249.39"/><rect class="cls-1" x="208.87" y="210.89" width="8.58" height="7.48"/><rect class="cls-1" x="208.87" y="226.37" width="8.58" height="7.74"/><rect class="cls-1" x="208.87" y="195.39" width="8.58" height="7.5"/><rect class="cls-1" x="0.02" y="257.39" width="8.58" height="8"/><rect class="cls-1" x="0.02" y="273.39" width="8.58" height="7"/><rect class="cls-1" x="0.02" y="242.39" width="8.58" height="7"/><polygon class="cls-1" points="208.87 388.33 217.45 388.33 217.45 380.83 217.1 380.83 217.1 372.83 217.45 372.83 217.45 366.23 212.74 366.23 212.74 358.23 217.45 358.23 217.45 350.48 208.87 350.48 208.87 388.33"/><rect class="cls-1" x="0.02" y="69" width="8.58" height="7.74"/><rect class="cls-1" x="0.02" y="288.39" width="8.58" height="23"/><rect class="cls-1" x="0.02" y="349.87" width="8.58" height="8.36"/><rect class="cls-1" x="0.02" y="380.83" width="8.58" height="7.74"/><path class="cls-1" d="M132.74,412.18v-8h84a28,28,0,0,0,.73-6.37v-1.48H194.37V392H184.14v4.56H112.05V392h-7v4.56H36V392H28v4.56H0v1.24a28.6,28.6,0,0,0,.73,6.37H10.88v8h-7a31.15,31.15,0,0,0,6.15,7.51h35v8H26.14a36.29,36.29,0,0,0,7.35.75H184a36.86,36.86,0,0,0,7.35-.75H57.76v-8h43.49a12.52,12.52,0,0,1-5.74-7.51H24.23v-8H96.34a14.14,14.14,0,0,1,24.78,0H123v8H122a12.55,12.55,0,0,1-5.74,7.51H203.4v3a31.85,31.85,0,0,0,10.12-10.55Z"/><rect class="cls-1" x="0.02" y="366.23" width="8.58" height="6.6"/><rect class="cls-1" x="0.02" y="334.39" width="8.58" height="7.48"/><rect class="cls-1" x="0.02" y="115.96" width="8.58" height="7.61"/><rect class="cls-1" x="0.02" y="100.35" width="8.58" height="7.61"/><rect class="cls-1" x="0.02" y="84.74" width="8.58" height="7.61"/><rect class="cls-1" x="0.02" y="131.57" width="8.58" height="6.66"/><polygon class="cls-1" points="8.6 178.26 2.86 178.26 2.86 170.26 8.6 170.26 8.6 162.05 0.02 162.05 0.02 187.39 8.6 187.39 8.6 178.26"/><rect class="cls-1" x="0.02" y="146.23" width="8.58" height="7.82"/><rect class="cls-1" x="0.02" y="195.39" width="8.58" height="8"/><rect class="cls-1" x="0.02" y="211.39" width="8.58" height="7"/><rect class="cls-1" x="0.02" y="319.39" width="8.58" height="7"/><path class="cls-2" d="M173.35,7.55V0H94.53V7.55Z"/><rect class="cls-3" x="0.02" y="326.39" width="12.3" height="8"/><path class="cls-4" d="M88.72,7.55V0H33.31V7.55Z"/><path class="cls-5" d="M42.31,14.55H3c0,3.38,0,4.92,0,8H42.31v-8Z"/><rect class="cls-6" x="204.66" y="45.67" width="13" height="8"/><rect class="cls-4" x="102.53" y="30.03" width="13.36" height="6.6"/><path class="cls-3" d="M123.19,36.64h94.26V30.8c0-.26,0-.51,0-.77H123.2v6.61Z"/><rect class="cls-6" x="43.08" y="30.03" width="52.45" height="6.6"/><polygon class="cls-2" points="36.92 36.64 36.92 30.03 0.02 30.03 0.02 36.64 0.61 36.64 1.23 36.64 36.92 36.64"/><rect class="cls-5" x="0.02" y="45.52" width="12.3" height="8"/><rect class="cls-2" x="204.66" y="61.15" width="13" height="8"/><rect class="cls-2" x="0.02" y="61" width="12.3" height="8"/><rect class="cls-4" x="0.02" y="76.74" width="12.3" height="8"/><rect class="cls-4" x="204.66" y="108" width="13" height="8"/><rect class="cls-4" x="204.66" y="187.54" width="13" height="8"/><rect class="cls-2" x="0.02" y="107.96" width="12.3" height="8"/><rect class="cls-7" x="0.02" y="92.35" width="12.3" height="8"/><rect class="cls-6" x="204.66" y="76.82" width="13" height="8"/><rect class="cls-3" x="0.02" y="123.57" width="12.3" height="8"/><rect class="cls-4" x="0.02" y="138.23" width="12.3" height="8"/><rect class="cls-2" x="204.66" y="123.72" width="13" height="8"/><rect class="cls-2" x="204.66" y="92.5" width="13" height="8"/><rect class="cls-2" x="0.02" y="154.05" width="12.3" height="8"/><rect class="cls-3" x="0.02" y="170.26" width="12.3" height="8"/><rect class="cls-2" x="0.02" y="234.39" width="12.3" height="8"/><path class="cls-6" d="M45.08,419.69H11.76v8H45.08Z"/><rect class="cls-7" x="0.02" y="249.39" width="12.3" height="8"/><rect class="cls-4" x="0.02" y="218.39" width="12.3" height="8"/><rect class="cls-6" x="0.02" y="265.39" width="12.3" height="8"/><rect class="cls-5" x="0.02" y="280.39" width="12.3" height="8"/><rect class="cls-3" x="0.02" y="187.39" width="12.3" height="8"/><rect class="cls-6" x="0.02" y="203.39" width="12.3" height="8"/><rect class="cls-6" x="204.66" y="203.04" width="13" height="8"/><rect class="cls-2" x="204.66" y="218.52" width="13" height="8"/><rect class="cls-4" x="204.66" y="234.26" width="13" height="8"/><rect class="cls-6" x="204.66" y="249.54" width="13" height="8"/><rect class="cls-7" x="204.66" y="281.09" width="13" height="8"/><rect class="cls-7" x="204.66" y="311.57" width="13" height="8"/><rect class="cls-7" x="204.66" y="326.54" width="13" height="8"/><rect class="cls-4" x="35.97" y="388.33" width="69.09" height="8.24"/><rect class="cls-4" x="204.66" y="342.63" width="13" height="8"/><rect class="cls-2" x="0.02" y="311.39" width="12.3" height="8"/><rect class="cls-6" x="0.02" y="341.87" width="12.3" height="8"/><rect class="cls-6" x="0.02" y="358.23" width="12.3" height="8"/><rect class="cls-2" x="0.02" y="372.83" width="12.3" height="8"/><path class="cls-2" d="M96.35,404.18H24.24v8H96.35v-8Z"/><polygon class="cls-4" points="28.03 388.57 12.57 388.57 8.6 388.57 0.02 388.57 0.02 396.57 28.03 396.57 28.03 388.57"/><path class="cls-6" d="M17.94,404.18H4.31v8H17.94Z"/><rect class="cls-2" x="204.66" y="265.59" width="13" height="8"/><rect class="cls-7" x="204.66" y="169.64" width="13" height="8"/><rect class="cls-6" x="204.66" y="295.54" width="13" height="8"/><rect class="cls-6" x="204.66" y="154.12" width="13" height="8"/><rect class="cls-6" x="204.66" y="137.99" width="13" height="8"/><rect class="cls-5" x="204.66" y="372.98" width="13" height="8"/><rect class="cls-2" x="120.59" y="388.33" width="63.57" height="8.24"/><rect class="cls-2" x="204.66" y="358.38" width="13" height="8"/><polygon class="cls-2" points="205.38 388.33 194.38 388.33 194.38 396.33 217.45 396.33 217.45 388.33 208.87 388.33 205.38 388.33"/><path class="cls-3" d="M162,412.18h54.15c0-2.88,0-5,0-8H162Z"/><rect class="cls-2" x="127.61" y="404.18" width="26.12" height="8"/><rect class="cls-2" x="88.47" y="404.18" width="7.47" height="8"/><rect class="cls-2" x="0.02" y="295.89" width="12.3" height="8"/><rect class="cls-6" x="14.23" y="0.17" width="11.29" height="7.38"/><rect class="cls-4" x="178.06" y="0.17" width="22.96" height="7.38"/><rect class="cls-3" x="55.38" y="14.55" width="15.52" height="8.24"/><rect class="cls-2" x="76.47" y="14.55" width="34.19" height="8"/><rect class="cls-7" x="118.64" y="14.55" width="9.11" height="8"/><rect class="cls-6" x="146" y="14.55" width="65.6" height="8"/><path class="cls-2" d="M187.32,435.08H34.2v8H185.55a6,6,0,0,1-.81-2.88A7.18,7.18,0,0,1,187.32,435.08Z"/><rect class="cls-2" x="178.52" y="435.08" width="15.86" height="8"/><rect class="cls-7" x="57.76" y="419.69" width="48.93" height="8"/><rect class="cls-5" x="115.52" y="419.69" width="87.89" height="8"/><rect class="cls-5" x="108.7" y="124.44" width="9.72" height="8.34"/><rect class="cls-5" x="108.7" y="140.08" width="9.72" height="8.34"/><rect class="cls-5" x="107.84" y="296.61" width="9.72" height="8.34"/><rect class="cls-5" x="107.84" y="312.26" width="9.72" height="8.34"/><rect class="cls-5" x="93.48" y="280.96" width="42.21" height="8.34"/><rect class="cls-5" x="125.63" y="265.32" width="25.29" height="8.34"/><rect class="cls-5" x="121.57" y="234.03" width="33.11" height="8.34"/><rect class="cls-5" x="99.57" y="218.38" width="39.35" height="8.34"/><rect class="cls-5" x="78.68" y="202.74" width="34.02" height="8.34"/><rect class="cls-5" x="74.34" y="187.07" width="19.1" height="8.34"/><rect class="cls-5" x="75.28" y="171.41" width="19.1" height="8.34"/><rect class="cls-5" x="140.39" y="171.41" width="9.2" height="8.34"/><rect class="cls-5" x="144.99" y="187.07" width="5.2" height="8.34"/><rect class="cls-5" x="127.04" y="171.41" width="9.72" height="8.34"/><rect class="cls-5" x="131.53" y="155.74" width="10.45" height="8.34"/><rect class="cls-5" x="86.14" y="155.74" width="42.02" height="8.34"/><rect class="cls-5" x="73.17" y="265.32" width="8.98" height="8.34"/><rect class="cls-5" x="85.33" y="265.32" width="8.59" height="8.34"/><rect class="cls-5" x="73.17" y="249.67" width="4.87" height="8.34"/><rect class="cls-5" x="82.16" y="280.96" width="8.07" height="8.34"/><rect class="cls-5" x="132.28" y="249.67" width="9.76" height="8.34"/><rect class="cls-5" x="145.35" y="249.67" width="8" height="8.34"/></svg>