<?xml version="1.0" encoding="utf-8"?>
<!-- Generator: Adobe Illustrator 24.1.1, SVG Export Plug-In . SVG Version: 6.00 Build 0)  -->
<svg version="1.1" id="Lag_1" xmlns="http://www.w3.org/2000/svg" xmlns:xlink="http://www.w3.org/1999/xlink" x="0px" y="0px"
	 viewBox="0 0 800 800" style="enable-background:new 0 0 800 800;" xml:space="preserve">
<style type="text/css">
	.st0{fill:#D7A458;}
	.st1{fill:#A5BA73;}
	.st2{fill:#BFBCBA;}
	.st3{fill:#404F5F;}
	.st4{fill:#7CA5B8;}
	.st5{fill:#CC5B64;}
	.st6{fill:none;}
</style>
<g>
	<g>
		<rect x="56.64" y="442.72" class="st0" width="140.46" height="8"/>
		<rect x="57.59" y="426.54" class="st1" width="180.08" height="8"/>
		<rect x="204.64" y="442.72" class="st1" width="140.46" height="8"/>
		<rect x="247.23" y="547.11" class="st2" width="145.66" height="8"/>
		<rect x="57.25" y="473.17" class="st3" width="54.44" height="8"/>
		<rect x="120.25" y="473.17" class="st3" width="54.44" height="8"/>
		<rect x="272.87" y="531.73" class="st2" width="7.33" height="8"/>
		<rect x="290.49" y="472.73" class="st2" width="18.29" height="8"/>
		<rect x="246.74" y="426.54" class="st2" width="18.29" height="8"/>
		<rect x="159.8" y="489.73" class="st2" width="14.98" height="8"/>
		<rect x="194.27" y="458.72" class="st3" width="123.22" height="8"/>
		<rect x="182.27" y="488.72" class="st1" width="135.22" height="8"/>
		<rect x="379.88" y="426.41" class="st4" width="64.12" height="8"/>
		<rect x="333.11" y="426.41" class="st1" width="41.22" height="8"/>
		<rect x="361.26" y="488.72" class="st1" width="82.74" height="8"/>
		<rect x="289.62" y="501.07" class="st5" width="56.91" height="8"/>
		<rect x="312.98" y="516.57" class="st3" width="50.09" height="8"/>
		<rect x="354.85" y="442.57" class="st3" width="56.64" height="8"/>
		<rect x="271.31" y="426.54" class="st3" width="56.64" height="8"/>
		<rect x="283.82" y="532.05" class="st4" width="83.67" height="8"/>
		<rect x="276.75" y="516.72" class="st0" width="29.03" height="8"/>
		<rect x="321.88" y="488.72" class="st5" width="32.83" height="8"/>
		<rect x="328.88" y="471.72" class="st2" width="32.83" height="8"/>
		<rect x="321.88" y="458.72" class="st4" width="75.61" height="8"/>
		<rect x="365.88" y="471.72" class="st5" width="77.12" height="8"/>
		<rect x="557.98" y="266.81" class="st2" width="22.32" height="8"/>
		<rect x="557.98" y="250.84" class="st1" width="22.32" height="8"/>
		<rect x="557.98" y="234.87" class="st5" width="22.32" height="8"/>
		<rect x="557.98" y="218.91" class="st4" width="22.32" height="8"/>
		<rect x="557.98" y="202.94" class="st3" width="22.32" height="8"/>
		<rect x="557.98" y="186.97" class="st5" width="22.32" height="8"/>
		<rect x="557.98" y="171" class="st1" width="22.32" height="8"/>
		<rect x="557.98" y="155.03" class="st2" width="22.32" height="8"/>
		<rect x="557.98" y="139.07" class="st5" width="22.32" height="8"/>
		<rect x="557.98" y="123.1" class="st4" width="22.32" height="8"/>
		<rect x="500.51" y="107.13" class="st1" width="76.18" height="8"/>
		<rect x="438.9" y="107.13" class="st3" width="53.64" height="8"/>
		<rect x="454.45" y="91.16" class="st2" width="115.59" height="8"/>
		<rect x="56.36" y="410.37" class="st3" width="22.32" height="8"/>
		<rect x="56.36" y="394.4" class="st2" width="22.32" height="8"/>
		<rect x="56.36" y="378.44" class="st5" width="22.32" height="8"/>
		<rect x="56.36" y="362.47" class="st1" width="22.32" height="8"/>
		<rect x="56.36" y="346.5" class="st2" width="22.32" height="8"/>
		<rect x="56.36" y="330.53" class="st3" width="22.32" height="8"/>
		<rect x="56.36" y="314.56" class="st5" width="22.32" height="8"/>
		<rect x="56.36" y="298.59" class="st4" width="22.32" height="8"/>
		<rect x="56.36" y="282.63" class="st4" width="22.32" height="8"/>
		<rect x="56.36" y="266.66" class="st5" width="22.32" height="8"/>
		<rect x="56.36" y="250.69" class="st2" width="22.32" height="8"/>
		<rect x="56.36" y="234.72" class="st1" width="22.32" height="8"/>
		<rect x="56.36" y="218.75" class="st3" width="22.32" height="8"/>
		<rect x="56.36" y="202.79" class="st5" width="22.32" height="8"/>
		<rect x="56.36" y="186.82" class="st4" width="22.32" height="8"/>
		<rect x="56.36" y="170.85" class="st3" width="22.32" height="8"/>
		<rect x="56.36" y="154.88" class="st1" width="22.32" height="8"/>
		<rect x="56.36" y="138.91" class="st2" width="22.32" height="8"/>
		<rect x="55.51" y="122.95" class="st5" width="22.32" height="8"/>
		<rect x="61.51" y="106.98" class="st5" width="22.32" height="8"/>
		<rect x="60.73" y="106.98" class="st5" width="22.32" height="8"/>
		<rect x="90.98" y="106.98" class="st5" width="71.4" height="8"/>
		<rect x="454.45" y="171" class="st2" width="71.4" height="8"/>
		<rect x="456.85" y="202.94" class="st2" width="71.4" height="8"/>
		<rect x="438.9" y="186.97" class="st2" width="71.4" height="8"/>
		<rect x="268.55" y="234.87" class="st2" width="71.4" height="8"/>
		<rect x="270.94" y="266.81" class="st2" width="71.4" height="8"/>
		<rect x="253" y="250.84" class="st2" width="71.4" height="8"/>
		<rect x="163.02" y="346.5" class="st2" width="71.4" height="8"/>
		<rect x="165.41" y="378.44" class="st2" width="71.4" height="8"/>
		<rect x="147.47" y="362.47" class="st2" width="71.4" height="8"/>
		<rect x="166.69" y="154.88" class="st2" width="71.4" height="8"/>
		<rect x="169.08" y="186.82" class="st2" width="71.4" height="8"/>
		<rect x="151.14" y="170.85" class="st2" width="71.4" height="8"/>
		<rect x="66.84" y="91.01" class="st2" width="50.8" height="8"/>
		<rect x="125.73" y="91.01" class="st4" width="50.8" height="8"/>
		<rect x="182.8" y="91.01" class="st4" width="69.17" height="8"/>
		<rect x="262.87" y="91.01" class="st1" width="25.4" height="8"/>
		<rect x="389" y="91.01" class="st3" width="56.08" height="8"/>
		<rect x="297.22" y="91.01" class="st3" width="84.46" height="8"/>
		<rect x="270.36" y="107.13" class="st5" width="163.47" height="8"/>
		<rect x="169.76" y="106.98" class="st2" width="95.53" height="8"/>
		<rect x="403.88" y="458.72" class="st3" width="40.12" height="8"/>
		<rect x="183.34" y="473.07" class="st0" width="99.77" height="8"/>
		<rect x="188.12" y="547.3" class="st5" width="53.97" height="8"/>
		<rect x="176.34" y="563.3" class="st5" width="52.25" height="8"/>
		<rect x="235.7" y="563.3" class="st5" width="56.01" height="8"/>
		<rect x="288.33" y="563.3" class="st5" width="53.97" height="8"/>
		<rect x="350.97" y="563.3" class="st0" width="53.97" height="8"/>
		<rect x="397.97" y="547.3" class="st5" width="46.29" height="8"/>
		<rect x="57.59" y="458.64" class="st4" width="58.63" height="8"/>
		<rect x="124.59" y="458.64" class="st4" width="58.63" height="8"/>
		<rect x="63.62" y="489.73" class="st4" width="46.07" height="8"/>
		<rect x="107.62" y="489.73" class="st4" width="46.07" height="8"/>
		<rect x="168.95" y="578.62" class="st3" width="94.55" height="8"/>
		<rect x="273.95" y="578.62" class="st0" width="54" height="8"/>
		<rect x="336.95" y="578.99" class="st3" width="24" height="8"/>
		<rect x="407.5" y="563.3" class="st3" width="36.5" height="8"/>
		<rect x="369.95" y="578.99" class="st3" width="74.05" height="8"/>
		<rect x="420.49" y="442.3" class="st3" width="23.51" height="8"/>
	</g>
	<g>
		<g>
			<g>
				<path class="st6" d="M566.55,301.16h-29.95c-1.5,0-2.73,1.12-2.73,2.49c0,0.5,0.17,0.97,0.45,1.36
					c0.49,0.68,1.33,1.14,2.28,1.14h29.95c0.95,0,1.79-0.45,2.28-1.14c0.28-0.39,0.45-0.86,0.45-1.36
					C569.28,302.28,568.05,301.16,566.55,301.16z"/>
				<path class="st6" d="M523.84,301.11c-1.54,0-2.78,1.14-2.78,2.55c0,0.5,0.16,0.96,0.44,1.36c0.49,0.71,1.36,1.19,2.35,1.19
					c0.99,0,1.85-0.48,2.35-1.19c0.27-0.39,0.44-0.86,0.44-1.36C526.63,302.25,525.38,301.11,523.84,301.11z"/>
				<polygon class="st6" points="659.03,670.79 659.03,632.94 659.03,624.94 659.03,601.88 659.03,593.88 659.03,585.85 
					659.03,577.85 659.03,571.4 659.03,563.4 659.03,555.9 659.03,547.9 659.03,539.85 659.03,531.85 659.03,524.57 659.03,516.57 
					659.03,508.83 659.03,500.83 659.03,493.35 659.03,485.35 659.03,477.85 659.03,469.85 659.03,459.95 659.03,451.95 
					659.03,444.43 659.03,436.43 659.03,435.99 659.03,414.03 659.03,406.03 659.03,398.31 659.03,390.31 659.03,367.13 
					659.03,359.13 659.03,351.46 659.03,343.46 659.03,335.98 659.03,327.98 659.03,320.49 659.03,319.1 578.36,319.1 566.05,319.1 
					552.69,319.1 541.02,319.1 499.94,319.1 487.08,319.1 458.76,319.1 458.76,320.49 458.76,327.98 458.76,335.98 458.76,343.46 
					458.76,351.46 458.76,359.2 458.76,367.2 458.76,374.81 458.76,382.81 458.76,390.42 458.76,398.42 458.76,406.03 
					458.76,414.03 458.76,420.69 458.76,428.69 458.76,436.51 458.76,444.51 458.76,452.72 458.76,460.72 458.76,469.85 
					458.76,477.85 458.76,485.85 458.76,493.85 458.76,500.85 458.76,508.85 458.76,516.85 458.76,524.85 458.76,531.85 
					458.76,539.85 458.76,547.85 458.76,555.85 458.76,562.85 458.76,570.85 458.76,593.85 458.76,601.85 458.76,608.85 
					458.76,616.85 458.76,624.33 458.76,632.33 458.76,640.69 458.76,648.69 458.76,655.29 458.76,663.29 458.76,671.03 
					458.76,674.47 478.19,674.47 486.13,674.47 555.21,674.47 562.22,674.47 634.31,674.47 644.54,674.47 659.03,674.47 				"/>
				<path class="st6" d="M594,301.16h-13.81c-1.5,0-2.73,1.12-2.73,2.49c0,0.5,0.17,0.97,0.45,1.36c0.49,0.68,1.33,1.14,2.28,1.14
					H594c0.95,0,1.79-0.45,2.28-1.14c0.28-0.39,0.45-0.86,0.45-1.36C596.72,302.28,595.5,301.16,594,301.16z"/>
				<path class="st6" d="M566.38,702.15c2.84-1.72,4.93-4.38,5.74-7.51c0.24-0.93,0.38-1.89,0.38-2.88c0-1.83-0.44-3.56-1.21-5.12
					c-2.13-4.32-6.87-7.33-12.39-7.33c-5.52,0-10.25,3.01-12.39,7.33c-0.77,1.56-1.21,3.29-1.21,5.12c0,0.99,0.14,1.95,0.38,2.88
					c0.81,3.12,2.9,5.79,5.74,7.51c2.15,1.3,4.72,2.06,7.48,2.06S564.23,703.44,566.38,702.15z"/>
				<rect x="450.18" y="508.85" class="st6" width="8.58" height="8"/>
				<rect x="659.03" y="459.95" class="st6" width="8.58" height="9.9"/>
				<polygon class="st6" points="659.03,435.99 667.61,435.99 667.61,428.3 665.94,428.3 665.94,420.3 667.61,420.3 667.61,414.03 
					659.03,414.03 				"/>
				<polygon class="st6" points="659.03,390.31 667.61,390.31 667.61,382.81 666.56,382.81 666.56,374.81 667.61,374.81 
					667.61,367.13 659.03,367.13 				"/>
				<rect x="659.03" y="444.43" class="st6" width="8.58" height="7.52"/>
				<rect x="659.03" y="398.31" class="st6" width="8.58" height="7.71"/>
				<rect x="659.03" y="320.49" class="st6" width="8.58" height="7.48"/>
				<path class="st6" d="M458.76,320.49h-0.96v-8h29.27v6.6h12.86v-6.6h41.08v6.6h11.67v-6.6h13.36v6.6h12.32v-6.6h89.22
					c-0.07-2.5-0.46-4.92-1.15-7.24h-2.52v-5.94c-2-3.56-4.74-6.71-8.03-9.3h-110.2v-7.38h-12.14v7.38h-53.21v-7.23
					c-4.34,0.39-8.44,1.55-12.14,3.32v3.91h-6.3c-2.56,2.01-4.79,4.37-6.6,7h37.17v8h-41.05c-0.8,2.63-1.24,5.39-1.24,8.25v14.71
					h8.58V320.49z M505.54,297.01h145.64v8h-54.91c-0.49,0.68-1.33,1.14-2.28,1.14h-13.81c-0.95,0-1.79-0.45-2.28-1.14h-9.07
					c-0.49,0.68-1.33,1.14-2.28,1.14h-29.95c-0.95,0-1.79-0.45-2.28-1.14h-8.14c-0.49,0.71-1.36,1.19-2.35,1.19
					c-0.99,0-1.85-0.48-2.35-1.19h-15.95V297.01z"/>
				<rect x="659.03" y="335.98" class="st6" width="8.58" height="7.48"/>
				<rect x="659.03" y="351.46" class="st6" width="8.58" height="7.67"/>
				<rect x="450.18" y="335.98" class="st6" width="8.58" height="7.48"/>
				<rect x="659.03" y="571.4" class="st6" width="8.58" height="6.45"/>
				<rect x="659.03" y="585.85" class="st6" width="8.58" height="8.04"/>
				<rect x="659.03" y="555.9" class="st6" width="8.58" height="7.5"/>
				<polygon class="st6" points="659.03,624.94 667.61,624.94 667.61,616.85 662.18,616.85 662.18,608.85 667.61,608.85 
					667.61,601.88 659.03,601.88 				"/>
				<polygon class="st6" points="659.03,531.85 666.12,531.85 666.12,539.85 659.03,539.85 659.03,547.9 667.61,547.9 
					667.61,524.57 659.03,524.57 				"/>
				<rect x="659.03" y="493.35" class="st6" width="8.58" height="7.48"/>
				<rect x="659.03" y="508.83" class="st6" width="8.58" height="7.74"/>
				<rect x="659.03" y="477.85" class="st6" width="8.58" height="7.5"/>
				<rect x="450.18" y="539.85" class="st6" width="8.58" height="8"/>
				<rect x="450.18" y="555.85" class="st6" width="8.58" height="7"/>
				<rect x="450.18" y="524.85" class="st6" width="8.58" height="7"/>
				<polygon class="st6" points="659.03,670.79 667.61,670.79 667.61,663.29 667.26,663.29 667.26,655.29 667.61,655.29 
					667.61,648.69 662.9,648.69 662.9,640.69 667.61,640.69 667.61,632.94 659.03,632.94 				"/>
				<rect x="450.18" y="351.46" class="st6" width="8.58" height="7.74"/>
				<rect x="450.18" y="570.85" class="st6" width="8.58" height="23"/>
				<rect x="450.18" y="632.33" class="st6" width="8.58" height="8.36"/>
				<rect x="450.18" y="663.29" class="st6" width="8.58" height="7.74"/>
				<path class="st6" d="M582.9,694.64v-8h83.97c0.48-2.06,0.73-4.18,0.73-6.37v-1.48h-23.07v-4.32h-10.23v4.56h-72.09v-4.56h-7.01
					v4.56h-69.09v-4.56h-7.94v4.56h-28.01v1.24c0,2.18,0.26,4.31,0.73,6.37h10.15v8h-6.96c1.62,2.79,3.71,5.32,6.15,7.51h34.99v8
					H476.3c2.37,0.49,4.83,0.75,7.35,0.75h150.48c2.53,0,4.99-0.27,7.35-0.75H507.92v-8h43.49c-2.84-1.72-4.93-4.38-5.74-7.51
					h-71.28v-8h72.11c2.13-4.32,6.87-7.33,12.39-7.33c5.52,0,10.25,3.01,12.39,7.33h1.91v8h-1.07c-0.81,3.12-2.9,5.79-5.74,7.51
					h87.18v3.04c4.2-2.75,7.68-6.36,10.12-10.55H582.9z"/>
				<rect x="450.18" y="648.69" class="st6" width="8.58" height="6.6"/>
				<rect x="450.18" y="616.85" class="st6" width="8.58" height="7.48"/>
				<rect x="450.18" y="398.42" class="st6" width="8.58" height="7.61"/>
				<rect x="450.18" y="382.81" class="st6" width="8.58" height="7.61"/>
				<rect x="450.18" y="367.2" class="st6" width="8.58" height="7.61"/>
				<rect x="450.18" y="414.03" class="st6" width="8.58" height="6.66"/>
				<polygon class="st6" points="458.76,460.72 453.02,460.72 453.02,452.72 458.76,452.72 458.76,444.51 450.18,444.51 
					450.18,469.85 458.76,469.85 				"/>
				<rect x="450.18" y="428.69" class="st6" width="8.58" height="7.82"/>
				<rect x="450.18" y="477.85" class="st6" width="8.58" height="8"/>
				<rect x="450.18" y="493.85" class="st6" width="8.58" height="7"/>
				<rect x="450.18" y="601.85" class="st6" width="8.58" height="7"/>
				<path class="st5" d="M623.51,290.01c0-6.6,0-1.73,0-7.55h-78.82v7.55H623.51z"/>
				<rect x="450.18" y="608.85" class="st1" width="12.3" height="8"/>
				<path class="st2" d="M538.88,290.01v-7.55h-52.07c-1.17,0-2.14,0-3.34,0v7.55H538.88z"/>
				<path class="st3" d="M492.47,297.01h-39.33c0,3.38-0.05,4.92-0.05,8h39.38V297.01z"/>
				<rect x="654.82" y="328.13" class="st4" width="13" height="8"/>
				<rect x="552.69" y="312.49" class="st2" width="13.36" height="6.6"/>
				<path class="st1" d="M573.35,319.1h85.2h1.8h7.26v-5.84c0-0.26-0.02-0.51-0.02-0.77h-94.23V319.1z"/>
				<rect x="493.24" y="312.49" class="st4" width="52.45" height="6.6"/>
				<polygon class="st5" points="487.08,319.1 487.08,312.49 450.18,312.49 450.18,319.1 450.77,319.1 451.39,319.1 				"/>
				<rect x="450.18" y="327.98" class="st3" width="12.3" height="8"/>
				<rect x="654.82" y="343.61" class="st5" width="13" height="8"/>
				<rect x="450.18" y="343.46" class="st5" width="12.3" height="8"/>
				<rect x="450.18" y="359.2" class="st2" width="12.3" height="8"/>
				<rect x="654.82" y="390.46" class="st2" width="13" height="8"/>
				<rect x="654.82" y="470" class="st2" width="13" height="8"/>
				<rect x="581.96" y="470" class="st2" width="31.71" height="8"/>
				<rect x="567.02" y="452.1" class="st2" width="31.71" height="8"/>
				<rect x="567.02" y="485.5" class="st2" width="31.71" height="8"/>
				<rect x="513.11" y="407.23" class="st2" width="31.71" height="8"/>
				<rect x="498.18" y="389.33" class="st2" width="31.71" height="8"/>
				<rect x="498.18" y="422.73" class="st2" width="31.71" height="8"/>
				<rect x="592.39" y="359.31" class="st2" width="31.71" height="8"/>
				<rect x="577.46" y="341.41" class="st2" width="31.71" height="8"/>
				<rect x="577.46" y="374.81" class="st2" width="31.71" height="8"/>
				<rect x="499.04" y="625.53" class="st2" width="31.71" height="8"/>
				<rect x="484.1" y="607.63" class="st2" width="31.71" height="8"/>
				<rect x="484.1" y="641.03" class="st2" width="31.71" height="8"/>
				<rect x="450.18" y="390.42" class="st5" width="12.3" height="8"/>
				<rect x="450.18" y="374.81" class="st0" width="12.3" height="8"/>
				<rect x="654.82" y="359.28" class="st4" width="13" height="8"/>
				<rect x="450.18" y="406.03" class="st1" width="12.3" height="8"/>
				<rect x="450.18" y="420.69" class="st2" width="12.3" height="8"/>
				<rect x="654.82" y="406.18" class="st5" width="13" height="8"/>
				<rect x="654.82" y="374.96" class="st5" width="13" height="8"/>
				<rect x="450.18" y="436.51" class="st5" width="12.3" height="8"/>
				<rect x="450.18" y="452.72" class="st1" width="12.3" height="8"/>
				<rect x="450.18" y="516.85" class="st5" width="12.3" height="8"/>
				<path class="st4" d="M495.24,702.15h-33.32c0,5.84,0,4.56,0,8h33.32V702.15z"/>
				<rect x="450.18" y="531.85" class="st0" width="12.3" height="8"/>
				<rect x="450.18" y="500.85" class="st2" width="12.3" height="8"/>
				<rect x="450.18" y="547.85" class="st4" width="12.3" height="8"/>
				<rect x="450.18" y="562.85" class="st3" width="12.3" height="8"/>
				<rect x="450.18" y="469.85" class="st1" width="12.3" height="8"/>
				<rect x="450.18" y="485.85" class="st4" width="12.3" height="8"/>
				<rect x="654.82" y="485.5" class="st4" width="13" height="8"/>
				<rect x="654.82" y="500.98" class="st5" width="13" height="8"/>
				<rect x="654.82" y="516.72" class="st2" width="13" height="8"/>
				<rect x="654.82" y="532" class="st4" width="13" height="8"/>
				<rect x="654.82" y="563.55" class="st0" width="13" height="8"/>
				<rect x="654.82" y="594.03" class="st0" width="13" height="8"/>
				<rect x="654.82" y="609" class="st0" width="13" height="8"/>
				<rect x="486.13" y="670.79" class="st2" width="69.09" height="8.24"/>
				<rect x="654.82" y="625.09" class="st2" width="13" height="8"/>
				<rect x="450.18" y="593.85" class="st5" width="12.3" height="8"/>
				<rect x="450.18" y="624.33" class="st4" width="12.3" height="8"/>
				<rect x="450.18" y="640.69" class="st4" width="12.3" height="8"/>
				<rect x="450.18" y="655.29" class="st5" width="12.3" height="8"/>
				<path class="st5" d="M546.51,686.64h-72.11v8h72.11c0-1.03,0-1.89,0-2.88C546.51,689.93,546.51,689.21,546.51,686.64z"/>
				<polygon class="st2" points="478.19,671.03 462.73,671.03 458.76,671.03 450.18,671.03 450.18,679.03 478.19,679.03 				"/>
				<path class="st4" d="M468.1,686.64h-13.63c0,3.21,0,5.13,0,8h13.63V686.64z"/>
				<rect x="654.82" y="548.05" class="st5" width="13" height="8"/>
				<rect x="654.82" y="452.1" class="st0" width="13" height="8"/>
				<rect x="654.82" y="578" class="st4" width="13" height="8"/>
				<rect x="654.82" y="436.58" class="st4" width="13" height="8"/>
				<rect x="654.82" y="420.45" class="st4" width="13" height="8"/>
				<rect x="654.82" y="655.44" class="st3" width="13" height="8"/>
				<rect x="570.75" y="670.79" class="st5" width="63.57" height="8.24"/>
				<rect x="654.82" y="640.84" class="st5" width="13" height="8"/>
				<polygon class="st5" points="655.54,670.79 644.54,670.79 644.54,678.79 667.61,678.79 667.61,670.79 659.03,670.79 				"/>
				<path class="st1" d="M612.18,694.64h54.15c0-2.88-0.04-5-0.04-8h-54.11V694.64z"/>
			</g>
			<rect x="577.77" y="686.64" class="st5" width="26.12" height="8"/>
			<rect x="538.63" y="686.64" class="st5" width="7.47" height="8"/>
			<rect x="450.18" y="578.35" class="st5" width="12.3" height="8"/>
			<rect x="464.39" y="282.63" class="st4" width="11.29" height="7.38"/>
			<rect x="628.22" y="282.63" class="st2" width="22.96" height="7.38"/>
			<rect x="505.54" y="297.01" class="st1" width="15.52" height="8.24"/>
			<rect x="526.63" y="297.01" class="st5" width="34.19" height="8"/>
			<rect x="568.8" y="297.01" class="st0" width="9.11" height="8"/>
			<rect x="596.16" y="297.01" class="st4" width="65.6" height="8"/>
		</g>
		<path class="st5" d="M637.48,717.54H484.36v8h151.35c-0.51-0.93-0.81-1.89-0.81-2.88C634.9,720.83,635.84,719.1,637.48,717.54z"/>
		<rect x="628.68" y="717.54" class="st5" width="15.86" height="8"/>
		<rect x="507.92" y="702.15" class="st0" width="48.93" height="8"/>
		<rect x="565.68" y="702.15" class="st3" width="87.89" height="8"/>
	</g>
</g>
</svg>
