<?xml version="1.0" encoding="utf-8"?>
<!-- Generator: Adobe Illustrator 24.1.1, SVG Export Plug-In . SVG Version: 6.00 Build 0)  -->
<svg version="1.1" id="Lag_1" xmlns="http://www.w3.org/2000/svg" xmlns:xlink="http://www.w3.org/1999/xlink" x="0px" y="0px"
	 viewBox="0 0 640 395" style="enable-background:new 0 0 640 395;" xml:space="preserve">
<style type="text/css">
	.st0{fill:#404F5F;}
	.st1{fill:#A5BA73;}
</style>
<rect x="426.1" y="373.6" class="st0" width="33.1" height="8.9"/>
<rect x="543.9" y="373.6" class="st0" width="33.1" height="8.9"/>
<rect x="490" y="356.9" class="st0" width="28.4" height="8.9"/>
<rect x="409.6" y="356.9" class="st0" width="72.8" height="8.9"/>
<rect x="514.6" y="340.3" class="st0" width="96.5" height="8.9"/>
<rect x="392.7" y="340.3" class="st0" width="118.6" height="8.9"/>
<rect x="383.6" y="323.6" class="st0" width="94.5" height="8.9"/>
<rect x="482.4" y="323.6" class="st0" width="140.1" height="8.9"/>
<rect x="515.6" y="307" class="st0" width="116.5" height="8.9"/>
<rect x="373.2" y="307" class="st0" width="138.8" height="8.9"/>
<rect x="568" y="290.3" class="st0" width="72" height="8.9"/>
<rect x="462.1" y="290.3" class="st0" width="101.9" height="8.9"/>
<rect x="365.2" y="290.3" class="st0" width="93" height="8.9"/>
<rect x="430.2" y="273.6" class="st0" width="156.8" height="8.9"/>
<rect x="591.5" y="273.6" class="st0" width="35.4" height="8.9"/>
<rect x="359.8" y="273.6" class="st0" width="66.8" height="8.9"/>
<rect x="354.1" y="257" class="st0" width="45.6" height="8.9"/>
<rect x="404.6" y="257" class="st0" width="159.4" height="8.9"/>
<rect x="570.2" y="257" class="st0" width="39.6" height="8.9"/>
<rect x="453.9" y="240.3" class="st0" width="148" height="8.9"/>
<rect x="350.6" y="240.3" class="st0" width="100.4" height="8.9"/>
<rect x="423.1" y="223.6" class="st0" width="111.6" height="8.9"/>
<rect x="347.5" y="223.6" class="st0" width="71.6" height="8.9"/>
<rect x="540.1" y="223.6" class="st0" width="54.7" height="8.9"/>
<rect x="385.9" y="207" class="st0" width="88.6" height="8.9"/>
<rect x="346.5" y="207" class="st0" width="34.1" height="9"/>
<rect x="479.3" y="207" class="st0" width="115.5" height="8.9"/>
<rect x="436" y="190.3" class="st0" width="88.5" height="8.9"/>
<rect x="528.8" y="190.3" class="st0" width="66.1" height="8.9"/>
<rect x="347.5" y="190.3" class="st0" width="83" height="8.9"/>
<rect x="392.1" y="173.6" class="st0" width="90.2" height="8.9"/>
<rect x="485.7" y="173.8" class="st0" width="111.7" height="8.9"/>
<rect x="350" y="173.6" class="st0" width="38.2" height="8.9"/>
<rect x="460.5" y="157" class="st0" width="143.7" height="8.9"/>
<rect x="357" y="157" class="st0" width="97.8" height="8.9"/>
<rect x="483.7" y="140.3" class="st0" width="90.2" height="8.9"/>
<rect x="582.1" y="140.3" class="st0" width="36.4" height="8.9"/>
<rect x="364.9" y="140.3" class="st0" width="112.5" height="8.9"/>
<rect x="443.1" y="123.6" class="st0" width="106.6" height="8.9"/>
<rect x="554" y="123.6" class="st0" width="71.1" height="8.9"/>
<rect x="378.5" y="123.6" class="st0" width="57.5" height="8.9"/>
<rect x="400.7" y="107" class="st0" width="69" height="8.9"/>
<rect x="425.5" y="90.3" class="st0" width="21" height="8.9"/>
<rect x="493.5" y="90.3" class="st0" width="12.6" height="8.9"/>
<rect x="495.4" y="73.7" class="st0" width="37.5" height="8.9"/>
<rect x="501.8" y="57" class="st0" width="47.9" height="8.9"/>
<rect x="511.7" y="40.3" class="st0" width="47.9" height="8.9"/>
<rect x="526.8" y="23.7" class="st0" width="38.7" height="8.9"/>
<rect x="555.7" y="7" class="st0" width="13.2" height="8.9"/>
<rect x="523.2" y="107" class="st0" width="79.7" height="8.9"/>
<rect x="557.5" y="90.3" class="st0" width="32.8" height="8.9"/>
<rect x="524" y="356.9" class="st0" width="72.8" height="8.9"/>
<rect x="62.1" y="279.5" class="st1" width="64.9" height="8"/>
<rect x="175.4" y="279.5" class="st1" width="64.9" height="8"/>
<rect x="195.5" y="263.5" class="st1" width="44.8" height="8"/>
<rect x="169.6" y="295.5" class="st1" width="44.8" height="8"/>
<rect x="89.9" y="263.5" class="st1" width="99.8" height="8"/>
<rect x="62.1" y="263.5" class="st1" width="21.3" height="8"/>
<rect x="117.5" y="247.5" class="st1" width="29.8" height="8"/>
<rect x="219" y="295.5" class="st1" width="21.3" height="8"/>
<rect x="131.6" y="279.5" class="st1" width="39.7" height="8"/>
<rect x="62.1" y="295.5" class="st1" width="37.2" height="8"/>
<rect x="102.4" y="295.5" class="st1" width="63.8" height="8"/>
<rect x="62.1" y="247.5" class="st1" width="50" height="8"/>
<rect x="151.4" y="247.5" class="st1" width="88.8" height="8"/>
<rect x="62.1" y="231.5" class="st1" width="27.8" height="8"/>
<rect x="94.5" y="231.5" class="st1" width="82.8" height="8"/>
<rect x="157.5" y="231.5" class="st1" width="82.8" height="8"/>
<rect x="62.1" y="215.5" class="st1" width="64.9" height="8"/>
<rect x="131.6" y="215.5" class="st1" width="108.7" height="8"/>
<rect x="89" y="199.5" class="st1" width="71.3" height="8"/>
<rect x="165.6" y="199.5" class="st1" width="74.7" height="8"/>
<rect x="62.1" y="199.5" class="st1" width="21.3" height="8"/>
<rect x="62.1" y="183.5" class="st1" width="178.2" height="8"/>
<rect x="198.3" y="167.5" class="st1" width="42" height="8"/>
<rect x="151.2" y="151.5" class="st1" width="89.1" height="8"/>
<rect x="62" y="167.5" class="st1" width="86.3" height="8"/>
<rect x="62" y="151.5" class="st1" width="23.3" height="8"/>
<rect x="91" y="151.5" class="st1" width="54.7" height="8"/>
<rect x="208" y="135.5" class="st1" width="32.3" height="8"/>
<rect x="171.9" y="135.5" class="st1" width="32.3" height="8"/>
<rect x="154.1" y="167.5" class="st1" width="38.8" height="8"/>
<rect x="108.9" y="135.5" class="st1" width="58.4" height="8"/>
<rect x="62" y="135.5" class="st1" width="40.7" height="8"/>
<rect x="184.9" y="103.5" class="st1" width="55.4" height="8"/>
<rect x="62" y="103.5" class="st1" width="119.8" height="8"/>
<rect x="145.2" y="87.5" class="st1" width="88.7" height="8"/>
<rect x="67" y="87.5" class="st1" width="75.1" height="8"/>
<rect x="74.8" y="71.5" class="st1" width="27.9" height="8"/>
<rect x="199.5" y="71.5" class="st1" width="27.9" height="8"/>
<rect x="191.9" y="55.5" class="st1" width="20.4" height="8"/>
<rect x="194.9" y="23.5" class="st1" width="8" height="8"/>
<rect x="202.9" y="7.5" class="st1" width="8" height="8"/>
<rect x="98.7" y="23.5" class="st1" width="8" height="8"/>
<rect x="93.2" y="7.5" class="st1" width="8" height="8"/>
<rect x="90.6" y="55.5" class="st1" width="20.4" height="8"/>
<rect x="121.9" y="71.5" class="st1" width="58.4" height="8"/>
<rect x="118" y="55.5" class="st1" width="66.4" height="8"/>
<rect x="107.8" y="39.5" class="st1" width="84.1" height="8"/>
<rect x="109.9" y="311.5" class="st1" width="24.3" height="8"/>
<rect x="94.4" y="311.5" class="st1" width="11.2" height="8"/>
<rect x="94.4" y="327.5" class="st1" width="39.8" height="8"/>
<rect x="94.4" y="343.5" class="st1" width="39.8" height="8"/>
<rect x="184.2" y="311.5" class="st1" width="22.9" height="8"/>
<rect x="167.2" y="311.5" class="st1" width="13.8" height="8"/>
<rect x="167.2" y="327.5" class="st1" width="39.8" height="8"/>
<rect x="167.2" y="343.5" class="st1" width="39.8" height="8"/>
<rect x="167.2" y="359.5" class="st1" width="39.4" height="8"/>
<rect x="8.5" y="199.5" class="st1" width="39.8" height="8"/>
<rect x="8.5" y="231.5" class="st1" width="39.8" height="8"/>
<rect x="8.5" y="215.5" class="st1" width="39.8" height="8"/>
<rect x="13.2" y="247.5" class="st1" width="31.8" height="8"/>
<rect x="253" y="199.5" class="st1" width="39.8" height="8"/>
<rect x="253" y="215.5" class="st1" width="39.8" height="8"/>
<rect x="253" y="231.5" class="st1" width="39.8" height="8"/>
<rect x="257.6" y="247.5" class="st1" width="31.8" height="8"/>
<rect x="253" y="183.5" class="st1" width="39.8" height="8"/>
<rect x="253" y="167.5" class="st1" width="39.8" height="8"/>
<rect x="253" y="151.5" class="st1" width="39.8" height="8"/>
<rect x="257.6" y="135.5" class="st1" width="31.8" height="8"/>
<rect x="8.5" y="183.5" class="st1" width="39.8" height="8"/>
<rect x="25.3" y="167.5" class="st1" width="23.1" height="8"/>
<rect x="8.5" y="151.5" class="st1" width="39.8" height="8"/>
<rect x="8.2" y="167.5" class="st1" width="14.6" height="8"/>
<rect x="13.2" y="135.5" class="st1" width="31.8" height="8"/>
<rect x="95.1" y="359.5" class="st1" width="39.1" height="8"/>
<rect x="105.6" y="375.5" class="st1" width="17.4" height="8"/>
<rect x="179.7" y="375.5" class="st1" width="17.4" height="8"/>
</svg>
