<svg id="Lag_1" data-name="Lag 1" xmlns="http://www.w3.org/2000/svg" viewBox="0 0 536 509"><defs><style>.cls-1{fill:#d7a458;}.cls-2{fill:#a5ba73;}.cls-3{fill:#bfbcba;}.cls-4{fill:#404f5f;}.cls-5{fill:#7ca5b8;}.cls-6{fill:#cc5b64;}</style></defs><rect class="cls-1" x="6.64" y="359.72" width="140.46" height="8"/><rect class="cls-2" x="7.59" y="343.54" width="180.08" height="8"/><rect class="cls-2" x="154.64" y="359.72" width="140.46" height="8"/><rect class="cls-3" x="197.23" y="464.11" width="145.66" height="8"/><rect class="cls-4" x="7.25" y="390.17" width="54.44" height="8"/><rect class="cls-4" x="70.25" y="390.17" width="54.44" height="8"/><rect class="cls-3" x="222.87" y="448.73" width="7.33" height="8"/><rect class="cls-3" x="240.49" y="389.73" width="18.29" height="8"/><rect class="cls-3" x="196.74" y="343.54" width="18.29" height="8"/><rect class="cls-3" x="109.8" y="406.73" width="14.98" height="8"/><rect class="cls-4" x="144.27" y="375.72" width="123.22" height="8"/><rect class="cls-2" x="132.27" y="405.72" width="135.22" height="8"/><rect class="cls-5" x="329.88" y="343.41" width="135.22" height="8"/><rect class="cls-2" x="471.49" y="343.41" width="58.81" height="8"/><rect class="cls-2" x="283.11" y="343.41" width="41.22" height="8"/><rect class="cls-2" x="311.26" y="405.72" width="211.23" height="8"/><rect class="cls-6" x="239.62" y="418.07" width="56.91" height="8"/><rect class="cls-4" x="262.98" y="433.57" width="50.09" height="8"/><rect class="cls-4" x="304.85" y="359.57" width="56.64" height="8"/><rect class="cls-4" x="221.31" y="343.54" width="56.64" height="8"/><rect class="cls-5" x="233.82" y="449.05" width="83.67" height="8"/><rect class="cls-1" x="226.75" y="433.72" width="29.03" height="8"/><rect class="cls-6" x="271.88" y="405.72" width="32.83" height="8"/><rect class="cls-3" x="278.88" y="388.72" width="32.83" height="8"/><rect class="cls-5" x="271.88" y="375.72" width="75.61" height="8"/><rect class="cls-6" x="315.88" y="388.72" width="139.61" height="8"/><rect class="cls-5" x="461.88" y="388.72" width="68.61" height="8"/><rect class="cls-6" x="507.98" y="327.52" width="22.32" height="8"/><rect class="cls-4" x="507.98" y="311.56" width="22.32" height="8"/><rect class="cls-4" x="507.98" y="295.59" width="22.32" height="8"/><rect class="cls-2" x="507.98" y="279.62" width="22.32" height="8"/><rect class="cls-6" x="507.98" y="263.65" width="22.32" height="8"/><rect class="cls-3" x="507.98" y="247.68" width="22.32" height="8"/><rect class="cls-6" x="507.98" y="231.72" width="22.32" height="8"/><rect class="cls-4" x="507.98" y="215.75" width="22.32" height="8"/><rect class="cls-6" x="507.98" y="199.78" width="22.32" height="8"/><rect class="cls-3" x="507.98" y="183.81" width="22.32" height="8"/><rect class="cls-2" x="507.98" y="167.84" width="22.32" height="8"/><rect class="cls-6" x="507.98" y="151.87" width="22.32" height="8"/><rect class="cls-5" x="507.98" y="135.91" width="22.32" height="8"/><rect class="cls-4" x="507.98" y="119.94" width="22.32" height="8"/><rect class="cls-6" x="507.98" y="103.97" width="22.32" height="8"/><rect class="cls-2" x="507.98" y="88" width="22.32" height="8"/><rect class="cls-3" x="507.98" y="72.03" width="22.32" height="8"/><rect class="cls-6" x="507.98" y="56.07" width="22.32" height="8"/><rect class="cls-5" x="507.98" y="40.1" width="22.32" height="8"/><rect class="cls-2" x="450.51" y="24.13" width="76.18" height="8"/><rect class="cls-4" x="388.9" y="24.13" width="53.64" height="8"/><rect class="cls-3" x="404.45" y="8.16" width="115.59" height="8"/><rect class="cls-4" x="6.36" y="327.37" width="22.32" height="8"/><rect class="cls-3" x="6.36" y="311.4" width="22.32" height="8"/><rect class="cls-6" x="6.36" y="295.44" width="22.32" height="8"/><rect class="cls-2" x="6.36" y="279.47" width="22.32" height="8"/><rect class="cls-3" x="6.36" y="263.5" width="22.32" height="8"/><rect class="cls-4" x="6.36" y="247.53" width="22.32" height="8"/><rect class="cls-6" x="6.36" y="231.56" width="22.32" height="8"/><rect class="cls-5" x="6.36" y="215.59" width="22.32" height="8"/><rect class="cls-5" x="6.36" y="199.63" width="22.32" height="8"/><rect class="cls-6" x="6.36" y="183.66" width="22.32" height="8"/><rect class="cls-3" x="6.36" y="167.69" width="22.32" height="8"/><rect class="cls-2" x="6.36" y="151.72" width="22.32" height="8"/><rect class="cls-4" x="6.36" y="135.75" width="22.32" height="8"/><rect class="cls-6" x="6.36" y="119.79" width="22.32" height="8"/><rect class="cls-5" x="6.36" y="103.82" width="22.32" height="8"/><rect class="cls-4" x="6.36" y="87.85" width="22.32" height="8"/><rect class="cls-2" x="6.36" y="71.88" width="22.32" height="8"/><rect class="cls-3" x="6.36" y="55.91" width="22.32" height="8"/><rect class="cls-6" x="5.51" y="39.95" width="22.32" height="8"/><rect class="cls-6" x="11.51" y="23.98" width="22.32" height="8"/><rect class="cls-6" x="10.73" y="23.98" width="22.32" height="8"/><rect class="cls-6" x="40.98" y="23.98" width="71.4" height="8"/><rect class="cls-3" x="404.45" y="88" width="71.4" height="8"/><rect class="cls-3" x="406.85" y="119.94" width="71.4" height="8"/><rect class="cls-3" x="388.9" y="103.97" width="71.4" height="8"/><rect class="cls-3" x="218.55" y="151.87" width="71.4" height="8"/><rect class="cls-3" x="220.94" y="183.81" width="71.4" height="8"/><rect class="cls-3" x="203" y="167.84" width="71.4" height="8"/><rect class="cls-3" x="113.02" y="263.5" width="71.4" height="8"/><rect class="cls-3" x="115.41" y="295.44" width="71.4" height="8"/><rect class="cls-3" x="97.47" y="279.47" width="71.4" height="8"/><rect class="cls-3" x="116.69" y="71.88" width="71.4" height="8"/><rect class="cls-3" x="119.08" y="103.82" width="71.4" height="8"/><rect class="cls-3" x="101.14" y="87.85" width="71.4" height="8"/><rect class="cls-3" x="16.84" y="8.01" width="50.8" height="8"/><rect class="cls-5" x="75.73" y="8.01" width="50.8" height="8"/><rect class="cls-5" x="132.8" y="8.01" width="69.17" height="8"/><rect class="cls-2" x="212.87" y="8.01" width="25.4" height="8"/><rect class="cls-4" x="339" y="8.01" width="56.08" height="8"/><rect class="cls-4" x="247.22" y="8.01" width="84.46" height="8"/><rect class="cls-6" x="220.36" y="24.13" width="163.47" height="8"/><rect class="cls-3" x="119.76" y="23.98" width="95.53" height="8"/><rect class="cls-4" x="353.88" y="375.72" width="176.42" height="8"/><rect class="cls-1" x="133.34" y="390.07" width="99.77" height="8"/><rect class="cls-6" x="138.12" y="464.3" width="53.97" height="8"/><rect class="cls-6" x="126.34" y="480.3" width="52.25" height="8"/><rect class="cls-6" x="185.7" y="480.3" width="56.01" height="8"/><rect class="cls-6" x="238.33" y="480.3" width="53.97" height="8"/><rect class="cls-4" x="479.72" y="359.3" width="50.77" height="8"/><rect class="cls-1" x="300.97" y="480.3" width="53.97" height="8"/><rect class="cls-6" x="347.97" y="464.3" width="56.13" height="8"/><rect class="cls-5" x="7.59" y="375.64" width="58.63" height="8"/><rect class="cls-5" x="74.59" y="375.64" width="58.63" height="8"/><rect class="cls-5" x="13.62" y="406.73" width="46.07" height="8"/><rect class="cls-5" x="57.62" y="406.73" width="46.07" height="8"/><rect class="cls-4" x="118.95" y="495.62" width="94.55" height="8"/><rect class="cls-1" x="223.95" y="495.62" width="54" height="8"/><rect class="cls-4" x="286.95" y="495.99" width="24" height="8"/><rect class="cls-4" x="359.53" y="480.3" width="53.96" height="8"/><rect class="cls-4" x="319.95" y="495.99" width="101" height="8"/><rect class="cls-4" x="370.49" y="359.3" width="101" height="8"/></svg>