<?xml version="1.0" encoding="utf-8"?>
<!-- Generator: Adobe Illustrator 24.1.1, SVG Export Plug-In . SVG Version: 6.00 Build 0)  -->
<svg version="1.1" id="Lag_1" xmlns="http://www.w3.org/2000/svg" xmlns:xlink="http://www.w3.org/1999/xlink" x="0px" y="0px"
	 viewBox="0 0 800 800" style="enable-background:new 0 0 800 800;" xml:space="preserve">
<style type="text/css">
	.st0{fill:#D7A458;}
	.st1{fill:#A5BA73;}
	.st2{fill:#BFBCBA;}
	.st3{fill:#404F5F;}
	.st4{fill:#7CA5B8;}
	.st5{fill:#CC5B64;}
</style>
<g>
	<rect x="127.64" y="493.72" class="st0" width="140.46" height="8"/>
	<rect x="128.59" y="477.54" class="st1" width="180.08" height="8"/>
	<rect x="275.64" y="493.72" class="st1" width="140.46" height="8"/>
	<rect x="318.23" y="598.11" class="st2" width="145.66" height="8"/>
	<rect x="128.25" y="524.17" class="st3" width="54.44" height="8"/>
	<rect x="191.25" y="524.17" class="st3" width="54.44" height="8"/>
	<rect x="343.87" y="582.73" class="st2" width="7.33" height="8"/>
	<rect x="361.49" y="523.73" class="st2" width="18.29" height="8"/>
	<rect x="317.74" y="477.54" class="st2" width="18.29" height="8"/>
	<rect x="230.8" y="540.73" class="st2" width="14.98" height="8"/>
	<rect x="265.27" y="509.72" class="st3" width="123.22" height="8"/>
	<rect x="253.27" y="539.72" class="st1" width="135.22" height="8"/>
	<rect x="450.88" y="477.41" class="st4" width="135.22" height="8"/>
	<rect x="592.49" y="477.41" class="st1" width="58.81" height="8"/>
	<rect x="404.11" y="477.41" class="st1" width="41.22" height="8"/>
	<rect x="432.26" y="539.72" class="st1" width="211.23" height="8"/>
	<rect x="360.62" y="552.07" class="st5" width="56.91" height="8"/>
	<rect x="383.98" y="567.57" class="st3" width="50.09" height="8"/>
	<rect x="425.85" y="493.57" class="st3" width="56.64" height="8"/>
	<rect x="342.31" y="477.54" class="st3" width="56.64" height="8"/>
	<rect x="354.82" y="583.05" class="st4" width="83.67" height="8"/>
	<rect x="347.75" y="567.72" class="st0" width="29.03" height="8"/>
	<rect x="392.88" y="539.72" class="st5" width="32.83" height="8"/>
	<rect x="399.88" y="522.72" class="st2" width="32.83" height="8"/>
	<rect x="392.88" y="509.72" class="st4" width="75.61" height="8"/>
	<rect x="436.88" y="522.72" class="st5" width="139.61" height="8"/>
	<rect x="582.88" y="522.72" class="st4" width="68.61" height="8"/>
	<rect x="628.98" y="461.52" class="st5" width="22.32" height="8"/>
	<rect x="628.98" y="445.56" class="st3" width="22.32" height="8"/>
	<rect x="628.98" y="429.59" class="st3" width="22.32" height="8"/>
	<rect x="628.98" y="413.62" class="st1" width="22.32" height="8"/>
	<rect x="628.98" y="397.65" class="st5" width="22.32" height="8"/>
	<rect x="628.98" y="381.68" class="st2" width="22.32" height="8"/>
	<rect x="628.98" y="365.72" class="st5" width="22.32" height="8"/>
	<rect x="628.98" y="349.75" class="st3" width="22.32" height="8"/>
	<rect x="628.98" y="333.78" class="st5" width="22.32" height="8"/>
	<rect x="628.98" y="317.81" class="st2" width="22.32" height="8"/>
	<rect x="628.98" y="301.84" class="st1" width="22.32" height="8"/>
	<rect x="628.98" y="285.87" class="st5" width="22.32" height="8"/>
	<rect x="628.98" y="269.91" class="st4" width="22.32" height="8"/>
	<rect x="628.98" y="253.94" class="st3" width="22.32" height="8"/>
	<rect x="628.98" y="237.97" class="st5" width="22.32" height="8"/>
	<rect x="628.98" y="222" class="st1" width="22.32" height="8"/>
	<rect x="628.98" y="206.03" class="st2" width="22.32" height="8"/>
	<rect x="628.98" y="190.07" class="st5" width="22.32" height="8"/>
	<rect x="628.98" y="174.1" class="st4" width="22.32" height="8"/>
	<rect x="571.51" y="158.13" class="st1" width="76.18" height="8"/>
	<rect x="509.9" y="158.13" class="st3" width="53.64" height="8"/>
	<rect x="525.45" y="142.16" class="st2" width="115.59" height="8"/>
	<rect x="127.36" y="461.37" class="st3" width="22.32" height="8"/>
	<rect x="127.36" y="445.4" class="st2" width="22.32" height="8"/>
	<rect x="127.36" y="429.44" class="st5" width="22.32" height="8"/>
	<rect x="127.36" y="413.47" class="st1" width="22.32" height="8"/>
	<rect x="127.36" y="397.5" class="st2" width="22.32" height="8"/>
	<rect x="127.36" y="381.53" class="st3" width="22.32" height="8"/>
	<rect x="127.36" y="365.56" class="st5" width="22.32" height="8"/>
	<rect x="127.36" y="349.59" class="st4" width="22.32" height="8"/>
	<rect x="127.36" y="333.63" class="st4" width="22.32" height="8"/>
	<rect x="127.36" y="317.66" class="st5" width="22.32" height="8"/>
	<rect x="127.36" y="301.69" class="st2" width="22.32" height="8"/>
	<rect x="127.36" y="285.72" class="st1" width="22.32" height="8"/>
	<rect x="127.36" y="269.75" class="st3" width="22.32" height="8"/>
	<rect x="127.36" y="253.79" class="st5" width="22.32" height="8"/>
	<rect x="127.36" y="237.82" class="st4" width="22.32" height="8"/>
	<rect x="127.36" y="221.85" class="st3" width="22.32" height="8"/>
	<rect x="127.36" y="205.88" class="st1" width="22.32" height="8"/>
	<rect x="127.36" y="189.91" class="st2" width="22.32" height="8"/>
	<rect x="126.51" y="173.95" class="st5" width="22.32" height="8"/>
	<rect x="132.51" y="157.98" class="st5" width="22.32" height="8"/>
	<rect x="131.73" y="157.98" class="st5" width="22.32" height="8"/>
	<rect x="161.98" y="157.98" class="st5" width="71.4" height="8"/>
	<rect x="525.45" y="222" class="st2" width="71.4" height="8"/>
	<rect x="527.85" y="253.94" class="st2" width="71.4" height="8"/>
	<rect x="509.9" y="237.97" class="st2" width="71.4" height="8"/>
	<rect x="339.55" y="285.87" class="st2" width="71.4" height="8"/>
	<rect x="341.94" y="317.81" class="st2" width="71.4" height="8"/>
	<rect x="324" y="301.84" class="st2" width="71.4" height="8"/>
	<rect x="234.02" y="397.5" class="st2" width="71.4" height="8"/>
	<rect x="236.41" y="429.44" class="st2" width="71.4" height="8"/>
	<rect x="218.47" y="413.47" class="st2" width="71.4" height="8"/>
	<rect x="237.69" y="205.88" class="st2" width="71.4" height="8"/>
	<rect x="240.08" y="237.82" class="st2" width="71.4" height="8"/>
	<rect x="222.14" y="221.85" class="st2" width="71.4" height="8"/>
	<rect x="137.84" y="142.01" class="st2" width="50.8" height="8"/>
	<rect x="196.73" y="142.01" class="st4" width="50.8" height="8"/>
	<rect x="253.8" y="142.01" class="st4" width="69.17" height="8"/>
	<rect x="333.87" y="142.01" class="st1" width="25.4" height="8"/>
	<rect x="460" y="142.01" class="st3" width="56.08" height="8"/>
	<rect x="368.22" y="142.01" class="st3" width="84.46" height="8"/>
	<rect x="341.36" y="158.13" class="st5" width="163.47" height="8"/>
	<rect x="240.76" y="157.98" class="st2" width="95.53" height="8"/>
	<rect x="474.88" y="509.72" class="st3" width="176.42" height="8"/>
	<rect x="254.34" y="524.07" class="st0" width="99.77" height="8"/>
	<rect x="259.12" y="598.3" class="st5" width="53.97" height="8"/>
	<rect x="247.34" y="614.3" class="st5" width="52.25" height="8"/>
	<rect x="306.7" y="614.3" class="st5" width="56.01" height="8"/>
	<rect x="359.33" y="614.3" class="st5" width="53.97" height="8"/>
	<rect x="600.72" y="493.3" class="st3" width="50.77" height="8"/>
	<rect x="421.97" y="614.3" class="st0" width="53.97" height="8"/>
	<rect x="468.97" y="598.3" class="st5" width="56.13" height="8"/>
	<rect x="128.59" y="509.64" class="st4" width="58.63" height="8"/>
	<rect x="195.59" y="509.64" class="st4" width="58.63" height="8"/>
	<rect x="134.62" y="540.73" class="st4" width="46.07" height="8"/>
	<rect x="178.62" y="540.73" class="st4" width="46.07" height="8"/>
	<rect x="239.95" y="629.62" class="st3" width="94.55" height="8"/>
	<rect x="344.95" y="629.62" class="st0" width="54" height="8"/>
	<rect x="407.95" y="629.99" class="st3" width="24" height="8"/>
	<rect x="480.53" y="614.3" class="st3" width="53.96" height="8"/>
	<rect x="440.95" y="629.99" class="st3" width="101" height="8"/>
	<rect x="491.49" y="493.3" class="st3" width="101" height="8"/>
</g>
</svg>
