<?xml version="1.0" encoding="utf-8"?>
<!-- Generator: Adobe Illustrator 24.1.1, SVG Export Plug-In . SVG Version: 6.00 Build 0)  -->
<svg version="1.1" id="Lag_1" xmlns="http://www.w3.org/2000/svg" xmlns:xlink="http://www.w3.org/1999/xlink" x="0px" y="0px"
	 viewBox="0 0 800 800" style="enable-background:new 0 0 800 800;" xml:space="preserve">
<style type="text/css">
	.st0{fill:none;}
	.st1{fill:#D7A458;}
	.st2{fill:#7CA5B8;}
	.st3{fill:#404F5F;}
	.st4{fill:#BFBCBA;}
	.st5{fill:#CC5B64;}
	.st6{fill:#A5BA73;}
</style>
<g>
	<g>
		<path class="st0" d="M405.35,418.45c-0.96-1.95-2.13-3.78-3.52-5.5c-1.37-1.7-2.96-3.29-4.75-4.77c-0.28-0.23-0.57-0.45-0.86-0.68
			c-3.44-2.67-7.55-5.03-12.35-7.07c-0.82-0.35-1.66-0.69-2.52-1.03c-4.56-1.8-9.57-3.46-15.06-4.98c-2.23-0.63-4.32-1.27-6.28-1.91
			c-2.73-0.9-5.2-1.81-7.4-2.75c-3.15-1.33-5.81-2.74-7.99-4.25c-0.44-0.3-0.87-0.61-1.27-0.92c-2.32-1.79-4.02-3.79-5.14-5.97
			c-0.04-0.07-0.08-0.14-0.11-0.21c-0.85-1.74-1.38-3.67-1.57-5.79c-0.06-0.64-0.09-1.29-0.09-1.96c0.02-1.75,0.23-3.39,0.58-4.94
			c0.81-3.52,2.49-6.51,5.04-8.98c0.31-0.3,0.6-0.6,0.93-0.88c2.03-1.73,4.55-3.04,7.5-3.95c3.28-1.01,7.12-1.53,11.53-1.53
			c3.57,0,6.81,0.51,9.69,1.53c0.42,0.15,0.82,0.3,1.23,0.47c3.19,1.34,5.88,3.18,8.06,5.52c0.26,0.29,0.5,0.6,0.75,0.9
			c1.81,2.17,3.23,4.67,4.24,7.54c0.01,0.02,0.01,0.05,0.02,0.07c0.68,1.95,1.15,4.01,1.42,6.17c0.18,1.46,0.28,2.96,0.28,4.51
			h19.13c-0.01-1.55-0.08-3.05-0.19-4.51c-0.19-2.41-0.54-4.71-1.04-6.89c-0.55-2.44-1.28-4.74-2.21-6.89
			c-1.06-2.49-2.37-4.79-3.94-6.89c-0.74-1-1.54-1.96-2.4-2.88c-1.06-1.13-2.19-2.17-3.39-3.15c-3.66-2.99-7.98-5.29-12.95-6.89
			c-3.31-1.07-6.91-1.83-10.81-2.28v-4.23v-6.89v-6.41v-1.61h-15.5v1.61v6.41v6.89v4.23c-4.13,0.43-7.99,1.19-11.58,2.28
			c-1.29,0.39-2.54,0.82-3.76,1.29c-3.8,1.48-7.11,3.35-9.97,5.6c-0.61,0.48-1.22,0.98-1.79,1.5c-1.54,1.39-2.9,2.91-4.11,4.53
			c-1.33,1.79-2.46,3.71-3.38,5.78c-0.16,0.37-0.31,0.74-0.46,1.11c-0.87,2.17-1.48,4.48-1.83,6.92c-0.24,1.67-0.36,3.4-0.36,5.19
			c0,0.57,0.02,1.14,0.04,1.7c0.09,2.11,0.37,4.1,0.81,6c0.5,2.12,1.22,4.11,2.16,5.97c0.16,0.31,0.33,0.62,0.5,0.92
			c1.39,2.52,3.15,4.86,5.26,7c0.88,0.89,1.81,1.74,2.81,2.57c1.89,1.55,3.98,2.99,6.26,4.32c2.19,1.28,4.56,2.47,7.11,3.55
			c2.58,1.1,5.32,2.13,8.22,3.1c2.93,0.98,6.01,1.89,9.25,2.74c0.28,0.08,0.56,0.16,0.84,0.24c3.92,1.1,7.42,2.27,10.5,3.52
			c0.33,0.13,0.65,0.27,0.97,0.4c4.14,1.75,7.48,3.64,10.01,5.68c0,0,0,0,0.01,0c2.57,2.07,4.42,4.37,5.55,6.89
			c0.93,2.07,1.39,4.3,1.36,6.68c0,0.04,0,0.07,0,0.11c-0.01,2.5-0.45,4.8-1.3,6.89c-0.22,0.53-0.45,1.06-0.73,1.57
			c-0.19,0.35-0.39,0.7-0.61,1.04c-0.85,1.35-1.89,2.58-3.1,3.7c-0.64,0.6-1.32,1.17-2.06,1.71c-2.5,1.77-5.55,3.12-9.15,4.04
			c-2.15,0.55-4.47,0.92-6.94,1.15c-1.68,0.15-3.41,0.25-5.23,0.25c-1.56,0-3.11-0.09-4.65-0.25c-1.96-0.2-3.91-0.51-5.85-0.96
			c-3.47-0.82-6.57-2.18-9.31-4.09c-0.74-0.52-1.44-1.09-2.11-1.7c-1.8-1.66-3.34-3.65-4.6-6c-0.13-0.25-0.25-0.51-0.38-0.77
			c-0.25-0.53-0.49-1.07-0.7-1.64c-0.58-1.58-0.98-3.35-1.23-5.25c-0.18-1.41-0.3-2.89-0.3-4.48h-19.24c0,1.55,0.07,3.04,0.2,4.48
			c0.07,0.8,0.16,1.6,0.27,2.37c0.22,1.58,0.55,3.08,0.94,4.52c0.53,1.95,1.19,3.8,2.02,5.51c0.21,0.43,0.43,0.84,0.65,1.25
			c1.35,2.55,2.95,4.84,4.78,6.89c1.15,1.28,2.39,2.47,3.73,3.56c1.03,0.84,2.11,1.63,3.23,2.36c3,1.97,6.31,3.55,9.92,4.74
			c2.75,0.9,5.56,1.61,8.44,2.15c2.33,0.44,4.69,0.77,7.11,0.98v16.62h15.51v-4.06v-6.89v-5.75c2.35-0.2,4.62-0.5,6.81-0.89
			c1.88-0.33,3.69-0.74,5.45-1.21c1.45-0.39,2.86-0.82,4.23-1.3c4.96-1.74,9.17-4.05,12.64-6.92c1.32-1.09,2.52-2.26,3.61-3.51
			c1.78-2.05,3.27-4.32,4.45-6.8c0.01-0.03,0.03-0.06,0.04-0.09c0.55-1.18,1.02-2.4,1.41-3.66c0.26-0.86,0.48-1.74,0.67-2.64
			c0.46-2.18,0.71-4.47,0.72-6.89c0-0.1,0.01-0.19,0.01-0.28c0-2.24-0.19-4.34-0.55-6.34c-0.44-2.48-1.16-4.78-2.15-6.89
			C405.46,418.69,405.41,418.56,405.35,418.45z"/>
		<path class="st0" d="M406.86,377.12h-19.13c0-1.55-0.1-3.06-0.28-4.51h-1.42v-6.17c-0.01-0.02-0.01-0.05-0.02-0.07
			c-1.01-2.88-2.43-5.38-4.24-7.54h-39.7v-2.06c-2.55,2.47-4.23,5.46-5.04,8.98h36.9v6.89h-37.39c0.2,2.11,0.72,4.05,1.57,5.79
			c0.03,0.07,0.08,0.14,0.11,0.21h66.64v6.89h-60.23c2.19,1.51,4.85,2.93,7.99,4.25c2.2,0.93,4.67,1.85,7.4,2.75h35.3v6.89h-13.97
			c0.85,0.34,1.7,0.68,2.52,1.03c4.8,2.03,8.91,4.39,12.35,7.07v-1.45h62.26v6.89h-56.65c1.39,1.72,2.56,3.55,3.52,5.5
			c0.06,0.12,0.1,0.24,0.16,0.35h74.01c0.32-1.95,0.57-3.9,0.76-5.85h-7.2v-6.89h7.57c0.02-1.45,0.01-2.91-0.04-4.36
			c-0.04-5.65-0.43-11.03-1.09-16.17h-61.46v-6.89h60.38c-0.38-2.05-0.81-4.06-1.28-6.03h-70.49
			C406.78,374.07,406.85,375.57,406.86,377.12z M409.1,392.61h64.46v6.89H409.1V392.61z"/>
		<path class="st0" d="M314.81,444.38c-0.83-1.71-1.5-3.56-2.02-5.51h-32.73v-6.89h31.52c-0.13-1.44-0.2-2.93-0.2-4.48h19.24
			c0,1.59,0.11,3.07,0.3,4.48h34.5v6.89h-32.57c0.12,0.26,0.24,0.52,0.38,0.77c1.26,2.35,2.8,4.34,4.6,6v-0.13h45.31
			c1.2-1.12,2.25-2.34,3.1-3.7c0.21-0.34,0.42-0.69,0.61-1.04c0.27-0.51,0.51-1.03,0.73-1.57h-12.21v-6.89h13.51
			c0-0.04,0-0.07,0-0.11c0.03-2.38-0.42-4.61-1.36-6.68H302.9v-6.89h79.06c0,0,0,0-0.01,0c-2.53-2.04-5.87-3.93-10.01-5.68h-0.97
			v-0.4c-3.08-1.25-6.58-2.42-10.5-3.52v3.92H291.3v-6.89h59.08c-2.89-0.97-5.63-2-8.22-3.1c-2.55-1.08-4.92-2.27-7.11-3.55h-47.44
			v-6.89h38.37c-2.12-2.14-3.87-4.48-5.26-7H302.9v-6.89h15.16c-0.45-1.89-0.72-3.89-0.81-6H244.2v-6.69
			c-3.06,9.74-4.37,18.81-4.73,26.67h38.87v6.89h-38.95c0.19,9.09,1.54,15.86,2.34,19.13h48.86v6.89h-47.15
			c0.56,2.16,1.19,4.31,1.89,6.46h19.92v6.89h-17.43c0.9,2.27,1.88,4.52,2.92,6.76h64.72C315.24,445.22,315.02,444.81,314.81,444.38
			z M250.03,385.52v-6.89h44.03v6.89H250.03z M280.8,412.95h-39.41v-6.89h39.41V412.95z"/>
		<path class="st0" d="M319.39,358.82h-53.88v-6.89h57.73c1.21-1.62,2.57-3.14,4.11-4.53c0.57-0.52,1.17-1.01,1.79-1.5h-2.11v-6.89
			h15.84c3.59-1.08,7.45-1.84,11.58-2.28v-4.23h-23.19v-6.89h23.19v-6.41h-44.89v-6.89h129.72v6.89h-69.34v6.41h6.67v6.89h-6.67
			v4.23c3.9,0.45,7.49,1.21,10.81,2.28h75.61v6.89h-62.65c1.2,0.98,2.33,2.02,3.39,3.15c0.86,0.91,1.66,1.88,2.4,2.88h37.37v6.89
			h-33.43c0.92,2.15,1.66,4.45,2.21,6.89h69.67c-0.72-2.37-1.5-4.66-2.33-6.89h-24.21v-6.89h21.39
			c-3.24-7.23-7.03-13.69-11.07-19.43H411.2v-6.89h42.64c-6.81-8.32-13.96-14.81-20.19-19.63h-0.23v-0.18
			c-3-2.31-5.77-4.23-8.18-5.79v5.97h-28.09v-6.89h26.63c-4.71-2.94-7.72-4.32-7.72-4.32H302.95c-2.22,1.43-4.35,2.87-6.42,4.32
			h36.97v6.89h-46.17c-2.61,2.09-5.1,4.2-7.44,6.33h21.5v6.89h-28.63c-2.23,2.31-4.33,4.62-6.28,6.94h16.27v6.89h-21.69
			c-1.46,2-2.84,3.99-4.12,5.98h59.22v6.89H252.8c-1.12,2.02-2.14,4.03-3.09,6.03h6.87v6.89h-9.87c-0.92,2.34-1.74,4.65-2.46,6.92
			h73.3C317.91,363.3,318.53,361,319.39,358.82z M399.38,332.51h-12.81v-6.89h12.81V332.51z M342.07,299.15h46.58v6.89h-46.58
			V299.15z M295.53,332.51v-6.89h28.09v6.89H295.53z"/>
		<path class="st0" d="M359.74,452.65c1.82,0,3.56-0.1,5.23-0.25h-9.89C356.63,452.56,358.18,452.65,359.74,452.65z"/>
		<path class="st0" d="M412.21,505.13h-51.76v-6.89h63.67c3.26-2.11,6.42-4.36,9.48-6.74h-52.42v-6.89h60.6
			c10.59-9.65,19.52-20.84,26.14-32.88h-30.85v-6.89h34.34c0.86-1.86,1.68-3.74,2.43-5.64h-5.01v-6.89h7.47
			c0.7-2.2,1.32-4.4,1.85-6.62h-70.47c0.36,2,0.55,4.1,0.55,6.34c0,0.1-0.01,0.19-0.01,0.28h52.51v6.89h-53.23
			c-0.19,0.9-0.41,1.78-0.67,2.64c-0.39,1.26-0.86,2.48-1.41,3.66h17.79v6.89H400.9c-1.09,1.25-2.29,2.43-3.61,3.51
			c-3.47,2.87-7.68,5.18-12.64,6.92c-1.37,0.48-2.78,0.91-4.23,1.3v1.21h-5.45c-2.19,0.39-4.46,0.69-6.81,0.89v5.75h2.96v6.89h-2.96
			v4.06h-15.51v-16.62c-2.41-0.21-4.78-0.54-7.11-0.98h-72.84v-6.89h54.48c-1.12-0.73-2.19-1.52-3.23-2.36
			c-1.34-1.09-2.58-2.28-3.73-3.56h-66.02c1.1,2.02,2.26,4.03,3.48,6.01h5.73v6.89h-1.2c8.7,12.38,19.66,23.58,32.3,32.48h55.98
			v6.89h-45.01c5.15,2.87,10.52,5.36,16.08,7.41h74.06C401.33,510.24,406.87,507.86,412.21,505.13z M394.2,458.54h64.46v6.89H394.2
			V458.54z M381.32,471.98h62.26v6.89h-62.26V471.98z M276.41,478.87v-6.89h69.17v6.89H276.41z M285.88,491.17v-6.89h85.36v6.89
			H285.88z"/>
		<path class="st0" d="M362.03,350.4c-4.42,0-8.25,0.52-11.53,1.53h21.23C368.84,350.91,365.61,350.4,362.03,350.4z"/>
		<path class="st1" d="M463.32,345.9v-6.89h-65.65c4.32,1.6,8.07,3.9,11.25,6.89H463.32z"/>
		<path class="st2" d="M317.25,372.64c-0.02-0.56-0.04-1.12-0.04-1.7c0-1.79,0.12-3.53,0.36-5.19h-73.3
			c-0.02,0.07-0.04,0.13-0.07,0.2v6.69H317.25z"/>
		<path class="st2" d="M336.56,372.64h46.33v-6.89h-45.73c-0.44,1.55-0.7,3.19-0.72,4.94C336.44,371.35,336.48,372,336.56,372.64z"
			/>
		<path class="st3" d="M412.18,372.6l61.39-0.01c-0.49-2.36-1.03-4.66-1.62-6.89l-60.67,0.01
			C411.7,367.89,412.01,370.19,412.18,372.6z"/>
		<path class="st3" d="M316.14,339.01h-56.92c-1.43,2.31-2.75,4.61-3.96,6.89h60.88V339.01z"/>
		<path class="st3" d="M318.06,378.63H302.9v6.89h17.83c-0.17-0.31-0.34-0.61-0.5-0.92C319.28,382.75,318.56,380.75,318.06,378.63z"
			/>
		<rect x="241.08" y="378.63" class="st2" width="52.98" height="6.89"/>
		<rect x="386.56" y="325.62" class="st4" width="12.81" height="6.89"/>
		<path class="st2" d="M315.46,445.64l-60.91,0.01c1.09,2.32-1.56,4.61-0.32,6.88h66.02C318.41,450.48,316.81,448.18,315.46,445.64z
			"/>
		<rect x="295.53" y="325.62" class="st5" width="28.09" height="6.89"/>
		<path class="st1" d="M289.79,325.62h-16.22c-1.93,2.3-3.73,4.6-5.4,6.89h21.63V325.62z"/>
		<rect x="342.07" y="299.15" class="st3" width="46.58" height="6.89"/>
		<path class="st1" d="M260.75,351.93h-11.03c0,2.82,0.06,4.42,0.06,6.89h10.98V351.93z"/>
		<path class="st3" d="M323.24,351.93h-57.73v6.89h53.88c0.15-0.37,0.3-0.75,0.46-1.11C320.78,355.64,321.91,353.72,323.24,351.93z"
			/>
		<path class="st6" d="M433.65,305.99c-0.08-0.06-0.15-0.12-0.23-0.18v0.18H433.65z"/>
		<path class="st5" d="M397.15,305.99h28.09v-5.97c-0.5-0.32-0.99-0.63-1.45-0.92h-26.63V305.99z"/>
		<rect x="369.94" y="325.62" class="st3" width="33.57" height="6.89"/>
		<rect x="331.25" y="325.62" class="st3" width="23.19" height="6.89"/>
		<path class="st6" d="M425.19,385.52H479c0-2.27,0-4.55,0-6.89h-53.82V385.52z"/>
		<rect x="386.39" y="458.54" class="st5" width="72.28" height="6.89"/>
		<rect x="401.88" y="471.98" class="st6" width="46.49" height="6.89"/>
		<rect x="285.88" y="484.28" class="st1" width="66.79" height="6.89"/>
		<path class="st5" d="M337.54,497.91h-32.07c0,3.86,0.02,4.07,0.02,6.89h32.04V497.91z"/>
		<rect x="241.39" y="406.06" class="st3" width="39.41" height="6.89"/>
		<path class="st1" d="M466.63,412.95h13.33c0.4-2.29,0.63-4.59,0.69-6.89h-14.01V412.95z"/>
		<path class="st3" d="M317.6,418.63h-71.48c0,1.49,0,2.74,0,2.74c0,1.58,0.12,2.08,0.12,4.15h71.36V418.63z"/>
		<path class="st5" d="M278.33,392.61h-38.87c-0.11,2.42-0.13,4.72-0.09,6.89h38.95V392.61z"/>
		<path class="st5" d="M347.76,406.06H291.3v6.89h66.1v-3.92c-0.27-0.08-0.53-0.16-0.8-0.24
			C353.51,407.95,350.56,407.04,347.76,406.06z"/>
		<rect x="409.1" y="392.61" class="st5" width="71.34" height="6.89"/>
		<path class="st6" d="M401.83,412.95h56.65v-6.89h-62.26v1.45c0.29,0.22,0.58,0.45,0.86,0.68
			C398.88,409.66,400.46,411.25,401.83,412.95z"/>
		<path class="st4" d="M407.66,425.69h70.47c0-2.34,0-4.62,0-6.89h-72.62C406.51,420.91,407.22,423.21,407.66,425.69z"/>
		<path class="st5" d="M460.71,439.21v-6.89H408.2c-0.02,2.42-0.26,4.71-0.72,6.89H460.71z"/>
		<path class="st6" d="M437.05,451.73h31.84c0-2.51-0.04-4.56-0.04-6.89h-31.8V451.73z"/>
		<path class="st1" d="M379.04,418.63h-54.82v6.89h58.67C382.1,423,380.82,420.7,379.04,418.63z"/>
		<path class="st5" d="M332.73,438.87h30.61v-6.89h-32.42c0.23,1.91,0.61,3.67,1.15,5.25C332.27,437.81,332.49,438.35,332.73,438.87
			z"/>
		<path class="st5" d="M311.43,431.98h-35.3v6.89h36.66c-0.44-1.45-0.8-2.95-1.05-4.52C311.61,433.58,311.51,432.79,311.43,431.98z"
			/>
		<path class="st3" d="M466.13,439.21h6.78c0-2.42,0.12-4.49,0.12-6.89h-6.89V439.21z"/>
	</g>
	<g>
		<g>
			<path class="st0" d="M307.2,227.71v6.89h-31.17c0.13,1.31,0.66,2.61,1.7,3.75l14.69,16.06h65.84v6.89h-59.53l5.51,6.03h88.95
				v6.89h-82.65l6.3,6.89h83.27l6.29-6.89h-1.56v-6.89h7.86l5.51-6.03H369.9v-6.89h50.16v4.85l10.72-11.74h-23.26v-6.89h29.55
				l2.08-2.28c3.93-4.32,0.75-11.08-5.21-11.08H282.94c-0.89,0-1.71,0.17-2.46,0.44H307.2z M394.98,247.52H287.49v-6.89h107.49
				V247.52z M353.78,227.71h82.41v6.89h-82.41V227.71z M319.74,227.71h22.39v6.89h-22.39V227.71z"/>
			<polygon class="st2" points="369.9,254.41 369.9,261.3 418.19,261.3 420.06,259.25 420.06,254.41 			"/>
			<rect x="287.49" y="240.63" class="st4" width="107.49" height="6.89"/>
			<rect x="353.78" y="227.71" class="st6" width="82.41" height="6.89"/>
			<path class="st3" d="M307.2,227.71h-26.72c-2.96,1.07-4.73,3.98-4.45,6.89h31.17V227.71z"/>
			<rect x="319.74" y="227.71" class="st3" width="22.39" height="6.89"/>
		</g>
	</g>
	<rect x="309.55" y="312.31" class="st2" width="44.89" height="6.89"/>
	<rect x="369.94" y="312.31" class="st1" width="69.34" height="6.89"/>
	<rect x="346.83" y="445.51" class="st3" width="13.72" height="6.89"/>
	<rect x="342.07" y="351.93" class="st5" width="35.97" height="6.89"/>
	<rect x="336.44" y="365.71" class="st2" width="28.25" height="6.92"/>
	<rect x="344.6" y="378.63" class="st3" width="49.19" height="6.89"/>
	<rect x="369.69" y="432.07" class="st1" width="18.4" height="6.89"/>
	<rect x="347.3" y="406.06" class="st5" width="10.1" height="6.89"/>
	<rect x="374.33" y="418.63" class="st1" width="8.56" height="6.89"/>
	<rect x="330.92" y="431.98" class="st5" width="7.17" height="6.89"/>
	<rect x="364.29" y="445.51" class="st3" width="12.32" height="6.89"/>
	<rect x="311.38" y="458.45" class="st3" width="20.41" height="6.89"/>
	<rect x="262.47" y="458.45" class="st6" width="45.91" height="6.98"/>
	<rect x="300.87" y="497.91" class="st5" width="13.41" height="6.89"/>
	<rect x="322.05" y="339.01" class="st1" width="9.94" height="6.89"/>
	<rect x="315.14" y="351.93" class="st3" width="8.09" height="6.89"/>
	<rect x="372.24" y="392.52" class="st6" width="31.3" height="6.89"/>
	<rect x="404.32" y="444.84" class="st1" width="28.26" height="6.89"/>
	<rect x="476" y="406.06" class="st1" width="4.64" height="6.89"/>
	<rect x="310.99" y="445.65" class="st2" width="9.25" height="6.88"/>
	<rect x="308.75" y="431.98" class="st5" width="4.03" height="6.89"/>
	<g>
		<rect x="273.24" y="471.98" class="st5" width="79.43" height="6.89"/>
		<rect x="368.17" y="471.98" class="st3" width="28.14" height="6.89"/>
	</g>
	<rect x="400.05" y="378.63" class="st5" width="19.14" height="6.89"/>
	<rect x="343.38" y="497.91" class="st1" width="73" height="6.89"/>
	<rect x="396.22" y="406.06" class="st6" width="9.41" height="6.89"/>
	<rect x="407.48" y="432.32" class="st5" width="4.98" height="6.89"/>
	<rect x="405.51" y="418.8" class="st4" width="6.14" height="6.89"/>
	<rect x="322.35" y="281.11" class="st3" width="27.26" height="5.73"/>
	<rect x="354.68" y="281.11" class="st3" width="40.19" height="5.73"/>
	<rect x="397.22" y="267.33" class="st3" width="9.2" height="6.89"/>
	<rect x="310.41" y="267.33" class="st2" width="39.2" height="6.89"/>
	<rect x="353.78" y="267.33" class="st4" width="39.41" height="6.89"/>
	<rect x="298.72" y="254.41" class="st6" width="59.53" height="6.89"/>
	<rect x="364.1" y="254.41" class="st1" width="55.96" height="6.89"/>
	<rect x="403.51" y="240.63" class="st1" width="27.42" height="6.89"/>
	<rect x="253.29" y="445.64" class="st2" width="14.28" height="6.89"/>
	<rect x="247.74" y="431.98" class="st4" width="20.84" height="6.89"/>
	<rect x="243.88" y="418.63" class="st3" width="28.59" height="6.89"/>
	<rect x="327.53" y="511.67" class="st3" width="68.79" height="7.06"/>
	<rect x="255.26" y="339.01" class="st3" width="8.41" height="6.89"/>
	<rect x="265.51" y="325.62" class="st1" width="16.18" height="6.89"/>
	<rect x="279.23" y="312.31" class="st3" width="22.15" height="6.89"/>
	<rect x="294.37" y="299.1" class="st3" width="39.12" height="6.95"/>
	<rect x="422.38" y="299.1" class="st5" width="2.86" height="1.8"/>
	<rect x="411.2" y="325.62" class="st6" width="42.64" height="6.89"/>
	<rect x="398.9" y="351.93" class="st5" width="37.96" height="6.89"/>
	<rect x="401.21" y="365.71" class="st3" width="11.98" height="6.89"/>
	<rect x="391.47" y="339.01" class="st1" width="19.49" height="6.89"/>
	<rect x="310.4" y="365.75" class="st2" width="7.17" height="6.89"/>
	<rect x="311.38" y="378.63" class="st3" width="9.34" height="6.89"/>
	<rect x="284.77" y="392.61" class="st6" width="42.72" height="6.89"/>
	<rect x="276" y="227.71" class="st3" width="15.6" height="6.89"/>
	<rect x="445.58" y="351.93" class="st5" width="24.56" height="6.89"/>
	<rect x="464.97" y="365.71" class="st3" width="10.47" height="6.89"/>
	<rect x="368.17" y="484.61" class="st4" width="69.39" height="6.89"/>
</g>
</svg>
