<svg id="Lag_1" data-name="Lag 1" xmlns="http://www.w3.org/2000/svg" viewBox="0 0 241.31 291.46"><defs><style>.cls-1{fill:none;}.cls-2{fill:#d7a458;}.cls-3{fill:#7ca5b8;}.cls-4{fill:#404f5f;}.cls-5{fill:#bfbcba;}.cls-6{fill:#cc5b64;}.cls-7{fill:#a5ba73;}</style></defs><path class="cls-1" d="M166,191.18a29.33,29.33,0,0,0-3.52-5.5,33.43,33.43,0,0,0-4.75-4.77l-.86-.68a55.34,55.34,0,0,0-12.35-7.07c-.82-.35-1.66-.69-2.52-1a150.24,150.24,0,0,0-15.06-5q-3.34-.94-6.28-1.91c-2.73-.9-5.2-1.81-7.4-2.75a44.37,44.37,0,0,1-8-4.25c-.44-.3-.87-.61-1.27-.92a18,18,0,0,1-5.14-6,2.12,2.12,0,0,1-.11-.21,16.42,16.42,0,0,1-1.57-5.79c-.06-.64-.09-1.29-.09-2a23.54,23.54,0,0,1,.58-4.94,17.78,17.78,0,0,1,5-9c.31-.3.6-.6.93-.88a20.94,20.94,0,0,1,7.5-4,39.27,39.27,0,0,1,11.53-1.53,28.93,28.93,0,0,1,9.69,1.53c.42.15.82.3,1.23.47a23,23,0,0,1,8.06,5.52c.26.29.5.6.75.9a24.16,24.16,0,0,1,4.24,7.54s0,.05,0,.07a30,30,0,0,1,1.42,6.17,36.77,36.77,0,0,1,.28,4.51h19.13c0-1.55-.08-3-.19-4.51a47.53,47.53,0,0,0-1-6.89,38.82,38.82,0,0,0-2.21-6.89,33.12,33.12,0,0,0-3.94-6.89,32.7,32.7,0,0,0-2.4-2.88,34.83,34.83,0,0,0-3.39-3.15,39.25,39.25,0,0,0-12.95-6.89,55.94,55.94,0,0,0-10.81-2.28V90.3h-15.5v19.14a61.85,61.85,0,0,0-11.58,2.28c-1.29.39-2.54.82-3.76,1.29a38.7,38.7,0,0,0-10,5.6c-.61.48-1.22,1-1.79,1.5a31.33,31.33,0,0,0-4.11,4.53,30.27,30.27,0,0,0-3.38,5.78c-.16.37-.31.74-.46,1.11a30,30,0,0,0-1.83,6.92,36.46,36.46,0,0,0-.36,5.19c0,.57,0,1.14,0,1.7a32.65,32.65,0,0,0,.81,6,26.84,26.84,0,0,0,2.16,6c.16.31.33.62.5.92a31.94,31.94,0,0,0,5.26,7c.88.89,1.81,1.74,2.81,2.57a48,48,0,0,0,6.26,4.32,62,62,0,0,0,7.11,3.55q3.87,1.65,8.22,3.1t9.25,2.74l.84.24a99.72,99.72,0,0,1,10.5,3.52l1,.4a42.1,42.1,0,0,1,10,5.68h0a18.81,18.81,0,0,1,5.55,6.89,15.64,15.64,0,0,1,1.36,6.68V205a18.34,18.34,0,0,1-1.3,6.89,15.91,15.91,0,0,1-.73,1.57c-.19.35-.39.7-.61,1a18.41,18.41,0,0,1-3.1,3.7,21.73,21.73,0,0,1-2.06,1.71,27.46,27.46,0,0,1-9.15,4,44.86,44.86,0,0,1-6.94,1.15c-1.68.15-3.41.25-5.23.25a45,45,0,0,1-4.65-.25,46.92,46.92,0,0,1-5.85-1,26.92,26.92,0,0,1-9.31-4.09,21.49,21.49,0,0,1-2.11-1.7,22.61,22.61,0,0,1-4.6-6c-.13-.25-.25-.51-.38-.77-.25-.53-.49-1.07-.7-1.64a24.63,24.63,0,0,1-1.23-5.25,35.08,35.08,0,0,1-.3-4.48H72c0,1.55.07,3,.2,4.48.07.8.16,1.6.27,2.37a36.47,36.47,0,0,0,.94,4.52,31.58,31.58,0,0,0,2,5.51c.21.43.43.84.65,1.25a34.62,34.62,0,0,0,4.78,6.89,33,33,0,0,0,3.73,3.56,37.61,37.61,0,0,0,3.23,2.36,41.85,41.85,0,0,0,9.92,4.74,66.45,66.45,0,0,0,8.44,2.15,71.55,71.55,0,0,0,7.11,1v16.62h15.51V239q3.53-.3,6.81-.89c1.88-.33,3.69-.74,5.45-1.21,1.45-.39,2.86-.82,4.23-1.3a40.81,40.81,0,0,0,12.64-6.92,30.77,30.77,0,0,0,3.61-3.51,30,30,0,0,0,4.45-6.8l0-.09a28.83,28.83,0,0,0,1.41-3.66c.26-.86.48-1.74.67-2.64a33.93,33.93,0,0,0,.72-6.89c0-.1,0-.19,0-.28a35.63,35.63,0,0,0-.55-6.34,27.44,27.44,0,0,0-2.15-6.89A1.16,1.16,0,0,0,166,191.18Z"/><path class="cls-1" d="M167.51,149.85H148.38a36.65,36.65,0,0,0-.28-4.51h-1.42v-6.17s0,0,0-.07a23.94,23.94,0,0,0-4.24-7.54h-39.7V129.5a17.78,17.78,0,0,0-5,9h36.9v6.89H97.19a16.69,16.69,0,0,0,1.57,5.79c0,.07.08.14.11.21h66.64v6.89H105.28a44.42,44.42,0,0,0,8,4.25q3.3,1.4,7.4,2.75H156v6.89H142c.85.34,1.7.68,2.52,1a54.57,54.57,0,0,1,12.35,7.07V178.8h62.26v6.89H162.48a29.33,29.33,0,0,1,3.52,5.5c.06.12.1.24.16.35h74q.48-2.92.76-5.85h-7.2V178.8h7.57c0-1.45,0-2.91,0-4.36a134.16,134.16,0,0,0-1.09-16.17H178.71v-6.89h60.38q-.57-3.07-1.28-6H167.32C167.43,146.8,167.5,148.3,167.51,149.85Zm2.24,15.49h64.46v6.89H169.75Z"/><path class="cls-1" d="M75.46,217.11a30.79,30.79,0,0,1-2-5.51H40.71v-6.89H72.23c-.13-1.44-.2-2.93-.2-4.48H91.27a33.35,33.35,0,0,0,.3,4.48h34.5v6.89H93.5c.12.26.24.52.38.77a22.61,22.61,0,0,0,4.6,6v-.13h45.31a18.46,18.46,0,0,0,3.1-3.7c.21-.34.42-.69.61-1a17.24,17.24,0,0,0,.73-1.57H136V205h13.51v-.11a15.49,15.49,0,0,0-1.36-6.68H63.55v-6.89H142.6a42.1,42.1,0,0,0-10-5.68h-1v-.4a99.72,99.72,0,0,0-10.5-3.52v3.92H52v-6.89H111q-4.34-1.46-8.22-3.1a62,62,0,0,1-7.11-3.55H48.26v-6.89H86.63a31.63,31.63,0,0,1-5.26-7H63.55v-6.89H78.71a31.7,31.7,0,0,1-.81-6H4.85v-6.69A105,105,0,0,0,.12,165.34H39v6.89H0a90,90,0,0,0,2.34,19.13H51.24v6.89H4.09q.84,3.24,1.89,6.46H25.9v6.89H8.47c.9,2.27,1.88,4.52,2.92,6.76H76.11C75.89,218,75.67,217.54,75.46,217.11ZM10.68,158.25v-6.89h44v6.89Zm30.77,27.43H2v-6.89H41.45Z"/><path class="cls-1" d="M80,131.55H26.16v-6.89H83.89A31.33,31.33,0,0,1,88,120.13c.57-.52,1.17-1,1.79-1.5H87.68v-6.89h15.84a63.5,63.5,0,0,1,11.58-2.28v-4.23H91.91V98.34H115.1V91.93H70.21V85H199.93v6.89H130.59v6.41h6.67v6.89h-6.67v4.23a56.1,56.1,0,0,1,10.81,2.28H217v6.89H154.36a34.83,34.83,0,0,1,3.39,3.15,31.3,31.3,0,0,1,2.4,2.88h37.37v6.89H164.09a39.65,39.65,0,0,1,2.21,6.89H236c-.72-2.37-1.5-4.66-2.33-6.89H209.43v-6.89h21.39a116.51,116.51,0,0,0-11.07-19.43h-47.9V98.34h42.64A125.24,125.24,0,0,0,194.3,78.71h-.23v-.18c-3-2.31-5.77-4.23-8.18-5.79v6H157.8V71.82h26.63a76.59,76.59,0,0,0-7.72-4.32H63.6c-2.22,1.43-4.35,2.87-6.42,4.32h37v6.89H48c-2.61,2.09-5.1,4.2-7.44,6.33H62v6.89H33.41q-3.34,3.46-6.28,6.94H43.4v6.89H21.71c-1.46,2-2.84,4-4.12,6H76.81v6.89H13.45c-1.12,2-2.14,4-3.09,6h6.87v6.89H7.36Q6,135.06,4.9,138.47H78.2A31.17,31.17,0,0,1,80,131.55Zm80-26.31H147.22V98.35H160ZM102.72,71.88H149.3v6.89H102.72ZM56.18,105.24V98.35H84.27v6.89Z"/><path class="cls-1" d="M120.39,225.38c1.82,0,3.56-.1,5.23-.25h-9.89A45.31,45.31,0,0,0,120.39,225.38Z"/><path class="cls-1" d="M172.86,277.86H121.1V271h63.67q4.89-3.17,9.48-6.74H141.83v-6.89h60.6a128.84,128.84,0,0,0,26.14-32.88H197.72v-6.89h34.34c.86-1.86,1.68-3.74,2.43-5.64h-5V205H237c.7-2.2,1.32-4.4,1.85-6.62H168.33a35.63,35.63,0,0,1,.55,6.34c0,.1,0,.19,0,.28h52.51v6.89H168.15c-.19.9-.41,1.78-.67,2.64a28.83,28.83,0,0,1-1.41,3.66h17.79v6.89H161.55a30,30,0,0,1-3.61,3.51,40.81,40.81,0,0,1-12.64,6.92c-1.37.48-2.78.91-4.23,1.3v1.21h-5.45q-3.28.58-6.81.89v5.75h3v6.89h-3v4.06H113.3V239q-3.61-.32-7.11-1H33.35v-6.89H87.83a39.24,39.24,0,0,1-3.23-2.36,33,33,0,0,1-3.73-3.56h-66c1.1,2,2.26,4,3.48,6h5.73v6.89h-1.2a134.26,134.26,0,0,0,32.3,32.48h56v6.89h-45a114.21,114.21,0,0,0,16.08,7.41h74.06A125.78,125.78,0,0,0,172.86,277.86Zm-18-46.59h64.46v6.89H154.85ZM142,244.71h62.26v6.89H142ZM37.06,251.6v-6.89h69.17v6.89Zm9.47,12.3V257h85.36v6.89Z"/><path class="cls-1" d="M122.68,123.13a39.23,39.23,0,0,0-11.53,1.53h21.23A29,29,0,0,0,122.68,123.13Z"/><path class="cls-2" d="M224,118.63v-6.89H158.32a32.9,32.9,0,0,1,11.25,6.89Z"/><path class="cls-3" d="M77.9,145.37c0-.56,0-1.12,0-1.7a36.35,36.35,0,0,1,.36-5.19H4.92a1.59,1.59,0,0,1-.07.2v6.69Z"/><path class="cls-3" d="M97.21,145.37h46.33v-6.89H97.81a18.77,18.77,0,0,0-.72,4.94A15.71,15.71,0,0,0,97.21,145.37Z"/><path class="cls-4" d="M172.83,145.33h61.39q-.74-3.54-1.62-6.89H171.93A58,58,0,0,1,172.83,145.33Z"/><path class="cls-4" d="M76.79,111.74H19.87q-2.14,3.47-4,6.89H76.79Z"/><path class="cls-4" d="M78.71,151.36H63.55v6.89H81.38c-.17-.31-.34-.61-.5-.92A26.2,26.2,0,0,1,78.71,151.36Z"/><rect class="cls-3" x="1.73" y="151.36" width="52.98" height="6.89"/><rect class="cls-5" x="147.21" y="98.35" width="12.81" height="6.89"/><path class="cls-3" d="M76.11,218.37H15.2c1.09,2.32-1.56,4.61-.32,6.88h66A34.54,34.54,0,0,1,76.11,218.37Z"/><rect class="cls-6" x="56.18" y="98.35" width="28.09" height="6.89"/><path class="cls-2" d="M50.44,98.35H34.22q-2.89,3.45-5.4,6.89H50.45V98.35Z"/><rect class="cls-4" x="102.72" y="71.88" width="46.58" height="6.89"/><path class="cls-2" d="M21.4,124.66h-11c0,2.82.06,4.42.06,6.89h11v-6.89Z"/><path class="cls-4" d="M83.89,124.66H26.16v6.89H80c.15-.37.3-.75.46-1.11A30.84,30.84,0,0,1,83.89,124.66Z"/><path class="cls-7" d="M194.3,78.72l-.23-.18v.18Z"/><path class="cls-6" d="M157.8,78.72h28.09v-6l-1.45-.92H157.81v6.89Z"/><rect class="cls-4" x="130.59" y="98.35" width="33.57" height="6.89"/><rect class="cls-4" x="91.9" y="98.35" width="23.19" height="6.89"/><path class="cls-7" d="M185.84,158.25h53.81v-6.89H185.83v6.89Z"/><rect class="cls-6" x="147.04" y="231.27" width="72.28" height="6.89"/><rect class="cls-7" x="162.53" y="244.71" width="46.49" height="6.89"/><rect class="cls-2" x="46.53" y="257.01" width="66.79" height="6.89"/><path class="cls-6" d="M98.19,270.64H66.12c0,3.86,0,4.07,0,6.89h32v-6.89Z"/><rect class="cls-4" x="2.04" y="178.79" width="39.41" height="6.89"/><path class="cls-2" d="M227.28,185.68h13.33a47.17,47.17,0,0,0,.69-6.89h-14v6.89Z"/><path class="cls-4" d="M78.25,191.36H6.77v2.74c0,1.58.12,2.08.12,4.15H78.25v-6.89Z"/><path class="cls-6" d="M39,165.34H.11C0,167.76,0,170.06,0,172.23H39v-6.89Z"/><path class="cls-6" d="M108.41,178.79H52v6.89h66.1v-3.92l-.8-.24Q112.62,180.26,108.41,178.79Z"/><rect class="cls-6" x="169.75" y="165.34" width="71.34" height="6.89"/><path class="cls-7" d="M162.48,185.68h56.65v-6.89H156.87v1.45l.86.68A32.37,32.37,0,0,1,162.48,185.68Z"/><path class="cls-5" d="M168.31,198.42h70.47v-6.89H166.16A27,27,0,0,1,168.31,198.42Z"/><path class="cls-6" d="M221.36,211.94v-6.89H168.85a34.65,34.65,0,0,1-.72,6.89Z"/><path class="cls-7" d="M197.7,224.46h31.84c0-2.51,0-4.56,0-6.89H197.7Z"/><path class="cls-2" d="M139.69,191.36H84.87v6.89h58.67A19.36,19.36,0,0,0,139.69,191.36Z"/><path class="cls-6" d="M93.38,211.6H124v-6.89H91.57A25.82,25.82,0,0,0,92.72,210,17.51,17.51,0,0,0,93.38,211.6Z"/><path class="cls-6" d="M72.08,204.71H36.78v6.89H73.44a33.86,33.86,0,0,1-1-4.52C72.26,206.31,72.16,205.52,72.08,204.71Z"/><path class="cls-4" d="M226.78,211.94h6.78c0-2.42.12-4.49.12-6.89h-6.89v6.89Z"/><path class="cls-1" d="M67.85.44V7.33H36.68a6.44,6.44,0,0,0,1.7,3.75L53.07,27.14h65.84V34H59.38l5.51,6h89V47H71.19l6.3,6.89h83.27L167.05,47h-1.56V40.06h7.86l5.51-6H130.55V27.14h50.16V32l10.72-11.74H168.17V13.36h29.55l2.08-2.28A6.65,6.65,0,0,0,194.59,0h-151a7.22,7.22,0,0,0-2.46.44Zm87.78,19.81H48.14V13.36H155.63v6.89ZM114.43.44h82.41V7.33H114.43Zm-34,0h22.39V7.33H80.39Z"/><polygon class="cls-3" points="130.55 27.14 130.55 34.03 178.84 34.03 180.71 31.98 180.71 27.14 130.55 27.14"/><rect class="cls-5" x="48.14" y="13.36" width="107.49" height="6.89"/><rect class="cls-7" x="114.43" y="0.44" width="82.41" height="6.89"/><path class="cls-4" d="M67.85.44H41.13a6.72,6.72,0,0,0-4.45,6.89H67.85Z"/><rect class="cls-4" x="80.39" y="0.44" width="22.39" height="6.89"/><rect class="cls-3" x="70.2" y="85.04" width="44.89" height="6.89"/><rect class="cls-2" x="130.59" y="85.04" width="69.34" height="6.89"/><rect class="cls-4" x="107.48" y="218.24" width="13.72" height="6.89"/><rect class="cls-6" x="102.72" y="124.66" width="35.97" height="6.89"/><rect class="cls-3" x="97.09" y="138.44" width="28.25" height="6.92"/><rect class="cls-4" x="105.25" y="151.36" width="49.19" height="6.89"/><rect class="cls-2" x="130.34" y="204.8" width="18.4" height="6.89"/><rect class="cls-6" x="107.95" y="178.79" width="10.1" height="6.89"/><rect class="cls-2" x="134.98" y="191.36" width="8.56" height="6.89"/><rect class="cls-6" x="91.57" y="204.71" width="7.17" height="6.89"/><rect class="cls-4" x="124.94" y="218.24" width="12.32" height="6.89"/><rect class="cls-4" x="72.03" y="231.18" width="20.41" height="6.89"/><rect class="cls-7" x="23.12" y="231.18" width="45.91" height="6.98"/><rect class="cls-6" x="61.52" y="270.64" width="13.41" height="6.89"/><rect class="cls-2" x="82.7" y="111.74" width="9.94" height="6.89"/><rect class="cls-4" x="75.79" y="124.66" width="8.09" height="6.89"/><rect class="cls-7" x="132.89" y="165.25" width="31.3" height="6.89"/><rect class="cls-2" x="164.97" y="217.57" width="28.26" height="6.89"/><rect class="cls-2" x="236.65" y="178.79" width="4.64" height="6.89"/><rect class="cls-3" x="71.64" y="218.38" width="9.25" height="6.88"/><rect class="cls-6" x="69.4" y="204.71" width="4.03" height="6.89"/><rect class="cls-6" x="33.89" y="244.71" width="79.43" height="6.89"/><rect class="cls-4" x="128.82" y="244.71" width="28.14" height="6.89"/><rect class="cls-6" x="160.7" y="151.36" width="19.14" height="6.89"/><rect class="cls-2" x="104.03" y="270.64" width="73" height="6.89"/><rect class="cls-7" x="156.87" y="178.79" width="9.41" height="6.89"/><rect class="cls-6" x="168.13" y="205.05" width="4.98" height="6.89"/><rect class="cls-5" x="166.16" y="191.53" width="6.14" height="6.89"/><rect class="cls-4" x="83" y="53.84" width="27.26" height="5.73"/><rect class="cls-4" x="115.33" y="53.84" width="40.19" height="5.73"/><rect class="cls-4" x="157.87" y="40.06" width="9.2" height="6.89"/><rect class="cls-3" x="71.06" y="40.06" width="39.2" height="6.89"/><rect class="cls-5" x="114.43" y="40.06" width="39.41" height="6.89"/><rect class="cls-7" x="59.37" y="27.14" width="59.53" height="6.89"/><rect class="cls-2" x="124.75" y="27.14" width="55.96" height="6.89"/><rect class="cls-2" x="164.16" y="13.36" width="27.42" height="6.89"/><rect class="cls-3" x="13.94" y="218.37" width="14.28" height="6.89"/><rect class="cls-5" x="8.39" y="204.71" width="20.84" height="6.89"/><rect class="cls-4" x="4.53" y="191.36" width="28.59" height="6.89"/><rect class="cls-4" x="88.18" y="284.4" width="68.79" height="7.06"/><rect class="cls-4" x="15.91" y="111.74" width="8.41" height="6.89"/><rect class="cls-2" x="26.16" y="98.35" width="16.18" height="6.89"/><rect class="cls-4" x="39.88" y="85.04" width="22.15" height="6.89"/><rect class="cls-4" x="55.02" y="71.83" width="39.12" height="6.95"/><rect class="cls-6" x="183.03" y="71.83" width="2.86" height="1.8"/><rect class="cls-7" x="171.85" y="98.35" width="42.64" height="6.89"/><rect class="cls-6" x="159.55" y="124.66" width="37.96" height="6.89"/><rect class="cls-4" x="161.86" y="138.44" width="11.98" height="6.89"/><rect class="cls-2" x="152.12" y="111.74" width="19.49" height="6.89"/><rect class="cls-3" x="71.05" y="138.48" width="7.17" height="6.89"/><rect class="cls-4" x="72.03" y="151.36" width="9.34" height="6.89"/><rect class="cls-7" x="45.42" y="165.34" width="42.72" height="6.89"/><rect class="cls-4" x="36.65" y="0.44" width="15.6" height="6.89"/><rect class="cls-6" x="206.23" y="124.66" width="24.56" height="6.89"/><rect class="cls-4" x="225.62" y="138.44" width="10.47" height="6.89"/><rect class="cls-5" x="128.82" y="257.34" width="69.39" height="6.89"/></svg>