<?xml version="1.0" encoding="utf-8"?>
<!-- Generator: Adobe Illustrator 24.1.1, SVG Export Plug-In . SVG Version: 6.00 Build 0)  -->
<svg version="1.1" id="Lag_1" xmlns="http://www.w3.org/2000/svg" xmlns:xlink="http://www.w3.org/1999/xlink" x="0px" y="0px"
	 viewBox="0 0 429 327" style="enable-background:new 0 0 429 327;" xml:space="preserve">
<style type="text/css">
	.st0{fill:#404F5F;}
	.st1{fill:#A5BA73;}
</style>
<rect x="291.1" y="251.2" class="st0" width="21.1" height="5.8"/>
<rect x="366.2" y="251.2" class="st0" width="21.1" height="5.8"/>
<rect x="331.8" y="240.5" class="st0" width="18.1" height="5.8"/>
<rect x="280.5" y="240.5" class="st0" width="46.4" height="5.8"/>
<rect x="347.5" y="229.7" class="st0" width="61.5" height="5.8"/>
<rect x="269.8" y="229.7" class="st0" width="75.6" height="5.8"/>
<rect x="264" y="218.9" class="st0" width="60.3" height="5.8"/>
<rect x="327" y="218.9" class="st0" width="89.3" height="5.8"/>
<rect x="348.1" y="208.1" class="st0" width="74.3" height="5.8"/>
<rect x="257.3" y="208.1" class="st0" width="88.5" height="5.8"/>
<rect x="381.5" y="197.3" class="st0" width="45.9" height="5.8"/>
<rect x="314" y="197.3" class="st0" width="65" height="5.8"/>
<rect x="252.3" y="197.3" class="st0" width="59.3" height="5.8"/>
<rect x="293.7" y="186.5" class="st0" width="99.9" height="5.8"/>
<rect x="396.5" y="186.5" class="st0" width="22.5" height="5.8"/>
<rect x="248.8" y="186.5" class="st0" width="42.6" height="5.8"/>
<rect x="245.2" y="175.8" class="st0" width="29.1" height="5.8"/>
<rect x="277.4" y="175.8" class="st0" width="101.6" height="5.8"/>
<rect x="382.9" y="175.8" class="st0" width="25.3" height="5.8"/>
<rect x="308.8" y="165" class="st0" width="94.3" height="5.8"/>
<rect x="243" y="165" class="st0" width="64" height="5.8"/>
<rect x="289.1" y="154.2" class="st0" width="71.2" height="5.8"/>
<rect x="241" y="154.2" class="st0" width="45.6" height="5.8"/>
<rect x="363.8" y="154.2" class="st0" width="34.9" height="5.8"/>
<rect x="265.5" y="143.4" class="st0" width="56.5" height="5.8"/>
<rect x="241" y="143.4" class="st0" width="21.7" height="5.8"/>
<rect x="325" y="143.4" class="st0" width="73.6" height="5.8"/>
<rect x="297.4" y="132.6" class="st0" width="56.4" height="5.8"/>
<rect x="356.5" y="132.6" class="st0" width="42.1" height="5.8"/>
<rect x="241" y="132.6" class="st0" width="52.9" height="5.8"/>
<rect x="269.4" y="121.8" class="st0" width="57.5" height="5.8"/>
<rect x="329" y="121.9" class="st0" width="71.2" height="5.8"/>
<rect x="242.6" y="121.8" class="st0" width="24.4" height="5.8"/>
<rect x="313" y="111.1" class="st0" width="91.6" height="5.8"/>
<rect x="247" y="111.1" class="st0" width="62.4" height="5.8"/>
<rect x="327.8" y="100.3" class="st0" width="57.5" height="5.8"/>
<rect x="390.5" y="100.3" class="st0" width="23.2" height="5.8"/>
<rect x="252" y="100.3" class="st0" width="71.7" height="5.8"/>
<rect x="301.9" y="89.5" class="st0" width="68" height="5.8"/>
<rect x="372.6" y="89.5" class="st0" width="45.3" height="5.8"/>
<rect x="260.7" y="89.5" class="st0" width="36.7" height="5.8"/>
<rect x="274.9" y="78.7" class="st0" width="44" height="5.8"/>
<rect x="290.7" y="67.9" class="st0" width="13.4" height="5.8"/>
<rect x="334.1" y="67.9" class="st0" width="8.1" height="5.8"/>
<rect x="335.2" y="57.1" class="st0" width="23.9" height="5.8"/>
<rect x="339.4" y="46.4" class="st0" width="30.5" height="5.8"/>
<rect x="345.7" y="35.6" class="st0" width="30.5" height="5.8"/>
<rect x="355.3" y="24.8" class="st0" width="24.7" height="5.8"/>
<rect x="373.7" y="14" class="st0" width="8.4" height="5.8"/>
<rect x="353" y="78.7" class="st0" width="50.8" height="5.8"/>
<rect x="374.8" y="67.9" class="st0" width="20.9" height="5.8"/>
<rect x="353.5" y="240.5" class="st0" width="46.4" height="5.8"/>
<rect x="41.1" y="234" class="st1" width="48" height="6.8"/>
<rect x="125.1" y="234" class="st1" width="48" height="6.8"/>
<rect x="139.9" y="220.5" class="st1" width="33.2" height="6.8"/>
<rect x="120.7" y="247.5" class="st1" width="33.2" height="6.8"/>
<rect x="61.7" y="220.5" class="st1" width="73.9" height="6.8"/>
<rect x="41.1" y="220.5" class="st1" width="15.7" height="6.8"/>
<rect x="82.2" y="206.9" class="st1" width="22.1" height="6.8"/>
<rect x="157.4" y="247.5" class="st1" width="15.7" height="6.8"/>
<rect x="92.6" y="234" class="st1" width="29.4" height="6.8"/>
<rect x="41.1" y="247.5" class="st1" width="27.5" height="6.8"/>
<rect x="71" y="247.5" class="st1" width="47.2" height="6.8"/>
<rect x="41.1" y="206.9" class="st1" width="37" height="6.8"/>
<rect x="107.3" y="206.9" class="st1" width="65.8" height="6.8"/>
<rect x="41.1" y="193.4" class="st1" width="20.6" height="6.8"/>
<rect x="65.2" y="193.4" class="st1" width="61.3" height="6.8"/>
<rect x="111.8" y="193.4" class="st1" width="61.3" height="6.8"/>
<rect x="41.1" y="179.8" class="st1" width="48" height="6.8"/>
<rect x="92.6" y="179.8" class="st1" width="80.5" height="6.8"/>
<rect x="61.1" y="166.3" class="st1" width="52.8" height="6.8"/>
<rect x="117.8" y="166.3" class="st1" width="55.3" height="6.8"/>
<rect x="41.1" y="166.3" class="st1" width="15.7" height="6.8"/>
<rect x="41.1" y="152.8" class="st1" width="132" height="6.8"/>
<rect x="142" y="139.2" class="st1" width="31.1" height="6.8"/>
<rect x="107.1" y="125.7" class="st1" width="66" height="6.8"/>
<rect x="41.1" y="139.2" class="st1" width="63.9" height="6.8"/>
<rect x="41.1" y="125.7" class="st1" width="17.2" height="6.8"/>
<rect x="62.6" y="125.7" class="st1" width="40.5" height="6.8"/>
<rect x="149.2" y="112.1" class="st1" width="23.9" height="6.8"/>
<rect x="122.4" y="112.1" class="st1" width="23.9" height="6.8"/>
<rect x="109.3" y="139.2" class="st1" width="28.7" height="6.8"/>
<rect x="75.8" y="112.1" class="st1" width="43.3" height="6.8"/>
<rect x="41.1" y="112.1" class="st1" width="30.1" height="6.8"/>
<rect x="132" y="85.1" class="st1" width="41.1" height="6.8"/>
<rect x="41.1" y="85.1" class="st1" width="88.7" height="6.8"/>
<rect x="102.6" y="71.5" class="st1" width="65.7" height="6.8"/>
<rect x="44.8" y="71.5" class="st1" width="55.6" height="6.8"/>
<rect x="50.5" y="58" class="st1" width="20.7" height="6.8"/>
<rect x="142.9" y="58" class="st1" width="20.7" height="6.8"/>
<rect x="137.3" y="44.4" class="st1" width="15.1" height="6.8"/>
<rect x="139.5" y="17.4" class="st1" width="5.9" height="6.8"/>
<rect x="145.4" y="3.8" class="st1" width="5.9" height="6.8"/>
<rect x="68.2" y="17.4" class="st1" width="5.9" height="6.8"/>
<rect x="64.1" y="3.8" class="st1" width="5.9" height="6.8"/>
<rect x="62.3" y="44.4" class="st1" width="15.1" height="6.8"/>
<rect x="85.4" y="58" class="st1" width="43.3" height="6.8"/>
<rect x="82.5" y="44.4" class="st1" width="49.2" height="6.8"/>
<rect x="75" y="30.9" class="st1" width="62.3" height="6.8"/>
<rect x="76.5" y="261.1" class="st1" width="18" height="6.8"/>
<rect x="65.1" y="261.1" class="st1" width="8.3" height="6.8"/>
<rect x="65.1" y="274.6" class="st1" width="29.5" height="6.8"/>
<rect x="65.1" y="288.2" class="st1" width="29.5" height="6.8"/>
<rect x="131.5" y="261.1" class="st1" width="16.9" height="6.8"/>
<rect x="119" y="261.1" class="st1" width="10.2" height="6.8"/>
<rect x="119" y="274.6" class="st1" width="29.5" height="6.8"/>
<rect x="119" y="288.2" class="st1" width="29.5" height="6.8"/>
<rect x="119" y="301.7" class="st1" width="29.1" height="6.8"/>
<rect x="1.5" y="166.3" class="st1" width="29.5" height="6.8"/>
<rect x="1.5" y="193.4" class="st1" width="29.5" height="6.8"/>
<rect x="1.5" y="179.8" class="st1" width="29.5" height="6.8"/>
<rect x="4.9" y="206.9" class="st1" width="23.6" height="6.8"/>
<rect x="182.5" y="166.3" class="st1" width="29.5" height="6.8"/>
<rect x="182.5" y="179.8" class="st1" width="29.5" height="6.8"/>
<rect x="182.5" y="193.4" class="st1" width="29.5" height="6.8"/>
<rect x="185.9" y="206.9" class="st1" width="23.6" height="6.8"/>
<rect x="182.5" y="152.8" class="st1" width="29.5" height="6.8"/>
<rect x="182.5" y="139.2" class="st1" width="29.5" height="6.8"/>
<rect x="182.5" y="125.7" class="st1" width="29.5" height="6.8"/>
<rect x="185.9" y="112.1" class="st1" width="23.6" height="6.8"/>
<rect x="1.5" y="152.8" class="st1" width="29.5" height="6.8"/>
<rect x="13.9" y="139.2" class="st1" width="17.1" height="6.8"/>
<rect x="1.5" y="125.7" class="st1" width="29.5" height="6.8"/>
<rect x="1.2" y="139.2" class="st1" width="10.8" height="6.8"/>
<rect x="4.9" y="112.1" class="st1" width="23.6" height="6.8"/>
<rect x="65.6" y="301.7" class="st1" width="28.9" height="6.8"/>
<rect x="73.4" y="315.2" class="st1" width="12.9" height="6.8"/>
<rect x="128.2" y="315.2" class="st1" width="12.9" height="6.8"/>
</svg>
