<?xml version="1.0" encoding="utf-8"?>
<!-- Generator: Adobe Illustrator 24.1.1, SVG Export Plug-In . SVG Version: 6.00 Build 0)  -->
<svg version="1.1" id="Lag_1" xmlns="http://www.w3.org/2000/svg" xmlns:xlink="http://www.w3.org/1999/xlink" x="0px" y="0px"
	 viewBox="0 0 800 800" style="enable-background:new 0 0 800 800;" xml:space="preserve">
<style type="text/css">
	.st0{fill:none;}
	.st1{fill:#7CA5B8;}
	.st2{fill:#D7A458;}
	.st3{fill:#A5BA73;}
	.st4{fill:#404F5F;}
	.st5{fill:#CC5B64;}
</style>
<g>
	<g>
		<g>
			<path class="st0" d="M414.56,474.28h-16.73v-7.86c-4.81,0.29-8.48,1.84-11.01,4.68c-0.79,0.88-1.45,1.84-2.02,2.85v0.58h-0.31
				c-1.16,2.28-1.78,4.86-1.87,7.75h34.01C416.54,479.29,415.85,476.62,414.56,474.28z"/>
			<path class="st0" d="M391.82,497.68v-0.4h16.32c1.6-0.73,2.99-1.7,4.15-2.92c1.18-1.24,2.1-2.6,2.8-4.08h-30.99
				c0.68,1.48,1.57,2.84,2.71,4.08C388.16,495.81,389.83,496.91,391.82,497.68z"/>
			<path class="st0" d="M402.22,390.45c-2.19,2.16-4.09,4.14-5.7,5.93c-2.28,2.54-4.14,5.17-5.6,7.89h22.59v8h-25.69
				c-0.55,2.12-0.96,4.37-1.22,6.77c-0.48,4.41-0.77,10-0.87,16.73h27.39c0.01-2.71,0.07-5.22,0.18-7.5h-15.46v-8h16.42
				c0.19-0.84,0.39-1.68,0.63-2.49c0.79-2.67,2-5.28,3.63-7.85c0.94-1.47,2.1-3,3.47-4.57v-1.09h0.98c0.76-0.82,1.56-1.64,2.43-2.49
				c1.63-1.46,3.27-2.97,4.92-4.51h-28.1V390.45z"/>
			<path class="st0" d="M417.05,375.62c-2.94,3.06-5.85,6.07-8.68,8.99c-1.78,1.64-3.42,3.19-4.95,4.67h35.15
				c0.32-0.32,0.64-0.64,0.97-0.96c2.24-2.26,4.37-4.61,6.4-7.04h-28.89V375.62z"/>
			<path class="st0" d="M338.32,332.04h27.4c0-0.1,0.01-0.2,0.01-0.3h-27.39C338.33,331.84,338.32,331.94,338.32,332.04z"/>
			<path class="st0" d="M435.47,349.81c-0.8,1.9-1.72,3.75-2.71,5.57h29.03c0.06-0.15,0.13-0.31,0.19-0.46
				c0.94-2.39,1.7-4.85,2.28-7.36h-27.94C436.06,348.31,435.78,349.07,435.47,349.81z"/>
			<path class="st0" d="M419.28,373.28h32.79c0.14-0.2,0.29-0.39,0.42-0.59c2.07-3,3.94-6.11,5.61-9.31H427.6
				C425.05,366.81,422.28,370.11,419.28,373.28z"/>
			<path class="st0" d="M366.8,323.74c0.5-1.77,1.17-3.43,2.03-4.95c0.25-0.45,0.52-0.89,0.79-1.32h-24.36v-8h32
				c3.36-2.34,7.18-4.08,11.49-5.19c4.39-1.13,8.91-1.7,13.55-1.7c10.39,0,18.61,2.3,24.69,6.89h7.61v8h-0.55
				c1.1,1.92,1.98,4.01,2.65,6.28h11.46v8h-10.02c0.1,1.29,0.15,2.63,0.15,4c0,1.29-0.07,2.56-0.2,3.82h27.4
				c0.12-1.55,0.2-3.12,0.2-4.71c0-1.05-0.02-2.09-0.06-3.12h-8.72v-8h7.94c-0.34-2.16-0.78-4.26-1.33-6.28h-17.19v-8h14.31
				c-1.25-2.74-2.71-5.32-4.38-7.71H442.2v-8h6.97c-0.08-0.07-0.15-0.14-0.23-0.21c-3.18-2.83-6.79-5.26-10.8-7.29h-4.39h-61.04
				h-5.19v-0.03c-3.81,1.88-7.31,4.09-10.48,6.65c-0.39,0.32-0.77,0.65-1.15,0.98h75.94v8h-77.22v-6.88
				c-4.55,4.17-8.26,9.07-11.12,14.7c-2.2,4.33-3.68,9.02-4.48,14.06H366.8z"/>
			<path class="st1" d="M441.6,309.46h-7.61c0.68,0.51,1.34,1.05,1.97,1.62c2.03,1.85,3.72,3.98,5.09,6.38h0.55V309.46z"/>
			<path class="st2" d="M372.72,286.24v-2.31c-1.79,0.7-3.52,1.46-5.19,2.28v0.03H372.72z"/>
			<path class="st3" d="M433.76,286.24h4.39c-2.84-1.44-5.87-2.7-9.12-3.74c-7.85-2.52-16.76-3.78-26.73-3.78
				c-8.99,0-17.35,1.21-25.1,3.63c-1.53,0.48-3.02,1.01-4.47,1.58v2.31H433.76z"/>
			<path class="st4" d="M448.15,323.74h-11.46c0.73,2.46,1.21,5.13,1.44,8h10.02V323.74z"/>
			<path class="st4" d="M338.33,331.74h27.39c0.02-2.9,0.39-5.56,1.08-8h-27.78C338.61,326.31,338.37,328.97,338.33,331.74z"/>
			<path class="st5" d="M431.84,301.85v-8H355.9c-0.81,0-0.42,0-1.28,0v8H431.84z"/>
			<path class="st5" d="M446.32,317.46h17.19c-0.59-2.18-1.29-4.29-2.12-6.3c-0.24-0.58-0.5-1.13-0.76-1.7h-14.31V317.46z"/>
			<path class="st2" d="M452.68,331.74h12.94c-0.16-2.77-0.56-5.43-1.16-8h-11.78V331.74z"/>
			<path class="st5" d="M436.32,347.56h27.94c0.6-2.6,1.01-5.27,1.22-8h-27.4C437.81,342.31,437.21,344.97,436.32,347.56z"/>
			<path class="st5" d="M391.82,497.68c2.17,0.84,4.72,1.27,7.66,1.27c3.38,0,6.26-0.56,8.66-1.67h-16.32V497.68z"/>
			<path class="st1" d="M418.66,373.95c-0.54,0.57-1.07,1.11-1.61,1.67v5.66h28.89c2.16-2.58,4.21-5.24,6.13-8h-32.79
				C419.07,373.5,418.87,373.73,418.66,373.95z"/>
			<path class="st2" d="M402.22,389.28v8h28.1c2.73-2.55,5.48-5.22,8.26-8h-35.15C402.57,389.28,402.98,389.28,402.22,389.28z"/>
			<path class="st5" d="M384.8,473.95c-0.11,0.19-0.21,0.38-0.31,0.58h0.31V473.95z"/>
			<path class="st1" d="M384.49,443.45h28.61c0-2.63,0-5.08,0.01-7.67h-28.61C384.5,438.36,384.5,440.83,384.49,443.45z"/>
			<path class="st1" d="M413.51,404.28h-25.21c-0.44,0.82-0.24,2.08-0.24,3.45c0,1.89-0.25,1.59-0.25,4.55h25.69V404.28z"/>
		</g>
		<rect x="384.49" y="420.28" class="st3" width="12.09" height="8"/>
		<rect x="387.82" y="404.28" class="st1" width="25.69" height="8"/>
		<rect x="417.05" y="373.28" class="st1" width="35.03" height="8"/>
		<rect x="405.02" y="389.28" class="st2" width="33.56" height="8"/>
		<rect x="457.24" y="355.38" class="st3" width="4.55" height="8"/>
		<rect x="436.32" y="339.56" class="st5" width="29.17" height="8"/>
		<rect x="436.69" y="323.74" class="st4" width="11.46" height="8"/>
		<rect x="338.32" y="323.74" class="st4" width="28.48" height="8"/>
		<rect x="345.26" y="309.46" class="st4" width="29.34" height="8"/>
		<rect x="346.29" y="338.01" class="st3" width="11.46" height="8"/>
		<rect x="391.31" y="466.36" class="st4" width="16.59" height="8.17"/>
		<rect x="391.44" y="497.28" class="st2" width="16.32" height="8"/>
		<rect x="431.34" y="309.46" class="st1" width="10.26" height="8"/>
		<rect x="440.2" y="293.74" class="st3" width="10.23" height="8"/>
		<rect x="458.92" y="323.74" class="st2" width="6.77" height="8"/>
		<rect x="454.92" y="309.46" class="st5" width="8.59" height="8"/>
		<rect x="367.53" y="278.72" class="st2" width="70.62" height="7.52"/>
	</g>
	<rect x="403.66" y="482.28" class="st5" width="12.98" height="8"/>
	<rect x="382.62" y="482.28" class="st1" width="15.13" height="8"/>
	<rect x="399.63" y="420.28" class="st2" width="14.01" height="8"/>
	<rect x="427.03" y="355.38" class="st4" width="11.46" height="8"/>
	<rect x="445.42" y="355.38" class="st5" width="16.38" height="8"/>
</g>
</svg>
