<svg id="Lag_1" data-name="Lag 1" xmlns="http://www.w3.org/2000/svg" viewBox="0 0 130.65 231.95"><defs><style>.cls-1{fill:none;}.cls-2{fill:#7ca5b8;}.cls-3{fill:#d7a458;}.cls-4{fill:#a5ba73;}.cls-5{fill:#404f5f;}.cls-6{fill:#cc5b64;}</style></defs><path class="cls-1" d="M77.93,198.53H61.2v-7.86c-4.81.29-8.48,1.84-11,4.68a16,16,0,0,0-2,2.85v.58h-.31A18.11,18.11,0,0,0,46,206.53H80A17.42,17.42,0,0,0,77.93,198.53Z"/><path class="cls-1" d="M55.19,221.93v-.4H71.51a13.25,13.25,0,0,0,4.15-2.92,15.45,15.45,0,0,0,2.8-4.08h-31a15.59,15.59,0,0,0,2.71,4.08A13.25,13.25,0,0,0,55.19,221.93Z"/><path class="cls-1" d="M65.59,114.7q-3.29,3.24-5.7,5.93a40.49,40.49,0,0,0-5.6,7.89H76.88v8H51.19A47.11,47.11,0,0,0,50,143.29c-.48,4.41-.77,10-.87,16.73H76.49c0-2.71.07-5.22.18-7.5H61.21v-8H77.63c.19-.84.39-1.68.63-2.49a31.13,31.13,0,0,1,3.63-7.85,38.9,38.9,0,0,1,3.47-4.57v-1.09h1c.76-.82,1.56-1.64,2.43-2.49,1.63-1.46,3.27-3,4.92-4.51H65.59V114.7Z"/><path class="cls-1" d="M80.42,99.87c-2.94,3.06-5.85,6.07-8.68,9-1.78,1.64-3.42,3.19-4.95,4.67h35.15l1-1q3.36-3.39,6.4-7H80.42Z"/><path class="cls-1" d="M1.69,56.29h27.4c0-.1,0-.2,0-.3H1.71C1.7,56.09,1.69,56.19,1.69,56.29Z"/><path class="cls-1" d="M98.84,74.06c-.8,1.9-1.72,3.75-2.71,5.57h29l.19-.46a52.23,52.23,0,0,0,2.28-7.36H99.69C99.43,72.56,99.15,73.32,98.84,74.06Z"/><path class="cls-1" d="M82.65,97.53h32.79c.14-.2.29-.39.42-.59a88.42,88.42,0,0,0,5.61-9.31H91A109,109,0,0,1,82.65,97.53Z"/><path class="cls-1" d="M30.17,48a22.37,22.37,0,0,1,2-5c.25-.45.52-.89.79-1.32H8.63v-8h32a35.31,35.31,0,0,1,11.49-5.19,54.16,54.16,0,0,1,13.55-1.7q15.58,0,24.69,6.89H98v8h-.55A29.19,29.19,0,0,1,100.07,48h11.46v8h-10c.1,1.29.15,2.63.15,4a37.15,37.15,0,0,1-.2,3.82h27.4c.12-1.55.2-3.12.2-4.71q0-1.57-.06-3.12h-8.72V48h7.94a58.62,58.62,0,0,0-1.33-6.28H109.7v-8H124A48.81,48.81,0,0,0,119.63,26H105.57V18h7l-.23-.21a50.4,50.4,0,0,0-10.8-7.29H30.89v0a56.16,56.16,0,0,0-10.48,6.65c-.39.32-.77.65-1.15,1H95.2v8H18V19.22A51.23,51.23,0,0,0,6.86,33.92,47.13,47.13,0,0,0,2.38,48H30.17Z"/><path class="cls-2" d="M105,33.71H97.36c.68.51,1.34,1,2,1.62a26,26,0,0,1,5.09,6.38H105Z"/><path class="cls-3" d="M36.09,10.49V8.18Q33.4,9.23,30.9,10.46v0Z"/><path class="cls-4" d="M97.13,10.49h4.39A61.69,61.69,0,0,0,92.4,6.75,87.33,87.33,0,0,0,65.67,3,83.77,83.77,0,0,0,40.57,6.6q-2.3.72-4.47,1.58v2.31Z"/><path class="cls-5" d="M111.52,48H100.06a39.07,39.07,0,0,1,1.44,8h10Z"/><path class="cls-5" d="M1.7,56H29.09a30,30,0,0,1,1.08-8H2.39A55.76,55.76,0,0,0,1.7,56Z"/><path class="cls-6" d="M95.21,26.1v-8H18v8Z"/><path class="cls-6" d="M109.69,41.71h17.19a52.33,52.33,0,0,0-2.12-6.3c-.24-.58-.5-1.13-.76-1.7H109.69Z"/><path class="cls-3" d="M116.05,56H129a47,47,0,0,0-1.16-8H116.05Z"/><path class="cls-6" d="M99.69,71.81h27.94a54,54,0,0,0,1.22-8h-27.4A35.07,35.07,0,0,1,99.69,71.81Z"/><path class="cls-6" d="M55.19,221.93a21.16,21.16,0,0,0,7.66,1.27,20.49,20.49,0,0,0,8.66-1.67H55.19Z"/><path class="cls-2" d="M82,98.2l-1.61,1.67v5.66h28.89q3.24-3.87,6.13-8H82.65Z"/><path class="cls-3" d="M65.59,113.53v8h28.1q4.09-3.82,8.26-8H65.59Z"/><path class="cls-6" d="M48.17,198.2c-.11.19-.21.38-.31.58h.31Z"/><path class="cls-2" d="M47.86,167.7H76.47c0-2.63,0-5.08,0-7.67H47.87C47.87,162.61,47.87,165.08,47.86,167.7Z"/><path class="cls-2" d="M76.88,128.53H51.67c-.44.82-.24,2.08-.24,3.45,0,1.89-.25,1.59-.25,4.55H76.87v-8Z"/><rect class="cls-4" x="47.86" y="144.53" width="12.09" height="8"/><rect class="cls-2" x="51.19" y="128.53" width="25.69" height="8"/><rect class="cls-2" x="80.42" y="97.53" width="35.03" height="8"/><rect class="cls-3" x="68.39" y="113.53" width="33.56" height="8"/><rect class="cls-4" x="120.61" y="79.63" width="4.55" height="8"/><rect class="cls-6" x="99.69" y="63.81" width="29.17" height="8"/><rect class="cls-5" x="100.06" y="47.99" width="11.46" height="8"/><rect class="cls-5" x="1.69" y="47.99" width="28.48" height="8"/><rect class="cls-5" x="8.63" y="33.71" width="29.34" height="8"/><rect class="cls-4" x="9.66" y="62.26" width="11.46" height="8"/><rect class="cls-5" x="54.68" y="190.61" width="16.59" height="8.17"/><rect class="cls-3" x="54.81" y="221.53" width="16.32" height="8"/><rect class="cls-2" x="94.71" y="33.71" width="10.26" height="8"/><rect class="cls-4" x="103.57" y="17.99" width="10.23" height="8"/><rect class="cls-3" x="122.29" y="47.99" width="6.77" height="8"/><rect class="cls-6" x="118.29" y="33.71" width="8.59" height="8"/><rect class="cls-3" x="30.9" y="2.97" width="70.62" height="7.52"/><rect class="cls-6" x="67.03" y="206.53" width="12.98" height="8"/><rect class="cls-2" x="45.99" y="206.53" width="15.13" height="8"/><rect class="cls-3" x="63" y="144.53" width="14.01" height="8"/><rect class="cls-5" x="90.4" y="79.63" width="11.46" height="8"/><rect class="cls-6" x="108.79" y="79.63" width="16.38" height="8"/></svg>