<?xml version="1.0" encoding="utf-8"?>
<!-- Generator: Adobe Illustrator 24.1.1, SVG Export Plug-In . SVG Version: 6.00 Build 0)  -->
<svg version="1.1" id="Lag_1" xmlns="http://www.w3.org/2000/svg" xmlns:xlink="http://www.w3.org/1999/xlink" x="0px" y="0px"
	 viewBox="0 0 800 800" style="enable-background:new 0 0 800 800;" xml:space="preserve">
<style type="text/css">
	.st0{fill:#404F5F;}
	.st1{fill:#CC5B64;}
	.st2{fill:#7CA5B8;}
	.st3{fill:#BFBCBA;}
</style>
<g>
	<rect x="486.05" y="521" class="st0" width="24.25" height="8"/>
	<rect x="470.49" y="505.5" class="st0" width="53.61" height="8"/>
	<rect x="456.69" y="490" class="st0" width="59.71" height="8"/>
	<rect x="499.85" y="536.5" class="st0" width="24.25" height="8"/>
	<rect x="484.28" y="521" class="st0" width="50.92" height="8"/>
	<rect x="441.56" y="474.5" class="st0" width="59.71" height="8"/>
	<rect x="426.84" y="459" class="st0" width="59.71" height="8"/>
	<rect x="410.72" y="443.5" class="st0" width="59.71" height="8"/>
	<rect x="395.22" y="428" class="st0" width="59.71" height="8"/>
	<rect x="372.39" y="412.5" class="st0" width="66.38" height="8"/>
	<rect x="386.32" y="397" class="st0" width="36.7" height="8"/>
	<rect x="359.68" y="397" class="st1" width="18.9" height="8"/>
	<rect x="378.57" y="381.5" class="st1" width="15.89" height="8"/>
	<rect x="391.85" y="366" class="st1" width="15.89" height="8"/>
	<rect x="351.77" y="381.75" class="st0" width="13.43" height="7.5"/>
	<rect x="401.02" y="381.75" class="st0" width="13.43" height="7.5"/>
	<rect x="335.84" y="381.63" class="st2" width="12.68" height="7.5"/>
	<rect x="375.3" y="366.25" class="st0" width="7.5" height="7.5"/>
	<rect x="357.68" y="366.25" class="st2" width="13.73" height="7.5"/>
	<rect x="383.54" y="350.25" class="st0" width="10.92" height="7.5"/>
	<rect x="369.34" y="350.13" class="st2" width="11.09" height="7.5"/>
	<rect x="392.94" y="334" class="st0" width="11.47" height="7.5"/>
	<rect x="379.29" y="333.94" class="st2" width="10.58" height="7.5"/>
	
		<rect x="258.54" y="366" transform="matrix(-1 -1.224647e-16 1.224647e-16 -1 532.6166 739.5)" class="st3" width="15.54" height="7.5"/>
	
		<rect x="277.84" y="365.88" transform="matrix(-1 -1.224647e-16 1.224647e-16 -1 570.3491 739.25)" class="st3" width="14.68" height="7.5"/>
	
		<rect x="238.17" y="350.5" transform="matrix(-1 -1.224647e-16 1.224647e-16 -1 485.0108 708.5)" class="st3" width="8.68" height="7.5"/>
	
		<rect x="251.34" y="350.5" transform="matrix(-1 -1.224647e-16 1.224647e-16 -1 518.5772 708.5)" class="st3" width="15.89" height="7.5"/>
	
		<rect x="224.67" y="334.5" transform="matrix(-1 -1.224647e-16 1.224647e-16 -1 461.9765 676.5)" class="st3" width="12.63" height="7.5"/>
	
		<rect x="239.21" y="334.38" transform="matrix(-1 -1.224647e-16 1.224647e-16 -1 492.9491 676.25)" class="st3" width="14.53" height="7.5"/>
	
		<rect x="212.4" y="318.25" transform="matrix(-1 -1.224647e-16 1.224647e-16 -1 438.8325 644)" class="st3" width="14.03" height="7.5"/>
	
		<rect x="229.99" y="318.19" transform="matrix(-1 -1.224647e-16 1.224647e-16 -1 472.2152 643.875)" class="st3" width="12.24" height="7.5"/>
	
		<rect x="205.65" y="381.75" transform="matrix(-1 -1.224647e-16 1.224647e-16 -1 424.8059 771)" class="st0" width="13.51" height="7.5"/>
	
		<rect x="222.25" y="381.75" transform="matrix(-1 -1.224647e-16 1.224647e-16 -1 457.2593 771)" class="st2" width="12.76" height="7.5"/>
	
		<rect x="187.81" y="366" transform="matrix(-1 -1.224647e-16 1.224647e-16 -1 383.1559 739.5)" class="st0" width="7.54" height="7.5"/>
	
		<rect x="199.11" y="366" transform="matrix(-1 -1.224647e-16 1.224647e-16 -1 412.0378 739.5)" class="st2" width="13.81" height="7.5"/>
	
		<rect x="177.89" y="350" transform="matrix(-1 -1.224647e-16 1.224647e-16 -1 366.7484 707.5)" class="st0" width="10.98" height="7.5"/>
	
		<rect x="191.58" y="350" transform="matrix(-1 -1.224647e-16 1.224647e-16 -1 394.6548 707.5)" class="st2" width="11.5" height="7.5"/>
	
		<rect x="168.49" y="334" transform="matrix(-1 -1.224647e-16 1.224647e-16 -1 348.5072 675.5)" class="st0" width="11.54" height="7.5"/>
	
		<rect x="182.97" y="334" transform="matrix(-1 -1.224647e-16 1.224647e-16 -1 376.5738 675.5)" class="st2" width="10.64" height="7.5"/>
	<rect x="397.22" y="317.75" class="st0" width="12.56" height="7.5"/>
	<rect x="384.66" y="317.72" class="st2" width="9.8" height="7.5"/>
	
		<rect x="165.33" y="317.98" transform="matrix(-1 -1.224647e-16 1.224647e-16 -1 343.2105 643.4688)" class="st0" width="12.56" height="7.5"/>
	
		<rect x="180.65" y="318.02" transform="matrix(-1 -1.224647e-16 1.224647e-16 -1 371.0904 643.5313)" class="st2" width="9.8" height="7.5"/>
	<rect x="399.79" y="301.52" class="st0" width="12.56" height="7.5"/>
	<rect x="387.24" y="301.48" class="st2" width="9.8" height="7.5"/>
	<rect x="386.32" y="236.51" class="st0" width="12.56" height="7.5"/>
	<rect x="373.76" y="236.48" class="st2" width="9.8" height="7.5"/>
	<rect x="360.8" y="204.01" class="st0" width="12.56" height="7.5"/>
	<rect x="348.24" y="203.98" class="st2" width="9.8" height="7.5"/>
	<rect x="340.13" y="187.78" class="st0" width="20.9" height="7.5"/>
	<rect x="314.31" y="187.75" class="st2" width="22.04" height="7.5"/>
	
		<rect x="216.62" y="187.73" transform="matrix(-1 -1.224647e-16 1.224647e-16 -1 454.1471 382.9563)" class="st0" width="20.9" height="7.5"/>
	
		<rect x="241.3" y="187.76" transform="matrix(-1 -1.224647e-16 1.224647e-16 -1 504.639 383.0188)" class="st2" width="22.04" height="7.5"/>
	<rect x="375.57" y="220.27" class="st0" width="12.56" height="7.5"/>
	<rect x="363.01" y="220.23" class="st2" width="9.8" height="7.5"/>
	<rect x="394.46" y="252.77" class="st0" width="12.56" height="7.5"/>
	<rect x="381.9" y="252.73" class="st2" width="9.8" height="7.5"/>
	<rect x="398.88" y="269.02" class="st0" width="12.56" height="7.5"/>
	<rect x="386.32" y="268.98" class="st2" width="9.8" height="7.5"/>
	<rect x="399.79" y="285.27" class="st0" width="12.56" height="7.5"/>
	<rect x="387.24" y="285.23" class="st2" width="9.8" height="7.5"/>
	
		<rect x="160.8" y="301.69" transform="matrix(-1 -4.489710e-11 4.489710e-11 -1 334.1604 610.875)" class="st0" width="12.56" height="7.5"/>
	
		<rect x="176.15" y="301.69" transform="matrix(-1 -4.492374e-11 4.492374e-11 -1 362.0912 610.875)" class="st2" width="9.8" height="7.5"/>
	
		<rect x="160.8" y="285.23" transform="matrix(-1 -4.489710e-11 4.489710e-11 -1 334.1604 577.9531)" class="st0" width="12.56" height="7.5"/>
	
		<rect x="176.15" y="285.38" transform="matrix(-1 -4.492374e-11 4.492374e-11 -1 362.0912 578.25)" class="st2" width="9.8" height="7.5"/>
	
		<rect x="185.8" y="220.25" transform="matrix(-1 -4.489710e-11 4.489710e-11 -1 384.1674 448)" class="st0" width="12.56" height="7.5"/>
	
		<rect x="201.12" y="220.22" transform="matrix(-1 -4.492374e-11 4.492374e-11 -1 412.0473 447.9375)" class="st2" width="9.8" height="7.5"/>
	
		<rect x="202.56" y="204.01" transform="matrix(-1 -4.489710e-11 4.489710e-11 -1 417.6712 415.5156)" class="st0" width="12.56" height="7.5"/>
	
		<rect x="217.88" y="203.98" transform="matrix(-1 -4.492374e-11 4.492374e-11 -1 445.5511 415.4531)" class="st2" width="9.8" height="7.5"/>
	
		<rect x="173.36" y="236.51" transform="matrix(-1 -4.489710e-11 4.489710e-11 -1 359.2795 480.5156)" class="st0" width="12.56" height="7.5"/>
	
		<rect x="188.68" y="236.48" transform="matrix(-1 -4.492374e-11 4.492374e-11 -1 387.1593 480.4531)" class="st2" width="9.8" height="7.5"/>
	
		<rect x="166.53" y="252.76" transform="matrix(-1 -4.489710e-11 4.489710e-11 -1 345.6118 513.0156)" class="st0" width="12.56" height="7.5"/>
	
		<rect x="181.93" y="252.73" transform="matrix(-1 -4.492374e-11 4.492374e-11 -1 373.6504 512.9531)" class="st2" width="9.8" height="7.5"/>
	
		<rect x="162.21" y="269.13" transform="matrix(-1 -4.489710e-11 4.489710e-11 -1 336.9721 545.75)" class="st0" width="12.56" height="7.5"/>
	
		<rect x="177.89" y="269.13" transform="matrix(-1 -4.492374e-11 4.492374e-11 -1 365.5688 545.75)" class="st2" width="9.8" height="7.5"/>
	<rect x="241.52" y="171.5" class="st0" width="87.32" height="7.5"/>
	<rect x="215.56" y="397" class="st0" width="19.39" height="7.5"/>
	<rect x="238.46" y="397" class="st2" width="20.44" height="7.5"/>
	
		<rect x="330.13" y="397" transform="matrix(-1 -1.224647e-16 1.224647e-16 -1 679.6501 801.5)" class="st0" width="19.39" height="7.5"/>
	
		<rect x="306.18" y="397" transform="matrix(-1 -1.224647e-16 1.224647e-16 -1 632.8127 801.5)" class="st2" width="20.44" height="7.5"/>
	<rect x="249.13" y="413.25" class="st0" width="64.71" height="7.5"/>
	<rect x="249.13" y="413.25" class="st0" width="69.76" height="7.5"/>
	<rect x="249.13" y="413.25" class="st0" width="29.14" height="7.5"/>
</g>
</svg>
