<svg id="Lag_1" data-name="Lag 1" xmlns="http://www.w3.org/2000/svg" viewBox="0 0 374.4 373"><defs><style>.cls-1{fill:#404f5f;}.cls-2{fill:#cc5b64;}.cls-3{fill:#7ca5b8;}.cls-4{fill:#bfbcba;}</style></defs><rect class="cls-1" x="325.25" y="349.5" width="24.25" height="8"/><rect class="cls-1" x="309.69" y="334" width="53.61" height="8"/><rect class="cls-1" x="295.89" y="318.5" width="59.71" height="8"/><rect class="cls-1" x="339.05" y="365" width="24.25" height="8"/><rect class="cls-1" x="323.48" y="349.5" width="50.92" height="8"/><rect class="cls-1" x="280.76" y="303" width="59.71" height="8"/><rect class="cls-1" x="266.04" y="287.5" width="59.71" height="8"/><rect class="cls-1" x="249.92" y="272" width="59.71" height="8"/><rect class="cls-1" x="234.42" y="256.5" width="59.71" height="8"/><rect class="cls-1" x="211.59" y="241" width="66.38" height="8"/><rect class="cls-1" x="225.52" y="225.5" width="36.7" height="8"/><rect class="cls-2" x="198.88" y="225.5" width="18.9" height="8"/><rect class="cls-2" x="217.77" y="210" width="15.89" height="8"/><rect class="cls-2" x="231.05" y="194.5" width="15.89" height="8"/><rect class="cls-1" x="190.97" y="210.25" width="13.43" height="7.5"/><rect class="cls-1" x="240.22" y="210.25" width="13.43" height="7.5"/><rect class="cls-3" x="175.04" y="210.13" width="12.68" height="7.5"/><rect class="cls-1" x="214.5" y="194.75" width="7.5" height="7.5"/><rect class="cls-3" x="196.88" y="194.75" width="13.73" height="7.5"/><rect class="cls-1" x="222.74" y="178.75" width="10.92" height="7.5"/><rect class="cls-3" x="208.54" y="178.63" width="11.09" height="7.5"/><rect class="cls-1" x="232.14" y="162.5" width="11.47" height="7.5"/><rect class="cls-3" x="218.49" y="162.44" width="10.58" height="7.5"/><rect class="cls-4" x="97.74" y="194.5" width="15.54" height="7.5"/><rect class="cls-4" x="117.03" y="194.37" width="14.68" height="7.5"/><rect class="cls-4" x="77.36" y="179" width="8.68" height="7.5"/><rect class="cls-4" x="90.55" y="179" width="15.89" height="7.5"/><rect class="cls-4" x="63.88" y="163" width="12.63" height="7.5"/><rect class="cls-4" x="78.41" y="162.87" width="14.53" height="7.5"/><rect class="cls-4" x="51.6" y="146.75" width="14.03" height="7.5"/><rect class="cls-4" x="69.18" y="146.68" width="12.24" height="7.5"/><rect class="cls-1" x="44.85" y="210.25" width="13.51" height="7.5"/><rect class="cls-3" x="61.45" y="210.25" width="12.76" height="7.5"/><rect class="cls-1" x="27.01" y="194.5" width="7.54" height="7.5"/><rect class="cls-3" x="38.32" y="194.5" width="13.81" height="7.5"/><rect class="cls-1" x="17.08" y="178.5" width="10.98" height="7.5"/><rect class="cls-3" x="30.77" y="178.5" width="11.5" height="7.5"/><rect class="cls-1" x="7.68" y="162.5" width="11.54" height="7.5"/><rect class="cls-3" x="22.16" y="162.5" width="10.64" height="7.5"/><rect class="cls-1" x="236.42" y="146.25" width="12.56" height="7.5"/><rect class="cls-3" x="223.86" y="146.22" width="9.8" height="7.5"/><rect class="cls-1" x="4.52" y="146.49" width="12.56" height="7.5"/><rect class="cls-3" x="19.84" y="146.51" width="9.8" height="7.5"/><rect class="cls-1" x="238.99" y="130.02" width="12.56" height="7.5"/><rect class="cls-3" x="226.44" y="129.98" width="9.8" height="7.5"/><rect class="cls-1" x="225.52" y="65.01" width="12.56" height="7.5"/><rect class="cls-3" x="212.96" y="64.98" width="9.8" height="7.5"/><rect class="cls-1" x="200" y="32.51" width="12.56" height="7.5"/><rect class="cls-3" x="187.44" y="32.48" width="9.8" height="7.5"/><rect class="cls-1" x="179.33" y="16.28" width="20.9" height="7.5"/><rect class="cls-3" x="153.51" y="16.25" width="22.04" height="7.5"/><rect class="cls-1" x="55.83" y="16.23" width="20.9" height="7.5"/><rect class="cls-3" x="80.5" y="16.26" width="22.04" height="7.5"/><rect class="cls-1" x="214.77" y="48.77" width="12.56" height="7.5"/><rect class="cls-3" x="202.21" y="48.73" width="9.8" height="7.5"/><rect class="cls-1" x="233.66" y="81.27" width="12.56" height="7.5"/><rect class="cls-3" x="221.1" y="81.23" width="9.8" height="7.5"/><rect class="cls-1" x="238.08" y="97.52" width="12.56" height="7.5"/><rect class="cls-3" x="225.52" y="97.48" width="9.8" height="7.5"/><rect class="cls-1" x="238.99" y="113.77" width="12.56" height="7.5"/><rect class="cls-3" x="226.44" y="113.73" width="9.8" height="7.5"/><rect class="cls-1" y="130.18" width="12.56" height="7.5"/><rect class="cls-3" x="15.34" y="130.18" width="9.8" height="7.5"/><rect class="cls-1" y="113.72" width="12.56" height="7.5"/><rect class="cls-3" x="15.34" y="113.87" width="9.8" height="7.5"/><rect class="cls-1" x="25.01" y="48.75" width="12.56" height="7.5"/><rect class="cls-3" x="40.33" y="48.72" width="9.8" height="7.5"/><rect class="cls-1" x="41.75" y="32.51" width="12.56" height="7.5"/><rect class="cls-3" x="57.07" y="32.47" width="9.8" height="7.5"/><rect class="cls-1" x="12.56" y="65.01" width="12.56" height="7.5"/><rect class="cls-3" x="27.88" y="64.97" width="9.8" height="7.5"/><rect class="cls-1" x="5.72" y="81.26" width="12.56" height="7.5"/><rect class="cls-3" x="21.12" y="81.22" width="9.8" height="7.5"/><rect class="cls-1" x="1.4" y="97.62" width="12.56" height="7.5"/><rect class="cls-3" x="17.08" y="97.62" width="9.8" height="7.5"/><rect class="cls-1" x="80.72" width="87.32" height="7.5"/><rect class="cls-1" x="54.76" y="225.5" width="19.39" height="7.5"/><rect class="cls-3" x="77.66" y="225.5" width="20.44" height="7.5"/><rect class="cls-1" x="169.33" y="225.5" width="19.39" height="7.5"/><rect class="cls-3" x="145.39" y="225.5" width="20.44" height="7.5"/><rect class="cls-1" x="88.33" y="241.75" width="64.71" height="7.5"/><rect class="cls-1" x="88.33" y="241.75" width="69.76" height="7.5"/><rect class="cls-1" x="88.33" y="241.75" width="29.14" height="7.5"/></svg>