<?xml version="1.0" encoding="utf-8"?>
<!-- Generator: Adobe Illustrator 24.1.1, SVG Export Plug-In . SVG Version: 6.00 Build 0)  -->
<svg version="1.1" id="Lag_1" xmlns="http://www.w3.org/2000/svg" xmlns:xlink="http://www.w3.org/1999/xlink" x="0px" y="0px"
	 viewBox="0 0 800 800" style="enable-background:new 0 0 800 800;" xml:space="preserve">
<style type="text/css">
	.st0{fill:#D7A458;}
	.st1{fill:#7CA5B8;}
	.st2{fill:#CC5B64;}
	.st3{fill:#404F5F;}
	.st4{fill:#A5BA73;}
	.st5{fill:#BFBCBA;}
	.st6{fill:none;stroke:#FF0000;stroke-width:0.7087;stroke-miterlimit:10;}
</style>
<g>
	<rect x="510.35" y="359.71" class="st0" width="49.44" height="8"/>
	<rect x="481.43" y="375.53" class="st1" width="57.84" height="8"/>
	<rect x="437.89" y="343.98" class="st0" width="53.55" height="8"/>
	<rect x="394.02" y="501.91" class="st0" width="91.52" height="8"/>
	<rect x="481.43" y="391.36" class="st2" width="53.35" height="8"/>
	<rect x="481.43" y="407.18" class="st0" width="49.48" height="8"/>
	<rect x="481.43" y="438.56" class="st1" width="31.23" height="8"/>
	<rect x="481.43" y="454.38" class="st2" width="24.95" height="8"/>
	<rect x="481.43" y="470.2" class="st0" width="18.1" height="8"/>
	<rect x="276.89" y="422.91" class="st0" width="42.42" height="8"/>
	<rect x="222.49" y="517.76" class="st0" width="32.88" height="8"/>
	<rect x="325" y="422.9" class="st0" width="40.56" height="8"/>
	<rect x="372.24" y="422.91" class="st0" width="40.56" height="8"/>
	<rect x="419.29" y="422.9" class="st3" width="101.95" height="8"/>
	<rect x="331.94" y="517.76" class="st0" width="23.82" height="8"/>
	<rect x="394.36" y="375.6" class="st1" width="21.96" height="8"/>
	<rect x="394.36" y="391.1" class="st1" width="21.96" height="8"/>
	<rect x="394.36" y="406.64" class="st1" width="21.96" height="8"/>
	<rect x="437.89" y="391.31" class="st3" width="21.96" height="8"/>
	<rect x="437.89" y="407.18" class="st3" width="21.96" height="8"/>
	<rect x="437.89" y="375.58" class="st4" width="21.96" height="8"/>
	<rect x="394.36" y="454.31" class="st3" width="21.96" height="8"/>
	<rect x="394.36" y="470.18" class="st3" width="21.96" height="8"/>
	<rect x="394.36" y="438.58" class="st4" width="21.96" height="8"/>
	<rect x="437.89" y="454.25" class="st3" width="21.96" height="8"/>
	<rect x="437.89" y="470.11" class="st3" width="21.96" height="8"/>
	<rect x="437.89" y="438.51" class="st4" width="21.96" height="8"/>
	<rect x="462.39" y="359.77" class="st4" width="42.91" height="8"/>
	<rect x="437.89" y="328.07" class="st3" width="91.54" height="8"/>
	<rect x="350.06" y="406.92" class="st2" width="21.96" height="8"/>
	<rect x="350.06" y="391.1" class="st4" width="21.96" height="8"/>
	<rect x="350.06" y="375.37" class="st5" width="21.96" height="8"/>
	<rect x="350.06" y="470.2" class="st2" width="21.96" height="8"/>
	<rect x="350.06" y="454.38" class="st4" width="21.96" height="8"/>
	<rect x="350.06" y="438.65" class="st5" width="21.96" height="8"/>
	<rect x="349.45" y="486.07" class="st5" width="21.96" height="8"/>
	<rect x="437.89" y="486.07" class="st5" width="21.96" height="8"/>
	<rect x="394.36" y="486.07" class="st5" width="21.96" height="8"/>
	<rect x="481.43" y="486.07" class="st5" width="10.98" height="8"/>
	<rect x="364.35" y="328.16" class="st4" width="32.99" height="8"/>
	<rect x="402.42" y="328.16" class="st3" width="28.57" height="8"/>
	<rect x="306.68" y="407.07" class="st4" width="21.96" height="8"/>
	<rect x="306.68" y="391.25" class="st3" width="21.96" height="8"/>
	<rect x="306.68" y="375.51" class="st4" width="21.96" height="8"/>
	<rect x="262.68" y="407.02" class="st4" width="21.96" height="8"/>
	<rect x="262.68" y="517.76" class="st4" width="21.96" height="8"/>
	<rect x="262.68" y="391.2" class="st0" width="21.96" height="8"/>
	<rect x="262.68" y="375.47" class="st3" width="21.96" height="8"/>
	<rect x="280.47" y="343.98" class="st4" width="85.09" height="8"/>
	<rect x="306.8" y="486.07" class="st4" width="21.96" height="8"/>
	<rect x="306.8" y="470.25" class="st0" width="21.96" height="8"/>
	<rect x="306.8" y="454.42" class="st2" width="21.96" height="8"/>
	<rect x="306.8" y="438.69" class="st4" width="21.96" height="8"/>
	<rect x="262.68" y="486.07" class="st1" width="21.96" height="8"/>
	<rect x="262.68" y="470.25" class="st3" width="21.96" height="8"/>
	<rect x="262.68" y="454.42" class="st4" width="21.96" height="8"/>
	<rect x="262.68" y="438.69" class="st2" width="21.96" height="8"/>
	<rect x="212.5" y="486.07" class="st3" width="28.45" height="8"/>
	<rect x="208.03" y="470.25" class="st4" width="32.92" height="8"/>
	<rect x="204.03" y="454.42" class="st1" width="36.93" height="8"/>
	<rect x="199.92" y="438.69" class="st4" width="41.04" height="8"/>
	<rect x="229.57" y="407.14" class="st3" width="11.39" height="8"/>
	<rect x="191.86" y="407.14" class="st4" width="32.63" height="8"/>
	<rect x="293.76" y="517.76" class="st4" width="32.63" height="8"/>
	<rect x="360.43" y="517.76" class="st4" width="32.63" height="8"/>
	<rect x="355.92" y="501.91" class="st4" width="32.63" height="8"/>
	<rect x="195.34" y="422.91" class="st5" width="76.46" height="8"/>
	<rect x="220.44" y="391.31" class="st1" width="20.52" height="8"/>
	<rect x="188.01" y="391.33" class="st3" width="29.12" height="8"/>
	<rect x="216.21" y="375.49" class="st4" width="24.75" height="8"/>
	<rect x="157.27" y="343.98" class="st4" width="27.56" height="8"/>
	<rect x="183.04" y="375.53" class="st2" width="27.3" height="8"/>
	<rect x="161.54" y="359.76" class="st0" width="42.49" height="8"/>
	<g>
		<rect x="212" y="359.71" class="st4" width="42.49" height="8"/>
		<rect x="250.55" y="359.71" class="st4" width="42.49" height="8"/>
	</g>
	<g>
		<rect x="302.44" y="359.76" class="st2" width="31.35" height="8"/>
		<rect x="399.29" y="517.76" class="st2" width="31.35" height="8"/>
		<rect x="330.89" y="359.76" class="st2" width="31.35" height="8"/>
		<rect x="426.5" y="517.76" class="st2" width="49.61" height="8"/>
	</g>
	<rect x="373.31" y="343.98" class="st3" width="55.37" height="8"/>
	<rect x="190.58" y="343.98" class="st2" width="81.23" height="8"/>
	<rect x="157.27" y="328.16" class="st3" width="33.3" height="8"/>
	<rect x="195.6" y="328.16" class="st4" width="63.03" height="8"/>
	<rect x="264.41" y="328.16" class="st2" width="93.12" height="8"/>
	<rect x="392.52" y="312.33" class="st4" width="29.8" height="8"/>
	<rect x="371.41" y="359.77" class="st4" width="82.1" height="8"/>
	<rect x="287.8" y="312.33" class="st3" width="29.8" height="8"/>
	<rect x="387.44" y="296.69" class="st5" width="29.8" height="8"/>
	<rect x="292.54" y="296.69" class="st2" width="29.8" height="8"/>
	<rect x="382.52" y="281.04" class="st3" width="29.8" height="8"/>
	<rect x="299.25" y="281.04" class="st4" width="29.8" height="8"/>
	<rect x="376.41" y="265.4" class="st2" width="29.8" height="8"/>
	<rect x="370.94" y="249.64" class="st4" width="29.8" height="8"/>
	<rect x="365.33" y="234" class="st3" width="29.8" height="8"/>
	<rect x="360.29" y="218.24" class="st2" width="29.8" height="8"/>
	<rect x="304.91" y="265.4" class="st2" width="29.8" height="8"/>
	<rect x="310.45" y="249.64" class="st4" width="29.8" height="8"/>
	<rect x="315.77" y="234" class="st2" width="29.8" height="8"/>
	<rect x="321.01" y="218.35" class="st4" width="29.8" height="8"/>
	<rect x="215.87" y="502.24" class="st2" width="57.79" height="8"/>
	<rect x="277.9" y="501.91" class="st0" width="72.35" height="8"/>
	<rect x="497.69" y="343.89" class="st0" width="67.03" height="8"/>
	<rect x="534.78" y="328.25" class="st2" width="29.95" height="8"/>
	<path class="st6" d="M359.7,224.58"/>
	<path class="st6" d="M394.02,337.22"/>
	<path class="st6" d="M389.07,220.29"/>
	<path class="st6" d="M423.38,332.93"/>
	<path class="st6" d="M351.09,225.44"/>
	<path class="st6" d="M309.21,328.61"/>
	<path class="st6" d="M322.34,220.29"/>
	<path class="st6" d="M280.47,323.46"/>
</g>
</svg>
