<svg id="Lag_1" data-name="Lag 1" xmlns="http://www.w3.org/2000/svg" viewBox="0 0 417 315.95"><defs><style>.cls-1{fill:#d7a458;}.cls-2{fill:#7ca5b8;}.cls-3{fill:#cc5b64;}.cls-4{fill:#404f5f;}.cls-5{fill:#a5ba73;}.cls-6{fill:#bfbcba;}</style></defs><rect class="cls-1" x="358.35" y="145.71" width="49.44" height="8"/><rect class="cls-2" x="329.43" y="161.53" width="57.84" height="8"/><rect class="cls-1" x="285.89" y="129.98" width="53.55" height="8"/><rect class="cls-1" x="242.02" y="287.91" width="91.52" height="8"/><rect class="cls-3" x="329.43" y="177.36" width="53.35" height="8"/><rect class="cls-1" x="329.43" y="193.18" width="49.48" height="8"/><rect class="cls-2" x="329.43" y="224.56" width="31.23" height="8"/><rect class="cls-3" x="329.43" y="240.38" width="24.95" height="8"/><rect class="cls-1" x="329.43" y="256.2" width="18.1" height="8"/><rect class="cls-1" x="124.89" y="208.91" width="42.42" height="8"/><rect class="cls-1" x="70.49" y="303.76" width="32.88" height="8"/><rect class="cls-1" x="173" y="208.9" width="40.56" height="8"/><rect class="cls-1" x="220.24" y="208.91" width="40.56" height="8"/><rect class="cls-4" x="267.29" y="208.9" width="101.95" height="8"/><rect class="cls-1" x="179.94" y="303.76" width="23.82" height="8"/><rect class="cls-2" x="242.36" y="161.6" width="21.96" height="8"/><rect class="cls-2" x="242.36" y="177.1" width="21.96" height="8"/><rect class="cls-2" x="242.36" y="192.64" width="21.96" height="8"/><rect class="cls-4" x="285.89" y="177.31" width="21.96" height="8"/><rect class="cls-4" x="285.89" y="193.18" width="21.96" height="8"/><rect class="cls-5" x="285.89" y="161.58" width="21.96" height="8"/><rect class="cls-4" x="242.36" y="240.31" width="21.96" height="8"/><rect class="cls-4" x="242.36" y="256.18" width="21.96" height="8"/><rect class="cls-5" x="242.36" y="224.58" width="21.96" height="8"/><rect class="cls-4" x="285.89" y="240.25" width="21.96" height="8"/><rect class="cls-4" x="285.89" y="256.11" width="21.96" height="8"/><rect class="cls-5" x="285.89" y="224.51" width="21.96" height="8"/><rect class="cls-5" x="310.39" y="145.77" width="42.91" height="8"/><rect class="cls-4" x="285.89" y="114.07" width="91.54" height="8"/><rect class="cls-3" x="198.06" y="192.92" width="21.96" height="8"/><rect class="cls-5" x="198.06" y="177.1" width="21.96" height="8"/><rect class="cls-6" x="198.06" y="161.37" width="21.96" height="8"/><rect class="cls-3" x="198.06" y="256.2" width="21.96" height="8"/><rect class="cls-5" x="198.06" y="240.38" width="21.96" height="8"/><rect class="cls-6" x="198.06" y="224.65" width="21.96" height="8"/><rect class="cls-6" x="197.45" y="272.07" width="21.96" height="8"/><rect class="cls-6" x="285.89" y="272.07" width="21.96" height="8"/><rect class="cls-6" x="242.36" y="272.07" width="21.96" height="8"/><rect class="cls-6" x="329.43" y="272.07" width="10.98" height="8"/><rect class="cls-5" x="212.35" y="114.16" width="32.99" height="8"/><rect class="cls-4" x="250.42" y="114.16" width="28.57" height="8"/><rect class="cls-5" x="154.68" y="193.07" width="21.96" height="8"/><rect class="cls-4" x="154.68" y="177.25" width="21.96" height="8"/><rect class="cls-5" x="154.68" y="161.51" width="21.96" height="8"/><rect class="cls-5" x="110.68" y="193.02" width="21.96" height="8"/><rect class="cls-5" x="110.68" y="303.76" width="21.96" height="8"/><rect class="cls-1" x="110.68" y="177.2" width="21.96" height="8"/><rect class="cls-4" x="110.68" y="161.47" width="21.96" height="8"/><rect class="cls-5" x="128.47" y="129.98" width="85.09" height="8"/><rect class="cls-5" x="154.8" y="272.07" width="21.96" height="8"/><rect class="cls-1" x="154.8" y="256.25" width="21.96" height="8"/><rect class="cls-3" x="154.8" y="240.42" width="21.96" height="8"/><rect class="cls-5" x="154.8" y="224.69" width="21.96" height="8"/><rect class="cls-2" x="110.68" y="272.07" width="21.96" height="8"/><rect class="cls-4" x="110.68" y="256.25" width="21.96" height="8"/><rect class="cls-5" x="110.68" y="240.42" width="21.96" height="8"/><rect class="cls-3" x="110.68" y="224.69" width="21.96" height="8"/><rect class="cls-4" x="60.5" y="272.07" width="28.45" height="8"/><rect class="cls-5" x="56.03" y="256.25" width="32.92" height="8"/><rect class="cls-2" x="52.03" y="240.42" width="36.93" height="8"/><rect class="cls-5" x="47.92" y="224.69" width="41.04" height="8"/><rect class="cls-4" x="77.57" y="193.14" width="11.39" height="8"/><rect class="cls-5" x="39.86" y="193.14" width="32.63" height="8"/><rect class="cls-5" x="141.76" y="303.76" width="32.63" height="8"/><rect class="cls-5" x="208.43" y="303.76" width="32.63" height="8"/><rect class="cls-5" x="203.92" y="287.91" width="32.63" height="8"/><rect class="cls-6" x="43.34" y="208.91" width="76.46" height="8"/><rect class="cls-2" x="68.44" y="177.31" width="20.52" height="8"/><rect class="cls-4" x="36.01" y="177.33" width="29.12" height="8"/><rect class="cls-5" x="64.21" y="161.49" width="24.75" height="8"/><rect class="cls-5" x="5.27" y="129.98" width="27.56" height="8"/><rect class="cls-3" x="31.04" y="161.53" width="27.3" height="8"/><rect class="cls-1" x="9.54" y="145.76" width="42.49" height="8"/><rect class="cls-5" x="60" y="145.71" width="42.49" height="8"/><rect class="cls-5" x="98.55" y="145.71" width="42.49" height="8"/><rect class="cls-3" x="150.44" y="145.76" width="31.35" height="8"/><rect class="cls-3" x="247.29" y="303.76" width="31.35" height="8"/><rect class="cls-3" x="178.89" y="145.76" width="31.35" height="8"/><rect class="cls-3" x="274.5" y="303.76" width="49.61" height="8"/><rect class="cls-4" x="221.31" y="129.98" width="55.37" height="8"/><rect class="cls-3" x="38.58" y="129.98" width="81.23" height="8"/><rect class="cls-4" x="5.27" y="114.16" width="33.3" height="8"/><rect class="cls-5" x="43.6" y="114.16" width="63.03" height="8"/><rect class="cls-3" x="112.41" y="114.16" width="93.12" height="8"/><rect class="cls-5" x="240.52" y="98.33" width="29.8" height="8"/><rect class="cls-5" x="219.41" y="145.77" width="82.1" height="8"/><rect class="cls-4" x="135.8" y="98.33" width="29.8" height="8"/><rect class="cls-6" x="235.44" y="82.69" width="29.8" height="8"/><rect class="cls-3" x="140.54" y="82.69" width="29.8" height="8"/><rect class="cls-4" x="230.52" y="67.04" width="29.8" height="8"/><rect class="cls-5" x="147.25" y="67.04" width="29.8" height="8"/><rect class="cls-3" x="224.41" y="51.4" width="29.8" height="8"/><rect class="cls-5" x="218.94" y="35.64" width="29.8" height="8"/><rect class="cls-4" x="213.33" y="20" width="29.8" height="8"/><rect class="cls-3" x="208.29" y="4.24" width="29.8" height="8"/><rect class="cls-3" x="152.91" y="51.4" width="29.8" height="8"/><rect class="cls-5" x="158.45" y="35.64" width="29.8" height="8"/><rect class="cls-3" x="163.77" y="20" width="29.8" height="8"/><rect class="cls-5" x="169.01" y="4.35" width="29.8" height="8"/><rect class="cls-3" x="63.87" y="288.24" width="57.79" height="8"/><rect class="cls-1" x="125.9" y="287.91" width="72.35" height="8"/><rect class="cls-1" x="345.69" y="129.89" width="67.03" height="8"/><rect class="cls-3" x="382.78" y="114.25" width="29.95" height="8"/></svg>