<?xml version="1.0" encoding="utf-8"?>
<!-- Generator: Adobe Illustrator 24.1.1, SVG Export Plug-In . SVG Version: 6.00 Build 0)  -->
<svg version="1.1" id="Lag_1" xmlns="http://www.w3.org/2000/svg" xmlns:xlink="http://www.w3.org/1999/xlink" x="0px" y="0px"
	 viewBox="0 0 1643 898" style="enable-background:new 0 0 1643 898;" xml:space="preserve">
<style type="text/css">
	.st0{fill:#F4F3F3;}
	.st1{fill:#404F5F;}
	.st2{font-family:'RobotoMono-Bold';}
	.st3{font-size:48.189px;}
	.st4{fill:none;stroke:#A2A1A1;stroke-miterlimit:10;}
	.st5{fill:#A5BA75;stroke:#A5BA75;stroke-width:2;stroke-miterlimit:10;}
	.st6{fill:none;stroke:#A5BA75;stroke-width:2;stroke-miterlimit:10;}
	.st7{fill:#FFFFFF;}
	.st8{display:none;}
	.st9{display:inline;fill:none;stroke:#000000;stroke-width:0.25;stroke-miterlimit:10;}
	.st10{fill:#6696AC;}
	.st11{fill:#E6E6E6;}
	.st12{fill:#515F6D;}
	.st13{fill:#D36D75;}
	.st14{fill:#D8A55B;}
	.st15{fill:#A6BB75;}
	.st16{fill:#D7734B;}
	.st17{fill:#AA81AC;}
	.st18{font-family:'RobotoMono-Regular';}
	.st19{font-size:17.0079px;}
	.st20{font-size:19.8425px;}
	.st21{letter-spacing:24;}
	.st22{fill:#207DD1;}
	.st23{letter-spacing:-10;}
	.st24{fill:#404F5F;stroke:#000000;stroke-width:0.8;stroke-miterlimit:10;}
</style>
<g id="Lag_1_2_">
	<rect x="806" y="446" class="st0" width="85" height="8"/>
	<rect x="1316.4" y="60.2" class="st0" width="117" height="8"/>
	<rect x="1378.4" y="76.2" class="st0" width="37" height="8"/>
	<rect x="1453" y="821" class="st0" width="117" height="8"/>
	<rect x="1515" y="837" class="st0" width="37" height="8"/>
	<rect x="1511.5" y="279.3" class="st0" width="117" height="8"/>
	<rect x="1560.5" y="299.3" class="st0" width="37" height="8"/>
	<rect x="66.4" y="859" class="st0" width="117" height="8"/>
	<rect x="62" y="841" class="st0" width="37" height="8"/>
	<line class="st0" x1="22" y1="516.1" x2="22" y2="508.1"/>
	<line class="st0" x1="84" y1="532.1" x2="84" y2="524.1"/>
	<rect x="540.4" y="119.5" class="st0" width="86.1" height="8"/>
	<rect x="533.2" y="104.5" class="st0" width="84" height="8"/>
	<rect x="1178.6" y="799.9" class="st0" width="220" height="8"/>
	<rect x="1290.9" y="673.6" class="st0" width="84" height="8"/>
	<rect x="797" y="477" class="st0" width="40" height="8"/>
	<rect x="851" y="477" class="st0" width="25" height="8"/>
	<rect x="821" y="461" class="st0" width="54" height="8"/>
	<rect x="992" y="859" class="st0" width="85" height="8"/>
	<rect x="983" y="890" class="st0" width="40" height="8"/>
	<rect x="1037" y="890" class="st0" width="25" height="8"/>
	<rect x="1007" y="874" class="st0" width="54" height="8"/>
	<rect x="221" y="4" class="st0" width="85" height="8"/>
	<rect x="212" y="35" class="st0" width="40" height="8"/>
	<rect x="266" y="35" class="st0" width="25" height="8"/>
	<rect x="236" y="19" class="st0" width="54" height="8"/>
	<rect x="14" y="199" class="st0" width="85" height="8"/>
	<rect x="5" y="230" class="st0" width="40" height="8"/>
	<rect x="59" y="230" class="st0" width="25" height="8"/>
	<rect x="29" y="214" class="st0" width="54" height="8"/>
	<rect x="985" y="97" class="st0" width="85" height="8"/>
	<rect x="976" y="128" class="st0" width="40" height="8"/>
	<rect x="1030" y="128" class="st0" width="25" height="8"/>
	<rect x="1000" y="112" class="st0" width="54" height="8"/>
	<text transform="matrix(1 0 0 1 117 813.5048)" class="st1 st2 st3">}</text>
	<g id="Lag_1_1_">
		<line class="st4" x1="1183.7" y1="61.3" x2="1249.7" y2="61.3"/>
		<circle class="st5" cx="428.7" cy="61.8" r="19"/>
		<circle class="st6" cx="533.7" cy="61.8" r="19"/>
		<circle class="st6" cx="638.7" cy="61.8" r="19"/>
		<circle class="st6" cx="848.7" cy="61.8" r="19"/>
		<circle class="st6" cx="953.7" cy="61.8" r="19"/>
		<circle class="st6" cx="1058.7" cy="61.8" r="19"/>
		<circle class="st6" cx="1163.7" cy="61.8" r="19"/>
		<circle class="st6" cx="1268.7" cy="61.8" r="19"/>
		<circle class="st6" cx="743.7" cy="61.8" r="19"/>
		<path id="Check" class="st7" d="M441.7,54.5l-3.2-3.7l-12.7,14.8l-6.3-7.5l-3,3.4l6.3,7.5l0,0l1.6,1.9l1.5,1.7l0,0l0.1,0.2
			L441.7,54.5z"/>
		<path class="st5" d="M552.9,61.4c0,10.5-8.5,19-19,19s-19-8.5-19-19s8.5-19,19-19S552.9,51,552.9,61.4"/>
		<path id="Check-2" class="st7" d="M546.9,54.2l-3.2-3.8L531,65.2l-6.3-7.5l-3,3.4l6.3,7.6l0,0l1.6,1.9l1.5,1.7l0,0l0.1,0.2
			L546.9,54.2"/>
		<circle class="st5" cx="638.7" cy="61.8" r="19"/>
		<path id="Check-3" class="st7" d="M651.7,54.5l-3.2-3.7l-12.7,14.8l-6.3-7.5l-3,3.4l6.3,7.5l0,0l1.6,1.9l1.5,1.7l0,0l0.1,0.2
			L651.7,54.5z"/>
		<path class="st5" d="M763.1,62c0,10.5-8.5,19-19,19s-19-8.5-19-19s8.5-19,19-19S763.1,51.5,763.1,62"/>
		<path id="Check-4" class="st7" d="M757.1,54.8l-3.2-3.8l-12.7,14.8l-6.3-7.5l-3,3.4l6.3,7.6l0,0l1.6,1.9l1.5,1.7l0,0l0.2,0.2
			L757.1,54.8z"/>
		<path class="st5" d="M867.3,61.6c0,10.5-8.5,19-19,19s-19-8.5-19-19s8.5-19,19-19S867.3,51.1,867.3,61.6"/>
		<path id="Check-5" class="st7" d="M861.3,54.4l-3.2-3.7l-12.7,14.8l-6.3-7.5l-3,3.4l6.3,7.6l0,0l1.6,1.9l1.5,1.7l0,0l0.2,0.2
			L861.3,54.4z"/>
		<path class="st5" d="M972.5,61.4c0,10.5-8.5,19-19,19s-19-8.5-19-19s8.5-19,19-19S972.5,50.9,972.5,61.4"/>
		<path id="Check-6" class="st7" d="M966.5,54.1l-3.2-3.7l-12.7,14.7l-6.3-7.5l-3,3.4l6.3,7.5l0,0l1.6,1.9l1.5,1.7l0,0l0.2,0.2
			L966.5,54.1z"/>
		<path class="st5" d="M1078,61.9c0,10.5-8.5,19-19,19s-19-8.5-19-19s8.5-19,19-19S1078,51.4,1078,61.9"/>
		<path id="Check-7" class="st7" d="M1072,54.6l-3.2-3.8l-12.7,14.8l-6.3-7.5l-3,3.4l6.3,7.6l0,0l1.5,1.9l1.4,1.7l0,0l0.2,0.2
			L1072,54.6z"/>
		<path class="st5" d="M1183.1,62.1c0,10.5-8.5,19-19,19s-19-8.5-19-19s8.5-19,19-19S1183.1,51.6,1183.1,62.1"/>
		<path id="Check-8" class="st7" d="M1177.1,54.8l-3.2-3.7l-12.7,14.7l-6.3-7.5l-3,3.4l6.3,7.6l0,0l1.6,1.9l1.5,1.7l0,0l0.2,0.2
			L1177.1,54.8z"/>
		<path class="st5" d="M1287.7,61.8c0,10.5-8.5,19-19,19s-19-8.5-19-19s8.5-19,19-19S1287.7,51.3,1287.7,61.8"/>
		<path id="Check-9" class="st7" d="M1281.7,54.5l-3.2-3.7l-12.7,14.8l-6.3-7.5l-3,3.4l6.3,7.5l0,0l1.6,1.9l1.4,1.7l0,0l0.2,0.2
			L1281.7,54.5z"/>
	</g>
	<g id="Lag_4">
		<line class="st6" x1="448.5" y1="61.3" x2="514.7" y2="61.3"/>
		<line class="st6" x1="553.5" y1="61.3" x2="619.7" y2="61.3"/>
		<line class="st6" x1="658.5" y1="61.3" x2="724.7" y2="61.3"/>
		<line class="st6" x1="763.5" y1="61.3" x2="829.7" y2="61.3"/>
		<line class="st6" x1="868.5" y1="61.3" x2="934.7" y2="61.3"/>
		<line class="st6" x1="973.5" y1="61.3" x2="1039.7" y2="61.3"/>
		<line class="st6" x1="1078.5" y1="61.3" x2="1144.7" y2="61.3"/>
		<line class="st6" x1="1183.5" y1="61.3" x2="1249.7" y2="61.3"/>
	</g>
	
		<image style="overflow:visible;enable-background:new    ;" width="116" height="91" xlink:href="9BB74A27.jpg"  transform="matrix(0.9947 0 0 0.9947 1481.064 99.2424)">
	</image>
	
		<image style="overflow:visible;enable-background:new    ;" width="200" height="147" xlink:href="../../../../Skrivebord/4422.png"  transform="matrix(0.6385 0 0 0.6746 16.6495 12.5386)">
	</image>
</g>
<g id="Lag_3" class="st8">
	<line class="st9" x1="0" y1="449" x2="1650.2" y2="449"/>
	<line class="st9" x1="821.5" y1="43.8" x2="825.1" y2="873.6"/>
</g>
<g id="Lag_2_1_">
	<g>
		<rect x="1172.4" y="639" class="st1" width="22.2" height="6"/>
		<rect x="1206.4" y="545.8" class="st1" width="16.9" height="6"/>
		<rect x="1299.6" y="627.2" class="st1" width="22.7" height="6"/>
		<rect x="988.2" y="475.4" class="st10" width="33.4" height="6"/>
		<rect x="989.7" y="463.4" class="st10" width="53" height="6"/>
		<rect x="990.7" y="451.3" class="st10" width="70.4" height="6"/>
		<rect x="991.8" y="439.3" class="st10" width="90.4" height="6"/>
		<rect x="992.7" y="427.3" class="st10" width="102.9" height="6"/>
		<rect x="993.7" y="415.3" class="st10" width="101.1" height="6"/>
		<rect x="994.6" y="403.3" class="st10" width="99" height="6"/>
		<rect x="997.8" y="391.3" class="st10" width="91.5" height="6"/>
		<rect x="1008.5" y="379.3" class="st10" width="75" height="6"/>
		<rect x="1027.6" y="367.3" class="st1" width="32.3" height="6"/>
		<rect x="1028.6" y="356.2" class="st1" width="32.3" height="6"/>
		<rect x="1014.3" y="343.2" class="st1" width="60.1" height="6"/>
		<rect x="1006.8" y="331.2" class="st1" width="75.5" height="6"/>
		<rect x="1004.4" y="319.2" class="st1" width="79.4" height="6"/>
		<rect x="1009.1" y="307.2" class="st1" width="71.4" height="6"/>
		<rect x="1017.2" y="295.2" class="st1" width="55.6" height="6"/>
		<rect x="1032.9" y="283.2" class="st1" width="24.3" height="6"/>
		<rect x="1131.4" y="307.2" class="st1" width="32.3" height="6"/>
		<rect x="1117.1" y="294.3" class="st1" width="60.1" height="6"/>
		<rect x="1109.6" y="282.2" class="st1" width="75.5" height="6"/>
		<rect x="1107.2" y="270.2" class="st1" width="79.4" height="6"/>
		<rect x="1111.9" y="258.2" class="st1" width="71.4" height="6"/>
		<rect x="1120.1" y="246.2" class="st1" width="55.6" height="6"/>
		<rect x="1135.7" y="234.2" class="st1" width="24.3" height="6"/>
		<rect x="1233.5" y="255.2" class="st1" width="32.3" height="6"/>
		<rect x="1219.2" y="242.3" class="st1" width="60.1" height="6"/>
		<rect x="1211.7" y="230.3" class="st1" width="75.5" height="6"/>
		<rect x="1209.3" y="218.3" class="st1" width="79.4" height="6"/>
		<rect x="1214" y="206.2" class="st1" width="71.4" height="6"/>
		<rect x="1222.2" y="194.2" class="st1" width="55.6" height="6"/>
		<rect x="1237.8" y="182.2" class="st1" width="24.3" height="6"/>
		<rect x="1336.1" y="306.3" class="st1" width="32.3" height="6"/>
		<rect x="1321.9" y="293.3" class="st1" width="60.1" height="6"/>
		<rect x="1314.4" y="281.3" class="st1" width="75.5" height="6"/>
		<rect x="1312" y="269.3" class="st1" width="79.4" height="6"/>
		<rect x="1316.6" y="257.3" class="st1" width="71.4" height="6"/>
		<rect x="1324.8" y="245.3" class="st1" width="55.6" height="6"/>
		<rect x="1340.4" y="233.3" class="st1" width="24.3" height="6"/>
		<rect x="1437" y="355.7" class="st1" width="32.3" height="6"/>
		<rect x="1422.8" y="342.8" class="st1" width="60.1" height="6"/>
		<rect x="1415.3" y="330.8" class="st1" width="75.5" height="6"/>
		<rect x="1412.9" y="318.7" class="st1" width="79.4" height="6"/>
		<rect x="1417.5" y="306.7" class="st1" width="71.4" height="6"/>
		<rect x="1425.7" y="294.7" class="st1" width="55.6" height="6"/>
		<rect x="1441.3" y="282.7" class="st1" width="24.3" height="6"/>
		<rect x="1109.5" y="379.3" class="st10" width="77.2" height="6"/>
		<rect x="1100" y="367.3" class="st10" width="96.7" height="6"/>
		<rect x="1097.3" y="355.3" class="st10" width="99.1" height="6"/>
		<rect x="1100" y="343.2" class="st10" width="93.4" height="6"/>
		<rect x="1108.6" y="331.2" class="st10" width="74" height="6"/>
		<rect x="1132.2" y="319.2" class="st1" width="28.5" height="6"/>
		<rect x="1113.1" y="391.3" class="st10" width="52.5" height="6"/>
		<rect x="1115.8" y="403.3" class="st10" width="32.3" height="6"/>
		<rect x="1117.3" y="415.3" class="st10" width="10.6" height="6"/>
		<rect x="1192.6" y="487.4" class="st1" width="106.8" height="6"/>
		<rect x="1171.5" y="650.6" class="st1" width="16.3" height="6"/>
		<rect x="1126.9" y="673.1" class="st1" width="105.8" height="6"/>
		<rect x="1231.3" y="451.3" class="st1" width="30.3" height="6"/>
		<rect x="1213.2" y="463.4" class="st1" width="66.7" height="6"/>
		<rect x="1200.4" y="475.4" class="st1" width="30.3" height="6"/>
		<rect x="1188.5" y="511.4" class="st1" width="42.6" height="6"/>
		<rect x="1198.3" y="535" class="st1" width="43.3" height="6"/>
		<rect x="1235.3" y="511.4" class="st1" width="23.2" height="6"/>
		<rect x="1261.6" y="511.4" class="st1" width="20.2" height="6"/>
		<rect x="1226.9" y="557.7" class="st1" width="7" height="6"/>
		<rect x="1261.7" y="557.9" class="st1" width="7" height="6"/>
		<rect x="1285.1" y="511.4" class="st1" width="17.4" height="6"/>
		<rect x="1224.2" y="499.4" class="st1" width="78.4" height="6"/>
		<rect x="1126.9" y="684.5" class="st1" width="84.7" height="6"/>
		<rect x="1245.6" y="535" class="st1" width="46.9" height="6"/>
		<rect x="1236.6" y="557.7" class="st1" width="22" height="6"/>
		<rect x="1283.6" y="592.5" class="st1" width="24.9" height="6"/>
		<rect x="1289.4" y="603.8" class="st1" width="25.7" height="6"/>
		<rect x="1234.6" y="569" class="st1" width="27.2" height="6"/>
		<rect x="1177.9" y="615.5" class="st1" width="23.7" height="6"/>
		<rect x="1238.4" y="581.1" class="st1" width="51" height="6"/>
		<rect x="1235.3" y="475.4" class="st1" width="56" height="6"/>
		<rect x="1201.6" y="581.1" class="st1" width="39.2" height="6"/>
		<rect x="1176" y="627.3" class="st1" width="20.4" height="6"/>
		<rect x="1169.2" y="661.3" class="st1" width="18.6" height="6"/>
		<rect x="1189" y="592.8" class="st1" width="22.7" height="6"/>
		<rect x="1182.4" y="603.8" class="st1" width="24" height="6"/>
		<rect x="1193.3" y="523.1" class="st1" width="56.5" height="6"/>
		<rect x="1193.3" y="523.4" class="st1" width="56.5" height="6"/>
		<rect x="1189.4" y="499.4" class="st1" width="31.7" height="6"/>
		<rect x="1255.3" y="523.4" class="st1" width="43.8" height="6"/>
		<rect x="1268.2" y="545.8" class="st1" width="16.9" height="6"/>
		<rect x="1229.5" y="545.8" class="st1" width="35.4" height="6"/>
		<rect x="1309.1" y="650.1" class="st1" width="17.9" height="6"/>
		<rect x="1308.3" y="660.8" class="st1" width="21.4" height="6"/>
		<rect x="1306.7" y="638.9" class="st1" width="17.9" height="6.2"/>
		<rect x="1214.9" y="684.5" class="st1" width="33" height="6"/>
		<rect x="1236" y="673.1" class="st1" width="141.3" height="6"/>
		<rect x="1126.9" y="695.8" class="st1" width="141.3" height="6"/>
		<rect x="1270.5" y="695.8" class="st1" width="107" height="6"/>
		<rect x="1251" y="684.5" class="st1" width="126.4" height="6"/>
		<rect x="1294" y="615.5" class="st1" width="25.8" height="6"/>
		<rect x="987.5" y="487.4" class="st10" width="13.7" height="6"/>
		<rect x="1477" y="475.3" class="st10" width="33.4" height="6"/>
		<rect x="1455.9" y="463.3" class="st10" width="53" height="6"/>
		<rect x="1437.5" y="451.4" class="st10" width="70.4" height="6"/>
		<rect x="1416.3" y="439.4" class="st10" width="90.4" height="6"/>
		<rect x="1402.9" y="427.3" class="st10" width="102.9" height="6"/>
		<rect x="1403.7" y="415.3" class="st10" width="101.1" height="6"/>
		<rect x="1404.9" y="403.3" class="st10" width="99" height="6"/>
		<rect x="1409.2" y="391.3" class="st10" width="91.5" height="6"/>
		<rect x="1415.1" y="379.2" class="st10" width="75" height="6"/>
		<rect x="1438.6" y="367.2" class="st10" width="32.3" height="6"/>
		<rect x="1311.9" y="379.2" class="st10" width="77.2" height="6"/>
		<rect x="1301.8" y="367.2" class="st10" width="96.7" height="6"/>
		<rect x="1302.1" y="355.2" class="st10" width="99.1" height="6"/>
		<rect x="1305.1" y="343.3" class="st10" width="93.4" height="6"/>
		<rect x="1315.9" y="331.2" class="st10" width="74" height="6"/>
		<rect x="1337.8" y="319.2" class="st10" width="28.5" height="6"/>
		<rect x="1217.8" y="354.4" class="st10" width="62.3" height="6"/>
		<rect x="1217.8" y="343.3" class="st10" width="62.3" height="6"/>
		<rect x="1213.9" y="331.2" class="st10" width="70.1" height="6"/>
		<rect x="1207" y="319.2" class="st10" width="85.2" height="6"/>
		<rect x="1199" y="307.2" class="st10" width="100.2" height="6"/>
		<rect x="1200.8" y="295.2" class="st10" width="96.3" height="6"/>
		<rect x="1207.9" y="283.1" class="st10" width="80.9" height="6"/>
		<rect x="1230.3" y="271.1" class="st10" width="41.4" height="6"/>
		<rect x="1332.9" y="391.3" class="st10" width="52.5" height="6"/>
		<rect x="1350.5" y="403.3" class="st10" width="32.3" height="6"/>
		<rect x="1370.7" y="415.3" class="st10" width="10.6" height="6"/>
		<rect x="1497.4" y="487.4" class="st10" width="13.7" height="6"/>
		<g id="Layer_2">
			<rect x="1240.1" y="608.2" class="st11" width="35.3" height="5.5"/>
			<rect x="1220.8" y="625.1" class="st12" width="34.2" height="5.4"/>
			<rect x="1266.7" y="616.2" class="st13" width="19.6" height="5.5"/>
			<rect x="1250.2" y="616.2" class="st10" width="12.5" height="5.5"/>
			<rect x="1230.3" y="616.2" class="st14" width="15.9" height="5.5"/>
			<rect x="1258.8" y="625" class="st15" width="16.6" height="5.5"/>
			<rect x="1227.4" y="633.9" class="st16" width="13.9" height="5.5"/>
			<rect x="1245" y="633.9" class="st11" width="6.9" height="5.5"/>
			<rect x="1256" y="633.9" class="st17" width="25.4" height="5.5"/>
			<rect x="1274.4" y="642.1" class="st13" width="20.6" height="5.5"/>
			<rect x="1263.7" y="642.1" class="st10" width="6.8" height="5.5"/>
			<rect x="1220.8" y="642.1" class="st12" width="39" height="5.5"/>
			<rect x="1249.1" y="651" class="st14" width="28.4" height="5.5"/>
			<rect x="1200.2" y="651" class="st12" width="44.8" height="5.5"/>
			<rect x="1200.2" y="629.7" class="st12" width="6" height="26"/>
			<rect x="1226.8" y="608.2" class="st12" width="9.7" height="5.5"/>
			<polygon class="st12" points="1200.2,629.7 1200.2,627 1225.1,608.2 1227.4,608.2 1227.4,613.7 1206.3,629.7 			"/>
		</g>
	</g>
	<g id="Layer_2_1_">
		<rect x="1562.3" y="37.2" class="st11" width="36.1" height="6.2"/>
		<rect x="1542.6" y="56.1" class="st12" width="35" height="6"/>
		<rect x="1589.5" y="46.1" class="st13" width="20" height="6.2"/>
		<rect x="1572.6" y="46.1" class="st10" width="12.8" height="6.2"/>
		<rect x="1552.3" y="46.1" class="st14" width="16.2" height="6.2"/>
		<rect x="1581.5" y="56" class="st15" width="17" height="6.2"/>
		<rect x="1549.3" y="65.9" class="st16" width="14.2" height="6.2"/>
		<rect x="1567.4" y="65.9" class="st11" width="7.1" height="6.2"/>
		<rect x="1578.6" y="65.9" class="st17" width="25.9" height="6.2"/>
		<rect x="1597.4" y="75" class="st13" width="21" height="6.2"/>
		<rect x="1586.5" y="75" class="st10" width="7" height="6.2"/>
		<rect x="1542.6" y="75" class="st12" width="39.9" height="6.2"/>
		<rect x="1571.5" y="85" class="st14" width="29" height="6.2"/>
		<rect x="1521.5" y="85" class="st12" width="45.8" height="6.2"/>
		<rect x="1521.5" y="61.1" class="st12" width="6.2" height="29"/>
		<rect x="1548.8" y="37.2" class="st12" width="9.9" height="6.2"/>
		<polygon class="st12" points="1521.5,61.1 1521.5,58.2 1547,37.2 1549.3,37.2 1549.3,43.3 1527.7,61.1 		"/>
	</g>
</g>
<text transform="matrix(1 0 0 1 5.0001 127.5001)"><tspan x="0" y="0" class="st18 st19">  </tspan><tspan x="0" y="57.8" class="st18 st20">        </tspan><tspan x="95.3" y="57.8" class="st2 st3"> </tspan><tspan x="124.2" y="57.8" class="st1 st2 st3">Projekt 5 {</tspan><tspan x="0" y="81.6" class="st1 st18 st20">          </tspan><tspan x="0" y="105.4" class="st1 st18 st20 st21">				</tspan><tspan x="144" y="105.4" class="st1 st18 st20"> &lt;</tspan><tspan x="167.8" y="105.4" class="st22 st18 st20">div class</tspan><tspan x="275" y="105.4" class="st1 st18 st20">=”</tspan><tspan x="298.8" y="105.4" class="st14 st18 st20">navne</tspan><tspan x="358.3" y="105.4" class="st1 st18 st20">”&gt;&lt;</tspan><tspan x="394.1" y="105.4" class="st22 st18 st20">b</tspan><tspan x="406" y="105.4" class="st1 st18 st20">&gt;</tspan><tspan x="417.9" y="105.4" class="st1 st2 st20">Navne:</tspan><tspan x="489.3" y="105.4" class="st1 st18 st20">&lt;/</tspan><tspan x="513.1" y="105.4" class="st22 st18 st20">b</tspan><tspan x="525" y="105.4" class="st1 st18 st20">&gt; </tspan><tspan x="0" y="129.3" class="st1 st18 st20">               &lt;</tspan><tspan x="190.5" y="129.3" class="st22 st18 st20">b</tspan><tspan x="202.4" y="129.3" class="st1 st18 st20">&gt;</tspan><tspan x="214.3" y="129.3" class="st1 st2 st20">Marcus Volsted:</tspan><tspan x="392.9" y="129.3" class="st1 st18 st20">&lt;/</tspan><tspan x="416.8" y="129.3" class="st22 st18 st20">b</tspan><tspan x="428.7" y="129.3" class="st1 st18 st20">&gt;</tspan><tspan x="0" y="153.1" class="st1 st18 st20">                       marc6389@edu.ucl.dk</tspan><tspan x="0" y="200.7" class="st1 st18 st20">               &lt;</tspan><tspan x="190.5" y="200.7" class="st22 st18 st20">b</tspan><tspan x="202.4" y="200.7" class="st1 st18 st20">&gt;</tspan><tspan x="214.3" y="200.7" class="st1 st2 st20">Filip Pedersen:</tspan><tspan x="392.9" y="200.7" class="st1 st18 st20">&lt;/</tspan><tspan x="416.8" y="200.7" class="st22 st18 st20">b</tspan><tspan x="428.7" y="200.7" class="st1 st18 st20">&gt;</tspan><tspan x="0" y="224.5" class="st1 st18 st20">                       fili4193@edu.ucl.dk</tspan><tspan x="0" y="272.1" class="st1 st18 st20">               &lt;</tspan><tspan x="190.5" y="272.1" class="st22 st18 st20">b</tspan><tspan x="202.4" y="272.1" class="st1 st18 st20">&gt;</tspan><tspan x="214.3" y="272.1" class="st1 st2 st20">Oliver Zarp:</tspan><tspan x="357.2" y="272.1" class="st1 st18 st20">&lt;/</tspan><tspan x="381" y="272.1" class="st22 st18 st20">b</tspan><tspan x="392.9" y="272.1" class="st1 st18 st20">&gt;</tspan><tspan x="0" y="295.9" class="st1 st18 st20">                       oliv035p@edu.ucl.dk</tspan><tspan x="0" y="343.6" class="st1 st18 st20">               &lt;</tspan><tspan x="190.5" y="343.6" class="st22 st18 st20">b</tspan><tspan x="202.4" y="343.6" class="st1 st18 st20">&gt;</tspan><tspan x="214.3" y="343.6" class="st1 st2 st20">Thor Marcussen:</tspan><tspan x="392.9" y="343.6" class="st1 st18 st20">&lt;/</tspan><tspan x="416.8" y="343.6" class="st22 st18 st20">b</tspan><tspan x="428.7" y="343.6" class="st1 st18 st20">&gt;</tspan><tspan x="0" y="367.4" class="st1 st18 st20">                       thor7587@edu.ucl.dk</tspan><tspan x="0" y="391.2" class="st1 st18 st20">                         </tspan><tspan x="0" y="415" class="st1 st18 st20">                  &lt;</tspan><tspan x="226.2" y="415" class="st22 st18 st20">b</tspan><tspan x="238.1" y="415" class="st1 st18 st20">&gt;</tspan><tspan x="250.1" y="415" class="st1 st2 st20">Hold &amp; Gruppe:</tspan><tspan x="416.8" y="415" class="st1 st18 st20">&lt;/</tspan><tspan x="440.6" y="415" class="st22 st18 st20">b</tspan><tspan x="452.5" y="415" class="st1 st18 st20">&gt;</tspan><tspan x="0" y="438.8" class="st1 st18 st20">                        Gruppe: 23</tspan><tspan x="0" y="462.6" class="st1 st18 st20">                        Hold : 3                            </tspan><tspan x="0" y="486.4" class="st1 st18 st20">            </tspan><tspan x="0" y="510.2" class="st1 st18 st20">                </tspan><tspan x="190.5" y="510.2" class="st1 st2 st20">&lt;</tspan><tspan x="202.4" y="510.2" class="st22 st2 st20">p</tspan><tspan x="214.3" y="510.2" class="st1 st2 st20">&gt;Link Prototype&lt;/</tspan><tspan x="416.8" y="510.2" class="st22 st2 st20">p</tspan><tspan x="428.7" y="510.2" class="st1 st2 st20">&gt;</tspan><tspan x="0" y="534" class="st1 st18 st20">                    &lt;</tspan><tspan x="250.1" y="534" class="st22 st18 st20">a href</tspan><tspan x="321.5" y="534" class="st1 st18 st20">=&quot;</tspan><tspan x="345.3" y="534" class="st14 st18 st20">www.__________________</tspan><tspan x="607.3" y="534" class="st1 st18 st20">&quot;&gt;link text&lt;/</tspan><tspan x="762.1" y="534" class="st22 st18 st20">a</tspan><tspan x="774" y="534" class="st1 st18 st20">&gt;</tspan><tspan x="0" y="557.9" class="st1 st18 st20">                </tspan><tspan x="190.5" y="557.9" class="st1 st2 st20">&lt;</tspan><tspan x="202.4" y="557.9" class="st22 st2 st20">p</tspan><tspan x="214.3" y="557.9" class="st1 st2 st20">&gt;Link Youtube&lt;/</tspan><tspan x="392.9" y="557.9" class="st22 st2 st20">p</tspan><tspan x="404.9" y="557.9" class="st1 st2 st20">&gt;</tspan><tspan x="0" y="581.7" class="st1 st18 st20">                    &lt;</tspan><tspan x="250.1" y="581.7" class="st22 st18 st20">a href</tspan><tspan x="321.5" y="581.7" class="st1 st18 st20">=&quot;</tspan><tspan x="345.3" y="581.7" class="st14 st18 st20">www.__________________</tspan><tspan x="607.3" y="581.7" class="st1 st18 st20">&quot;&gt;link text&lt;/</tspan><tspan x="762.1" y="581.7" class="st22 st18 st20">a</tspan><tspan x="774" y="581.7" class="st1 st18 st20">&gt;</tspan><tspan x="0" y="605.5" class="st1 st18 st20">            </tspan><tspan x="142.9" y="605.5" class="st1 st18 st20 st23">	</tspan><tspan x="144" y="605.5" class="st1 st18 st20"> &lt;/</tspan><tspan x="179.7" y="605.5" class="st22 st18 st20">div</tspan><tspan x="215.4" y="605.5" class="st1 st18 st20">&gt; </tspan><tspan x="0" y="629.3" class="st1 st18 st20">        </tspan><tspan x="95.3" y="629.3" class="st1 st18 st20">	</tspan><tspan x="108" y="629.3" class="st1 st18 st20">  &lt;/</tspan><tspan x="155.6" y="629.3" class="st22 st18 st20">div</tspan><tspan x="191.3" y="629.3" class="st1 st18 st20">&gt;</tspan></text>
<line class="st24" x1="128.9" y1="189.8" x2="128.9" y2="757.7"/>
<line class="st24" x1="154.5" y1="221.4" x2="154.5" y2="738"/>
</svg>
