<?xml version="1.0" encoding="utf-8"?>
<!-- Generator: Adobe Illustrator 24.1.1, SVG Export Plug-In . SVG Version: 6.00 Build 0)  -->
<svg version="1.1" xmlns="http://www.w3.org/2000/svg" xmlns:xlink="http://www.w3.org/1999/xlink" x="0px" y="0px"
	 viewBox="0 0 1643 898" style="enable-background:new 0 0 1643 898;" xml:space="preserve">
<style type="text/css">
	.st0{fill:#F4F3F3;}
	.st1{fill:#404F5F;}
	.st2{font-family:'RobotoMono-Bold';}
	.st3{font-size:48.189px;}
	.st4{letter-spacing:7;}
	.st5{font-size:25.5118px;}
	.st6{letter-spacing:20;}
	.st7{fill:none;stroke:#A2A1A1;stroke-miterlimit:10;}
	.st8{fill:#A5BA75;stroke:#A5BA75;stroke-width:2;stroke-miterlimit:10;}
	.st9{fill:none;stroke:#A5BA75;stroke-width:2;stroke-miterlimit:10;}
	.st10{fill:#FFFFFF;}
	.st11{display:none;}
	.st12{display:inline;fill:#FFFFFF;stroke:#000000;stroke-width:0.25;stroke-miterlimit:10;}
	.st13{fill:#6696AC;}
	.st14{fill:#E6E6E6;}
	.st15{fill:#515F6D;}
	.st16{fill:#D36D75;}
	.st17{fill:#D8A55B;}
	.st18{fill:#A6BB75;}
	.st19{fill:#D7734B;}
	.st20{fill:#AA81AC;}
</style>
<g id="Lag_1">
	<rect x="806" y="446" class="st0" width="85" height="8"/>
	<rect x="494" y="697" class="st0" width="117" height="8"/>
	<rect x="556" y="713" class="st0" width="37" height="8"/>
	<rect x="1316.4" y="60.2" class="st0" width="117" height="8"/>
	<rect x="1378.4" y="76.2" class="st0" width="37" height="8"/>
	<rect x="1453" y="821" class="st0" width="117" height="8"/>
	<rect x="1515" y="837" class="st0" width="37" height="8"/>
	<rect x="1511.5" y="279.3" class="st0" width="117" height="8"/>
	<rect x="1560.5" y="299.3" class="st0" width="37" height="8"/>
	<rect y="825" class="st0" width="117" height="8"/>
	<rect x="62" y="841" class="st0" width="37" height="8"/>
	<rect x="22" y="508.1" class="st0" width="117" height="8"/>
	<rect x="84" y="524.1" class="st0" width="37" height="8"/>
	<rect x="369" y="303.7" class="st0" width="117" height="8"/>
	<rect x="431" y="319.7" class="st0" width="37" height="8"/>
	<rect x="540.4" y="119.5" class="st0" width="86.1" height="8"/>
	<rect x="533.2" y="104.5" class="st0" width="84" height="8"/>
	<rect x="1178.6" y="799.9" class="st0" width="220" height="8"/>
	<rect x="1290.9" y="673.6" class="st0" width="84" height="8"/>
	<rect x="797" y="477" class="st0" width="40" height="8"/>
	<rect x="851" y="477" class="st0" width="25" height="8"/>
	<rect x="821" y="461" class="st0" width="54" height="8"/>
	<rect x="992" y="859" class="st0" width="85" height="8"/>
	<rect x="983" y="890" class="st0" width="40" height="8"/>
	<rect x="1037" y="890" class="st0" width="25" height="8"/>
	<rect x="1007" y="874" class="st0" width="54" height="8"/>
	<rect x="221" y="4" class="st0" width="85" height="8"/>
	<rect x="212" y="35" class="st0" width="40" height="8"/>
	<rect x="266" y="35" class="st0" width="25" height="8"/>
	<rect x="236" y="19" class="st0" width="54" height="8"/>
	<rect x="14" y="199" class="st0" width="85" height="8"/>
	<rect x="5" y="230" class="st0" width="40" height="8"/>
	<rect x="59" y="230" class="st0" width="25" height="8"/>
	<rect x="29" y="214" class="st0" width="54" height="8"/>
	<rect x="985" y="97" class="st0" width="85" height="8"/>
	<rect x="976" y="128" class="st0" width="40" height="8"/>
	<rect x="1030" y="128" class="st0" width="25" height="8"/>
	<rect x="1000" y="112" class="st0" width="54" height="8"/>
	<text transform="matrix(1 0 0 1 121 245.2764)"><tspan x="0" y="0" class="st1 st2 st3">Projekt 5 {</tspan><tspan x="0" y="57.8" class="st1 st2 st3 st4">		</tspan><tspan x="72" y="57.8" class="st1 st2 st5">Navne: Marcus Volsted, Thor Marcussen, </tspan><tspan x="0" y="88.4" class="st1 st2 st5 st6">					</tspan><tspan x="180" y="88.4" class="st1 st2 st5">Oliver Zarp, Filip Pedersen. </tspan><tspan x="0" y="119.1" class="st1 st2 st5 st6">		</tspan><tspan x="72" y="119.1" class="st1 st2 st5"> </tspan><tspan x="0" y="149.7" class="st1 st2 st5 st6">		</tspan><tspan x="72" y="149.7" class="st1 st2 st5"> </tspan><tspan x="0" y="180.3" class="st1 st2 st5 st6">		</tspan><tspan x="72" y="180.3" class="st1 st2 st5">Link prototype: </tspan><tspan x="0" y="210.9" class="st1 st2 st5 st6">		</tspan><tspan x="72" y="210.9" class="st1 st2 st5"> </tspan><tspan x="0" y="241.5" class="st1 st2 st5 st6">		</tspan><tspan x="72" y="241.5" class="st1 st2 st5">Link til Youtubevideoer:   </tspan><tspan x="0" y="272.1" class="st1 st2 st5 st6">		</tspan><tspan x="72" y="272.1" class="st1 st2 st5"> </tspan><tspan x="0" y="302.7" class="st1 st2 st5 st6">		</tspan><tspan x="0" y="476.2" class="st1 st2 st3">}</tspan></text>
	<g id="Lag_1_1_">
		<line class="st7" x1="1183.7" y1="61.3" x2="1249.7" y2="61.3"/>
		<circle class="st8" cx="428.7" cy="61.8" r="19"/>
		<circle class="st9" cx="533.7" cy="61.8" r="19"/>
		<circle class="st9" cx="638.7" cy="61.8" r="19"/>
		<circle class="st9" cx="848.7" cy="61.8" r="19"/>
		<circle class="st9" cx="953.7" cy="61.8" r="19"/>
		<circle class="st9" cx="1058.7" cy="61.8" r="19"/>
		<circle class="st9" cx="1163.7" cy="61.8" r="19"/>
		<circle class="st9" cx="1268.7" cy="61.8" r="19"/>
		<circle class="st9" cx="743.7" cy="61.8" r="19"/>
		<path id="Check" class="st10" d="M441.7,54.5l-3.2-3.7l-12.7,14.8l-6.3-7.5l-3,3.4l6.3,7.5l0,0l1.6,1.9l1.5,1.7l0,0l0.1,0.2
			L441.7,54.5z"/>
		<path class="st8" d="M552.9,61.4c0,10.5-8.5,19-19,19s-19-8.5-19-19s8.5-19,19-19S552.9,51,552.9,61.4"/>
		<path id="Check-2" class="st10" d="M546.9,54.2l-3.2-3.8l-12.7,14.8l-6.3-7.5l-3,3.4l6.3,7.6l0,0l1.6,1.9l1.5,1.7l0,0l0.1,0.2
			L546.9,54.2"/>
		<circle class="st8" cx="638.7" cy="61.8" r="19"/>
		<path id="Check-3" class="st10" d="M651.7,54.5l-3.2-3.7l-12.7,14.8l-6.3-7.5l-3,3.4l6.3,7.5l0,0l1.6,1.9l1.5,1.7l0,0l0.1,0.2
			L651.7,54.5z"/>
		<path class="st8" d="M763.1,62c0,10.5-8.5,19-19,19s-19-8.5-19-19s8.5-19,19-19S763.1,51.5,763.1,62"/>
		<path id="Check-4" class="st10" d="M757.1,54.8l-3.2-3.8l-12.7,14.8l-6.3-7.5l-3,3.4l6.3,7.6l0,0l1.6,1.9l1.5,1.7l0,0l0.2,0.2
			L757.1,54.8z"/>
		<path class="st8" d="M867.3,61.6c0,10.5-8.5,19-19,19s-19-8.5-19-19s8.5-19,19-19S867.3,51.1,867.3,61.6"/>
		<path id="Check-5" class="st10" d="M861.3,54.4l-3.2-3.7l-12.7,14.8l-6.3-7.5l-3,3.4l6.3,7.6l0,0l1.6,1.9l1.5,1.7l0,0l0.2,0.2
			L861.3,54.4z"/>
		<path class="st8" d="M972.5,61.4c0,10.5-8.5,19-19,19s-19-8.5-19-19s8.5-19,19-19S972.5,50.9,972.5,61.4"/>
		<path id="Check-6" class="st10" d="M966.5,54.1l-3.2-3.7l-12.7,14.7l-6.3-7.5l-3,3.4l6.3,7.5l0,0l1.6,1.9l1.5,1.7l0,0l0.2,0.2
			L966.5,54.1z"/>
		<path class="st8" d="M1078,61.9c0,10.5-8.5,19-19,19s-19-8.5-19-19s8.5-19,19-19S1078,51.4,1078,61.9"/>
		<path id="Check-7" class="st10" d="M1072,54.6l-3.2-3.8l-12.7,14.8l-6.3-7.5l-3,3.4l6.3,7.6l0,0l1.5,1.9l1.4,1.7l0,0l0.2,0.2
			L1072,54.6z"/>
		<path class="st8" d="M1183.1,62.1c0,10.5-8.5,19-19,19s-19-8.5-19-19s8.5-19,19-19S1183.1,51.6,1183.1,62.1"/>
		<path id="Check-8" class="st10" d="M1177.1,54.8l-3.2-3.7l-12.7,14.7l-6.3-7.5l-3,3.4l6.3,7.6l0,0l1.6,1.9l1.5,1.7l0,0l0.2,0.2
			L1177.1,54.8z"/>
		<path class="st8" d="M1287.7,61.8c0,10.5-8.5,19-19,19s-19-8.5-19-19s8.5-19,19-19S1287.7,51.3,1287.7,61.8"/>
		<path id="Check-9" class="st10" d="M1281.7,54.5l-3.2-3.7l-12.7,14.8l-6.3-7.5l-3,3.4l6.3,7.5l0,0l1.6,1.9l1.4,1.7l0,0l0.2,0.2
			L1281.7,54.5z"/>
	</g>
	<g id="Lag_4">
		<line class="st9" x1="448.5" y1="61.3" x2="514.7" y2="61.3"/>
		<line class="st9" x1="553.5" y1="61.3" x2="619.7" y2="61.3"/>
		<line class="st9" x1="658.5" y1="61.3" x2="724.7" y2="61.3"/>
		<line class="st9" x1="763.5" y1="61.3" x2="829.7" y2="61.3"/>
		<line class="st9" x1="868.5" y1="61.3" x2="934.7" y2="61.3"/>
		<line class="st9" x1="973.5" y1="61.3" x2="1039.7" y2="61.3"/>
		<line class="st9" x1="1078.5" y1="61.3" x2="1144.7" y2="61.3"/>
		<line class="st9" x1="1183.5" y1="61.3" x2="1249.7" y2="61.3"/>
	</g>
	<image style="overflow:visible;" width="115" height="91" xlink:href="9BB74A27.jpg"  transform="matrix(1 0 0 1 1481.255 99)">
	</image>
	
		<image style="overflow:visible;" width="200" height="147" xlink:href="../../../../Skrivebord/4422.png"  transform="matrix(0.6385 0 0 0.6746 16.6495 12.5386)">
	</image>
</g>
<g id="Lag_3" class="st11">
	<line class="st12" x1="0" y1="449" x2="1650.2" y2="449"/>
	<line class="st12" x1="821.5" y1="43.8" x2="825.1" y2="873.6"/>
</g>
<g id="Lag_2">
	<g>
		<rect x="1172.4" y="639" class="st1" width="22.2" height="6"/>
		<rect x="1206.4" y="545.8" class="st1" width="16.9" height="6"/>
		<rect x="1299.6" y="627.2" class="st1" width="22.7" height="6"/>
		<rect x="988.2" y="475.4" class="st13" width="33.4" height="6"/>
		<rect x="989.7" y="463.4" class="st13" width="53" height="6"/>
		<rect x="990.7" y="451.3" class="st13" width="70.4" height="6"/>
		<rect x="991.8" y="439.3" class="st13" width="90.4" height="6"/>
		<rect x="992.7" y="427.3" class="st13" width="102.9" height="6"/>
		<rect x="993.7" y="415.3" class="st13" width="101.1" height="6"/>
		<rect x="994.6" y="403.3" class="st13" width="99" height="6"/>
		<rect x="997.8" y="391.3" class="st13" width="91.5" height="6"/>
		<rect x="1008.5" y="379.3" class="st13" width="75" height="6"/>
		<rect x="1027.6" y="367.3" class="st1" width="32.3" height="6"/>
		<rect x="1028.6" y="356.2" class="st1" width="32.3" height="6"/>
		<rect x="1014.3" y="343.2" class="st1" width="60.1" height="6"/>
		<rect x="1006.8" y="331.2" class="st1" width="75.5" height="6"/>
		<rect x="1004.4" y="319.2" class="st1" width="79.4" height="6"/>
		<rect x="1009.1" y="307.2" class="st1" width="71.4" height="6"/>
		<rect x="1017.2" y="295.2" class="st1" width="55.6" height="6"/>
		<rect x="1032.9" y="283.2" class="st1" width="24.3" height="6"/>
		<rect x="1131.4" y="307.2" class="st1" width="32.3" height="6"/>
		<rect x="1117.1" y="294.3" class="st1" width="60.1" height="6"/>
		<rect x="1109.6" y="282.2" class="st1" width="75.5" height="6"/>
		<rect x="1107.2" y="270.2" class="st1" width="79.4" height="6"/>
		<rect x="1111.9" y="258.2" class="st1" width="71.4" height="6"/>
		<rect x="1120.1" y="246.2" class="st1" width="55.6" height="6"/>
		<rect x="1135.7" y="234.2" class="st1" width="24.3" height="6"/>
		<rect x="1233.5" y="255.2" class="st1" width="32.3" height="6"/>
		<rect x="1219.2" y="242.3" class="st1" width="60.1" height="6"/>
		<rect x="1211.7" y="230.3" class="st1" width="75.5" height="6"/>
		<rect x="1209.3" y="218.3" class="st1" width="79.4" height="6"/>
		<rect x="1214" y="206.2" class="st1" width="71.4" height="6"/>
		<rect x="1222.2" y="194.2" class="st1" width="55.6" height="6"/>
		<rect x="1237.8" y="182.2" class="st1" width="24.3" height="6"/>
		<rect x="1336.1" y="306.3" class="st1" width="32.3" height="6"/>
		<rect x="1321.9" y="293.3" class="st1" width="60.1" height="6"/>
		<rect x="1314.4" y="281.3" class="st1" width="75.5" height="6"/>
		<rect x="1312" y="269.3" class="st1" width="79.4" height="6"/>
		<rect x="1316.6" y="257.3" class="st1" width="71.4" height="6"/>
		<rect x="1324.8" y="245.3" class="st1" width="55.6" height="6"/>
		<rect x="1340.4" y="233.3" class="st1" width="24.3" height="6"/>
		<rect x="1437" y="355.7" class="st1" width="32.3" height="6"/>
		<rect x="1422.8" y="342.8" class="st1" width="60.1" height="6"/>
		<rect x="1415.3" y="330.8" class="st1" width="75.5" height="6"/>
		<rect x="1412.9" y="318.7" class="st1" width="79.4" height="6"/>
		<rect x="1417.5" y="306.7" class="st1" width="71.4" height="6"/>
		<rect x="1425.7" y="294.7" class="st1" width="55.6" height="6"/>
		<rect x="1441.3" y="282.7" class="st1" width="24.3" height="6"/>
		<rect x="1109.5" y="379.3" class="st13" width="77.2" height="6"/>
		<rect x="1100" y="367.3" class="st13" width="96.7" height="6"/>
		<rect x="1097.3" y="355.3" class="st13" width="99.1" height="6"/>
		<rect x="1100" y="343.2" class="st13" width="93.4" height="6"/>
		<rect x="1108.6" y="331.2" class="st13" width="74" height="6"/>
		<rect x="1132.2" y="319.2" class="st1" width="28.5" height="6"/>
		<rect x="1113.1" y="391.3" class="st13" width="52.5" height="6"/>
		<rect x="1115.8" y="403.3" class="st13" width="32.3" height="6"/>
		<rect x="1117.3" y="415.3" class="st13" width="10.6" height="6"/>
		<rect x="1192.6" y="487.4" class="st1" width="106.8" height="6"/>
		<rect x="1171.5" y="650.6" class="st1" width="16.3" height="6"/>
		<rect x="1126.9" y="673.1" class="st1" width="105.8" height="6"/>
		<rect x="1231.3" y="451.3" class="st1" width="30.3" height="6"/>
		<rect x="1213.2" y="463.4" class="st1" width="66.7" height="6"/>
		<rect x="1200.4" y="475.4" class="st1" width="30.3" height="6"/>
		<rect x="1188.5" y="511.4" class="st1" width="42.6" height="6"/>
		<rect x="1198.3" y="535" class="st1" width="43.3" height="6"/>
		<rect x="1235.3" y="511.4" class="st1" width="23.2" height="6"/>
		<rect x="1261.6" y="511.4" class="st1" width="20.2" height="6"/>
		<rect x="1226.9" y="557.7" class="st1" width="7" height="6"/>
		<rect x="1261.7" y="557.9" class="st1" width="7" height="6"/>
		<rect x="1285.1" y="511.4" class="st1" width="17.4" height="6"/>
		<rect x="1224.2" y="499.4" class="st1" width="78.4" height="6"/>
		<rect x="1126.9" y="684.5" class="st1" width="84.7" height="6"/>
		<rect x="1245.6" y="535" class="st1" width="46.9" height="6"/>
		<rect x="1236.6" y="557.7" class="st1" width="22" height="6"/>
		<rect x="1283.6" y="592.5" class="st1" width="24.9" height="6"/>
		<rect x="1289.4" y="603.8" class="st1" width="25.7" height="6"/>
		<rect x="1234.6" y="569" class="st1" width="27.2" height="6"/>
		<rect x="1177.9" y="615.5" class="st1" width="23.7" height="6"/>
		<rect x="1238.4" y="581.1" class="st1" width="51" height="6"/>
		<rect x="1235.3" y="475.4" class="st1" width="56" height="6"/>
		<rect x="1201.6" y="581.1" class="st1" width="39.2" height="6"/>
		<rect x="1176" y="627.3" class="st1" width="20.4" height="6"/>
		<rect x="1169.2" y="661.3" class="st1" width="18.6" height="6"/>
		<rect x="1189" y="592.8" class="st1" width="22.7" height="6"/>
		<rect x="1182.4" y="603.8" class="st1" width="24" height="6"/>
		<rect x="1193.3" y="523.1" class="st1" width="56.5" height="6"/>
		<rect x="1193.3" y="523.4" class="st1" width="56.5" height="6"/>
		<rect x="1189.4" y="499.4" class="st1" width="31.7" height="6"/>
		<rect x="1255.3" y="523.4" class="st1" width="43.8" height="6"/>
		<rect x="1268.2" y="545.8" class="st1" width="16.9" height="6"/>
		<rect x="1229.5" y="545.8" class="st1" width="35.4" height="6"/>
		<rect x="1309.1" y="650.1" class="st1" width="17.9" height="6"/>
		<rect x="1308.3" y="660.8" class="st1" width="21.4" height="6"/>
		<rect x="1306.7" y="638.9" class="st1" width="17.9" height="6.2"/>
		<rect x="1214.9" y="684.5" class="st1" width="33" height="6"/>
		<rect x="1236" y="673.1" class="st1" width="141.3" height="6"/>
		<rect x="1126.9" y="695.8" class="st1" width="141.3" height="6"/>
		<rect x="1270.5" y="695.8" class="st1" width="107" height="6"/>
		<rect x="1251" y="684.5" class="st1" width="126.4" height="6"/>
		<rect x="1294" y="615.5" class="st1" width="25.8" height="6"/>
		<rect x="987.5" y="487.4" class="st13" width="13.7" height="6"/>
		
			<rect x="1476.9" y="475.4" transform="matrix(-1 4.283894e-11 -4.283894e-11 -1 2987.29 956.7306)" class="st13" width="33.4" height="6"/>
		
			<rect x="1455.8" y="463.4" transform="matrix(-1 4.276611e-11 -4.276611e-11 -1 2964.6941 932.7063)" class="st13" width="53" height="6"/>
		
			<rect x="1437.4" y="451.3" transform="matrix(-1 4.281230e-11 -4.281230e-11 -1 2945.2959 908.6819)" class="st13" width="70.4" height="6"/>
		
			<rect x="1416.3" y="439.3" transform="matrix(-1 4.280475e-11 -4.280475e-11 -1 2923.0464 884.6576)" class="st13" width="90.4" height="6"/>
		
			<rect x="1403" y="427.3" transform="matrix(-1 4.276745e-11 -4.276745e-11 -1 2908.8169 860.6332)" class="st13" width="102.9" height="6"/>
		
			<rect x="1403.7" y="415.3" transform="matrix(-1 4.278032e-11 -4.278032e-11 -1 2908.4622 836.6089)" class="st13" width="101.1" height="6"/>
		
			<rect x="1404.9" y="403.3" transform="matrix(-1 4.278121e-11 -4.278121e-11 -1 2908.8169 812.5845)" class="st13" width="99" height="6"/>
		
			<rect x="1409.2" y="391.3" transform="matrix(-1 4.278565e-11 -4.278565e-11 -1 2909.8813 788.5602)" class="st13" width="91.5" height="6"/>
		
			<rect x="1415" y="379.3" transform="matrix(-1 4.278654e-11 -4.278654e-11 -1 2905.0918 764.5358)" class="st13" width="75" height="6"/>
		
			<rect x="1438.6" y="367.3" transform="matrix(-1 4.281985e-11 -4.281985e-11 -1 2909.5266 740.5115)" class="st13" width="32.3" height="6"/>
		
			<rect x="1311.8" y="379.3" transform="matrix(-1 4.276700e-11 -4.276700e-11 -1 2700.8503 764.5358)" class="st13" width="77.2" height="6"/>
		
			<rect x="1301.9" y="367.3" transform="matrix(-1 4.280031e-11 -4.280031e-11 -1 2700.3945 740.5115)" class="st13" width="96.7" height="6"/>
		
			<rect x="1302.1" y="355.3" transform="matrix(-1 4.279720e-11 -4.279720e-11 -1 2703.28 716.4871)" class="st13" width="99.1" height="6"/>
		
			<rect x="1305.2" y="343.2" transform="matrix(-1 4.278787e-11 -4.278787e-11 -1 2703.7251 692.4628)" class="st13" width="93.4" height="6"/>
		
			<rect x="1315.9" y="331.2" transform="matrix(-1 4.278787e-11 -4.278787e-11 -1 2705.7644 668.4385)" class="st13" width="74" height="6"/>
		
			<rect x="1337.8" y="319.2" transform="matrix(-1 4.279898e-11 -4.279898e-11 -1 2704.1238 644.4141)" class="st13" width="28.5" height="6"/>
		
			<rect x="1217.8" y="354.4" transform="matrix(-1 1.956645e-11 -1.956645e-11 -1 2497.9421 714.8328)" class="st13" width="62.3" height="6"/>
		
			<rect x="1217.8" y="343.2" transform="matrix(-1 1.958110e-11 -1.958110e-11 -1 2497.9421 692.4628)" class="st13" width="62.3" height="6"/>
		
			<rect x="1213.8" y="331.2" transform="matrix(-1 1.740373e-11 -1.740373e-11 -1 2497.7681 668.4385)" class="st13" width="70.1" height="6"/>
		
			<rect x="1207" y="319.2" transform="matrix(-1 1.432664e-11 -1.432664e-11 -1 2499.1609 644.4141)" class="st13" width="85.2" height="6"/>
		
			<rect x="1199.1" y="307.2" transform="matrix(-1 1.217458e-11 -1.217458e-11 -1 2498.3352 620.3898)" class="st13" width="100.2" height="6"/>
		
			<rect x="1200.7" y="295.2" transform="matrix(-1 1.266264e-11 -1.266264e-11 -1 2497.7837 596.3654)" class="st13" width="96.3" height="6"/>
		
			<rect x="1207.9" y="283.2" transform="matrix(-1 1.509136e-11 -1.509136e-11 -1 2496.6809 572.3411)" class="st13" width="80.9" height="6"/>
		
			<rect x="1230.3" y="271.2" transform="matrix(-1 2.949007e-11 -2.949007e-11 -1 2502.0115 548.3167)" class="st13" width="41.4" height="6"/>
		
			<rect x="1332.9" y="391.3" transform="matrix(-1 4.279009e-11 -4.279009e-11 -1 2718.3027 788.5602)" class="st13" width="52.5" height="6"/>
		
			<rect x="1350.4" y="403.3" transform="matrix(-1 4.278388e-11 -4.278388e-11 -1 2733.1624 812.5845)" class="st13" width="32.3" height="6"/>
		
			<rect x="1370.6" y="415.3" transform="matrix(-1 4.279409e-11 -4.279409e-11 -1 2751.8647 836.6089)" class="st13" width="10.6" height="6"/>
		
			<rect x="1497.3" y="487.4" transform="matrix(-1 4.280253e-11 -4.280253e-11 -1 3008.3994 980.7549)" class="st13" width="13.7" height="6"/>
		<g id="Layer_2">
			<rect x="1240.1" y="608.2" class="st14" width="35.3" height="5.5"/>
			<rect x="1220.8" y="625.1" class="st15" width="34.2" height="5.4"/>
			<rect x="1266.7" y="616.2" class="st16" width="19.6" height="5.5"/>
			<rect x="1250.2" y="616.2" class="st13" width="12.5" height="5.5"/>
			<rect x="1230.3" y="616.2" class="st17" width="15.9" height="5.5"/>
			<rect x="1258.8" y="625" class="st18" width="16.6" height="5.5"/>
			<rect x="1227.4" y="633.9" class="st19" width="13.9" height="5.5"/>
			<rect x="1245" y="633.9" class="st14" width="6.9" height="5.5"/>
			<rect x="1256" y="633.9" class="st20" width="25.4" height="5.5"/>
			<rect x="1274.4" y="642.1" class="st16" width="20.6" height="5.5"/>
			<rect x="1263.7" y="642.1" class="st13" width="6.8" height="5.5"/>
			<rect x="1220.8" y="642.1" class="st15" width="39" height="5.5"/>
			<rect x="1249.1" y="651" class="st17" width="28.4" height="5.5"/>
			<rect x="1200.2" y="651" class="st15" width="44.8" height="5.5"/>
			<rect x="1200.2" y="629.7" class="st15" width="6" height="26"/>
			<rect x="1226.8" y="608.2" class="st15" width="9.7" height="5.5"/>
			<polygon class="st15" points="1200.2,629.7 1200.2,627 1225.1,608.2 1227.4,608.2 1227.4,613.7 1206.3,629.7 			"/>
		</g>
	</g>
	<g id="Layer_2_1_">
		<rect x="1562.3" y="37.2" class="st14" width="36.1" height="6.2"/>
		<rect x="1542.6" y="56.1" class="st15" width="35" height="6"/>
		<rect x="1589.5" y="46.1" class="st16" width="20" height="6.2"/>
		<rect x="1572.6" y="46.1" class="st13" width="12.8" height="6.2"/>
		<rect x="1552.3" y="46.1" class="st17" width="16.2" height="6.2"/>
		<rect x="1581.5" y="56" class="st18" width="17" height="6.2"/>
		<rect x="1549.3" y="65.9" class="st19" width="14.2" height="6.2"/>
		<rect x="1567.4" y="65.9" class="st14" width="7.1" height="6.2"/>
		<rect x="1578.6" y="65.9" class="st20" width="25.9" height="6.2"/>
		<rect x="1597.4" y="75" class="st16" width="21" height="6.2"/>
		<rect x="1586.5" y="75" class="st13" width="7" height="6.2"/>
		<rect x="1542.6" y="75" class="st15" width="39.9" height="6.2"/>
		<rect x="1571.5" y="85" class="st17" width="29" height="6.2"/>
		<rect x="1521.5" y="85" class="st15" width="45.8" height="6.2"/>
		<rect x="1521.5" y="61.1" class="st15" width="6.2" height="29"/>
		<rect x="1548.8" y="37.2" class="st15" width="9.9" height="6.2"/>
		<polygon class="st15" points="1521.5,61.1 1521.5,58.2 1547,37.2 1549.3,37.2 1549.3,43.3 1527.7,61.1 		"/>
	</g>
</g>
</svg>
