<?xml version="1.0" encoding="utf-8"?>
<!-- Generator: Adobe Illustrator 24.1.1, SVG Export Plug-In . SVG Version: 6.00 Build 0)  -->
<svg version="1.1" id="Layer_1" xmlns="http://www.w3.org/2000/svg" xmlns:xlink="http://www.w3.org/1999/xlink" x="0px" y="0px"
	 viewBox="0 0 16 16" style="enable-background:new 0 0 16 16;" xml:space="preserve">
<style type="text/css">
	.st0{fill:#E6E6E6;}
	.st1{fill:#515F6D;}
	.st2{fill:#D36D75;}
	.st3{fill:#6696AC;}
	.st4{fill:#D8A55B;}
	.st5{fill:#A6BB75;}
	.st6{fill:#D7734B;}
	.st7{fill:#AA81AC;}
</style>
<g>
	<rect x="6.79" y="3.52" class="st0" width="5.93" height="1.01"/>
	<rect x="3.55" y="6.61" class="st1" width="5.74" height="0.98"/>
	<rect x="11.26" y="4.98" class="st2" width="3.28" height="1.01"/>
	<rect x="8.48" y="4.98" class="st3" width="2.1" height="1.01"/>
	<rect x="5.14" y="4.98" class="st4" width="2.66" height="1.01"/>
	<rect x="9.93" y="6.6" class="st5" width="2.79" height="1.01"/>
	<rect x="4.65" y="8.23" class="st6" width="2.33" height="1.01"/>
	<rect x="7.62" y="8.23" class="st0" width="1.16" height="1.01"/>
	<rect x="9.45" y="8.23" class="st7" width="4.26" height="1.01"/>
	<rect x="12.55" y="9.73" class="st2" width="3.45" height="1.01"/>
	<rect x="10.75" y="9.73" class="st3" width="1.14" height="1.01"/>
	<rect x="3.55" y="9.73" class="st1" width="6.55" height="1.01"/>
	<rect x="8.29" y="11.36" class="st4" width="4.76" height="1.01"/>
	<rect x="0.1" y="11.36" class="st1" width="7.52" height="1.01"/>
	
		<rect x="-1.77" y="9.32" transform="matrix(6.123234e-17 -1 1 6.123234e-17 -9.2252 10.4294)" class="st1" width="4.75" height="1.01"/>
	<rect x="4.56" y="3.52" class="st1" width="1.63" height="1.01"/>
	<polygon class="st1" points="0.1,7.45 0.1,6.97 4.28,3.52 4.65,3.52 4.65,4.53 1.11,7.45 	"/>
</g>
</svg>
